<?xml version="1.0" standalone="no"?>
<!DOCTYPE svg PUBLIC "-//W3C//DTD SVG 1.1//EN" "http://www.w3.org/Graphics/SVG/1.1/DTD/svg11.dtd" >
<svg xmlns="http://www.w3.org/2000/svg" xmlns:xlink="http://www.w3.org/1999/xlink" version="1.1">
<metadata>
Created by FontForge 20170731 at Thu Sep 10 14:39:11 2020
 By Aleksey,,,
Nathanos (c) Rometheme
</metadata>
<defs>
<font id="Nathanos" horiz-adv-x="1082" >
  <font-face 
    font-family="Nathanos"
    font-weight="400"
    font-stretch="normal"
    units-per-em="2048"
    panose-1="2 0 5 0 0 0 0 0 0 0"
    ascent="1638"
    descent="-410"
    x-height="1434"
    cap-height="1435"
    bbox="-684 -246 2078 1740"
    underline-thickness="150"
    underline-position="-367"
    unicode-range="U+001D-2248"
  />
<missing-glyph horiz-adv-x="0" 
 />
    <glyph glyph-name=".notdef" horiz-adv-x="0" 
 />
    <glyph glyph-name=".notdef" horiz-adv-x="0" 
 />
    <glyph glyph-name=".null" horiz-adv-x="0" 
 />
    <glyph glyph-name="nonmarkingreturn" horiz-adv-x="508" 
 />
    <glyph glyph-name="space" unicode=" " horiz-adv-x="508" 
 />
    <glyph glyph-name="space" unicode="&#xa0;" horiz-adv-x="508" 
 />
    <glyph glyph-name="exclam" unicode="!" horiz-adv-x="388" 
d="M235 360q-1 25 -6 164q-2 48 -5.5 153.5t-5.5 159.5q-7 173 -12 319q-4 140 -6 178v6q0 39 28 67q27 27 66 27q38 0 67 -27q27 -29 27 -67v-6q-2 -36 -6 -174q-2 -53 -6 -164t-5 -148q-8 -175 -12 -313q-4 -137 -6 -175q-5 -54 -31 -70q-28 -18 -55 0q-27 16 -32 70z
M294 189q39 0 67 -28q27 -29 27 -67q0 -39 -27 -66q-28 -28 -67 -28t-66 28q-28 27 -28 66t28 67q27 28 66 28z" />
    <glyph glyph-name="quotedbl" unicode="&#x22;" horiz-adv-x="412" 
d="M244 1552q17 0 32 -5q13 -6 13 -14q-1 -9 -2 -28q-3 -29 -6 -66q-4 -55 -5 -67q-3 -36 -4 -39q-2 -11 -14 -14q-13 -4 -26 0q-14 3 -16 14q0 1 -0.5 5.5t-1 13t-0.5 17.5q-3 28 -6 68q-4 37 -6 67l-2 29q0 8 13 14q15 5 31 5zM368 1552q16 0 31 -5q13 -6 13 -14
q-1 -9 -2 -28q-1 -10 -5 -66q-5 -38 -6 -67q-3 -32 -3 -39q-2 -11 -15 -14q-13 -4 -26 0q-13 3 -15 14q-2 5 -3 36q-3 28 -6 68q-4 54 -5 67l-3 29q0 8 13 14q15 5 32 5z" />
    <glyph glyph-name="numbersign" unicode="#" horiz-adv-x="1675" 
d="M1026 408l359 620h-536l-359 -620h536zM1675 1434l-208 -359h192v-47h-219l-360 -620h214v-48h-241l-209 -360h-53l208 360h-536l-209 -360h-54l209 360h-173v48h200l359 620h-194v47h221l208 359h55l-208 -359h536l207 359h55z" />
    <glyph glyph-name="dollar" unicode="$" horiz-adv-x="1147" 
d="M388 1129q0 -62 56 -120q54 -57 142 -114v484q-76 -19 -121 -64q-43 -43 -60 -95q-17 -54 -17 -91zM711 818v569q-13 1 -38 1t-37 -1v-524zM957 293q0 69 -55 128q-57 60 -141 116v-482q79 20 121 62q42 40 59 92q16 48 16 84zM673 45q14 0 38 2v522q-6 3 -33 20.5
t-42 26.5v-569q24 -2 37 -2zM1100 1386h47v-320h-2v-2h-52q0 117 -93 204q-95 88 -239 113v-593q73 -44 141 -90q70 -48 123 -97q54 -50 88 -108q32 -59 32 -123q0 -90 -50 -167q-51 -77 -137 -128q-85 -52 -197 -69v-107h-50v102q-13 -1 -38 -1t-37 1v-102h-50v107
q-205 35 -314 168q-10 -22 -17 -51q-8 -34 -8 -73h-47v320h53q0 -117 94 -204q95 -89 239 -114v594q-74 44 -141 90q-69 47 -124 97q-54 50 -88 108q-33 57 -33 123q0 90 51 167t138 129q86 52 197 68v106h50v-101q12 1 37 1t38 -1v101h50v-107q203 -34 313 -168
q10 19 18 52q8 34 8 75z" />
    <glyph glyph-name="percent" unicode="%" horiz-adv-x="1084" 
d="M410 1370q-59 0 -99 -73q-41 -74 -41 -176t41 -175q40 -73 99 -73h2q59 0 99 73q41 73 41 175t-41 176q-40 73 -99 73h-2zM874 65q59 0 99 73q41 73 41 175t-41 176q-41 72 -99 72h-2q-58 0 -99 -72q-41 -74 -41 -176t41 -175q40 -73 99 -73h2zM410 856q-86 0 -148 78
q-62 77 -62 187q0 109 62 188q61 78 148 78h2q88 0 149 -78q61 -77 61 -188t-61 -187q-61 -78 -149 -78h-2zM1030 1434h54l-830 -1434h-54zM874 579q88 0 149 -78q61 -77 61 -188t-61 -187q-61 -78 -149 -78h-2q-86 0 -148 78q-62 77 -62 187q0 109 62 188q62 78 148 78h2z
" />
    <glyph glyph-name="ampersand" unicode="&#x26;" horiz-adv-x="1560" 
d="M949 118q79 33 126 88l-22 27l-517 638q-115 0 -175 -84q-59 -83 -59 -198q0 -90 34 -177q34 -88 99 -160q71 -81 160 -123q90 -43 189 -43q84 0 165 32zM1560 45v-47h-80v-1h-236l-136 168q-65 -71 -167 -117q-105 -48 -235 -48q-223 0 -364 147q-142 145 -142 375
q0 155 74 259q74 103 219 147q-42 63 -61 113q-20 55 -20 108q0 64 30 124q17 40 48 71q10 13 21 19q85 69 208 69q97 0 173 -45q75 -45 104 -116q13 35 13 94h47v-160h-94q0 81 -68 128q-69 45 -175 45q-72 0 -109 -22q-39 -24 -52 -53q-14 -33 -14 -58q0 -33 9 -70
q9 -38 48 -92l33 -41q2 -2 5.5 -6t4.5 -5l540 -667q32 85 26 165q-8 79 -57 144l41 33l2 -2l1 1l200 -250l-37 -29q-58 67 -99 83q0 -92 -44 -186l193 -239q17 -12 53 -25q39 -14 97 -14z" />
    <glyph glyph-name="quotesingle" unicode="'" horiz-adv-x="290" 
d="M245 1558q17 0 32 -5q13 -6 13 -14v-2l-2 -26q-3 -29 -6 -66q-4 -55 -5 -67q-3 -36 -4 -39q-2 -11 -15 -14q-13 -4 -26 0q-13 3 -15 14q0 5 -3 36q-3 28 -6 68q-4 54 -5 67h-1l-2 27v2q0 8 13 14q15 5 32 5z" />
    <glyph glyph-name="parenleft" unicode="(" horiz-adv-x="500" 
d="M571 1478v52h-3q-158 0 -286 -109t-205 -294q-77 -186 -77 -408t77 -408q76 -184 205 -293q130 -110 286 -110h3v52h-3q-105 0 -190 103q-87 103 -137 274q-52 171 -52 382t52 382q50 170 137 275q86 102 190 102h3z" />
    <glyph glyph-name="parenright" unicode=")" horiz-adv-x="570" 
d="M-101 1478h3q104 0 190 -102q87 -105 137 -275q51 -173 51 -382t-51 -382q-50 -171 -137 -274q-85 -103 -190 -103h-3v-52h3q156 0 286 110q130 111 206 293q76 183 76 408t-76 408q-76 184 -206 294q-128 109 -286 109h-3v-52z" />
    <glyph glyph-name="asterisk" unicode="*" horiz-adv-x="845" 
d="M845 1192v-47h-281l141 -243h-55l-127 220l-128 -220h-54l141 243h-282v47h282l-141 244h54l128 -220l127 220h55l-141 -244h281z" />
    <glyph glyph-name="plus" unicode="+" horiz-adv-x="913" 
d="M913 795v-152h-281v-280h-151v280h-281v152h281v281h151v-281h281z" />
    <glyph glyph-name="comma" unicode="," horiz-adv-x="389" 
d="M389 92q-2 -129 -79 -230l-32 24q44 57 60 124q-20 -11 -43 -11q-39 0 -67 28q-28 27 -28 66t28 67q28 27 67 27t66 -27t28 -67v-1z" />
    <glyph glyph-name="hyphen" unicode="-" horiz-adv-x="914" 
d="M200 644h714v152h-714v-152z" />
    <glyph glyph-name="hyphen" unicode="&#xad;" horiz-adv-x="914" 
d="M200 644h714v152h-714v-152z" />
    <glyph glyph-name="period" unicode="." horiz-adv-x="389" 
d="M389 94q0 39 -28 67q-29 27 -67 27q-39 0 -66 -27q-28 -28 -28 -67t28 -66q27 -28 66 -28t67 28q28 27 28 66z" />
    <glyph glyph-name="slash" unicode="/" horiz-adv-x="997" 
d="M795 1536h202l-595 -1635h-202z" />
    <glyph glyph-name="zero" unicode="0" horiz-adv-x="1142" 
d="M574 46q105 0 190 91q86 91 137 243q51 151 51 337q0 185 -51 338q-51 151 -137 243q-85 90 -190 90h-6q-104 0 -190 -90q-86 -92 -137 -243q-51 -153 -51 -338t51 -337t137 -243q85 -91 190 -91h6zM574 1434q158 0 286 -97q129 -99 205 -259q77 -165 77 -361
q0 -197 -77 -360q-75 -161 -205 -260q-128 -97 -286 -97h-6q-158 0 -285 97q-130 99 -206 260q-77 163 -77 360q0 196 77 361q76 161 206 259q127 97 285 97h6z" />
    <glyph glyph-name="one" unicode="1" horiz-adv-x="699" 
d="M544 90q8 -8 50 -26q39 -17 105 -17v-47h-499v47q66 0 106 17q41 18 49 26v1225l-155 -56v50l344 125v-1344z" />
    <glyph glyph-name="two" unicode="2" horiz-adv-x="1046" 
d="M856 49q10 10 27 50q16 36 16 105h47v-202h-757l-189 -2v372q0 70 37 131q37 60 99 114q63 54 136 102q49 32 151 94q86 51 164 103q74 49 124 104q47 53 47 112q0 33 -12 78q-15 47 -44 85q-33 42 -86 68q-56 27 -143 27q-144 0 -254 -65q-109 -66 -150 -170
q17 -10 53 -21t86 -11v-47h-208q5 101 69 182q62 80 170 130q107 48 234 48q129 0 238 -50q106 -49 171 -134q64 -83 64 -186q0 -70 -36 -128q-35 -58 -95 -112q-64 -56 -133 -101q-83 -54 -149 -93q-83 -50 -168 -107q-75 -50 -127 -109q-50 -58 -50 -121q0 -25 1 -54v-98
v-94h667z" />
    <glyph glyph-name="three" unicode="3" horiz-adv-x="972" 
d="M628 717q110 -41 177 -133q67 -94 67 -214q0 -149 -100 -253q-100 -105 -249 -117h-523v203h47q0 -66 17 -105q17 -41 26 -51h300q127 15 211 106q83 91 83 216q0 133 -95 230q-95 96 -229 96h-99v48h129q127 13 211 105q83 91 83 217q0 130 -89 222t-221 101h-284
q-8 -9 -26 -50q-17 -40 -17 -106h-47v203h523q149 -12 249 -117q100 -104 100 -253q0 -121 -67 -213q-67 -94 -177 -135z" />
    <glyph glyph-name="four" unicode="4" horiz-adv-x="1067" 
d="M91 408h532v758zM920 563h47v-202h-156v-271q8 -8 50 -26q40 -17 106 -17v-47h-500v47q66 0 106 17q41 18 50 26v271h-623l753 1074h58v-1027h66q10 10 27 50q16 36 16 105z" />
    <glyph glyph-name="five" unicode="5" horiz-adv-x="972" 
d="M0 1435h872v-203h-47q0 68 -16 106q-17 39 -27 50h-593v-490h333v-1q148 -14 245 -138q97 -125 105 -309v-2q-7 -183 -105 -308q-98 -126 -245 -139v-1h-522v215h47q0 -66 17 -106q18 -42 26 -50h300q123 18 206 126q81 107 87 264q-6 157 -87 265q-83 107 -206 125h-390
v596z" />
    <glyph glyph-name="six" unicode="6" horiz-adv-x="1172" 
d="M564 982q-104 0 -183 -63q-80 -64 -127 -171q-46 -107 -46 -240q0 -135 49 -237q48 -105 132 -165q83 -60 186 -60t186 62q81 60 130 169q48 106 48 239q0 130 -50 238q-52 106 -136 167q-85 61 -189 61zM1072 516q0 -185 -111 -326q-11 -13 -35 -37q-90 -93 -212 -131
q-63 -20 -133 -22h-27q-157 8 -280 104q-126 97 -199 257q-75 161 -75 355v4q2 201 78 361t205 257q127 96 285 96h5q99 0 187 -39q88 -41 162 -111q8 17 16 50q7 28 7 70h47v-321h-47q0 51 -11 87q-9 30 -22 54q-10 17 -14 19q-69 69 -150 106q-84 38 -175 38h-19
q-133 -14 -227 -154q-97 -142 -128 -360q70 73 164 115q96 41 201 41q140 0 256 -69q114 -68 184 -185q68 -118 68 -259z" />
    <glyph glyph-name="seven" unicode="7" horiz-adv-x="1236" 
d="M0 1435h1136l-919 -1435h-217l887 1388h-798q-8 -9 -26 -50q-16 -38 -16 -106h-47v203z" />
    <glyph glyph-name="eight" unicode="8" horiz-adv-x="1099" 
d="M192 1064q0 -133 90 -226q90 -94 216 -94q127 0 217 94q89 94 89 226q0 131 -89 226q-90 94 -217 94q-126 0 -216 -94t-90 -226zM499 51q127 0 217 94q90 95 90 227q0 134 -88 225q-89 92 -218 96h-1q-129 -4 -218 -96q-88 -91 -88 -225q0 -132 90 -227q88 -94 216 -94z
M678 717q144 -42 232 -135q89 -94 89 -211q0 -103 -67 -186q-67 -85 -181 -135q-115 -50 -252 -50t-251 50q-113 49 -181 135q-67 83 -67 186q0 117 89 211q89 93 231 135q-142 42 -231 135q-89 94 -89 211q0 103 67 186q68 85 181 134q114 50 250 50q137 0 252 -50
q112 -49 180 -134q67 -83 67 -186q0 -119 -88 -211q-89 -93 -231 -135z" />
    <glyph glyph-name="nine" unicode="9" horiz-adv-x="1172" 
d="M508 452q104 0 184 64q80 63 126 171q46 105 46 239q0 133 -48 238q-50 104 -132 164q-84 60 -187 60t-186 -62q-82 -61 -130 -168q-48 -106 -48 -240q0 -132 51 -237q49 -105 135 -167t189 -62zM0 918q0 185 111 326q11 13 35 37q90 93 212 131q63 20 133 22h27
q157 -8 281 -103q124 -97 199 -257q74 -162 74 -356v-4q-2 -200 -78 -360q-77 -161 -204 -257q-128 -97 -286 -97h-5q-100 0 -187 40q-88 39 -162 110q-8 -17 -16 -50q-7 -28 -7 -70h-47v321h47q0 -51 11 -87q10 -32 22 -53q10 -18 14 -20q69 -69 150 -106q84 -38 175 -38
h19q132 14 228 154q96 143 127 360q-71 -74 -164 -114q-95 -42 -201 -42q-140 0 -256 69t-183 186q-69 116 -69 258z" />
    <glyph glyph-name="colon" unicode=":" horiz-adv-x="389" 
d="M294 451q-39 0 -66 28q-28 27 -28 66t28 67q27 27 66 27q38 0 67 -27q28 -28 28 -67t-28 -66q-28 -28 -67 -28zM294 188q38 0 67 -27q28 -28 28 -67t-28 -66q-28 -28 -67 -28t-66 28q-28 27 -28 66t28 67q27 27 66 27z" />
    <glyph glyph-name="semicolon" unicode=";" horiz-adv-x="388" 
d="M294 451q-39 0 -66 28q-28 27 -28 66t28 67q27 27 66 27q38 0 67 -27q27 -28 27 -67t-27 -66q-28 -28 -67 -28zM388 94v-1q-2 -129 -79 -230l-32 24q45 59 61 124q-20 -11 -44 -11q-39 0 -66 28q-28 27 -28 66t28 67q27 27 66 27t66 -27q26 -27 28 -67z" />
    <glyph glyph-name="semicolon" unicode="&#x37e;" horiz-adv-x="388" 
d="M294 451q-39 0 -66 28q-28 27 -28 66t28 67q27 27 66 27q38 0 67 -27q27 -28 27 -67t-27 -66q-28 -28 -67 -28zM388 94v-1q-2 -129 -79 -230l-32 24q45 59 61 124q-20 -11 -44 -11q-39 0 -66 28q-28 27 -28 66t28 67q27 27 66 27t66 -27q26 -27 28 -67z" />
    <glyph glyph-name="less" unicode="&#x3c;" horiz-adv-x="768" 
d="M768 1073v-58l-518 -299l518 -300v-58l-568 329v58l1 -1z" />
    <glyph glyph-name="equal" unicode="=" horiz-adv-x="914" 
d="M200 792h714v152h-714v-152zM200 487h714v152h-714v-152z" />
    <glyph glyph-name="greater" unicode="&#x3e;" horiz-adv-x="768" 
d="M200 1073l567 -329l1 1v-58l-568 -329v58l518 300l-518 299v58z" />
    <glyph glyph-name="question" unicode="?" horiz-adv-x="1145" 
d="M672 1435q133 0 238 -49q106 -49 171 -134q64 -83 64 -186q0 -71 -37 -126q-39 -59 -98 -104q-60 -47 -137 -90q-83 -47 -154 -80q-136 -66 -232 -131q-101 -68 -122 -152q-1 -3 -1 -22q-1 -11 -1 -34v-21q0 -13 -14 -18q-16 -6 -29 -2q-14 5 -14 22v13v23v23q0 11 1 12
q8 90 61 164q54 75 135 141q78 63 166 125q77 53 141 105q67 53 106 105q41 53 41 112q0 35 -12 78q-13 46 -43 85q-32 40 -87 69q-56 27 -143 27q-144 0 -253 -66q-111 -67 -151 -170q20 -10 54 -21q36 -11 85 -11v-47h-207q5 101 69 182q63 81 169 130q106 48 234 48z
M327 189q39 0 67 -28q27 -29 27 -67q0 -39 -27 -66q-28 -28 -67 -28t-66 28q-28 27 -28 66t28 67q27 28 66 28z" />
    <glyph glyph-name="at" unicode="@" horiz-adv-x="1594" 
d="M1041 909q6 45 -32 81t-98 34q-59 -3 -116 -72q-59 -71 -90 -235q-26 -166 7 -234q33 -71 91 -72q58 -3 109 33q52 36 62 81q1 11 12 67q11 66 22 125q19 108 22 125q2 15 5 31t4.5 24.5t1.5 11.5zM913 40q179 1 331 87q151 85 245 239l34 -21q-96 -157 -255 -250
q-162 -93 -355 -95h-1q-197 1 -358 98q-161 95 -257 257q-97 160 -97 358q0 196 96 358q97 162 256 256q161 95 358 99q146 0 278 -53q127 -52 226 -154q88 -93 134 -202q46 -111 46 -227q0 -174 -113 -295q-126 -126 -347 -127v-4h-189l15 83q-27 -29 -53 -41
q-32 -15 -52 -19q-28 -5 -40 -5q-5 -1 -12 -1h-4q-135 7 -210 101q-75 93 -58 230v3q0 1 1 2v5h1q32 138 139 230t245 101h16q16 -2 38 -6q21 -6 45 -20q21 -13 39 -40l15 83h188l-117 -662q202 5 312 115q101 107 101 267q0 143 -77 280q-78 136 -221 225q-143 86 -343 91
q-186 0 -338 -91q-153 -91 -244 -244q-91 -152 -91 -338q0 -187 91 -338q91 -153 243 -243q152 -91 339 -92z" />
    <glyph glyph-name="A" unicode="A" horiz-adv-x="1489" 
d="M316 384h607l-304 833zM1230 92q2 -2 24 -14q21 -11 53 -21q31 -10 82 -10v-47l-478 1v47q41 0 75 8q27 6 50 17l-96 264h-641v1l-98 -268q19 -9 50 -15q28 -7 69 -7v-47l-320 -1v47q51 0 87 11q28 8 53 22q18 11 20 14l489 1341h250v-48q-44 0 -78 -8q-36 -10 -53 -19z
" />
    <glyph glyph-name="B" unicode="B" horiz-adv-x="1236" 
d="M647 1387h-303v-645h303q129 12 215 104q85 91 85 219q0 129 -85 220t-215 102zM624 47q135 0 229 94t94 228q0 130 -87 223q-86 92 -218 103h-298v-648h280zM891 717q110 -41 177 -133q68 -95 68 -214q0 -101 -50 -186q-50 -84 -134 -134q-85 -50 -186 -50h-766v47
q66 0 106 17q41 18 50 26v1255q-9 8 -50 26q-38 16 -106 16v48h766q101 0 186 -50q84 -50 134 -134q50 -85 50 -186q0 -119 -68 -213t-177 -135z" />
    <glyph glyph-name="C" unicode="C" horiz-adv-x="1092" 
d="M945 1404h47v-321h-47q0 52 -11 88q-8 28 -22 53q-8 14 -13 19q-68 69 -151 107q-81 37 -175 37h-19q-101 -9 -184 -99q-83 -92 -131 -240q-49 -148 -49 -331q0 -181 48 -329t129 -240q80 -90 182 -101q8 -1 24 -1q91 0 175 38q83 37 151 106q5 5 14 22q12 21 22 53
q10 33 10 85h47v-321h-47q0 42 -7 70q-8 33 -16 50q-74 -71 -162 -110t-187 -39h-5q-158 0 -285 97q-130 97 -206 259q-77 165 -77 361v4q3 201 79 360q76 160 205 257q127 96 284 96h5q99 0 187 -39q90 -41 162 -110q8 18 16 49q7 28 7 70z" />
    <glyph glyph-name="D" unicode="D" horiz-adv-x="1231" 
d="M573 47q103 7 187 97q84 92 133 241q49 148 49 333q0 183 -49 333q-49 148 -133 240q-84 90 -187 96h-229v-1340h229zM1131 718q0 -196 -75 -358t-201 -258t-282 -102l-573 1v47q66 0 106 17q41 18 50 26v1254q-9 8 -50 26q-38 16 -106 16v48h573q156 -6 282 -102
t201 -257q75 -162 75 -358z" />
    <glyph glyph-name="E" unicode="E" 
d="M0 1435h982v-207h-47q0 50 -11 86q-10 32 -22 53q-10 17 -13 20h-545v-645h396q11 21 21 53q10 33 10 84h47v-320h-47q0 51 -10 84t-21 52h-396v-648h545q0 1 2 3.5t5 7.5l6 10q12 21 22 53q11 36 11 86h47v-207h-982v47q66 0 106 17q41 18 49 26v1255q-8 8 -49 26
q-38 16 -106 16v48z" />
    <glyph glyph-name="F" unicode="F" 
d="M0 1435h982v-207h-47q0 53 -10 86q-10 32 -22 53q-11 18 -14 20h-545v-645h397q11 21 21 53q10 33 10 84h47v-320h-47q0 51 -10 84t-21 52h-397v-605q10 -9 51 -26q39 -17 105 -17v-47h-500v47q66 0 106 17q42 18 50 26v1255q-8 8 -50 26q-38 16 -106 16v48z" />
    <glyph glyph-name="G" unicode="G" horiz-adv-x="1310" 
d="M1210 671q-69 0 -105 -16q-40 -17 -50 -27v-298q-11 -22 -46 -78q-33 -50 -66 -81q-75 -81 -170 -126t-201 -45h-4q-158 0 -286 97q-129 96 -205 259q-77 165 -77 361v4q2 199 78 360q76 160 205 257q127 96 285 96h4q100 0 188 -39q89 -41 161 -110q8 18 16 49
q7 28 7 70h47v-321h-47q0 52 -11 88q-9 28 -22 53q-8 14 -13 19q-68 69 -151 107q-81 37 -175 37h-19q-101 -9 -184 -99q-81 -90 -131 -240q-49 -148 -49 -331q0 -181 48 -329q48 -149 130 -240q80 -90 182 -101q7 -1 23 -1q164 0 294 115v467q-10 10 -49 27q-38 16 -106 16
v47h499v-47z" />
    <glyph glyph-name="H" unicode="H" horiz-adv-x="1398" 
d="M1298 1387q-70 0 -106 -16q-42 -18 -50 -26v-1255q8 -8 50 -26q39 -17 106 -17v-47h-500v47q66 0 106 17q41 18 50 26v607h-610v-607q8 -8 50 -26q39 -17 105 -17v-47h-499v47q66 0 106 17q41 18 49 26v1255q-8 8 -49 26q-38 16 -106 16v48h499v-48q-69 0 -105 -16
q-42 -18 -50 -26v-601h610v601q-9 8 -50 26q-38 16 -106 16v48h500v-48z" />
    <glyph glyph-name="I" unicode="I" horiz-adv-x="599" 
d="M499 1387q-69 0 -105 -16q-42 -18 -50 -26v-1255q8 -8 50 -26q39 -17 105 -17v-47h-499v47q66 0 106 17q41 18 49 26v1255q-8 8 -49 26q-38 16 -106 16v48h499v-48z" />
    <glyph glyph-name="J" unicode="J" horiz-adv-x="1080" 
d="M481 1433h499v-48q-69 0 -105 -16q-42 -18 -50 -26v-1168q-9 -76 -127 -125q-120 -50 -286 -50q-168 0 -291 53q-121 52 -121 127q0 24 29 44q30 20 65 33q31 12 65 17q28 4 28 -4q0 -93 66 -159t159 -66q88 0 153 60q63 59 71 149v1089q-8 8 -49 26q-38 16 -106 16v48z
" />
    <glyph glyph-name="K" unicode="K" horiz-adv-x="1392" 
d="M1292 48v-47l-336 -1l-612 613v-523q8 -8 50 -26q39 -17 105 -17v-47h-499v47q66 0 106 17q41 18 49 26v1255q-8 8 -49 26q-38 16 -106 16v48h499v-48q-69 0 -105 -16q-42 -18 -50 -26v-581l599 600q-17 8 -50 16q-28 7 -71 7v47h321v-47q-57 0 -91 -12q-34 -11 -54 -23
l-563 -564l697 -694q3 -3 20 -13q21 -12 53 -22q36 -11 87 -11z" />
    <glyph glyph-name="L" unicode="L" horiz-adv-x="1243" 
d="M1096 203h47v-203h-1143v48q68 0 106 16q42 18 50 26v1255q-10 10 -50 27q-38 16 -106 16v47h500v-47q-68 0 -106 -16q-40 -17 -50 -27v-1297l709 -1q10 10 27 50q16 38 16 106z" />
    <glyph glyph-name="M" unicode="M" horiz-adv-x="1795" 
d="M1695 1387q-69 0 -105 -16q-42 -18 -50 -26v-1255q8 -8 50 -26q39 -17 105 -17v-47h-499v47q66 0 106 17q41 18 49 26v1207l-472 -1297h-200l-476 1305v-1215q8 -8 50 -26q39 -17 106 -17v-47h-359v47q67 0 107 17q41 18 49 26v1255q-8 8 -49 26q-38 16 -107 16v48h357
l497 -1366l497 1366h344v-48z" />
    <glyph glyph-name="N" unicode="N" horiz-adv-x="1428" 
d="M1328 1387q-69 0 -105 -16q-42 -18 -50 -26v-1345l-217 1l-753 1301v-1212q8 -8 50 -26q39 -17 105 -17v-47h-358v47q66 0 106 17q41 18 50 26v1255q-9 8 -50 26q-38 16 -106 16v48h344l781 -1353v1263q-8 8 -49 26q-38 16 -106 16v48h358v-48z" />
    <glyph glyph-name="O" unicode="O" horiz-adv-x="1534" 
d="M717 47q147 0 266 91q120 90 192 242q71 153 71 337q0 185 -71 338q-72 151 -192 243q-120 90 -266 90t-266 -90q-121 -92 -191 -243q-71 -153 -71 -338q0 -184 71 -337q71 -152 191 -242q119 -91 266 -91zM717 1435q198 0 361 -97t260 -260q96 -164 96 -361
q0 -198 -96 -360q-97 -163 -260 -260t-361 -97q-199 0 -360 97q-163 97 -260 260q-97 161 -97 360q0 198 97 361t260 260q161 97 360 97z" />
    <glyph glyph-name="P" unicode="P" horiz-adv-x="1236" 
d="M654 742q127 15 210 106t83 216q0 132 -88 223q-89 93 -221 100h-294v-645h310zM766 1435q101 0 186 -50q84 -50 134 -134q50 -85 50 -186t-50 -186q-50 -84 -134 -134q-85 -50 -186 -50h-422v-605q8 -8 50 -26q40 -17 106 -17v-47l-500 1v47q66 0 106 17q41 18 50 26
v1254q-9 8 -50 26q-38 16 -106 16v48h766z" />
    <glyph glyph-name="Q" unicode="Q" horiz-adv-x="1534" 
d="M717 47q132 0 245 77q-68 41 -128 69q-66 29 -123 29l-51 1q29 0 62 1h105q14 0 43.5 -0.5t40.5 -1.5q55 -5 123 -41q98 93 155 233q56 141 56 303q0 185 -71 338q-70 151 -191 243q-120 90 -266 90t-266 -90q-121 -92 -191 -243q-72 -151 -72 -338q0 -185 72 -337
q71 -152 191 -242q119 -91 266 -91zM1434 717q0 -183 -82 -335t-224 -252q2 -1 9 -5t10 -6q71 -43 152 -82q73 -37 135 -37h-201q-39 0 -90 23q-47 21 -103 54q-149 -77 -323 -77q-198 0 -361 97q-164 98 -259 260q-97 161 -97 360q0 198 97 361q95 162 259 260
q163 97 361 97t361 -97q162 -98 259 -260q97 -163 97 -361z" />
    <glyph glyph-name="R" unicode="R" horiz-adv-x="1392" 
d="M344 1387v-645h310q127 15 210 106t83 216q0 132 -88 223q-89 93 -221 100h-294zM1292 48v-47h-336l-442 694h-170v-605q8 -8 50 -26q40 -17 106 -17v-47l-500 1v47q66 0 106 17q40 18 50 25v1255q-13 10 -50 26q-38 16 -106 16v48h117q77 -1 266 -1h266h117
q102 0 186 -51q85 -53 134 -138q50 -86 50 -188q0 -100 -48 -181q-49 -82 -130 -130q-82 -48 -183 -51l408 -629q19 -7 47 -12q27 -6 62 -6z" />
    <glyph glyph-name="S" unicode="S" horiz-adv-x="1048" 
d="M901 1387h47v-320h-2v-2h-53q0 89 -56 163q-57 73 -152 117q-97 44 -212 44q-87 0 -142 -27q-55 -28 -87 -69q-30 -39 -43 -85q-12 -44 -12 -78q0 -58 48 -111q48 -54 123 -104q73 -49 163 -103q102 -62 152 -94q78 -53 136 -102q60 -53 98 -115q37 -61 37 -131
q0 -103 -64 -186q-65 -85 -171 -134q-108 -50 -238 -50q-126 0 -231 48q-105 46 -170 126q-8 -18 -16 -50q-8 -34 -8 -74h-48v321h48v-1h5q0 -88 57 -162q58 -75 152 -118q96 -44 211 -44q87 0 143 27q56 25 87 66q31 40 43 82t12 73q0 65 -49 121q-52 59 -127 109
q-89 60 -168 106q-73 44 -149 94q-68 43 -133 100q-59 52 -96 113q-36 59 -36 128q0 103 64 186q65 85 172 134q108 50 237 50q126 0 232 -47q104 -47 169 -128q9 16 19 52q8 34 8 75z" />
    <glyph glyph-name="T" unicode="T" horiz-adv-x="1236" 
d="M0 1434h1136v-203h-47q0 68 -16 106q-17 39 -27 50h-384v-1297q8 -8 50 -26q40 -17 106 -17v-47h-500v47q66 0 106 17q42 18 50 26v1297h-384q-8 -9 -26 -50q-17 -40 -17 -106h-47v203z" />
    <glyph glyph-name="U" unicode="U" horiz-adv-x="1392" 
d="M1292 1435v-48q-68 0 -106 -16q-42 -18 -50 -26v-985q0 -100 -48 -181q-50 -83 -143 -130q-94 -49 -229 -49q-104 0 -201 28q-101 28 -180 78q-80 49 -130 114q-49 64 -49 140v985q-11 10 -50 26q-38 16 -106 16v48h500v-48q-69 0 -105 -16q-41 -17 -51 -26v-1025
q0 -76 51 -137q49 -61 135 -99q83 -37 187 -37t188 37q85 38 134 99q50 62 50 137v1025q-8 8 -49 26q-38 16 -106 16v48h358z" />
    <glyph glyph-name="V" unicode="V" horiz-adv-x="1582" 
d="M1482 1433v-47q-53 0 -86 -10q-32 -10 -53 -22l-493 -1354h-201l-489 1342q-4 4 -21 14q-25 14 -53 22q-33 10 -86 10v47h327l498 -1366l496 1364h161z" />
    <glyph glyph-name="W" unicode="W" horiz-adv-x="2178" 
d="M1918 1433h160v-47q-53 0 -86 -10q-32 -10 -53 -22l-492 -1354h-201l-198 543l-198 -543h-201l-489 1342q-4 4 -21 14q-21 11 -53 21q-33 10 -86 10v48h327l498 -1367l198 544l-266 730q-14 9 -22 14q-21 11 -53 21q-33 10 -85 10v48h326l200 -547l198 545h160v-47
q-52 0 -85 -10q-30 -9 -54 -22l-194 -535l273 -751z" />
    <glyph glyph-name="X" unicode="X" horiz-adv-x="1357" 
d="M1100 91q8 -5 27 -15q23 -12 52 -19q31 -9 78 -9v-48h-478v48q39 0 67 6q30 6 49 15l-307 531l-306 -528q17 -8 51 -16t72 -8v-47h-320v47q65 0 103 16q39 16 50 25l323 557l-404 698q-8 6 -26 16q-16 9 -52 19q-33 9 -79 9v47h478v-47q-38 0 -67 -6q-33 -9 -49 -16
l307 -531l306 528q-22 10 -51 17t-73 7v47h321v-47q-60 0 -99 -14q-37 -15 -53 -26l-323 -559z" />
    <glyph glyph-name="Y" unicode="Y" horiz-adv-x="1559" 
d="M1138 1434h321v-47q-60 0 -99 -14q-37 -15 -53 -26l-483 -831v-426q8 -8 50 -26q40 -17 106 -17v-47h-500v47q66 0 106 17q41 18 50 26v426l-479 828q-2 1 -6 3.5t-9 6t-11 6.5q-16 9 -52 19q-35 8 -79 8v47h478v-47q-38 0 -67 -6q-30 -6 -49 -15l450 -778l450 775
q-22 10 -51 17t-73 7v47z" />
    <glyph glyph-name="Z" unicode="Z" horiz-adv-x="1236" 
d="M1046 47q10 10 27 50q16 38 16 106h47v-203h-1136l888 1387h-798q-8 -8 -26 -49q-17 -40 -17 -106h-47v202h1136l-888 -1387h798z" />
    <glyph glyph-name="bracketleft" unicode="[" horiz-adv-x="577" 
d="M577 1487h-188v-1541h188v-47h-377v1635h377v-47z" />
    <glyph glyph-name="backslash" unicode="\" horiz-adv-x="997" 
d="M402 1536l595 -1635h-202l-595 1635h202z" />
    <glyph glyph-name="bracketright" unicode="]" horiz-adv-x="577" 
d="M200 1487v47h377v-1635h-377v47h188v1541h-188z" />
    <glyph glyph-name="asciicircum" unicode="^" horiz-adv-x="914" 
d="M915 868h-58l-299 518l-300 -518h-58l329 568h58l-1 -1z" />
    <glyph glyph-name="underscore" unicode="_" horiz-adv-x="1634" 
d="M200 -190h1434v189h-1434v-189z" />
    <glyph glyph-name="grave" unicode="`" horiz-adv-x="405" 
d="M224 1515q14 13 27 18q12 5 18 0l1 -1v-1q9 -9 18 -20q2 -2 42 -50q37 -43 44 -52q6 -7 11.5 -13.5t9 -10.5t4.5 -6q6 -9 0 -20q-7 -12 -19 -19q-12 -8 -21 0q-2 1 -27 23q-29 24 -53 45q-49 41 -51 43h-1v1q-1 0 -2 1l-1 1q-1 0 -1 1q-11 9 -15 12l-1 1q0 1 -1 1
q-6 6 0 19q4 14 18 27z" />
    <glyph glyph-name="a" unicode="a" horiz-adv-x="1489" 
d="M316 384h607l-304 833zM1230 92q2 -2 24 -14q21 -11 53 -21q31 -10 82 -10v-47l-478 1v47q41 0 75 8q27 6 50 17l-96 264h-641v1l-98 -268q19 -9 50 -15q28 -7 69 -7v-47l-320 -1v47q51 0 87 11q28 8 53 22q18 11 20 14l489 1341h250v-48q-44 0 -78 -8q-36 -10 -53 -19z
" />
    <glyph glyph-name="b" unicode="b" horiz-adv-x="1236" 
d="M647 1387h-303v-645h303q129 12 215 104q85 91 85 219q0 129 -85 220t-215 102zM624 47q135 0 229 94t94 228q0 130 -87 223q-86 92 -218 103h-298v-648h280zM891 717q110 -41 177 -133q68 -95 68 -214q0 -101 -50 -186q-50 -84 -134 -134q-85 -50 -186 -50h-766v47
q66 0 106 17q41 18 50 26v1255q-9 8 -50 26q-38 16 -106 16v48h766q101 0 186 -50q84 -50 134 -134q50 -85 50 -186q0 -119 -68 -213t-177 -135z" />
    <glyph glyph-name="c" unicode="c" horiz-adv-x="1092" 
d="M945 1404h47v-321h-47q0 52 -11 88q-8 28 -22 53q-8 14 -13 19q-68 69 -151 107q-81 37 -175 37h-19q-101 -9 -184 -99q-83 -92 -131 -240q-49 -148 -49 -331q0 -181 48 -329t129 -240q80 -90 182 -101q8 -1 24 -1q91 0 175 38q83 37 151 106q5 5 14 22q12 21 22 53
q10 33 10 85h47v-321h-47q0 42 -7 70q-8 33 -16 50q-74 -71 -162 -110t-187 -39h-5q-158 0 -285 97q-130 97 -206 259q-77 165 -77 361v4q3 201 79 360q76 160 205 257q127 96 284 96h5q99 0 187 -39q90 -41 162 -110q8 18 16 49q7 28 7 70z" />
    <glyph glyph-name="d" unicode="d" horiz-adv-x="1231" 
d="M573 47q103 7 187 97q84 92 133 241q49 148 49 333q0 183 -49 333q-49 148 -133 240q-84 90 -187 96h-229v-1340h229zM1131 718q0 -196 -75 -358t-201 -258t-282 -102l-573 1v47q66 0 106 17q41 18 50 26v1254q-9 8 -50 26q-38 16 -106 16v48h573q156 -6 282 -102
t201 -257q75 -162 75 -358z" />
    <glyph glyph-name="e" unicode="e" 
d="M0 1435h982v-207h-47q0 50 -11 86q-10 32 -22 53q-10 17 -13 20h-545v-645h396q11 21 21 53q10 33 10 84h47v-320h-47q0 51 -10 84t-21 52h-396v-648h545q0 1 2 3.5t5 7.5l6 10q12 21 22 53q11 36 11 86h47v-207h-982v47q66 0 106 17q41 18 49 26v1255q-8 8 -49 26
q-38 16 -106 16v48z" />
    <glyph glyph-name="f" unicode="f" 
d="M0 1435h982v-207h-47q0 53 -10 86q-10 32 -22 53q-11 18 -14 20h-545v-645h397q11 21 21 53q10 33 10 84h47v-320h-47q0 51 -10 84t-21 52h-397v-605q10 -9 51 -26q39 -17 105 -17v-47h-500v47q66 0 106 17q42 18 50 26v1255q-8 8 -50 26q-38 16 -106 16v48z" />
    <glyph glyph-name="g" unicode="g" horiz-adv-x="1310" 
d="M1210 671q-69 0 -105 -16q-40 -17 -50 -27v-298q-11 -22 -46 -78q-33 -50 -66 -81q-75 -81 -170 -126t-201 -45h-4q-158 0 -286 97q-129 96 -205 259q-77 165 -77 361v4q2 199 78 360q76 160 205 257q127 96 285 96h4q100 0 188 -39q89 -41 161 -110q8 18 16 49
q7 28 7 70h47v-321h-47q0 52 -11 88q-9 28 -22 53q-8 14 -13 19q-68 69 -151 107q-81 37 -175 37h-19q-101 -9 -184 -99q-81 -90 -131 -240q-49 -148 -49 -331q0 -181 48 -329q48 -149 130 -240q80 -90 182 -101q7 -1 23 -1q164 0 294 115v467q-10 10 -49 27q-38 16 -106 16
v47h499v-47z" />
    <glyph glyph-name="h" unicode="h" horiz-adv-x="1398" 
d="M1298 1387q-70 0 -106 -16q-42 -18 -50 -26v-1255q8 -8 50 -26q39 -17 106 -17v-47h-500v47q66 0 106 17q41 18 50 26v607h-610v-607q8 -8 50 -26q39 -17 105 -17v-47h-499v47q66 0 106 17q41 18 49 26v1255q-8 8 -49 26q-38 16 -106 16v48h499v-48q-69 0 -105 -16
q-42 -18 -50 -26v-601h610v601q-9 8 -50 26q-38 16 -106 16v48h500v-48z" />
    <glyph glyph-name="i" unicode="i" horiz-adv-x="599" 
d="M499 1387q-69 0 -105 -16q-42 -18 -50 -26v-1255q8 -8 50 -26q39 -17 105 -17v-47h-499v47q66 0 106 17q41 18 49 26v1255q-8 8 -49 26q-38 16 -106 16v48h499v-48z" />
    <glyph glyph-name="j" unicode="j" horiz-adv-x="1080" 
d="M481 1433h499v-48q-69 0 -105 -16q-42 -18 -50 -26v-1168q-9 -76 -127 -125q-120 -50 -286 -50q-168 0 -291 53q-121 52 -121 127q0 24 29 44q30 20 65 33q31 12 65 17q28 4 28 -4q0 -93 66 -159t159 -66q88 0 153 60q63 59 71 149v1089q-8 8 -49 26q-38 16 -106 16v48z
" />
    <glyph glyph-name="k" unicode="k" horiz-adv-x="1392" 
d="M1292 48v-47l-336 -1l-612 613v-523q8 -8 50 -26q39 -17 105 -17v-47h-499v47q66 0 106 17q41 18 49 26v1255q-8 8 -49 26q-38 16 -106 16v48h499v-48q-69 0 -105 -16q-42 -18 -50 -26v-581l599 600q-17 8 -50 16q-28 7 -71 7v47h321v-47q-57 0 -91 -12q-34 -11 -54 -23
l-563 -564l697 -694q3 -3 20 -13q21 -12 53 -22q36 -11 87 -11z" />
    <glyph glyph-name="l" unicode="l" horiz-adv-x="1243" 
d="M1096 203h47v-203h-1143v48q68 0 106 16q42 18 50 26v1255q-10 10 -50 27q-38 16 -106 16v47h500v-47q-68 0 -106 -16q-40 -17 -50 -27v-1297l709 -1q10 10 27 50q16 38 16 106z" />
    <glyph glyph-name="m" unicode="m" horiz-adv-x="1795" 
d="M1695 1387q-69 0 -105 -16q-42 -18 -50 -26v-1255q8 -8 50 -26q39 -17 105 -17v-47h-499v47q66 0 106 17q41 18 49 26v1207l-472 -1297h-200l-476 1305v-1215q8 -8 50 -26q39 -17 106 -17v-47h-359v47q67 0 107 17q41 18 49 26v1255q-8 8 -49 26q-38 16 -107 16v48h357
l497 -1366l497 1366h344v-48z" />
    <glyph glyph-name="n" unicode="n" horiz-adv-x="1428" 
d="M1328 1387q-69 0 -105 -16q-42 -18 -50 -26v-1345l-217 1l-753 1301v-1212q8 -8 50 -26q39 -17 105 -17v-47h-358v47q66 0 106 17q41 18 50 26v1255q-9 8 -50 26q-38 16 -106 16v48h344l781 -1353v1263q-8 8 -49 26q-38 16 -106 16v48h358v-48z" />
    <glyph glyph-name="o" unicode="o" horiz-adv-x="1534" 
d="M717 47q147 0 266 91q120 90 192 242q71 153 71 337q0 185 -71 338q-72 151 -192 243q-120 90 -266 90t-266 -90q-121 -92 -191 -243q-71 -153 -71 -338q0 -184 71 -337q71 -152 191 -242q119 -91 266 -91zM717 1435q198 0 361 -97t260 -260q96 -164 96 -361
q0 -198 -96 -360q-97 -163 -260 -260t-361 -97q-199 0 -360 97q-163 97 -260 260q-97 161 -97 360q0 198 97 361t260 260q161 97 360 97z" />
    <glyph glyph-name="p" unicode="p" horiz-adv-x="1236" 
d="M654 742q127 15 210 106t83 216q0 132 -88 223q-89 93 -221 100h-294v-645h310zM766 1435q101 0 186 -50q84 -50 134 -134q50 -85 50 -186t-50 -186q-50 -84 -134 -134q-85 -50 -186 -50h-422v-605q8 -8 50 -26q40 -17 106 -17v-47l-500 1v47q66 0 106 17q41 18 50 26
v1254q-9 8 -50 26q-38 16 -106 16v48h766z" />
    <glyph glyph-name="q" unicode="q" horiz-adv-x="1534" 
d="M717 47q132 0 245 77q-68 41 -128 69q-66 29 -123 29l-51 1q29 0 62 1h105q14 0 43.5 -0.5t40.5 -1.5q55 -5 123 -41q98 93 155 233q56 141 56 303q0 185 -71 338q-70 151 -191 243q-120 90 -266 90t-266 -90q-121 -92 -191 -243q-72 -151 -72 -338q0 -185 72 -337
q71 -152 191 -242q119 -91 266 -91zM1434 717q0 -183 -82 -335t-224 -252q2 -1 9 -5t10 -6q71 -43 152 -82q73 -37 135 -37h-201q-39 0 -90 23q-47 21 -103 54q-149 -77 -323 -77q-198 0 -361 97q-164 98 -259 260q-97 161 -97 360q0 198 97 361q95 162 259 260
q163 97 361 97t361 -97q162 -98 259 -260q97 -163 97 -361z" />
    <glyph glyph-name="r" unicode="r" horiz-adv-x="1392" 
d="M344 1387v-645h310q127 15 210 106t83 216q0 132 -88 223q-89 93 -221 100h-294zM1292 48v-47h-336l-442 694h-170v-605q8 -8 50 -26q40 -17 106 -17v-47l-500 1v47q66 0 106 17q40 18 50 25v1255q-13 10 -50 26q-38 16 -106 16v48h117q77 -1 266 -1h266h117
q102 0 186 -51q85 -53 134 -138q50 -86 50 -188q0 -100 -48 -181q-49 -82 -130 -130q-82 -48 -183 -51l408 -629q19 -7 47 -12q27 -6 62 -6z" />
    <glyph glyph-name="s" unicode="s" horiz-adv-x="1048" 
d="M901 1387h47v-320h-2v-2h-53q0 89 -56 163q-57 73 -152 117q-97 44 -212 44q-87 0 -142 -27q-55 -28 -87 -69q-30 -39 -43 -85q-12 -44 -12 -78q0 -58 48 -111q48 -54 123 -104q73 -49 163 -103q102 -62 152 -94q78 -53 136 -102q60 -53 98 -115q37 -61 37 -131
q0 -103 -64 -186q-65 -85 -171 -134q-108 -50 -238 -50q-126 0 -231 48q-105 46 -170 126q-8 -18 -16 -50q-8 -34 -8 -74h-48v321h48v-1h5q0 -88 57 -162q58 -75 152 -118q96 -44 211 -44q87 0 143 27q56 25 87 66q31 40 43 82t12 73q0 65 -49 121q-52 59 -127 109
q-89 60 -168 106q-73 44 -149 94q-68 43 -133 100q-59 52 -96 113q-36 59 -36 128q0 103 64 186q65 85 172 134q108 50 237 50q126 0 232 -47q104 -47 169 -128q9 16 19 52q8 34 8 75z" />
    <glyph glyph-name="t" unicode="t" horiz-adv-x="1236" 
d="M0 1434h1136v-203h-47q0 68 -16 106q-17 39 -27 50h-384v-1297q8 -8 50 -26q40 -17 106 -17v-47h-500v47q66 0 106 17q42 18 50 26v1297h-384q-8 -9 -26 -50q-17 -40 -17 -106h-47v203z" />
    <glyph glyph-name="u" unicode="u" horiz-adv-x="1392" 
d="M1292 1435v-48q-68 0 -106 -16q-42 -18 -50 -26v-985q0 -100 -48 -181q-50 -83 -143 -130q-94 -49 -229 -49q-104 0 -201 28q-101 28 -180 78q-80 49 -130 114q-49 64 -49 140v985q-11 10 -50 26q-38 16 -106 16v48h500v-48q-69 0 -105 -16q-41 -17 -51 -26v-1025
q0 -76 51 -137q49 -61 135 -99q83 -37 187 -37t188 37q85 38 134 99q50 62 50 137v1025q-8 8 -49 26q-38 16 -106 16v48h358z" />
    <glyph glyph-name="v" unicode="v" horiz-adv-x="1582" 
d="M1482 1433v-47q-53 0 -86 -10q-32 -10 -53 -22l-493 -1354h-201l-489 1342q-4 4 -21 14q-25 14 -53 22q-33 10 -86 10v47h327l498 -1366l496 1364h161z" />
    <glyph glyph-name="w" unicode="w" horiz-adv-x="2178" 
d="M1918 1433h160v-47q-53 0 -86 -10q-32 -10 -53 -22l-492 -1354h-201l-198 543l-198 -543h-201l-489 1342q-4 4 -21 14q-21 11 -53 21q-33 10 -86 10v48h327l498 -1367l198 544l-266 730q-14 9 -22 14q-21 11 -53 21q-33 10 -85 10v48h326l200 -547l198 545h160v-47
q-52 0 -85 -10q-30 -9 -54 -22l-194 -535l273 -751z" />
    <glyph glyph-name="x" unicode="x" horiz-adv-x="1357" 
d="M1100 91q8 -5 27 -15q23 -12 52 -19q31 -9 78 -9v-48h-478v48q39 0 67 6q30 6 49 15l-307 531l-306 -528q17 -8 51 -16t72 -8v-47h-320v47q65 0 103 16q39 16 50 25l323 557l-404 698q-8 6 -26 16q-16 9 -52 19q-33 9 -79 9v47h478v-47q-38 0 -67 -6q-33 -9 -49 -16
l307 -531l306 528q-22 10 -51 17t-73 7v47h321v-47q-60 0 -99 -14q-37 -15 -53 -26l-323 -559z" />
    <glyph glyph-name="y" unicode="y" horiz-adv-x="1559" 
d="M1138 1434h321v-47q-60 0 -99 -14q-37 -15 -53 -26l-483 -831v-426q8 -8 50 -26q40 -17 106 -17v-47h-500v47q66 0 106 17q41 18 50 26v426l-479 828q-2 1 -6 3.5t-9 6t-11 6.5q-16 9 -52 19q-35 8 -79 8v47h478v-47q-38 0 -67 -6q-30 -6 -49 -15l450 -778l450 775
q-22 10 -51 17t-73 7v47z" />
    <glyph glyph-name="z" unicode="z" horiz-adv-x="1236" 
d="M1046 47q10 10 27 50q16 38 16 106h47v-203h-1136l888 1387h-798q-8 -8 -26 -49q-17 -40 -17 -106h-47v202h1136l-888 -1387h798z" />
    <glyph glyph-name="braceleft" unicode="{" horiz-adv-x="1014" 
d="M480 698q172 4 223 71q51 66 51 133v468q0 74 77 142q76 67 185 67h108v-50h-90q-60 0 -107 -33q-46 -34 -47 -92v-500q0 -83 -60 -158q-61 -76 -143 -77v-2q82 -1 143 -76q61 -74 61 -158l-1 -500q2 -59 47 -91q46 -34 107 -34h90v-50h-108q-107 0 -184 68
q-76 68 -78 141v468q0 66 -51 132q-51 67 -223 71v60z" />
    <glyph glyph-name="bar" unicode="|" horiz-adv-x="389" 
d="M389 1533v-1636h-189v1636h189z" />
    <glyph glyph-name="braceright" unicode="}" horiz-adv-x="1014" 
d="M904 638q-172 -4 -223 -71q-51 -66 -51 -132v-468q-2 -74 -77 -141q-77 -68 -185 -68h-108v50h90q61 0 107 34q45 32 47 91l-1 500q0 84 61 158t144 76v2q-84 2 -143 77q-61 74 -61 158v500q-1 58 -47 92q-47 33 -107 33h-90v50h108q109 0 185 -67q77 -68 77 -142v-468
q0 -67 51 -133q51 -67 223 -71v-60z" />
    <glyph glyph-name="asciitilde" unicode="~" horiz-adv-x="1014" 
d="M1017 878v-156q-62 -71 -122 -97t-116 -26q-61 0 -177 49q-118 48 -177 48q-52 0 -107 -28q-57 -28 -130 -112v156q64 74 123 99q60 26 114 26q65 0 182 -49q118 -50 172 -50q53 0 109 28q56 29 129 112z" />
    <glyph glyph-name="cent" unicode="&#xa2;" horiz-adv-x="1091" 
d="M898 1243q-25 25 -46 42l-576 -995q50 -106 120 -171t153 -72q8 -1 24 -1q91 0 175 38q81 37 150 106q5 5 14 22q12 21 22 53q10 33 10 85h47v-321h-47q0 40 -6 70q-8 33 -16 50q-74 -71 -162 -110t-187 -39h-1h-1h-2h-1q-103 0 -197 44q-93 44 -167 122l-97 -166h-53
l117 203q-80 100 -125 231q-46 131 -46 283v0v2v2q3 201 79 360q74 159 204 257q129 96 285 96h1h1h1h2q141 0 263 -81l47 81h55l-63 -109q32 -26 47 -41q8 17 16 50q6 30 6 70h47v-321h-47q0 52 -11 88q-9 28 -22 53q-8 14 -13 19zM253 344l560 969q-110 74 -240 74h-20
q-101 -9 -184 -99q-81 -90 -131 -240q-49 -148 -49 -331q0 -208 64 -373z" />
    <glyph glyph-name="sterling" unicode="&#xa3;" horiz-adv-x="1117" 
d="M579 1388q-103 -6 -177 -77t-94 -214q-21 -145 37 -367h446v-40h-435q10 -42 24 -94q5 -21 14.5 -56.5t11.5 -43.5q13 -52 19 -71q4 -24 -10 -102q-16 -81 -37 -156q-22 -80 -42 -127h604q10 10 23 42q14 34 14 90h40v-172h-904v1q4 7 21 55q45 129 46 131q22 66 41 142
q16 66 10 95q-14 50 -47 155q-5 18 -17 56t-17 55h-150v40h138q-51 202 1 360q53 159 176 251q123 93 278 93h5q98 0 187 -39q88 -39 162 -110q8 17 16 50q6 30 6 70h48v-321h-48q0 54 -10 87q-9 30 -22 54q-10 15 -14 19q-69 69 -150 106q-84 38 -175 38h-19z" />
    <glyph glyph-name="yen" unicode="&#xa5;" horiz-adv-x="1559" 
d="M1138 1434h321v-48q-60 0 -99 -14q-40 -16 -53 -25l-366 -630h322v-40h-345l-94 -162v-2h355v-40h-355v-384q9 -8 50 -25q40 -17 106 -17v-47h-500v47q66 0 106 17q40 18 50 25v384h-356v40h356v2l-94 162h-262v40h239l-362 626q-8 6 -26 16q-16 9 -52 19q-33 9 -79 9v47
h478v-47q-38 0 -67 -6q-33 -9 -49 -16l450 -778l450 775q-22 10 -51 17t-73 7v48z" />
    <glyph glyph-name="copyright" unicode="&#xa9;" horiz-adv-x="1318" 
d="M789 954q9 17 9 50h20v-135h-20q0 24 -4 37q-5 16 -9 22q-3 5 -6 8q-60 61 -138 61h-8q-66 -8 -109 -88q-45 -81 -45 -195t44 -194q44 -82 108 -89q3 -1 10 -1q78 0 138 61q1 1 11 19q8 18 8 49h20v-136h-20q0 35 -9 51q-65 -63 -148 -63h-2q-98 0 -169 89t-71 214v1
q5 129 73 215t167 86h2q83 0 148 -62zM609 144q156 0 286 77t206 207q77 130 77 286t-77 286q-77 129 -206 206q-130 77 -286 77t-286 -77q-130 -76 -207 -206t-77 -286t77 -286q76 -130 207 -207q130 -77 286 -77zM609 1323q169 0 306 -82q138 -83 221 -221
q82 -137 82 -306t-82 -306q-81 -137 -221 -221q-137 -82 -306 -82t-306 82q-139 82 -221 221q-82 137 -82 306t82 306q84 140 221 221q137 82 306 82z" />
    <glyph glyph-name="registered" unicode="&#xae;" horiz-adv-x="1318" 
d="M482 728h131q53 6 88 44t35 91q0 56 -37 94q-37 37 -93 42h-124v-271zM663 708l172 -264q18 -8 46 -8v-20h-141l-186 292h-72v-254q2 -2 22 -11q15 -7 44 -7v-20h-210v20q29 0 44 7q18 8 21 11v527q-3 3 -21 11q-15 7 -44 7v20h322q63 0 110 -47q45 -47 45 -112
q0 -63 -43 -106t-109 -46zM609 148q156 0 287 77q130 77 206 207q77 130 77 286t-77 286q-77 129 -206 206q-131 77 -287 77t-286 -77q-129 -77 -206 -206q-77 -130 -77 -286t77 -286q76 -130 206 -207t286 -77zM609 1327q168 0 307 -82q137 -82 220 -221q82 -139 82 -306
q0 -169 -82 -306q-82 -138 -220 -221q-140 -83 -307 -83t-306 83q-138 83 -220 221q-83 139 -83 306q0 166 83 306q83 139 220 221t306 82z" />
    <glyph glyph-name="Agrave" unicode="&#xc0;" horiz-adv-x="1488" 
d="M316 384h607l-304 833zM1230 92q2 -2 24 -14q21 -11 53 -21q31 -10 81 -10v-47l-477 1v47q40 0 74 8q29 7 51 17l-96 264h-641v1l-98 -268q19 -9 50 -15q27 -7 69 -7v-47l-320 -1v47q50 0 86 11q32 10 53 22q18 11 20 14l490 1341h249v-48q-44 0 -78 -8q-34 -9 -52 -19z
M751 1537q-1 1 -4.5 4l-10.5 9t-13 11q-5 5 -23 19.5t-29 24.5q-49 41 -51 43h-1q-17 14 -20 17h-1l-1 1q-4 7 0 20q5 13 18 26q13 14 27 18q12 4 19 0l1 -1v-1q1 -1 2.5 -3t3.5 -4t5 -5.5t6 -6.5q18 -23 42 -51q37 -43 44 -52q5 -7 11 -13.5t9.5 -10.5t4.5 -6q8 -8 0 -20
t-18 -18q-12 -7 -21 -1z" />
    <glyph glyph-name="Aacute" unicode="&#xc1;" horiz-adv-x="1489" 
d="M316 384h608l-304 833zM1231 92q2 -2 24 -14q21 -11 53 -21q31 -10 81 -10v-47l-478 1v47q41 0 75 8q29 7 51 17l-96 264h-642v1l-97 -268q19 -9 50 -15q27 -7 69 -7v-47l-321 -1v47q51 0 87 11q32 10 53 22q18 11 20 14l489 1341h250v-48q-44 0 -78 -8q-34 -9 -52 -19z
M638 1537q-9 -6 -21 1q-12 6 -18 18q-7 12 -1 20q1 2 4.5 6t9.5 10.5t11 13.5q7 9 44 52q41 49 43 51l2 2q7 9 15 17q0 1 1 2q6 4 19 0q12 -4 26 -18q15 -15 19 -26q4 -13 -1 -20l-1 -1h-1q-4 -3 -20 -17q-2 -2 -51 -43q-11 -10 -29 -24.5t-23 -19.5q-21 -17 -28 -24z" />
    <glyph glyph-name="Acircumflex" unicode="&#xc2;" horiz-adv-x="1488" 
d="M316 384h607l-304 833zM1230 92q2 -2 24 -14q21 -11 53 -21q31 -10 81 -10v-47l-477 1v47q41 0 75 8q27 6 50 17l-96 264h-641v1l-98 -268q19 -9 50 -15q28 -7 69 -7v-47l-320 -1v47q50 0 86 11q30 9 54 22q18 11 20 14l489 1341h250v-48q-44 0 -78 -8q-36 -10 -53 -19z
M589 1537q-9 -6 -21 1q-11 6 -19 18q-7 12 0 21q1 2 4.5 6t9.5 10.5t11 13.5q7 9 44 52q11 14 43 50q3 3 6 6.5t5 5.5t3.5 4t2.5 3v1l1 1q1 2 9 3h13q7 -1 9 -3l1 -1v-1q1 -1 2.5 -3t3.5 -4t5 -5.5t6 -6.5q2 -2 42 -50q37 -43 44 -52q5 -7 11 -13.5t9.5 -10.5t4.5 -6
q7 -9 0 -21t-18 -18q-12 -7 -21 -1q-4 3 -21 18q-14 11 -40 34q-15 13 -45 37q-30 -24 -45 -37q-26 -23 -40 -34q-5 -4 -9.5 -8.5t-7 -6.5t-3.5 -3z" />
    <glyph glyph-name="Atilde" unicode="&#xc3;" horiz-adv-x="1489" 
d="M316 384h608l-304 833zM892 1729q1 -2 1 -6q1 -3 1 -5q1 -16 0 -38q-2 -26 -7 -46q-8 -26 -22 -41q-17 -17 -43 -21q-27 -4 -69 12q-44 18 -59 25q-36 14 -73 30q-21 8 -22 9q-32 11 -49 7q-20 -5 -30 -18t-15 -29q-5 -17 -6 -28q0 -6 -1 -7v-2q0 1 -0.5 4t-1 7.5
t-0.5 7.5q-2 27 2 51q3 27 17 54q13 24 42 35q29 9 80 -10q18 -8 60 -24q9 -4 72 -31q21 -8 22 -9q29 -11 49 -6t30 17q11 14 15 28q5 15 6 27q0 5 1 7zM1231 92q2 -2 24 -14q21 -11 53 -21q31 -10 81 -10v-47l-477 1v47q40 0 74 8q29 7 51 17l-96 264h-641v1l-98 -268
q19 -9 50 -15q27 -7 69 -7v-47l-321 -1v47q51 0 87 11q32 10 53 22q18 11 20 14l489 1341h250v-48q-44 0 -78 -8q-34 -9 -52 -19z" />
    <glyph glyph-name="Adieresis" unicode="&#xc4;" horiz-adv-x="1489" 
d="M316 384h608l-304 833zM1231 92q5 -4 24 -15q22 -12 53 -20q31 -10 81 -10v-47h-478v47q41 0 75 8q32 7 51 18l-96 264h-642l-97 -267q17 -8 50 -16q27 -7 69 -7v-47h-321v47q51 0 87 11q32 10 53 22q17 10 20 13l489 1341h250v-47q-47 0 -78 -9q-34 -9 -52 -19z
M526 1551q-39 0 -66 28q-28 27 -28 66t28 67q27 28 66 28t67 -28q27 -29 27 -67q0 -39 -27 -66q-28 -28 -67 -28zM863 1551q-39 0 -66 28q-28 27 -28 66t28 67q27 28 66 28t67 -28q27 -29 27 -67q0 -39 -27 -66q-28 -28 -67 -28z" />
    <glyph glyph-name="Aring" unicode="&#xc5;" horiz-adv-x="1489" 
d="M597 1571q0 -55 29 -96q28 -40 68 -40h1q41 0 69 40t28 96q0 57 -28 97t-69 40h-1q-40 0 -68 -40q-29 -41 -29 -97zM316 384h608l-304 833zM1231 92q2 -2 24 -14t53 -20q31 -10 81 -10v-48l-478 1v47q41 0 75 8q29 7 51 17l-96 264h-642v1l-97 -268q19 -7 50 -15
q27 -7 69 -7v-47l-321 -1v48q51 0 87 11t53 21q18 11 20 14l489 1339q-100 40 -100 138q0 61 43 104q42 42 102 42h1q61 0 104 -42q42 -43 42 -104q0 -94 -95 -136h153v-47q-47 0 -78 -9q-34 -9 -52 -19z" />
    <glyph glyph-name="AE" unicode="&#xc6;" horiz-adv-x="1976" 
d="M316 384h607l-303 833zM768 1360l281 -771v756q-8 7 -49 25q-39 16 -104 17q-89 -5 -128 -27zM1782 1387h-544v-645h396q11 21 21 53q10 33 10 84h47v-320h-47q0 51 -10 84t-21 52h-396v-648h544q4 4 14 21q12 21 22 53q11 36 11 86h47v-207h-982v47q51 0 87 11
q32 10 53 22l-94 257h-641v1l-97 -268q19 -9 50 -15q27 -7 69 -7v-47l-321 -1v47q51 0 87 11q28 8 53 22q18 11 20 14l489 1341h1227v-207h-47q0 50 -11 86q-10 32 -22 53q-11 18 -14 20z" />
    <glyph glyph-name="Ccedilla" unicode="&#xc7;" horiz-adv-x="1092" 
d="M554 1387q-101 -9 -184 -99q-83 -92 -131 -240q-49 -148 -49 -331q0 -181 48 -329t129 -240q80 -90 183 -101q7 -1 23 -1q91 0 175 38q83 37 151 106q5 5 14 22q12 21 22 53q10 33 10 85h47v-321h-47q0 42 -7 70q-8 33 -16 50q-142 -139 -331 -149l-5 -18q66 -4 111 -37
q44 -32 44 -77q0 -47 -49 -80q-49 -34 -120 -34h-2q-75 4 -105 12q-2 0 -5 0.5t-5 1.5v36q2 -1 6 -1q3 -1 5 -1q31 -10 104 -12h2q45 0 79 17q33 17 33 61t-33 64q-34 20 -79 20h-37l15 48q-153 7 -278 105t-198 257q-74 162 -74 355v4q3 201 79 360q76 160 205 256
q127 96 284 96h5q99 0 188 -39q86 -38 161 -110q8 17 16 50q7 28 7 70h47v-321h-47q0 51 -11 87q-9 30 -22 54q-8 14 -13 19q-68 69 -151 106q-84 38 -175 38h-19z" />
    <glyph glyph-name="Egrave" unicode="&#xc8;" 
d="M0 1435h982v-207h-47q0 50 -11 86q-10 32 -22 53q-11 18 -14 20h-544v-645h396q11 21 21 53q10 33 10 84h47v-320h-47q0 51 -10 84t-21 52h-396v-648h544q4 4 14 21q12 21 22 53q11 36 11 86h47v-207h-982v47q66 0 106 17q41 18 49 26v1255q-8 8 -49 26q-38 16 -106 16
v48zM547 1537q-5 5 -27 24q-42 34 -53 44q-49 41 -51 43h-1v1q-15 11 -20 16l-1 1q-4 7 0 20q5 13 18 26q14 14 27 18q12 4 18 0l1 -1v-1q9 -9 18 -19q18 -23 42 -51q37 -43 44 -52q5 -7 11 -13.5t9.5 -10.5t4.5 -6q6 -8 0 -20q-8 -12 -19 -18q-12 -7 -21 -1z" />
    <glyph glyph-name="Eacute" unicode="&#xc9;" 
d="M434 1537q7 7 28 24q5 5 23 19.5t29 24.5q49 41 51 43h1l1 1q0 1 1 1q14 12 18 15q0 1 1 1q5 7 1 20q-7 14 -19 26q-14 14 -26 18q-13 4 -19 0l-1 -1v-1q-1 -1 -2.5 -3t-3.5 -4t-5 -5.5t-6 -6.5q-2 -2 -43 -51q-37 -43 -44 -52q-6 -7 -11.5 -13.5t-9 -10.5t-4.5 -6
q-6 -8 1 -20q6 -12 18 -18q12 -7 21 -1zM0 1435h982v-207h-48q0 53 -10 86q-10 32 -22 53q-11 18 -14 20h-544v-645h396q11 21 21 53q10 33 10 84h47v-320h-47q0 51 -10 84t-21 52h-396v-648h544q4 4 14 21q12 21 22 53q10 33 10 86h48v-207h-982v47q66 0 106 17
q41 18 49 26v1255q-8 8 -49 26q-38 16 -106 16v48z" />
    <glyph glyph-name="Ecircumflex" unicode="&#xca;" 
d="M386 1537q-9 -6 -21 1q-12 6 -18 18q-7 12 -1 21q1 2 4.5 6t9.5 10.5t11 13.5q7 9 44 52q11 14 43 50q0 1 1 1l16 18q0 1 1 2q2 2 9 3h13q8 -1 9 -3l1 -1v-1q1 -1 2.5 -3t3.5 -4t5 -5.5t6 -6.5q15 -18 43 -50q37 -43 44 -52q20 -24 24 -30q7 -9 1 -21q-8 -12 -19 -18
q-12 -7 -21 -1q-1 1 -3.5 3t-7 6.5t-9.5 8.5q-14 11 -40 34q-16 13 -46 37q-30 -24 -45 -37q-26 -23 -40 -34q-5 -4 -9.5 -8.5t-7 -6.5t-3.5 -3zM0 1435h982v-207h-47q0 53 -10 86q-10 32 -22 53q-11 18 -14 20h-545v-645h397q11 21 21 53q10 33 10 84h47v-320h-47
q0 51 -10 84t-21 52h-397v-648h545q4 4 14 21q12 21 22 53q10 33 10 86h47v-207h-982v47q66 0 106 17q42 18 50 26v1255q-8 8 -50 26q-38 16 -106 16v48z" />
    <glyph glyph-name="Edieresis" unicode="&#xcb;" 
d="M660 1733q39 0 67 -28q27 -29 27 -67q0 -39 -27 -66q-28 -28 -67 -28t-66 28q-28 27 -28 66t28 67q27 28 66 28zM0 1435h982v-207h-47q0 53 -10 86q-10 32 -22 53q-11 18 -14 20h-545v-645h397q11 21 21 53q10 33 10 84h47v-320h-47q0 51 -10 84t-21 52h-397v-648h545
q4 4 14 21q12 21 22 53q10 33 10 86h47v-207h-982v47q66 0 106 17q42 18 50 26v1255q-8 8 -50 26q-38 16 -106 16v48zM323 1733q39 0 67 -28q27 -29 27 -67q0 -39 -27 -66q-28 -28 -67 -28t-66 28q-28 27 -28 66t28 67q27 28 66 28z" />
    <glyph glyph-name="Igrave" unicode="&#xcc;" horiz-adv-x="600" 
d="M500 1387q-69 0 -105 -16q-41 -17 -51 -26v-1255q10 -9 51 -26q39 -17 105 -17v-47h-500v47q66 0 106 17q42 18 50 26v1255q-8 8 -50 26q-38 16 -106 16v48h500v-48zM307 1537q-1 1 -4.5 4l-10.5 9t-13 11q-5 5 -23 19.5t-29 24.5q-49 41 -51 43h-1q-4 4 -9 7.5t-8 6
t-4 3.5v1h-1q-4 7 0 20q4 11 19 26q14 14 26 18q13 4 19 0l1 -1v-1q1 -1 2.5 -3t3.5 -4t5 -5.5t6 -6.5q22 -28 43 -51q37 -43 44 -52q20 -24 24 -30q8 -8 0 -20t-18 -18q-12 -7 -21 -1z" />
    <glyph glyph-name="Iacute" unicode="&#xcd;" horiz-adv-x="600" 
d="M193 1537q1 1 4.5 4l10.5 9t13 11q5 5 23 19.5t29 24.5q8 7 26 21.5t26 21.5q1 0 1 1h1v1h1q9 7 17 15h1l1 1q4 7 0 20q-4 11 -19 26q-14 14 -26 18q-13 4 -19 0l-1 -1v-1q-1 -1 -2.5 -3t-3.5 -4t-5 -5.5t-6 -6.5q-18 -23 -42 -51q-10 -11 -24.5 -29t-19.5 -23
q-5 -7 -11 -13.5t-9.5 -10.5t-4.5 -6q-8 -8 0 -20t19 -18q10 -7 20 -1zM500 1387q-68 0 -106 -16q-42 -18 -50 -26v-1255q8 -8 50 -26q40 -17 106 -17v-47h-500v47q66 0 106 17q42 18 50 26v1255q-8 8 -50 26q-38 16 -106 16v48h500v-48z" />
    <glyph glyph-name="Icircumflex" unicode="&#xce;" horiz-adv-x="600" 
d="M500 1387q-69 0 -105 -16q-41 -17 -51 -26v-1255q10 -9 51 -26q39 -17 105 -17v-47h-500v47q67 0 107 17q41 18 49 26v1255q-8 8 -49 26q-38 16 -107 16v48h500v-48zM145 1537q-9 -6 -21 1q-12 6 -18 18q-7 12 -1 21q1 2 4.5 6t9 10.5t11.5 13.5q7 9 44 52q11 14 43 50
l1 1l16 18v1l1 1q1 2 9 3h13q7 -1 9 -3l1 -1v-1q1 -1 2.5 -3t3.5 -4t5 -5.5t6 -6.5q15 -18 43 -50q37 -43 44 -52q19 -24 24 -30q7 -9 0 -21t-18 -18q-12 -7 -21 -1q-1 0 -20 18q-14 11 -40 34q-16 13 -46 37q-30 -24 -45 -37q-26 -23 -40 -34q-5 -4 -9.5 -8.5t-7 -6.5
t-3.5 -3z" />
    <glyph glyph-name="Idieresis" unicode="&#xcf;" horiz-adv-x="625" 
d="M512 1387q-69 0 -105 -16q-42 -18 -50 -26v-1255q8 -8 50 -26q39 -17 105 -17v-47h-499v47q66 0 106 17q41 18 49 26v1255q-8 8 -49 26q-38 16 -106 16v48h499v-48zM94 1733q39 0 67 -28q27 -29 27 -67q0 -39 -27 -66q-28 -28 -67 -28t-66 28q-28 27 -28 66t28 67
q27 28 66 28zM431 1733q39 0 67 -28q27 -29 27 -67q0 -39 -27 -66q-28 -28 -67 -28t-66 28q-28 27 -28 66t28 67q27 28 66 28z" />
    <glyph glyph-name="Eth" unicode="&#xd0;" horiz-adv-x="1231" 
d="M573 47q104 6 186 97q84 92 133 241q50 152 50 332t-50 333q-49 148 -133 240q-82 89 -186 97h-229v-594h369v-152h-369v-594h229zM573 1434q156 -6 282 -102t201 -257q75 -162 75 -358q0 -197 -75 -357q-75 -162 -201 -258q-126 -98 -282 -102h-573v47q66 0 106 17
q41 18 49 26v551h-155v152h155v551q-10 10 -49 27q-38 16 -106 16v47h573z" />
    <glyph glyph-name="Ntilde" unicode="&#xd1;" horiz-adv-x="1428" 
d="M861 1729q1 -2 1 -6q1 -3 1 -5q1 -16 0 -38q-2 -26 -7 -46q-8 -26 -22 -41q-17 -17 -43 -21q-27 -4 -70 12q-8 4 -58 24q-8 3 -73 31q-21 8 -22 9q-32 11 -49 7q-19 -5 -30 -18q-10 -13 -15 -29q-5 -17 -6 -28q-1 -3 -1 -7q-1 -1 -1 -3v1q-1 3 -1 19q-2 27 2 51
q3 30 16 54t43 35q29 9 80 -10q18 -8 60 -24q9 -4 72 -31q20 -7 21 -9q30 -10 49 -6q20 5 30 17q12 16 16 28q4 15 6 27q0 5 1 7zM1328 1387q-68 0 -106 -16q-42 -18 -50 -26v-1345l-217 1l-753 1301v-1212q8 -8 50 -26q40 -17 106 -17v-47h-358v47q66 0 106 17q41 18 49 26
v1255q-8 8 -49 26q-38 16 -106 16v48h343l782 -1353v1263q-8 8 -49 26q-38 16 -107 16v48h359v-48z" />
    <glyph glyph-name="Ograve" unicode="&#xd2;" horiz-adv-x="1534" 
d="M717 47q147 0 266 91q120 90 192 242q71 153 71 337q0 185 -71 338q-72 151 -192 243q-120 90 -266 90t-266 -90q-121 -92 -191 -243q-72 -151 -72 -338q0 -185 72 -337q71 -152 191 -242q119 -91 266 -91zM717 1435q198 0 361 -97t260 -260q96 -164 96 -361
q0 -198 -96 -360q-97 -163 -260 -260t-361 -97t-361 97q-164 98 -259 260q-97 161 -97 360q0 198 97 361q95 162 259 260q163 97 361 97zM774 1537q-1 1 -4.5 4l-10.5 9t-13 11q-5 5 -23 19.5t-29 24.5q-49 41 -51 43h-1q-16 14 -20 17h-1l-1 1q-4 7 0 20q5 13 18 26
q14 14 27 18t19 0l1 -1v-1q1 -1 2.5 -3t3.5 -4t5 -5.5t6 -6.5q22 -28 43 -51q37 -43 44 -52q19 -24 24 -30q8 -8 0 -20q-7 -12 -18 -18q-12 -7 -21 -1z" />
    <glyph glyph-name="Oacute" unicode="&#xd3;" horiz-adv-x="1534" 
d="M717 47q147 0 266 91q120 90 191 242q71 153 71 337q0 185 -71 338q-70 151 -191 243q-120 90 -266 90t-266 -90q-121 -92 -191 -243q-72 -151 -72 -338q0 -185 72 -337q71 -152 191 -242q119 -91 266 -91zM660 1537q1 1 4.5 4l10.5 9t13 11q5 5 23 19.5t29 24.5
q49 41 51 43h1v1h1q3 3 7.5 7t7 6t3.5 3h1l1 1q5 7 1 20q-4 11 -19 26q-14 14 -26 18q-13 4 -19 0l-1 -1v-1q-1 -1 -2.5 -3t-3.5 -4t-5 -5.5t-6 -6.5q-18 -23 -42 -51q-10 -11 -24.5 -29t-19.5 -23q-6 -7 -11.5 -13.5t-9 -10.5t-4.5 -6q-8 -8 0 -20q6 -12 18 -18
q12 -7 21 -1zM717 1435q198 0 361 -97q162 -98 259 -260q97 -163 97 -361q0 -199 -97 -360q-97 -162 -259 -260q-163 -97 -361 -97t-361 97q-164 98 -259 260q-97 161 -97 360q0 198 97 361q95 162 259 260q163 97 361 97z" />
    <glyph glyph-name="Ocircumflex" unicode="&#xd4;" horiz-adv-x="1535" 
d="M717 47q147 0 266 91q120 90 192 242q71 153 71 337q0 185 -71 338q-72 151 -192 243q-120 90 -266 90t-266 -90q-121 -92 -191 -243q-71 -153 -71 -338q0 -184 71 -337q71 -152 191 -242q119 -91 266 -91zM612 1537q-9 -6 -21 1q-12 6 -18 18q-7 12 -1 21q1 2 4.5 6
t9.5 10.5t11 13.5q7 9 44 52q11 14 43 50l2 2q7 9 15 17q0 1 1 2q2 2 9 3h13q8 -1 9 -3l1 -1v-1q1 -1 2.5 -3t3.5 -4t5 -5.5t6 -6.5q15 -18 43 -50q37 -43 44 -52q5 -7 11 -13.5t9.5 -10.5t4.5 -6q6 -9 0 -21q-8 -12 -19 -18q-12 -7 -21 -1q-1 1 -3.5 3t-7 6.5t-9.5 8.5
q-14 11 -40 34q-3 3 -46 37q-30 -24 -45 -37q-26 -23 -40 -34q-5 -4 -9.5 -8.5t-7 -6.5t-3.5 -3zM717 1435q198 0 361 -97t260 -260t97 -361q0 -199 -97 -360q-97 -163 -260 -260t-361 -97q-199 0 -360 97q-163 97 -260 260q-97 161 -97 360q0 198 97 361t260 260
q161 97 360 97z" />
    <glyph glyph-name="Otilde" unicode="&#xd5;" horiz-adv-x="1534" 
d="M717 47q147 0 266 91q120 90 192 242q71 153 71 337q0 185 -71 338q-72 151 -192 243q-120 90 -266 90t-266 -90q-121 -92 -191 -243q-71 -153 -71 -338q0 -184 71 -337q71 -152 191 -242q119 -91 266 -91zM914 1729q1 -2 1 -6q1 -3 1 -5q1 -16 0 -38q-2 -26 -7 -46
q-8 -26 -22 -41q-15 -17 -42 -21t-70 12q-5 2 -13.5 5.5t-22 9t-23.5 9.5q-16 7 -43 18.5t-29 12.5q-20 7 -22 9q-32 11 -49 7q-19 -5 -30 -18q-12 -15 -16 -29q-5 -17 -6 -28q0 -6 -1 -7v-2q-1 3 -1 19q-2 25 1 51q3 27 17 54q13 24 43 35q29 9 80 -10q18 -8 60 -24
q9 -4 72 -31q20 -7 21 -9q30 -10 49 -6q20 5 30 17q12 16 16 28q3 9 5 27q0 5 1 7zM717 1435q198 0 361 -97t260 -260q96 -164 96 -361q0 -198 -96 -360q-97 -163 -260 -260t-361 -97q-199 0 -360 97q-163 97 -260 260q-97 161 -97 360q0 198 97 361t260 260q161 97 360 97z
" />
    <glyph glyph-name="Odieresis" unicode="&#xd6;" horiz-adv-x="1535" 
d="M717 47q147 0 266 91q120 90 192 242q71 153 71 337q0 185 -71 338q-72 151 -192 243q-120 90 -266 90t-266 -90q-121 -92 -191 -243q-71 -153 -71 -338q0 -184 71 -337q71 -152 191 -242q119 -91 266 -91zM886 1733q39 0 67 -28q27 -29 27 -67q0 -39 -27 -66
q-28 -28 -67 -28t-66 28q-28 27 -28 66t28 67q27 28 66 28zM717 1435q198 0 361 -97t260 -260t97 -361q0 -199 -97 -360q-97 -163 -260 -260t-361 -97q-199 0 -360 97q-163 97 -260 260q-97 161 -97 360q0 198 97 361t260 260q161 97 360 97zM549 1733q39 0 67 -28
q27 -29 27 -67q0 -39 -27 -66q-28 -28 -67 -28t-66 28q-28 27 -28 66t28 67q27 28 66 28z" />
    <glyph glyph-name="multiply" unicode="&#xd7;" horiz-adv-x="811" 
d="M811 526l-107 -108l-199 199l-198 -199l-107 108l198 198l-198 199l107 107l198 -198l199 198l107 -107l-198 -199z" />
    <glyph glyph-name="Oslash" unicode="&#xd8;" horiz-adv-x="1534" 
d="M188 717q0 -157 54 -294q52 -134 145 -229l625 1080q-130 114 -295 114q-146 0 -266 -90q-121 -92 -191 -243q-72 -151 -72 -338zM717 47q147 0 266 91q120 90 192 242q71 153 71 337q0 157 -53 295q-53 133 -146 229l-625 -1080q130 -114 295 -114zM1096 1326
q157 -99 247 -256q91 -160 91 -353q0 -198 -96 -360q-97 -163 -260 -260t-361 -97q-185 0 -339 85l-49 -85h-54l63 109q-155 98 -246 257q-92 160 -92 351q0 198 97 361q95 162 259 260q163 97 361 97q185 0 339 -85l49 85h54z" />
    <glyph glyph-name="Ugrave" unicode="&#xd9;" horiz-adv-x="1391" 
d="M1291 1435v-48q-69 0 -105 -16q-42 -18 -50 -26v-985q0 -100 -48 -181q-50 -83 -143 -130q-94 -49 -229 -49q-104 0 -201 28q-100 28 -181 78t-129 114q-49 64 -49 140v985q-9 8 -50 26q-38 16 -106 16v48h500v-48q-68 0 -106 -16q-42 -18 -50 -26v-1025q0 -76 51 -137
q49 -61 135 -99q83 -37 186 -37q104 0 188 37q84 38 135 99q50 62 50 137v1025q-8 8 -50 26q-38 16 -106 16v48h358zM702 1537q-4 5 -27 24q-42 34 -53 44q-49 41 -51 43h-1l-1 1q0 1 -1 1q-14 12 -18 15q0 1 -1 1q-4 7 0 20q5 13 18 26q13 14 27 18q12 4 18 0l1 -1v-1
q9 -9 18 -19q18 -23 42 -51q37 -43 44 -52q6 -7 11.5 -13.5t9 -10.5t4.5 -6q6 -8 0 -20q-8 -12 -19 -18q-12 -7 -21 -1z" />
    <glyph glyph-name="Uacute" unicode="&#xda;" horiz-adv-x="1392" 
d="M589 1537q1 1 4.5 4l10.5 9t13 11q5 5 23 19.5t29 24.5q8 7 26 21.5t26 21.5q1 0 1 1l3 2l3 3q1 1 2 1q3 3 6.5 6t4.5 4h1l1 1q4 7 0 20q-5 13 -18 26t-26 18q-13 4 -20 0l-1 -1v-1q-1 -1 -2.5 -3t-3.5 -4t-5 -5.5t-6 -6.5q-18 -23 -42 -51q-37 -43 -44 -52
q-5 -7 -11 -13.5t-9.5 -10.5t-4.5 -6q-8 -8 0 -20t19 -18q10 -7 20 -1zM1292 1435v-48q-68 0 -106 -16q-42 -18 -50 -26v-985q0 -100 -48 -181q-50 -83 -143 -130q-94 -49 -229 -49q-102 0 -201 28q-101 28 -180 78q-80 49 -130 114q-49 64 -49 140v985q-8 8 -49 26
q-38 16 -107 16v48h500v-48q-69 0 -105 -16q-41 -17 -51 -26v-155v-355q0 -252 1 -356v-159q0 -75 50 -137q49 -61 135 -99q83 -37 187 -37t188 37q85 38 134 99q50 62 50 137v1025q-8 8 -49 26q-38 16 -106 16v48h358z" />
    <glyph glyph-name="Ucircumflex" unicode="&#xdb;" horiz-adv-x="1391" 
d="M1291 1435v-48q-69 0 -105 -16q-42 -18 -50 -26v-985q0 -101 -49 -181q-49 -82 -142 -130q-94 -49 -229 -49q-104 0 -201 28q-100 28 -181 78t-129 114q-49 64 -49 140h-1v985q-8 8 -49 26q-38 16 -106 16v48h500v-48q-70 0 -106 -16q-42 -18 -50 -26v-1025
q0 -76 51 -137q49 -61 135 -99q83 -37 186 -37q104 0 188 37q84 38 135 99q50 62 50 137v1025q-8 8 -50 26q-38 16 -106 16v48h358zM540 1537q-9 -6 -21 1q-12 6 -18 18q-7 12 0 21q1 2 4.5 6t9.5 10.5t11 13.5q5 5 19.5 23t24.5 29q40 48 42 50q1 0 1 1l3 3q0 1 1 1
q3 4 6.5 8.5t4.5 5.5l2 2q2 2 9 3h14q7 -2 8 -3l1 -1v-1q9 -9 18 -19q2 -2 42 -50q37 -43 44 -52q6 -7 11.5 -13.5t9 -10.5t4.5 -6q6 -9 0 -21q-8 -12 -19 -18q-12 -7 -21 -1q-1 1 -3.5 3t-7 6.5t-9.5 8.5q-14 11 -40 34q-15 13 -45 37q-30 -24 -45 -37q-9 -7 -23 -19
t-18 -15q-5 -4 -9.5 -8.5t-7 -6.5t-3.5 -3z" />
    <glyph glyph-name="Udieresis" unicode="&#xdc;" horiz-adv-x="1391" 
d="M1291 1435v-48q-69 0 -105 -16q-42 -18 -50 -26v-985q0 -100 -48 -181q-50 -83 -143 -130q-94 -49 -229 -49q-104 0 -201 28q-100 28 -181 78t-129 114q-49 64 -49 140v985q-8 8 -50 26q-38 16 -106 16v48h500v-48q-68 0 -106 -16q-42 -18 -50 -26v-1025q0 -76 51 -137
q49 -61 135 -99q83 -37 187 -37q103 0 187 37q84 38 135 99q50 62 50 137v1025q-8 8 -50 26q-38 16 -106 16v48h358zM477 1733q39 0 67 -28t28 -67t-28 -66q-28 -28 -67 -28t-66 28q-28 27 -28 66t28 67q27 28 66 28zM814 1733q39 0 67 -28t28 -67t-28 -66q-28 -28 -67 -28
t-66 28q-28 27 -28 66t28 67q27 28 66 28z" />
    <glyph glyph-name="Yacute" unicode="&#xdd;" horiz-adv-x="1559" 
d="M673 1537q7 7 28 24q5 5 23 19.5t29 24.5q49 41 51 43h1v1h1l18 16h1l1 1q5 7 1 20q-7 14 -19 26q-13 13 -26 18q-13 4 -19 0l-1 -1v-1q-1 -1 -2.5 -3t-3.5 -4t-5 -5.5t-6 -6.5q-2 -2 -43 -51q-37 -43 -44 -52q-5 -7 -11 -13.5t-9.5 -10.5t-4.5 -6q-6 -8 1 -20
q6 -12 18 -18q12 -7 21 -1zM1138 1434h321v-47q-61 0 -100 -14q-38 -15 -52 -26l-483 -831v-426q8 -8 50 -26q39 -17 105 -17v-47h-499v47q66 0 106 17q41 18 49 26v426l-478 828q-2 1 -6 3.5t-9 6t-11 6.5q-16 9 -52 19q-35 8 -79 8v48h478v-48q-38 0 -67 -6
q-30 -6 -49 -15l450 -778l450 775q-22 10 -51 17t-73 7v47z" />
    <glyph glyph-name="Thorn" unicode="&#xde;" horiz-adv-x="1003" 
d="M420 394q126 14 210 105t84 218q0 131 -89 223t-222 101h-214v-647h231zM532 1088q104 0 187 -52q85 -53 134 -138q50 -86 50 -188q0 -101 -50 -184t-134 -131t-187 -48h-343v-347h-189v1435h189v-347h335v-1q3 1 8 1z" />
    <glyph glyph-name="agrave" unicode="&#xe0;" horiz-adv-x="1488" 
d="M316 384h607l-304 833zM1230 92q2 -2 24 -14q21 -11 53 -21q31 -10 81 -10v-47l-477 1v47q40 0 74 8q29 7 51 17l-96 264h-641v1l-98 -268q19 -9 50 -15q27 -7 69 -7v-47l-320 -1v47q50 0 86 11q32 10 53 22q18 11 20 14l490 1341h249v-48q-44 0 -78 -8q-34 -9 -52 -19z
M751 1537q-1 1 -4.5 4l-10.5 9t-13 11q-5 5 -23 19.5t-29 24.5q-49 41 -51 43h-1q-17 14 -20 17h-1l-1 1q-4 7 0 20q5 13 18 26q13 14 27 18q12 4 19 0l1 -1v-1q1 -1 2.5 -3t3.5 -4t5 -5.5t6 -6.5q18 -23 42 -51q37 -43 44 -52q5 -7 11 -13.5t9.5 -10.5t4.5 -6q8 -8 0 -20
t-18 -18q-12 -7 -21 -1z" />
    <glyph glyph-name="aacute" unicode="&#xe1;" horiz-adv-x="1489" 
d="M316 384h608l-304 833zM1231 92q2 -2 24 -14q21 -11 53 -21q31 -10 81 -10v-47l-478 1v47q41 0 75 8q29 7 51 17l-96 264h-642v1l-97 -268q19 -9 50 -15q27 -7 69 -7v-47l-321 -1v47q51 0 87 11q32 10 53 22q18 11 20 14l489 1341h250v-48q-44 0 -78 -8q-34 -9 -52 -19z
M638 1537q-9 -6 -21 1q-12 6 -18 18q-7 12 -1 20q1 2 4.5 6t9.5 10.5t11 13.5q7 9 44 52q41 49 43 51l2 2q7 9 15 17q0 1 1 2q6 4 19 0q12 -4 26 -18q15 -15 19 -26q4 -13 -1 -20l-1 -1h-1q-4 -3 -20 -17q-2 -2 -51 -43q-11 -10 -29 -24.5t-23 -19.5q-21 -17 -28 -24z" />
    <glyph glyph-name="acircumflex" unicode="&#xe2;" horiz-adv-x="1488" 
d="M316 384h607l-304 833zM1230 92q2 -2 24 -14q21 -11 53 -21q31 -10 81 -10v-47l-477 1v47q41 0 75 8q27 6 50 17l-96 264h-641v1l-98 -268q19 -9 50 -15q28 -7 69 -7v-47l-320 -1v47q50 0 86 11q30 9 54 22q18 11 20 14l489 1341h250v-48q-44 0 -78 -8q-36 -10 -53 -19z
M589 1537q-9 -6 -21 1q-11 6 -19 18q-7 12 0 21q1 2 4.5 6t9.5 10.5t11 13.5q7 9 44 52q11 14 43 50q3 3 6 6.5t5 5.5t3.5 4t2.5 3v1l1 1q1 2 9 3h13q7 -1 9 -3l1 -1v-1q1 -1 2.5 -3t3.5 -4t5 -5.5t6 -6.5q2 -2 42 -50q37 -43 44 -52q5 -7 11 -13.5t9.5 -10.5t4.5 -6
q7 -9 0 -21t-18 -18q-12 -7 -21 -1q-4 3 -21 18q-14 11 -40 34q-15 13 -45 37q-30 -24 -45 -37q-26 -23 -40 -34q-5 -4 -9.5 -8.5t-7 -6.5t-3.5 -3z" />
    <glyph glyph-name="atilde" unicode="&#xe3;" horiz-adv-x="1489" 
d="M316 384h608l-304 833zM892 1729q1 -2 1 -6q1 -3 1 -5q1 -16 0 -38q-2 -26 -7 -46q-8 -26 -22 -41q-17 -17 -43 -21q-27 -4 -69 12q-44 18 -59 25q-36 14 -73 30q-21 8 -22 9q-32 11 -49 7q-20 -5 -30 -18t-15 -29q-5 -17 -6 -28q0 -6 -1 -7v-2q0 1 -0.5 4t-1 7.5
t-0.5 7.5q-2 27 2 51q3 27 17 54q13 24 42 35q29 9 80 -10q18 -8 60 -24q9 -4 72 -31q21 -8 22 -9q29 -11 49 -6t30 17q11 14 15 28q5 15 6 27q0 5 1 7zM1231 92q2 -2 24 -14q21 -11 53 -21q31 -10 81 -10v-47l-477 1v47q40 0 74 8q29 7 51 17l-96 264h-641v1l-98 -268
q19 -9 50 -15q27 -7 69 -7v-47l-321 -1v47q51 0 87 11q32 10 53 22q18 11 20 14l489 1341h250v-48q-44 0 -78 -8q-34 -9 -52 -19z" />
    <glyph glyph-name="adieresis" unicode="&#xe4;" horiz-adv-x="1489" 
d="M316 384h608l-304 833zM1231 92q5 -4 24 -15q22 -12 53 -20q31 -10 81 -10v-47h-478v47q41 0 75 8q32 7 51 18l-96 264h-642l-97 -267q17 -8 50 -16q27 -7 69 -7v-47h-321v47q51 0 87 11q32 10 53 22q17 10 20 13l489 1341h250v-47q-47 0 -78 -9q-34 -9 -52 -19z
M526 1551q-39 0 -66 28q-28 27 -28 66t28 67q27 28 66 28t67 -28q27 -29 27 -67q0 -39 -27 -66q-28 -28 -67 -28zM863 1551q-39 0 -66 28q-28 27 -28 66t28 67q27 28 66 28t67 -28q27 -29 27 -67q0 -39 -27 -66q-28 -28 -67 -28z" />
    <glyph glyph-name="aring" unicode="&#xe5;" horiz-adv-x="1489" 
d="M597 1571q0 -55 29 -96q28 -40 68 -40h1q41 0 69 40t28 96q0 57 -28 97t-69 40h-1q-40 0 -68 -40q-29 -41 -29 -97zM316 384h608l-304 833zM1231 92q2 -2 24 -14t53 -20q31 -10 81 -10v-48l-478 1v47q41 0 75 8q29 7 51 17l-96 264h-642v1l-97 -268q19 -7 50 -15
q27 -7 69 -7v-47l-321 -1v48q51 0 87 11t53 21q18 11 20 14l489 1339q-100 40 -100 138q0 61 43 104q42 42 102 42h1q61 0 104 -42q42 -43 42 -104q0 -94 -95 -136h153v-47q-47 0 -78 -9q-34 -9 -52 -19z" />
    <glyph glyph-name="ae" unicode="&#xe6;" horiz-adv-x="1976" 
d="M316 384h607l-303 833zM768 1360l281 -771v756q-8 7 -49 25q-39 16 -104 17q-89 -5 -128 -27zM1782 1387h-544v-645h396q11 21 21 53q10 33 10 84h47v-320h-47q0 51 -10 84t-21 52h-396v-648h544q4 4 14 21q12 21 22 53q11 36 11 86h47v-207h-982v47q51 0 87 11
q32 10 53 22l-94 257h-641v1l-97 -268q19 -9 50 -15q27 -7 69 -7v-47l-321 -1v47q51 0 87 11q28 8 53 22q18 11 20 14l489 1341h1227v-207h-47q0 50 -11 86q-10 32 -22 53q-11 18 -14 20z" />
    <glyph glyph-name="ccedilla" unicode="&#xe7;" horiz-adv-x="1092" 
d="M554 1387q-101 -9 -184 -99q-83 -92 -131 -240q-49 -148 -49 -331q0 -181 48 -329t129 -240q80 -90 183 -101q7 -1 23 -1q91 0 175 38q83 37 151 106q5 5 14 22q12 21 22 53q10 33 10 85h47v-321h-47q0 42 -7 70q-8 33 -16 50q-142 -139 -331 -149l-5 -18q66 -4 111 -37
q44 -32 44 -77q0 -47 -49 -80q-49 -34 -120 -34h-2q-75 4 -105 12q-2 0 -5 0.5t-5 1.5v36q2 -1 6 -1q3 -1 5 -1q31 -10 104 -12h2q45 0 79 17q33 17 33 61t-33 64q-34 20 -79 20h-37l15 48q-153 7 -278 105t-198 257q-74 162 -74 355v4q3 201 79 360q76 160 205 256
q127 96 284 96h5q99 0 188 -39q86 -38 161 -110q8 17 16 50q7 28 7 70h47v-321h-47q0 51 -11 87q-9 30 -22 54q-8 14 -13 19q-68 69 -151 106q-84 38 -175 38h-19z" />
    <glyph glyph-name="egrave" unicode="&#xe8;" 
d="M0 1435h982v-207h-47q0 50 -11 86q-10 32 -22 53q-11 18 -14 20h-544v-645h396q11 21 21 53q10 33 10 84h47v-320h-47q0 51 -10 84t-21 52h-396v-648h544q4 4 14 21q12 21 22 53q11 36 11 86h47v-207h-982v47q66 0 106 17q41 18 49 26v1255q-8 8 -49 26q-38 16 -106 16
v48zM547 1537q-5 5 -27 24q-42 34 -53 44q-49 41 -51 43h-1v1q-15 11 -20 16l-1 1q-4 7 0 20q5 13 18 26q14 14 27 18q12 4 18 0l1 -1v-1q9 -9 18 -19q18 -23 42 -51q37 -43 44 -52q5 -7 11 -13.5t9.5 -10.5t4.5 -6q6 -8 0 -20q-8 -12 -19 -18q-12 -7 -21 -1z" />
    <glyph glyph-name="eacute" unicode="&#xe9;" 
d="M434 1537q7 7 28 24q5 5 23 19.5t29 24.5q49 41 51 43h1l1 1q0 1 1 1q14 12 18 15q0 1 1 1q5 7 1 20q-7 14 -19 26q-14 14 -26 18q-13 4 -19 0l-1 -1v-1q-1 -1 -2.5 -3t-3.5 -4t-5 -5.5t-6 -6.5q-2 -2 -43 -51q-37 -43 -44 -52q-6 -7 -11.5 -13.5t-9 -10.5t-4.5 -6
q-6 -8 1 -20q6 -12 18 -18q12 -7 21 -1zM0 1435h982v-207h-48q0 53 -10 86q-10 32 -22 53q-11 18 -14 20h-544v-645h396q11 21 21 53q10 33 10 84h47v-320h-47q0 51 -10 84t-21 52h-396v-648h544q4 4 14 21q12 21 22 53q10 33 10 86h48v-207h-982v47q66 0 106 17
q41 18 49 26v1255q-8 8 -49 26q-38 16 -106 16v48z" />
    <glyph glyph-name="ecircumflex" unicode="&#xea;" 
d="M386 1537q-9 -6 -21 1q-12 6 -18 18q-7 12 -1 21q1 2 4.5 6t9.5 10.5t11 13.5q7 9 44 52q11 14 43 50q0 1 1 1l16 18q0 1 1 2q2 2 9 3h13q8 -1 9 -3l1 -1v-1q1 -1 2.5 -3t3.5 -4t5 -5.5t6 -6.5q15 -18 43 -50q37 -43 44 -52q20 -24 24 -30q7 -9 1 -21q-8 -12 -19 -18
q-12 -7 -21 -1q-1 1 -3.5 3t-7 6.5t-9.5 8.5q-14 11 -40 34q-16 13 -46 37q-30 -24 -45 -37q-26 -23 -40 -34q-5 -4 -9.5 -8.5t-7 -6.5t-3.5 -3zM0 1435h982v-207h-47q0 53 -10 86q-10 32 -22 53q-11 18 -14 20h-545v-645h397q11 21 21 53q10 33 10 84h47v-320h-47
q0 51 -10 84t-21 52h-397v-648h545q4 4 14 21q12 21 22 53q10 33 10 86h47v-207h-982v47q66 0 106 17q42 18 50 26v1255q-8 8 -50 26q-38 16 -106 16v48z" />
    <glyph glyph-name="edieresis" unicode="&#xeb;" 
d="M660 1733q39 0 67 -28q27 -29 27 -67q0 -39 -27 -66q-28 -28 -67 -28t-66 28q-28 27 -28 66t28 67q27 28 66 28zM0 1435h982v-207h-47q0 53 -10 86q-10 32 -22 53q-11 18 -14 20h-545v-645h397q11 21 21 53q10 33 10 84h47v-320h-47q0 51 -10 84t-21 52h-397v-648h545
q4 4 14 21q12 21 22 53q10 33 10 86h47v-207h-982v47q66 0 106 17q42 18 50 26v1255q-8 8 -50 26q-38 16 -106 16v48zM323 1733q39 0 67 -28q27 -29 27 -67q0 -39 -27 -66q-28 -28 -67 -28t-66 28q-28 27 -28 66t28 67q27 28 66 28z" />
    <glyph glyph-name="igrave" unicode="&#xec;" horiz-adv-x="600" 
d="M500 1387q-69 0 -105 -16q-41 -17 -51 -26v-1255q10 -9 51 -26q39 -17 105 -17v-47h-500v47q66 0 106 17q42 18 50 26v1255q-8 8 -50 26q-38 16 -106 16v48h500v-48zM307 1537q-1 1 -4.5 4l-10.5 9t-13 11q-5 5 -23 19.5t-29 24.5q-49 41 -51 43h-1q-4 4 -9 7.5t-8 6
t-4 3.5v1h-1q-4 7 0 20q4 11 19 26q14 14 26 18q13 4 19 0l1 -1v-1q1 -1 2.5 -3t3.5 -4t5 -5.5t6 -6.5q22 -28 43 -51q37 -43 44 -52q20 -24 24 -30q8 -8 0 -20t-18 -18q-12 -7 -21 -1z" />
    <glyph glyph-name="iacute" unicode="&#xed;" horiz-adv-x="600" 
d="M193 1537q1 1 4.5 4l10.5 9t13 11q5 5 23 19.5t29 24.5q8 7 26 21.5t26 21.5q1 0 1 1h1v1h1q9 7 17 15h1l1 1q4 7 0 20q-4 11 -19 26q-14 14 -26 18q-13 4 -19 0l-1 -1v-1q-1 -1 -2.5 -3t-3.5 -4t-5 -5.5t-6 -6.5q-18 -23 -42 -51q-10 -11 -24.5 -29t-19.5 -23
q-5 -7 -11 -13.5t-9.5 -10.5t-4.5 -6q-8 -8 0 -20t19 -18q10 -7 20 -1zM500 1387q-68 0 -106 -16q-42 -18 -50 -26v-1255q8 -8 50 -26q40 -17 106 -17v-47h-500v47q66 0 106 17q42 18 50 26v1255q-8 8 -50 26q-38 16 -106 16v48h500v-48z" />
    <glyph glyph-name="icircumflex" unicode="&#xee;" horiz-adv-x="600" 
d="M500 1387q-69 0 -105 -16q-41 -17 -51 -26v-1255q10 -9 51 -26q39 -17 105 -17v-47h-500v47q67 0 107 17q41 18 49 26v1255q-8 8 -49 26q-38 16 -107 16v48h500v-48zM145 1537q-9 -6 -21 1q-12 6 -18 18q-7 12 -1 21q1 2 4.5 6t9 10.5t11.5 13.5q7 9 44 52q11 14 43 50
l1 1l16 18v1l1 1q1 2 9 3h13q7 -1 9 -3l1 -1v-1q1 -1 2.5 -3t3.5 -4t5 -5.5t6 -6.5q15 -18 43 -50q37 -43 44 -52q19 -24 24 -30q7 -9 0 -21t-18 -18q-12 -7 -21 -1q-1 0 -20 18q-14 11 -40 34q-16 13 -46 37q-30 -24 -45 -37q-26 -23 -40 -34q-5 -4 -9.5 -8.5t-7 -6.5
t-3.5 -3z" />
    <glyph glyph-name="idieresis" unicode="&#xef;" horiz-adv-x="625" 
d="M512 1387q-69 0 -105 -16q-42 -18 -50 -26v-1255q8 -8 50 -26q39 -17 105 -17v-47h-499v47q66 0 106 17q41 18 49 26v1255q-8 8 -49 26q-38 16 -106 16v48h499v-48zM94 1733q39 0 67 -28q27 -29 27 -67q0 -39 -27 -66q-28 -28 -67 -28t-66 28q-28 27 -28 66t28 67
q27 28 66 28zM431 1733q39 0 67 -28q27 -29 27 -67q0 -39 -27 -66q-28 -28 -67 -28t-66 28q-28 27 -28 66t28 67q27 28 66 28z" />
    <glyph glyph-name="eth" unicode="&#xf0;" horiz-adv-x="1231" 
d="M573 47q104 6 186 97q84 92 133 241q50 152 50 332t-50 333q-49 148 -133 240q-82 89 -186 97h-229v-594h369v-152h-369v-594h229zM573 1434q156 -6 282 -102t201 -257q75 -162 75 -358q0 -197 -75 -357q-75 -162 -201 -258q-126 -98 -282 -102h-573v47q66 0 106 17
q41 18 49 26v551h-155v152h155v551q-10 10 -49 27q-38 16 -106 16v47h573z" />
    <glyph glyph-name="ntilde" unicode="&#xf1;" horiz-adv-x="1428" 
d="M861 1729q1 -2 1 -6q1 -3 1 -5q1 -16 0 -38q-2 -26 -7 -46q-8 -26 -22 -41q-17 -17 -43 -21q-27 -4 -70 12q-8 4 -58 24q-8 3 -73 31q-21 8 -22 9q-32 11 -49 7q-19 -5 -30 -18q-10 -13 -15 -29q-5 -17 -6 -28q-1 -3 -1 -7q-1 -1 -1 -3v1q-1 3 -1 19q-2 27 2 51
q3 30 16 54t43 35q29 9 80 -10q18 -8 60 -24q9 -4 72 -31q20 -7 21 -9q30 -10 49 -6q20 5 30 17q12 16 16 28q4 15 6 27q0 5 1 7zM1328 1387q-68 0 -106 -16q-42 -18 -50 -26v-1345l-217 1l-753 1301v-1212q8 -8 50 -26q40 -17 106 -17v-47h-358v47q66 0 106 17q41 18 49 26
v1255q-8 8 -49 26q-38 16 -106 16v48h343l782 -1353v1263q-8 8 -49 26q-38 16 -107 16v48h359v-48z" />
    <glyph glyph-name="ograve" unicode="&#xf2;" horiz-adv-x="1534" 
d="M717 47q147 0 266 91q120 90 192 242q71 153 71 337q0 185 -71 338q-72 151 -192 243q-120 90 -266 90t-266 -90q-121 -92 -191 -243q-72 -151 -72 -338q0 -185 72 -337q71 -152 191 -242q119 -91 266 -91zM717 1435q198 0 361 -97t260 -260q96 -164 96 -361
q0 -198 -96 -360q-97 -163 -260 -260t-361 -97t-361 97q-164 98 -259 260q-97 161 -97 360q0 198 97 361q95 162 259 260q163 97 361 97zM774 1537q-1 1 -4.5 4l-10.5 9t-13 11q-5 5 -23 19.5t-29 24.5q-49 41 -51 43h-1q-16 14 -20 17h-1l-1 1q-4 7 0 20q5 13 18 26
q14 14 27 18t19 0l1 -1v-1q1 -1 2.5 -3t3.5 -4t5 -5.5t6 -6.5q22 -28 43 -51q37 -43 44 -52q19 -24 24 -30q8 -8 0 -20q-7 -12 -18 -18q-12 -7 -21 -1z" />
    <glyph glyph-name="oacute" unicode="&#xf3;" horiz-adv-x="1534" 
d="M717 47q147 0 266 91q120 90 191 242q71 153 71 337q0 185 -71 338q-70 151 -191 243q-120 90 -266 90t-266 -90q-121 -92 -191 -243q-72 -151 -72 -338q0 -185 72 -337q71 -152 191 -242q119 -91 266 -91zM660 1537q1 1 4.5 4l10.5 9t13 11q5 5 23 19.5t29 24.5
q49 41 51 43h1v1h1q3 3 7.5 7t7 6t3.5 3h1l1 1q5 7 1 20q-4 11 -19 26q-14 14 -26 18q-13 4 -19 0l-1 -1v-1q-1 -1 -2.5 -3t-3.5 -4t-5 -5.5t-6 -6.5q-18 -23 -42 -51q-10 -11 -24.5 -29t-19.5 -23q-6 -7 -11.5 -13.5t-9 -10.5t-4.5 -6q-8 -8 0 -20q6 -12 18 -18
q12 -7 21 -1zM717 1435q198 0 361 -97q162 -98 259 -260q97 -163 97 -361q0 -199 -97 -360q-97 -162 -259 -260q-163 -97 -361 -97t-361 97q-164 98 -259 260q-97 161 -97 360q0 198 97 361q95 162 259 260q163 97 361 97z" />
    <glyph glyph-name="ocircumflex" unicode="&#xf4;" horiz-adv-x="1535" 
d="M717 47q147 0 266 91q120 90 192 242q71 153 71 337q0 185 -71 338q-72 151 -192 243q-120 90 -266 90t-266 -90q-121 -92 -191 -243q-71 -153 -71 -338q0 -184 71 -337q71 -152 191 -242q119 -91 266 -91zM612 1537q-9 -6 -21 1q-12 6 -18 18q-7 12 -1 21q1 2 4.5 6
t9.5 10.5t11 13.5q7 9 44 52q11 14 43 50l2 2q7 9 15 17q0 1 1 2q2 2 9 3h13q8 -1 9 -3l1 -1v-1q1 -1 2.5 -3t3.5 -4t5 -5.5t6 -6.5q15 -18 43 -50q37 -43 44 -52q5 -7 11 -13.5t9.5 -10.5t4.5 -6q6 -9 0 -21q-8 -12 -19 -18q-12 -7 -21 -1q-1 1 -3.5 3t-7 6.5t-9.5 8.5
q-14 11 -40 34q-3 3 -46 37q-30 -24 -45 -37q-26 -23 -40 -34q-5 -4 -9.5 -8.5t-7 -6.5t-3.5 -3zM717 1435q198 0 361 -97t260 -260t97 -361q0 -199 -97 -360q-97 -163 -260 -260t-361 -97q-199 0 -360 97q-163 97 -260 260q-97 161 -97 360q0 198 97 361t260 260
q161 97 360 97z" />
    <glyph glyph-name="otilde" unicode="&#xf5;" horiz-adv-x="1534" 
d="M717 47q147 0 266 91q120 90 192 242q71 153 71 337q0 185 -71 338q-72 151 -192 243q-120 90 -266 90t-266 -90q-121 -92 -191 -243q-71 -153 -71 -338q0 -184 71 -337q71 -152 191 -242q119 -91 266 -91zM914 1729q1 -2 1 -6q1 -3 1 -5q1 -16 0 -38q-2 -26 -7 -46
q-8 -26 -22 -41q-15 -17 -42 -21t-70 12q-5 2 -13.5 5.5t-22 9t-23.5 9.5q-16 7 -43 18.5t-29 12.5q-20 7 -22 9q-32 11 -49 7q-19 -5 -30 -18q-12 -15 -16 -29q-5 -17 -6 -28q0 -6 -1 -7v-2q-1 3 -1 19q-2 25 1 51q3 27 17 54q13 24 43 35q29 9 80 -10q18 -8 60 -24
q9 -4 72 -31q20 -7 21 -9q30 -10 49 -6q20 5 30 17q12 16 16 28q3 9 5 27q0 5 1 7zM717 1435q198 0 361 -97t260 -260q96 -164 96 -361q0 -198 -96 -360q-97 -163 -260 -260t-361 -97q-199 0 -360 97q-163 97 -260 260q-97 161 -97 360q0 198 97 361t260 260q161 97 360 97z
" />
    <glyph glyph-name="odieresis" unicode="&#xf6;" horiz-adv-x="1535" 
d="M717 47q147 0 266 91q120 90 192 242q71 153 71 337q0 185 -71 338q-72 151 -192 243q-120 90 -266 90t-266 -90q-121 -92 -191 -243q-71 -153 -71 -338q0 -184 71 -337q71 -152 191 -242q119 -91 266 -91zM886 1733q39 0 67 -28q27 -29 27 -67q0 -39 -27 -66
q-28 -28 -67 -28t-66 28q-28 27 -28 66t28 67q27 28 66 28zM717 1435q198 0 361 -97t260 -260t97 -361q0 -199 -97 -360q-97 -163 -260 -260t-361 -97q-199 0 -360 97q-163 97 -260 260q-97 161 -97 360q0 198 97 361t260 260q161 97 360 97zM549 1733q39 0 67 -28
q27 -29 27 -67q0 -39 -27 -66q-28 -28 -67 -28t-66 28q-28 27 -28 66t28 67q27 28 66 28z" />
    <glyph glyph-name="divide" unicode="&#xf7;" horiz-adv-x="914" 
d="M200 782h714v-152h-714v152zM557 582q39 0 67 -28q27 -28 27 -67t-27 -66q-28 -28 -67 -28t-66 28q-28 27 -28 66t28 67q27 28 66 28zM557 844q-39 0 -66 28q-28 27 -28 66t28 67q27 28 66 28t67 -28q27 -29 27 -67q0 -39 -27 -66q-28 -28 -67 -28z" />
    <glyph glyph-name="oslash" unicode="&#xf8;" horiz-adv-x="1534" 
d="M188 717q0 -157 54 -294q52 -134 145 -229l625 1080q-130 114 -295 114q-146 0 -266 -90q-121 -92 -191 -243q-72 -151 -72 -338zM717 47q147 0 266 91q120 90 192 242q71 153 71 337q0 157 -53 295q-53 133 -146 229l-625 -1080q130 -114 295 -114zM1096 1326
q157 -99 247 -256q91 -160 91 -353q0 -198 -96 -360q-97 -163 -260 -260t-361 -97q-185 0 -339 85l-49 -85h-54l63 109q-155 98 -246 257q-92 160 -92 351q0 198 97 361q95 162 259 260q163 97 361 97q185 0 339 -85l49 85h54z" />
    <glyph glyph-name="ugrave" unicode="&#xf9;" horiz-adv-x="1391" 
d="M1291 1435v-48q-69 0 -105 -16q-42 -18 -50 -26v-985q0 -100 -48 -181q-50 -83 -143 -130q-94 -49 -229 -49q-104 0 -201 28q-100 28 -181 78t-129 114q-49 64 -49 140v985q-9 8 -50 26q-38 16 -106 16v48h500v-48q-68 0 -106 -16q-42 -18 -50 -26v-1025q0 -76 51 -137
q49 -61 135 -99q83 -37 186 -37q104 0 188 37q84 38 135 99q50 62 50 137v1025q-8 8 -50 26q-38 16 -106 16v48h358zM702 1537q-4 5 -27 24q-42 34 -53 44q-49 41 -51 43h-1l-1 1q0 1 -1 1q-14 12 -18 15q0 1 -1 1q-4 7 0 20q5 13 18 26q13 14 27 18q12 4 18 0l1 -1v-1
q9 -9 18 -19q18 -23 42 -51q37 -43 44 -52q6 -7 11.5 -13.5t9 -10.5t4.5 -6q6 -8 0 -20q-8 -12 -19 -18q-12 -7 -21 -1z" />
    <glyph glyph-name="uacute" unicode="&#xfa;" horiz-adv-x="1392" 
d="M589 1537q1 1 4.5 4l10.5 9t13 11q5 5 23 19.5t29 24.5q8 7 26 21.5t26 21.5q1 0 1 1l3 2l3 3q1 1 2 1q3 3 6.5 6t4.5 4h1l1 1q4 7 0 20q-5 13 -18 26t-26 18q-13 4 -20 0l-1 -1v-1q-1 -1 -2.5 -3t-3.5 -4t-5 -5.5t-6 -6.5q-18 -23 -42 -51q-37 -43 -44 -52
q-5 -7 -11 -13.5t-9.5 -10.5t-4.5 -6q-8 -8 0 -20t19 -18q10 -7 20 -1zM1292 1435v-48q-68 0 -106 -16q-42 -18 -50 -26v-985q0 -100 -48 -181q-50 -83 -143 -130q-94 -49 -229 -49q-102 0 -201 28q-101 28 -180 78q-80 49 -130 114q-49 64 -49 140v985q-8 8 -49 26
q-38 16 -107 16v48h500v-48q-69 0 -105 -16q-41 -17 -51 -26v-155v-355q0 -252 1 -356v-159q0 -75 50 -137q49 -61 135 -99q83 -37 187 -37t188 37q85 38 134 99q50 62 50 137v1025q-8 8 -49 26q-38 16 -106 16v48h358z" />
    <glyph glyph-name="ucircumflex" unicode="&#xfb;" horiz-adv-x="1391" 
d="M1291 1435v-48q-69 0 -105 -16q-42 -18 -50 -26v-985q0 -101 -49 -181q-49 -82 -142 -130q-94 -49 -229 -49q-104 0 -201 28q-100 28 -181 78t-129 114q-49 64 -49 140h-1v985q-8 8 -49 26q-38 16 -106 16v48h500v-48q-70 0 -106 -16q-42 -18 -50 -26v-1025
q0 -76 51 -137q49 -61 135 -99q83 -37 186 -37q104 0 188 37q84 38 135 99q50 62 50 137v1025q-8 8 -50 26q-38 16 -106 16v48h358zM540 1537q-9 -6 -21 1q-12 6 -18 18q-7 12 0 21q1 2 4.5 6t9.5 10.5t11 13.5q5 5 19.5 23t24.5 29q40 48 42 50q1 0 1 1l3 3q0 1 1 1
q3 4 6.5 8.5t4.5 5.5l2 2q2 2 9 3h14q7 -2 8 -3l1 -1v-1q9 -9 18 -19q2 -2 42 -50q37 -43 44 -52q6 -7 11.5 -13.5t9 -10.5t4.5 -6q6 -9 0 -21q-8 -12 -19 -18q-12 -7 -21 -1q-1 1 -3.5 3t-7 6.5t-9.5 8.5q-14 11 -40 34q-15 13 -45 37q-30 -24 -45 -37q-9 -7 -23 -19
t-18 -15q-5 -4 -9.5 -8.5t-7 -6.5t-3.5 -3z" />
    <glyph glyph-name="udieresis" unicode="&#xfc;" horiz-adv-x="1391" 
d="M1291 1435v-48q-69 0 -105 -16q-42 -18 -50 -26v-985q0 -100 -48 -181q-50 -83 -143 -130q-94 -49 -229 -49q-104 0 -201 28q-100 28 -181 78t-129 114q-49 64 -49 140v985q-8 8 -50 26q-38 16 -106 16v48h500v-48q-68 0 -106 -16q-42 -18 -50 -26v-1025q0 -76 51 -137
q49 -61 135 -99q83 -37 187 -37q103 0 187 37q84 38 135 99q50 62 50 137v1025q-8 8 -50 26q-38 16 -106 16v48h358zM477 1733q39 0 67 -28t28 -67t-28 -66q-28 -28 -67 -28t-66 28q-28 27 -28 66t28 67q27 28 66 28zM814 1733q39 0 67 -28t28 -67t-28 -66q-28 -28 -67 -28
t-66 28q-28 27 -28 66t28 67q27 28 66 28z" />
    <glyph glyph-name="yacute" unicode="&#xfd;" horiz-adv-x="1559" 
d="M673 1537q7 7 28 24q5 5 23 19.5t29 24.5q49 41 51 43h1v1h1l18 16h1l1 1q5 7 1 20q-7 14 -19 26q-13 13 -26 18q-13 4 -19 0l-1 -1v-1q-1 -1 -2.5 -3t-3.5 -4t-5 -5.5t-6 -6.5q-2 -2 -43 -51q-37 -43 -44 -52q-5 -7 -11 -13.5t-9.5 -10.5t-4.5 -6q-6 -8 1 -20
q6 -12 18 -18q12 -7 21 -1zM1138 1434h321v-47q-61 0 -100 -14q-38 -15 -52 -26l-483 -831v-426q8 -8 50 -26q39 -17 105 -17v-47h-499v47q66 0 106 17q41 18 49 26v426l-478 828q-2 1 -6 3.5t-9 6t-11 6.5q-16 9 -52 19q-35 8 -79 8v48h478v-48q-38 0 -67 -6
q-30 -6 -49 -15l450 -778l450 775q-22 10 -51 17t-73 7v47z" />
    <glyph glyph-name="thorn" unicode="&#xfe;" horiz-adv-x="1003" 
d="M420 394q126 14 210 105t84 218q0 131 -89 223t-222 101h-214v-647h231zM532 1088q104 0 187 -52q85 -53 134 -138q50 -86 50 -188q0 -101 -50 -184t-134 -131t-187 -48h-343v-347h-189v1435h189v-347h335v-1q3 1 8 1z" />
    <glyph glyph-name="ydieresis" unicode="&#xff;" horiz-adv-x="1559" 
d="M1139 1434h320v-47q-60 0 -99 -14q-38 -15 -52 -26l-484 -831v-426q8 -8 50 -26q40 -17 106 -17v-47h-500v47q66 0 106 17q42 18 50 26v426l-479 828q-2 1 -6 3.5t-9 6t-11 6.5q-16 9 -52 19q-35 8 -79 8v48h478v-48q-38 0 -67 -6q-30 -6 -49 -15l450 -778l450 775
q-21 10 -50 17t-73 7v47zM561 1733q39 0 67 -28q27 -29 27 -67q0 -39 -27 -66q-28 -28 -67 -28t-66 28q-28 27 -28 66t28 67q27 28 66 28zM898 1733q39 0 67 -28q27 -29 27 -67q0 -39 -27 -66q-28 -28 -67 -28t-66 28q-28 27 -28 66t28 67q27 28 66 28z" />
    <glyph glyph-name="hungarumlaut" unicode="&#x2dd;" horiz-adv-x="597" 
d="M573 1516q12 -12 19 -26q4 -14 -1 -19v-1h-1q-1 -1 -4 -3.5t-7.5 -7t-8.5 -7.5q-8 -7 -26 -21.5t-26 -21.5q-11 -10 -29 -24.5t-23 -19.5q-21 -17 -28 -24q-9 -6 -21 1q-12 6 -18 18q-7 12 -1 21q1 2 4.5 6t9.5 10.5t11 13.5q7 9 44 52q11 14 43 50q3 3 6 6.5t5 5.5
t3.5 4t2.5 3l1 1v1q6 4 19 0q13 -5 26 -18zM207 1381q1 2 4.5 6t9 10.5t11.5 13.5q7 9 44 52q11 14 43 50q3 3 6 6.5t5 5.5t3.5 4t2.5 3l1 1v1q6 4 19 0q13 -5 26 -18t18 -26q4 -13 0 -19v-1h-1q-5 -4 -21 -18q-8 -7 -26 -21.5t-26 -21.5q-11 -10 -29 -24.5t-23 -19.5
q-5 -4 -10 -8.5t-8.5 -7t-6 -5l-3.5 -3.5q-8 -6 -20 1q-11 6 -19 18q-7 12 0 21z" />
    <glyph glyph-name="quoteleft" unicode="&#x2018;" horiz-adv-x="290" 
d="M245 1558q17 0 32 -5q13 -6 13 -14v-2l-2 -26q-3 -29 -6 -66q-4 -55 -5 -67q-3 -36 -4 -39q-2 -11 -15 -14q-13 -4 -26 0q-13 3 -15 14q0 5 -3 36q-3 28 -6 68q-4 54 -5 67h-1l-2 27v2q0 8 13 14q15 5 32 5z" />
    <glyph glyph-name="quoteright" unicode="&#x2019;" horiz-adv-x="290" 
d="M245 1558q17 0 32 -5q13 -6 13 -14v-2l-2 -26q-3 -29 -6 -66q-4 -55 -5 -67q-3 -36 -4 -39q-2 -11 -15 -14q-13 -4 -26 0q-13 3 -15 14q0 5 -3 36q-3 28 -6 68q-4 54 -5 67h-1l-2 27v2q0 8 13 14q15 5 32 5z" />
    <glyph glyph-name="quotesinglbase" unicode="&#x201a;" horiz-adv-x="290" 
d="M245 114q17 0 32 -5q13 -6 13 -14v-2q0 -2 -0.5 -5.5t-1 -9.5t-0.5 -11q-3 -29 -6 -66q-4 -55 -5 -67q-3 -36 -4 -39q-2 -11 -15 -14q-13 -4 -26 0q-13 3 -15 14q0 5 -3 36q-3 28 -6 68q-4 54 -5 67h-1l-2 27v2q0 8 13 14q15 5 32 5z" />
    <glyph glyph-name="quotedblleft" unicode="&#x201c;" horiz-adv-x="412" 
d="M244 1552q17 0 32 -5q13 -6 13 -14v-2l-2 -26q-3 -29 -6 -66q-4 -55 -5 -67q-3 -36 -4 -39q-2 -11 -14 -14q-13 -4 -26 0q-14 3 -16 14q0 1 -0.5 5.5t-1 13t-0.5 17.5q-3 28 -6 68q-4 37 -6 67l-2 27v2q0 8 13 14q15 5 31 5zM368 1552q16 0 31 -5q13 -6 13 -14v-2l-2 -26
q-1 -10 -5 -66q-5 -38 -6 -67q-3 -32 -3 -39q-2 -11 -15 -14q-13 -4 -26 0q-13 3 -15 14q-2 5 -3 36q-3 28 -6 68q-4 54 -5 67h-1l-2 27v2q0 8 13 14q15 5 32 5z" />
    <glyph glyph-name="quotedblright" unicode="&#x201d;" horiz-adv-x="412" 
d="M244 1552q17 0 32 -5q13 -6 13 -14v-2l-2 -26q-3 -29 -6 -66q-4 -55 -5 -67q-3 -36 -4 -39q-2 -11 -14 -14q-13 -4 -26 0q-14 3 -16 14q0 1 -0.5 5.5t-1 13t-0.5 17.5q-3 28 -6 68q-4 37 -6 67l-2 27v2q0 8 13 14q15 5 31 5zM368 1552q16 0 31 -5q13 -6 13 -14v-2l-2 -26
q-1 -10 -5 -66q-5 -38 -6 -67q-3 -32 -3 -39q-2 -11 -15 -14q-13 -4 -26 0q-13 3 -15 14q-2 5 -3 36q-3 28 -6 68q-4 54 -5 67h-1l-2 27v2q0 8 13 14q15 5 32 5z" />
    <glyph glyph-name="quotedblbase" unicode="&#x201e;" horiz-adv-x="412" 
d="M244 114q17 0 32 -5q13 -6 13 -14v-2q0 -2 -0.5 -5.5t-1 -9.5t-0.5 -11q-3 -29 -6 -66q-4 -55 -5 -67q-3 -36 -4 -39q-2 -11 -14 -14q-13 -4 -26 0q-14 3 -16 14q0 1 -0.5 5.5t-1 13t-0.5 17.5q-3 28 -6 68q-4 37 -6 67l-2 27v2q0 8 13 14q15 5 31 5zM368 114q16 0 31 -5
q13 -6 13 -14v-2q0 -2 -0.5 -5.5t-1 -9.5t-0.5 -11q-1 -10 -5 -66q-5 -38 -6 -67q-3 -32 -3 -39q-2 -11 -15 -14q-13 -4 -26 0q-13 3 -15 14q-2 5 -3 36q-3 28 -6 68q-4 54 -5 67h-1l-2 27v2q0 8 13 14q15 5 32 5z" />
    <glyph glyph-name="fraction" unicode="&#x2044;" horiz-adv-x="342" 
d="M-684 -29l940 1461h84l-938 -1461h-86z" />
    <glyph glyph-name="fraction" unicode="&#x2215;" horiz-adv-x="342" 
d="M-684 -29l940 1461h84l-938 -1461h-86z" />
    <glyph glyph-name="franc" unicode="&#x20a3;" horiz-adv-x="1170" 
d="M88 1434h982v-207h-47q0 53 -10 86q-9 30 -22 54q-11 18 -14 20h-545v-645h397q10 17 21 53q10 33 10 83h47v-320h-47q0 51 -10 84q-10 32 -21 53h-397v-294h245v-40h-245v-272q9 -8 50 -25q40 -17 106 -17v-47h-500v47q66 0 106 17q41 17 50 25v272h-244v40h244v943
q-10 10 -50 27q-38 16 -106 16v47z" />
    <glyph glyph-name="lira" unicode="&#x20a4;" horiz-adv-x="1117" 
d="M579 1388q-103 -6 -177 -77t-94 -214q-21 -144 37 -367h446v-40h-435q3 -13 10 -39.5t10 -36.5h414v-40h-404q22 -86 39 -149q4 -24 -10 -102q-16 -81 -37 -156q-22 -80 -42 -127h604q10 12 23 43q14 33 14 89h40v-172h-904v1q4 7 21 55q45 129 46 131q23 68 41 143
q16 66 10 95q-23 77 -45 149h-186v40h173q-16 52 -23 76h-150v40h138q-51 202 1 360q53 159 176 252t278 93h5q98 0 187 -39q90 -41 162 -110q8 17 16 50q6 28 6 69h48v-320h-48q0 54 -10 87q-10 32 -22 53q-12 18 -14 20q-69 69 -150 106q-84 38 -175 38q-13 0 -19 -1z" />
    <glyph glyph-name="Euro" unicode="&#x20ac;" horiz-adv-x="1178" 
d="M640 1387q-143 -15 -244 -180q-100 -164 -118 -416h400v-40h-402v-35q0 -33 1 -50h401v-40h-399q21 -241 119 -403q97 -159 238 -176q7 -1 23 -1q91 0 175 38q83 37 151 106q4 4 14 21q12 21 22 53q10 33 10 86h47v-321h-47q0 42 -7 70q-8 33 -16 50q-74 -71 -162 -110
t-187 -39h-5q-143 0 -265 83t-200 224q-78 139 -98 319h-91v40h88q-2 34 -2 50v5l1 30h-87v40h89q16 180 95 327q78 145 201 230q121 85 269 85h5q99 0 187 -39t162 -110q8 17 16 50q7 28 7 70h47v-321h-47q0 51 -11 87q-10 32 -22 53q-10 17 -13 20q-68 69 -151 106
q-84 38 -175 38h-19z" />
    <glyph glyph-name="minus" unicode="&#x2212;" horiz-adv-x="914" 
d="M200 639h714v152h-714v-152z" />
    <glyph glyph-name="approxequal" unicode="&#x2248;" horiz-adv-x="1014" 
d="M1017 1053v-156q-62 -71 -122 -97t-116 -26q-61 0 -177 49q-118 48 -177 48q-52 0 -107 -28q-57 -28 -130 -112v156q64 73 123 99q60 26 114 26q65 0 182 -49q118 -50 172 -50q53 0 109 28q56 29 129 112zM1017 705v-156q-62 -71 -122 -97t-116 -26q-61 0 -177 49
q-118 48 -177 48q-52 0 -107 -28q-57 -28 -130 -112v156q64 73 123 99q60 26 114 26q65 0 182 -49q118 -50 172 -50q53 0 109 28q56 29 129 112z" />
    </font>
</defs>
</svg>
