<?xml version="1.0" standalone="no"?>
<!DOCTYPE svg PUBLIC "-//W3C//DTD SVG 1.1//EN" "http://www.w3.org/Graphics/SVG/1.1/DTD/svg11.dtd" >
<svg xmlns="http://www.w3.org/2000/svg" xmlns:xlink="http://www.w3.org/1999/xlink" version="1.1">
<metadata>
Created by FontForge 20170731 at Mon May 31 12:44:59 2021
 By Aleksey,,,
Copyright (c) 2020 by Typotopia. All rights reserved.
</metadata>
<defs>
<font id="Alaska-Regular" horiz-adv-x="720" >
  <font-face 
    font-family="Alaska"
    font-weight="400"
    font-stretch="normal"
    units-per-em="2048"
    panose-1="0 0 0 0 0 0 0 0 0 0"
    ascent="1638"
    descent="-410"
    x-height="899"
    cap-height="1434"
    bbox="-672 -567 2193 1917"
    underline-thickness="102"
    underline-position="-307"
    unicode-range="U+0020-2122"
  />
<missing-glyph horiz-adv-x="952" 
d="M780 1536v-1905h-604v1905h604zM635 1409h-316v-63h125v-70h-127v-64h318v64h-127v70h127v63zM508 1163h-191v-198h318v65h-127v133zM444 1098v-68h-63v68h63zM635 913h-318v-63h127v-70h-127v-63h191v133h127v63zM635 799h-64v-125h-254v-66h318v191zM635 567h-191v-106
h64v43h63v-90h-190v153h-64v-215h318v215zM635 238h-318v-215h318v215zM571 174v-90h-190v90h190zM635 -23h-318v-61h134l-134 -90v-64h318v64h-195l133 90h62v61z" />
    <glyph glyph-name=".notdef" horiz-adv-x="952" 
d="M780 1536v-1905h-604v1905h604zM635 1409h-316v-63h125v-70h-127v-64h318v64h-127v70h127v63zM508 1163h-191v-198h318v65h-127v133zM444 1098v-68h-63v68h63zM635 913h-318v-63h127v-70h-127v-63h191v133h127v63zM635 799h-64v-125h-254v-66h318v191zM635 567h-191v-106
h64v43h63v-90h-190v153h-64v-215h318v215zM635 238h-318v-215h318v215zM571 174v-90h-190v90h190zM635 -23h-318v-61h134l-134 -90v-64h318v64h-195l133 90h62v61z" />
    <glyph glyph-name=".null" horiz-adv-x="0" 
 />
    <glyph glyph-name="nonmarkingreturn" horiz-adv-x="682" 
 />
    <glyph glyph-name="space" unicode=" " horiz-adv-x="307" 
 />
    <glyph glyph-name="exclam" unicode="!" horiz-adv-x="264" 
d="M35 170v1264h192v-1264h-192zM131 -156q-51 0 -87 36.5t-36 88.5q0 51 36 87t87 36q52 0 88.5 -36t36.5 -87q0 -53 -36 -89t-89 -36z" />
    <glyph glyph-name="quotedbl" unicode="&#x22;" horiz-adv-x="403" 
d="M8 1145v311h125v-311h-125zM199 1145v311h125v-311h-125z" />
    <glyph glyph-name="numbersign" unicode="#" horiz-adv-x="1112" 
d="M59 0l107 307h-146v133h193l90 258h-215v136h260l109 307h188l-106 -307h219l106 307h191l-107 -307h144v-136h-191l-90 -258h215v-133h-260l-109 -307h-188l106 307h-219l-106 -307h-191zM403 440h218l90 258h-217z" />
    <glyph glyph-name="dollar" unicode="$" horiz-adv-x="661" 
d="M375 655q72 -42 115 -71.5t82.5 -68.5t57 -82t17.5 -97q0 -95 -69 -150t-170 -67v-201h-154v209q-158 38 -188 143q-5 21 -10.5 51t-8.5 42.5t-12.5 25t-26.5 17.5h260q-32 -20 -39 -59.5t6 -76t44 -64.5t69 -28q52 2 92.5 47t40.5 111q0 59 -46 104.5t-165 108.5
q-77 42 -124.5 98t-58 111t3 105t57 87t106.5 51v205h154v-205q137 -28 186 -147q13 -29 19 -63t12.5 -50.5t27.5 -21.5h-260q26 15 37.5 49.5t3.5 73.5v2q0 1 -1 3t-1 3q-23 96 -106 96q-45 -2 -69 -51t3 -119.5t115 -120.5z" />
    <glyph glyph-name="percent" unicode="%" horiz-adv-x="1376" 
d="M8 8l1120 1434h240l-1120 -1434h-240zM236 827q-97 0 -162.5 57t-65.5 158v185q0 101 65.5 158t162.5 57q98 0 163.5 -56.5t65.5 -158.5v-185q0 -102 -65.5 -158.5t-163.5 -56.5zM236 877q25 0 40.5 11t23.5 36.5t10.5 55t2.5 77.5v155q0 49 -2.5 79t-10.5 55.5t-23.5 37
t-40.5 11.5q-47 0 -62.5 -43.5t-15.5 -139.5v-155q0 -94 15.5 -137t62.5 -43zM1139 8q-97 0 -162.5 57.5t-65.5 157.5v187q0 100 65.5 156.5t162.5 56.5q98 0 163.5 -56.5t65.5 -156.5v-187q0 -101 -65.5 -158t-163.5 -57zM1139 57q25 0 41 11.5t24 36.5t10.5 55.5t2.5 77.5
v157q0 64 -5 99.5t-22.5 58t-50.5 22.5q-47 0 -62.5 -43t-15.5 -137v-157q0 -95 16 -138t62 -43z" />
    <glyph glyph-name="ampersand" unicode="&#x26;" horiz-adv-x="1075" 
d="M1147 -45q1 -18 -13.5 -34.5t-43.5 -26t-64.5 -9.5t-82 17.5t-91.5 52.5q-8 5 -23 17.5t-22 17.5q-119 -146 -326 -146q-224 0 -354 127.5t-119 321.5q8 131 65.5 210t164.5 140q-42 76 -70 166q-26 82 -33.5 150.5t1 115.5t30 84t48.5 59t61.5 36t64.5 19t61 5
q138 0 223 -76t93 -203q4 -95 -75 -200t-206 -178q117 -185 289 -357q-3 152 -141 281q21 23 48.5 42.5t64.5 31.5t70.5 6t67.5 -43t56 -105q25 -76 23.5 -172t-33.5 -182q93 -77 166.5 -122.5t99.5 -45.5zM414 1200q-39 0 -69.5 -18.5t-48 -58.5t-17.5 -95t24.5 -134
t73.5 -171q136 90 184.5 205t4 193.5t-151.5 78.5zM463 -43q59 0 119 39.5t98 103.5q-241 218 -377 432q-73 -60 -98 -120t-31 -166q-8 -118 73.5 -203.5t215.5 -85.5z" />
    <glyph glyph-name="quotesingle" unicode="'" horiz-adv-x="172" 
d="M8 1149v301h121v-301h-121z" />
    <glyph glyph-name="parenleft" unicode="(" horiz-adv-x="382" 
d="M375 4q-157 0 -262 133t-105 369v432q0 236 105 368t262 132v-111q-80 0 -127 -112t-47 -312v-362q0 -200 47 -312t127 -112v-113z" />
    <glyph glyph-name="parenright" unicode=")" horiz-adv-x="382" 
d="M8 4v113q80 0 126 111.5t46 312.5v362q0 201 -46 312.5t-126 111.5v111q156 0 261.5 -132t105.5 -368v-432q0 -236 -105.5 -369t-261.5 -133z" />
    <glyph glyph-name="asterisk" unicode="*" horiz-adv-x="468" 
d="M184 1272v151l-106 -106l-70 69l156 156l-156 156l70 69l106 -106v149h99v-149l106 106l70 -69l-156 -156l156 -156l-70 -69l-106 106v-151h-99z" />
    <glyph glyph-name="plus" unicode="+" horiz-adv-x="649" 
d="M256 258v248h-248v137h248v248h137v-248h248v-137h-248v-248h-137z" />
    <glyph glyph-name="comma" unicode="," horiz-adv-x="172" 
d="M29 -150v281h102v-281h-102z" />
    <glyph glyph-name="hyphen" unicode="-" horiz-adv-x="649" 
d="M8 438v140h633v-140h-633z" />
    <glyph glyph-name="period" unicode="." horiz-adv-x="229" 
d="M115 -156q-44 0 -75.5 32t-31.5 75q0 44 31.5 75t75.5 31q43 0 73.5 -31t30.5 -75q0 -43 -31 -75t-73 -32z" />
    <glyph glyph-name="slash" unicode="/" horiz-adv-x="997" 
d="M8 -12l740 1433h239l-739 -1433h-240z" />
    <glyph glyph-name="zero" unicode="0" horiz-adv-x="745" 
d="M371 0q-75 0 -140 32.5t-115 94t-79 158.5t-29 217v430q0 120 29 217t79 158.5t115 94t140 32.5h2q155 0 258.5 -132t103.5 -370v-430q0 -238 -103.5 -370t-258.5 -132h-2zM371 113h2q74 0 98.5 99.5t24.5 322.5v364q0 223 -24.5 322.5t-98.5 99.5h-2q-74 0 -98.5 -99.5
t-24.5 -322.5v-364q0 -223 24.5 -322.5t98.5 -99.5z" />
    <glyph glyph-name="one" unicode="1" horiz-adv-x="403" 
d="M51 0q51 32 51 133v1186q-78 -10 -94 -37q0 36 4.5 62t16 42.5t23.5 26.5t36.5 14.5t44.5 5.5t57 1h203q-51 -32 -51 -136v-1165q0 -101 51 -133h-342z" />
    <glyph glyph-name="two" unicode="2" horiz-adv-x="819" 
d="M8 0v193q72 0 163 63.5t169.5 160t138 219t72.5 230.5q13 130 8 217.5t-33.5 140.5t-68 75t-95.5 22q-108 0 -168.5 -68.5t-31.5 -171.5q-76 0 -112 59t-17 134q20 70 110.5 115t204.5 45q52 0 94.5 -5.5t94 -24.5t91.5 -51t76.5 -90t57.5 -137q19 -60 16.5 -143
t-16.5 -171.5t-47.5 -182t-77 -175.5t-105 -151.5t-131.5 -109.5h332q49 -3 76 24l-92 -217h-709z" />
    <glyph glyph-name="three" unicode="3" horiz-adv-x="790" 
d="M369 0q-177 0 -280.5 155.5t-74.5 391.5q7 58 37.5 99t73 57t97.5 -0.5t106 -67.5q-88 0 -107 -100q-32 -179 16 -300.5t132 -121.5q80 0 126 110.5t46 311.5v102q0 79 -24.5 129.5t-82.5 83.5q-25 15 -92 43t-106 53t-39 51q106 -28 178 56q56 64 58 149q2 81 -51 109
q-21 10 -46 10q-38 0 -74.5 -17.5t-63 -49.5t-36.5 -76t4 -97q-76 0 -112 59t-17 134q20 70 110.5 115t204.5 45q60 0 108 -13t89 -42.5t63.5 -83t22.5 -128.5q0 -98 -90 -178q107 -28 171 -112t64 -150v-225q0 -244 -108 -373t-303 -129z" />
    <glyph glyph-name="four" unicode="4" horiz-adv-x="815" 
d="M465 0q51 32 51 133v158h-508l23 55l370 952q41 103 0 136h342q-64 -33 -102 -136l-350 -897h225v156q0 103 -51 135h342q-51 -32 -51 -135v-424q0 -101 51 -133h-342z" />
    <glyph glyph-name="five" unicode="5" horiz-adv-x="882" 
d="M406 0q-200 0 -310.5 154t-81.5 395q7 55 40.5 96t80 57t104.5 0t109 -67q-85 0 -104 -100q-33 -177 21.5 -299.5t140.5 -122.5q85 0 150 115t65 307q0 144 -60 220t-219 140l-219 57l18 58l97 288q33 105 -9 136h461q37 0 57 -1t44.5 -5.5t36.5 -14.5t23.5 -26.5
t16 -42.5t4.5 -62q-21 39 -182 39h-205q-4 -5 -8 -23l-90 -266q89 -24 157 -52.5t129.5 -72t101 -99t62.5 -133t23 -173.5q0 -239 -127 -370.5t-327 -131.5z" />
    <glyph glyph-name="six" unicode="6" horiz-adv-x="841" 
d="M420 0q-75 0 -147.5 33t-132 93.5t-96 158.5t-36.5 217v430q0 119 36.5 217t96 158.5t132 93.5t147.5 33q94 0 183 -50t147 -143q25 -35 51 -35l-238 -139q19 32 4 78q-44 176 -147 176q-73 0 -118 -93t-52 -263q70 33 170 36q190 -6 300.5 -135t110.5 -364
q0 -119 -36.5 -217t-95.5 -158.5t-131.5 -93.5t-147.5 -33zM420 113q54 3 90 32.5t53.5 83t24 109t6.5 129.5q0 200 -47 312t-127 112q-77 0 -122.5 -102t-49.5 -287q4 -186 49.5 -287.5t122.5 -101.5z" />
    <glyph glyph-name="seven" unicode="7" horiz-adv-x="813" 
d="M117 0q51 32 51 133v363q0 38 8.5 80.5t17 69.5t29.5 87q59 161 119 297q82 192 131 291h-283q-161 0 -182 -39q0 36 4.5 62t16 42.5t23.5 26.5t36.5 14.5t44.5 5.5t57 1h615l-66 -111q-114 -241 -178 -387q-56 -130 -110 -283q-13 -36 -23.5 -75.5t-15.5 -60.5l-4 -21
v-363q0 -101 51 -133h-342z" />
    <glyph glyph-name="eight" unicode="8" horiz-adv-x="839" 
d="M420 0q-73 0 -145 30.5t-132 87t-97.5 147t-37.5 200.5q0 150 66 257.5t170 162.5q-101 90 -101 237q0 97 43.5 170.5t105.5 107.5t128 34q49 0 96.5 -20.5t87.5 -58t65 -98.5t25 -135q0 -149 -98 -237q103 -55 169 -163t66 -257q0 -110 -37.5 -200.5t-98 -147t-132 -87
t-143.5 -30.5zM420 930q50 0 82.5 54t32.5 138q0 85 -33 142t-82 57t-82 -57t-33 -142q0 -84 32.5 -138t82.5 -54zM420 113q75 0 122.5 93.5t47.5 258.5t-47.5 258.5t-122.5 93.5q-76 0 -124 -93t-48 -259t48 -259t124 -93z" />
    <glyph glyph-name="nine" unicode="9" horiz-adv-x="841" 
d="M420 0q-94 0 -183 50t-147 143q-19 34 -49 34l235 140q-15 -29 -4 -78q44 -176 148 -176q74 0 119.5 92.5t52.5 263.5q-75 -34 -172 -37q-190 6 -301 135.5t-111 364.5q0 119 36.5 217t96 158.5t132 93.5t147.5 33t147.5 -33t131.5 -93.5t95.5 -158.5t36.5 -217v-430
q0 -119 -36.5 -217t-95.5 -158.5t-131.5 -93.5t-147.5 -33zM420 543q77 0 123 102.5t49 286.5q-3 186 -49 287.5t-123 101.5q-43 -2 -75 -23.5t-50.5 -53t-29 -79.5t-14 -93.5t-3.5 -104.5q0 -201 46 -312.5t126 -111.5z" />
    <glyph glyph-name="colon" unicode=":" horiz-adv-x="229" 
d="M115 739q-44 0 -75.5 31.5t-31.5 75.5q0 43 31.5 73.5t75.5 30.5q43 0 73.5 -30.5t30.5 -73.5q0 -44 -30.5 -75.5t-73.5 -31.5zM115 35q-44 0 -75.5 31t-31.5 75q0 43 31.5 74t75.5 31q43 0 73.5 -31t30.5 -74q0 -44 -30.5 -75t-73.5 -31z" />
    <glyph glyph-name="semicolon" unicode=";" horiz-adv-x="229" 
d="M115 739q-44 0 -75.5 31.5t-31.5 75.5q0 43 31.5 73.5t75.5 30.5q43 0 73.5 -30.5t30.5 -73.5q0 -44 -30.5 -75.5t-73.5 -31.5zM57 -154v283h99v-283h-99z" />
    <glyph glyph-name="less" unicode="&#x3c;" horiz-adv-x="792" 
d="M717 -80l-709 623l66 73l571 652l135 -119l-571 -649l573 -504z" />
    <glyph glyph-name="equal" unicode="=" horiz-adv-x="649" 
d="M8 684v137h633v-137h-633zM8 328v139h633v-139h-633z" />
    <glyph glyph-name="greater" unicode="&#x3e;" horiz-adv-x="790" 
d="M74 -80l-66 76l574 504l-572 649l135 119l572 -652l65 -73z" />
    <glyph glyph-name="question" unicode="?" horiz-adv-x="563" 
d="M131 170v250q47 13 84 41t61 71t40 91.5t25 113t12.5 122.5t4.5 134q0 199 -24 268.5t-107 69.5q-50 0 -87.5 -27.5t-50 -56.5t-3.5 -39q-30 0 -54 20.5t-24 59.5q0 72 60.5 113t158.5 41q326 0 326 -449q0 -217 -65 -407t-162 -217v-199h-195zM227 -156q-51 0 -87 36.5
t-36 88.5q0 51 36 87t87 36q52 0 88.5 -36t36.5 -87q0 -53 -36 -89t-89 -36z" />
    <glyph glyph-name="at" unicode="@" horiz-adv-x="1449" 
d="M725 -113q-145 0 -278 57t-229 153t-153 229t-57 278q0 146 57 279t153 229t228.5 152.5t278.5 56.5t278.5 -56.5t228.5 -152.5t153 -229t57 -279q0 -120 -54.5 -267.5t-138.5 -219.5q-74 -63 -166 -66.5t-157.5 54t-65.5 155.5v70q-2 -5 -6 -14t-20.5 -33.5t-36 -45
t-54.5 -42.5t-75 -33q-47 -13 -94.5 -0.5t-83 49.5t-48.5 97.5t9 142.5q13 50 51.5 88.5t88 64t99.5 48.5t96.5 54t69.5 68q-12 217 -115 217q-83 0 -106 -96q0 -2 -2 -4v-2q-12 -53 14 -94q6 -9 0.5 -19t-16.5 -10h-170q-10 0 -16 8t-3 17l8 40q9 40 23 68q66 156 268 156
q61 0 103.5 -9.5t81 -37.5t60.5 -77t35 -129.5t13 -193.5v-266q-2 -180 66 -190q52 -8 117 82q81 110 109 261q11 56 11 109q0 123 -46 235.5t-132 198.5t-199.5 133.5t-234.5 47.5q-125 0 -238.5 -48.5t-195.5 -131t-131 -196.5t-49 -239q0 -166 82.5 -307t224 -223
t307.5 -82q105 0 205 35l125 -58q-158 -82 -330 -82zM682 262q58 11 118 92t60 189v65v54q-17 -29 -53 -53.5t-72.5 -43t-72 -42t-58 -62t-22.5 -90.5q0 -54 30 -84.5t70 -24.5z" />
    <glyph glyph-name="A" unicode="A" horiz-adv-x="892" 
d="M27 0q-11 0 -17 10t0 19q25 39 25 104v799q0 119 36.5 217t95.5 158.5t131.5 93.5t147.5 33q76 0 149 -33t132.5 -93.5t96 -158.5t36.5 -217v-799q0 -68 23 -104q6 -9 0 -19t-17 -10h-254q-11 0 -16.5 10t0.5 19q25 39 25 104v158h-347v-158q0 -68 23 -104q6 -9 0.5 -19
t-16.5 -10h-254zM274 401h347v498q0 201 -46.5 311.5t-128.5 110.5q-80 0 -126 -110.5t-46 -311.5v-498z" />
    <glyph glyph-name="B" unicode="B" horiz-adv-x="813" 
d="M29 0q-12 0 -17.5 10t0.5 19q23 36 23 104v1167q0 69 -23 105q-6 9 -0.5 19t17.5 10h245q116 0 196.5 -20t125 -59t63.5 -90t19 -120q0 -119 -25.5 -186t-103.5 -111q89 0 148.5 -51t83.5 -128.5t24 -176.5q0 -47 -3 -86.5t-15.5 -92t-34 -94t-61 -84t-93 -71
t-134.5 -46.5t-181 -18h-254zM274 895q25 2 50 7.5t58 21t56.5 37.5t40.5 60.5t17 88.5q0 68 -14 111t-45 64.5t-67.5 28.5t-95.5 7v-426zM274 113q42 0 91.5 17.5t99 53t82.5 101t33 149.5q0 96 -15.5 156.5t-54.5 95t-93.5 47.5t-142.5 15v-635z" />
    <glyph glyph-name="C" unicode="C" horiz-adv-x="741" 
d="M420 0q-75 0 -147.5 33t-132 93.5t-96 158.5t-36.5 217v430q0 119 36.5 217t96 158.5t132 93.5t147.5 33q133 0 210 -59t77 -189v-78h-205q-11 0 -17 9t0 18q24 44 15 110q-4 30 -29.5 53t-50.5 23q-80 0 -126 -110.5t-46 -311.5v-364q0 -201 46 -311.5t126 -110.5
q26 0 51 22.5t29 52.5q9 65 -15 109q-6 9 0 19t17 10h213q10 0 15.5 -10t0.5 -19q-15 -26 -29 -107v3q-31 -193 -282 -193z" />
    <glyph glyph-name="D" unicode="D" horiz-adv-x="729" 
d="M27 0q-10 0 -16 10t-1 19q25 42 25 104v1167q0 65 -25 107q-5 8 1 17.5t16 9.5h247q63 0 122.5 -12.5t119.5 -44t104.5 -78.5t72.5 -122.5t28 -170.5v-578q0 -95 -28 -170.5t-72.5 -122.5t-104.5 -78.5t-119.5 -44t-122.5 -12.5h-247zM274 113q91 0 149 81t58 269v510
q0 187 -58 267.5t-149 80.5v-1208z" />
    <glyph glyph-name="E" unicode="E" horiz-adv-x="710" 
d="M27 0q-11 0 -16 9t1 18q23 39 23 106v1167q0 66 -23 105q-6 9 -1 19t16 10h495q40 0 61.5 -1.5t46.5 -7t37.5 -17.5t22 -33.5t12.5 -53.5q1 -10 -7 -16.5t-17 -1.5q-48 18 -156 18h-248v-920h152q114 0 156 17q9 5 17 -2t7 -17q-3 -31 -12.5 -51.5t-21.5 -32t-37.5 -17
t-46.5 -6.5t-62 -1h-152v-178h248q114 0 156 16q9 5 17 -1.5t7 -16.5q-3 -32 -13 -53.5t-22 -33t-37.5 -17t-46 -6.5t-61.5 -1h-495z" />
    <glyph glyph-name="F" unicode="F" horiz-adv-x="454" 
d="M27 0q-10 0 -16 10t-1 19q25 37 25 104v1174q0 69 -25 106q-5 8 1 17.5t16 9.5h544q35 0 53 -0.5t42 -4t36 -10.5t24.5 -19t19 -31t8.5 -46q2 -10 -7.5 -16.5t-19.5 -1.5q-40 16 -156 16h-297v-221h84q41 0 62 -1t46.5 -6.5t38 -17t22 -32.5t12.5 -52q1 -10 -8 -16.5
t-19 -1.5q-38 16 -154 16h-84v-862q0 -65 23 -104q6 -9 1 -19t-15 -10h-256z" />
    <glyph glyph-name="G" unicode="G" horiz-adv-x="858" 
d="M420 0q-75 0 -147.5 33t-132 93.5t-96 158.5t-36.5 217v430q0 119 36.5 217t96 158.5t132 93.5t147.5 33q133 0 210 -59t77 -189q0 -63 -38.5 -97.5t-92.5 -32t-99 37.5q-17 10 -2 26q41 41 25 125q-4 30 -29.5 53t-50.5 23q-80 0 -126 -110.5t-46 -311.5v-364
q0 -201 46 -311.5t126 -110.5q68 0 106.5 110.5t38.5 311.5v73h-12q-94 0 -135 -16q-10 -4 -18.5 1.5t-8.5 16.5q4 38 15 60.5t34.5 33t46.5 13t66 2.5h133q97 0 137 18q9 3 17.5 -3.5t7.5 -16.5q-4 -56 -27 -79t-67 -28h12v-108q0 -119 -30.5 -217t-80.5 -158.5
t-110.5 -93.5t-124.5 -33z" />
    <glyph glyph-name="H" unicode="H" horiz-adv-x="827" 
d="M27 0q-11 0 -17 10t0 19q23 36 23 104v1167q0 69 -23 105q-6 9 0 19t17 10h254q11 0 16.5 -10t-0.5 -19q-25 -39 -25 -105v-899h279v899q0 69 -23 105q-6 9 0 19t17 10h254q11 0 16.5 -10t-0.5 -19q-24 -37 -24 -105v-1167q0 -67 24 -104q6 -9 0.5 -19t-16.5 -10h-254
q-11 0 -17 10t0 19q23 36 23 104v158h-279v-158q0 -65 25 -104q6 -9 0.5 -19t-16.5 -10h-254z" />
    <glyph glyph-name="I" unicode="I" horiz-adv-x="307" 
d="M27 0q-10 0 -16 10t-1 19q25 39 25 104v1167q0 66 -25 105q-5 9 1 19t16 10h254q11 0 16.5 -10t-0.5 -19q-23 -36 -23 -105v-1167q0 -68 23 -104q6 -9 0.5 -19t-16.5 -10h-254z" />
    <glyph glyph-name="J" unicode="J" horiz-adv-x="770" 
d="M324 -2q-252 0 -283 192v-2q-18 83 -31 107q-5 9 1 19t16 10h213q11 0 16.5 -10t-0.5 -19q-25 -42 -12 -109q4 -30 29 -52.5t51 -22.5q80 0 126 110t46 311v766q0 63 -25 105q-6 9 -0.5 19t16.5 10h254q11 0 17 -10t0 -19q-23 -39 -23 -105v-798q0 -127 -24.5 -220
t-62.5 -146t-95 -85t-110 -41.5t-119 -9.5z" />
    <glyph glyph-name="K" unicode="K" horiz-adv-x="790" 
d="M27 0q-11 0 -17 10t0 19q23 39 23 104v1167q0 68 -23 107q-6 9 0 18t17 9h254q11 0 16.5 -9t-0.5 -18q-25 -42 -25 -107v-350q32 85 68 162.5t90 161t105 117.5q69 47 123 43t86 -29.5t38 -56.5q2 -9 -5.5 -16.5t-16.5 -4.5q-51 10 -96.5 -2t-83 -44.5t-66.5 -69.5
t-59 -89q-25 -45 -71 -154t-79 -196l-33 -86q28 47 50 77t58 63.5t77.5 52.5t104.5 32.5t143 14.5q7 0 12.5 -5.5t5.5 -13.5v-774q0 -62 25 -104q6 -9 0.5 -19t-17.5 -10h-254q-10 0 -15 10t1 19q20 34 20 104v586q-37 -10 -72 -44t-59 -76t-43 -82.5t-28 -67.5l-9 -27v-289
q0 -62 25 -104q6 -9 0.5 -19t-16.5 -10h-254z" />
    <glyph glyph-name="L" unicode="L" horiz-adv-x="722" 
d="M547 -43q-29 0 -220.5 20t-279.5 23q-10 0 -15 10t1 19q22 37 22 106v1168q0 67 -22 104q-6 9 -0.5 19t16.5 10h254q10 0 15.5 -10t0.5 -19q-24 -41 -24 -104v-1168v-20q62 -17 127 -20t119.5 7t94 21.5t71.5 26.5q9 4 16.5 -1t9.5 -14q7 -77 -57.5 -127.5t-128.5 -50.5z
" />
    <glyph glyph-name="M" unicode="M" horiz-adv-x="1042" 
d="M27 -4q-11 0 -16 10t1 19q23 39 23 104v1167q0 68 -23 107q-6 9 -1 18t16 9h190l225 -781q3 -12 16.5 -12t18.5 12q42 131 248 781h248q11 0 15.5 -9t-1.5 -18q-22 -37 -22 -107v-1167q0 -67 22 -104q6 -9 1 -19t-15 -10h-256q-11 0 -16 10t1 19q23 39 23 104v895
l-307 -969q-4 -13 -18 -13t-17 13l-223 776v-702q-3 -62 22 -104q6 -9 1 -19t-15 -10h-141z" />
    <glyph glyph-name="N" unicode="N" horiz-adv-x="858" 
d="M23 0q-8 0 -12.5 8.5t1.5 14.5q25 37 25 110v1167q0 74 -25 109q-6 7 -1.5 16t12.5 9h276q9 0 13 -6.5t1 -14.5q-13 -36 13 -113l317 -874q3 -12 15 -10t12 14v870q0 74 -25 109q-6 7 -2 16t12 9h156q8 0 12 -9t-2 -16q-26 -36 -26 -109v-1167q0 -97 47 -131q1 0 3 -1
t3 -1h-313q-8 0 -13 6.5t-2 13.5q17 38 -12 113l-78 213l-240 664q-3 12 -15.5 10t-12.5 -14v-873q0 -71 26 -110q6 -6 1.5 -14.5t-13.5 -8.5h-153z" />
    <glyph glyph-name="O" unicode="O" horiz-adv-x="903" 
d="M461 0q-75 0 -147.5 33t-132 93.5t-96 158.5t-36.5 217v430q0 119 36.5 217t96 158.5t132 93.5t147.5 33t147.5 -33t132.5 -93.5t96.5 -158.5t36.5 -217v-430q0 -119 -36.5 -217t-96.5 -158.5t-132.5 -93.5t-147.5 -33zM461 113q80 0 127 111t47 311v364q0 200 -47 311
t-127 111t-126 -110.5t-46 -311.5v-364q0 -201 46 -311.5t126 -110.5z" />
    <glyph glyph-name="P" unicode="P" horiz-adv-x="722" 
d="M27 0q-11 0 -17 10t0 19q23 39 23 106v1165q0 68 -23 107q-6 9 0 18t17 9h307q72 0 141 -27.5t122 -74.5t85.5 -117t32.5 -150q0 -49 -2 -85t-8 -86t-19 -90.5t-34 -89.5t-54.5 -93t-78 -91t-107.5 -93.5t-140 -90.5v-211q0 -64 25 -106q5 -9 -0.5 -19t-15.5 -10h-254z
M272 475q6 3 16 8.5t37.5 28.5t51.5 52t51 79t43 109q32 138 24 264.5t-55 215.5t-112 89h-56v-846z" />
    <glyph glyph-name="Q" unicode="Q" horiz-adv-x="839" 
d="M635 -340q-43 -20 -93.5 -18t-95.5 29.5t-55 66.5q-3 7 1.5 13.5t13.5 8.5q47 8 72 51.5t23 97t-26 95.5q-36 -4 -55 -4q-75 0 -147.5 33t-132 93.5t-96 158.5t-36.5 217v430q0 119 36.5 217t96 158.5t132 93.5t147.5 33t147.5 -33t131.5 -93.5t95.5 -158.5t36.5 -217
v-430q0 -149 -53 -259t-143 -173q57 -57 84.5 -114.5t27 -102.5t-18 -85t-41.5 -66t-52 -42zM420 113q80 0 127 111t47 311v364q0 200 -47 311t-127 111t-126 -110.5t-46 -311.5v-364q0 -201 46 -311.5t126 -110.5z" />
    <glyph glyph-name="R" unicode="R" horiz-adv-x="776" 
d="M764 33q8 -9 3.5 -21t-17.5 -12h-252q-9 0 -15 8t-4 17q11 37 -18 110l-107 260q-55 -35 -80 -49v-211q0 -67 23 -106q6 -9 0.5 -19t-16.5 -10h-254q-10 0 -16 10t-1 19q25 42 25 106v1165q0 66 -25 105q-5 9 1 19t16 10h309q73 0 142 -27.5t122 -74.5t85 -117t32 -150
q0 -73 -5 -127t-22.5 -124.5t-57 -138.5t-100.5 -132l82 -197l86 -211q26 -67 64 -102zM473 752q32 138 24 264.5t-55 215.5t-112 89h-56v-846q6 3 16 8.5t37.5 28.5t51.5 52t51 79t43 109z" />
    <glyph glyph-name="S" unicode="S" horiz-adv-x="831" 
d="M453 0q-55 0 -110 13.5t-109 44.5t-96 76.5t-69 114.5t-30 152l-2 60q-3 70 -27 106q-6 9 0 19t17 10h254q10 0 15.5 -10t0.5 -19q-24 -41 -21 -106l3 -60q4 -142 52 -215t118 -73q96 0 138 93q47 103 3 253q-54 189 -222 332q-33 28 -69 53q-87 60 -142 138t-68 166
t34 173q33 61 105.5 85.5t183.5 27.5q123 1 185.5 -34.5t98.5 -121.5q4 -6 9 -16q20 -58 40 -88q6 -9 1 -19t-17 -10h-211q-9 0 -14.5 8.5t0.5 17.5q25 52 -8 105q-27 45 -78 45q-97 0 -115 -70q-19 -70 49 -164q40 -55 99 -100q51 -38 86.5 -67.5t85.5 -79t83.5 -96
t63.5 -110.5t43 -132q20 -103 -5 -198.5t-80 -160.5t-128 -104t-147 -39z" />
    <glyph glyph-name="T" unicode="T" horiz-adv-x="645" 
d="M309 0q-11 0 -16.5 10t0.5 19q22 34 22 106v1172v20h-127q-110 0 -155 -18q-9 -5 -17.5 1.5t-7.5 16.5q3 32 12.5 53.5t22 33.5t37.5 17.5t46.5 7t61.5 1.5h494q40 0 62 -1.5t47 -7t37.5 -17.5t22.5 -33.5t13 -53.5q2 -11 -7 -16.5t-19 -1.5q-45 18 -156 18h-125l-2 -20
v-1172q0 -70 23 -106q6 -9 1 -19t-16 -10h-254z" />
    <glyph glyph-name="U" unicode="U" horiz-adv-x="780" 
d="M449 0q-214 0 -313 125t-99 377v798q0 69 -23 105q-6 9 -1 19t16 10h256q10 0 15 -10t-1 -19q-23 -36 -23 -105v-765q0 -86 4 -148t15 -116.5t30.5 -87.5t50 -51.5t73.5 -18.5q80 0 127 111t47 311v765q0 69 -23 105q-6 9 -1 19t15 10h140q10 0 15 -10t-1 -19
q-23 -36 -23 -105v-798q0 -502 -296 -502z" />
    <glyph glyph-name="V" unicode="V" horiz-adv-x="829" 
d="M334 -8q-9 0 -14.5 7.5t-2.5 16.5q16 37 0 111l-53 211l-254 1067q-5 9 1 19t16 10h254q12 0 17 -11t-3 -20q-37 -52 -23 -111l70 -291l162 -663l26 -109l27 109l260 1073q0 9 6 16t13 7h110q12 0 17.5 -11t-2.5 -20q-29 -34 -48 -111l-233 -954l-51 -211q-16 -74 0 -111
q3 -9 -3 -16.5t-16 -7.5h-276z" />
    <glyph glyph-name="W" unicode="W" horiz-adv-x="1228" 
d="M360 0q-10 0 -15.5 9t-0.5 18q14 37 -2 108l-53 211l-232 954q-12 62 -45 103q-7 9 -2.5 20t15.5 11h254q10 0 15.5 -8t2.5 -17q-16 -36 0 -109l70 -290l161 -664l27 -108l27 108l41 172l120 492l62 -254l127 -518l24 108l162 664l72 290q16 72 2 109q-4 9 1.5 17t14.5 8
h140q12 0 17 -11t-3 -18q-28 -33 -49 -105l-283 -1165q-16 -71 0 -108q3 -9 -2.5 -18t-15.5 -9h-277q-9 0 -14.5 9t-1.5 18q14 35 -2 108l-31 127l-33 -127q-16 -71 0 -108q4 -9 -1.5 -18t-14.5 -9h-277z" />
    <glyph glyph-name="X" unicode="X" horiz-adv-x="849" 
d="M27 0q-12 0 -17.5 12t2.5 21q41 35 70 102l98 211l156 340l-225 614q-26 66 -60 103q-9 7 -4.5 19t16.5 12h254q9 0 14.5 -8t2.5 -17q-10 -35 16 -109l119 -325l149 325q31 77 23 111q-3 8 3 15.5t15 7.5h138q12 0 16.5 -12t-4.5 -19q-41 -41 -68 -103l-133 -290
l-84 -185l176 -479l78 -211q21 -65 60 -104q8 -7 2.5 -19t-17.5 -12h-254q-9 0 -14 8t-2 17q11 39 -14 110l-78 211l-70 191l-88 -191l-96 -211q-36 -74 -25 -112q2 -8 -3.5 -15.5t-14.5 -7.5h-137z" />
    <glyph glyph-name="Y" unicode="Y" horiz-adv-x="602" 
d="M258 0q-10 0 -15.5 9t-0.5 18q24 41 24 108v635l-194 530q-21 62 -60 101q-7 9 -2.5 21t15.5 12h254q9 0 15 -8t3 -17q-12 -40 14 -109l119 -325l150 325q33 73 24 109q-3 9 2.5 17t14.5 8h139q12 0 16.5 -12t-4.5 -21q-43 -43 -67 -101l-134 -290l-65 -140v-735
q0 -71 22 -108q6 -9 1.5 -18t-15.5 -9h-256z" />
    <glyph glyph-name="Z" unicode="Z" horiz-adv-x="815" 
d="M27 -6q-12 0 -17 11t4 20q43 43 66 104l94 211l293 664l129 290q2 3 5 10.5t5 10.5h-338q-106 0 -153 -19q-10 -4 -18.5 2t-8.5 17q7 77 46.5 98t133.5 21h623q12 0 17 -12t-3 -21q-37 -35 -69 -107l-422 -954l-95 -211q-1 -2 -8 -23h336q114 0 156 17q9 4 17.5 -2
t8.5 -17q-2 -27 -8 -46t-19 -31t-24.5 -19t-36 -10t-42 -3.5t-52.5 -0.5h-620z" />
    <glyph glyph-name="bracketleft" unicode="[" horiz-adv-x="403" 
d="M8 8v1434h387v-111h-194v-1210h194v-113h-387z" />
    <glyph glyph-name="backslash" unicode="\" horiz-adv-x="997" 
d="M748 -12l-740 1433h240l739 -1433h-239z" />
    <glyph glyph-name="bracketright" unicode="]" horiz-adv-x="403" 
d="M8 8v113h193v1210h-193v111h387v-1434h-387z" />
    <glyph glyph-name="underscore" unicode="_" horiz-adv-x="780" 
d="M8 -141v137h762v-137h-762z" />
    <glyph glyph-name="a" unicode="a" 
d="M227 -6q-93 0 -151 74q-72 91 -33 241q8 31 27 59t36.5 45.5t52 38.5t53 30.5t60.5 29.5q47 22 73 36t57 37t47 48q-3 82 -27 139q-23 57 -70 57q-72 0 -92 -81v-5q0 -2 -2 -4q-6 -33 3.5 -62.5t31.5 -41.5q10 -7 6 -19q-3 -12 -14 -12h-260q-6 0 -11.5 4t-5.5 10
q-1 6 2.5 11.5t9.5 7.5q9 1 12.5 8t6.5 29q9 54 29 88q95 164 284 164q64 0 109.5 -11t85.5 -40t64 -80.5t37.5 -134t13.5 -197.5v-313q0 -95 43 -119q10 -7 6 -19q-3 -12 -15 -12h-278q-14 0 -17 12q-4 12 7 19q37 21 43 88q-67 -89 -170 -119q-27 -6 -54 -6zM281 90
q4 0 8 2q11 2 38.5 25.5t55.5 60.5q70 97 70 195v137q-22 -24 -76 -64q-38 -27 -60.5 -45.5t-50 -58t-41.5 -88.5q-23 -92 15 -139q16 -25 41 -25z" />
    <glyph glyph-name="b" unicode="b" horiz-adv-x="718" 
d="M383 -63q-93 0 -162 63h-198q-12 0 -15 12q-4 12 6 19q43 24 43 119v1132q0 94 -43 121q-10 7 -6 18q3 13 15 13h278q13 0 16 -13q3 -10 -8 -18q-43 -28 -43 -121v-381q58 25 117 25q152 -3 242 -138q86 -127 86 -325q0 -207 -86 -357q-93 -166 -242 -169zM383 33
q57 0 88 114t31 316q0 178 -30.5 272t-88.5 94q-65 0 -117 -69v-635q53 -92 117 -92z" />
    <glyph glyph-name="c" unicode="c" horiz-adv-x="561" 
d="M317 0q-81 0 -134 18t-95 67t-61 142t-19 236t19 236t61 142t95 67t134 18q120 0 201 -90q10 -5 19 -5q13 0 16 -12q4 -11 -6 -18l-127 -86q-4 -2 -10 -2q-3 0 -11 4q-7 7 -4 18q4 12 4 19q-29 75 -82 75q-27 0 -47 -20q-25 -25 -38 -88.5t-14 -105t-1 -121.5v-31v-31
q0 -80 1 -121.5t14 -105t38 -88.5q21 -21 47 -21q52 0 82 76q0 6 -4 18q-3 12 4 19q8 4 11 4q6 0 10 -2l127 -86q10 -7 6 -19q-3 -12 -16 -12q-11 0 -19 -4q-81 -90 -201 -90z" />
    <glyph glyph-name="d" unicode="d" horiz-adv-x="718" 
d="M332 -63q-70 2 -132 45t-106 124q-86 150 -86 357q0 197 86 325q43 64 103 99q59 36 135 39h2q61 0 119 -25v381q0 93 -45 121q-11 7 -7 18q3 13 17 13h278q12 0 15 -13q4 -11 -6 -18q-43 -27 -43 -121v-1132q0 -95 43 -119q10 -7 6 -19q-3 -12 -15 -12h-198
q-72 -63 -164 -63h-2zM334 33q66 0 119 92v635q-51 69 -119 69q-22 0 -41 -15.5t-37 -53t-28.5 -113.5t-10.5 -184q0 -205 30 -317.5t87 -112.5z" />
    <glyph glyph-name="e" unicode="e" horiz-adv-x="667" 
d="M317 0q-81 0 -134 18t-95 67t-61 142t-19 236t19 236t61 142t95 67t134 18q73 0 132 -17q60 -21 100 -69q80 -106 80 -377q0 -6 -5.5 -11.5t-11.5 -5.5h-395q-2 -4 -2 -14q0 -75 1.5 -120t15 -107.5t38.5 -87.5q18 -21 47 -21q50 0 68 60q12 39 6 86q-5 44 -16 49
q-10 7 -6 18q3 13 16 13h260q14 0 14 -15q3 -14 -10 -18q-12 -3 -17 -10.5t-9 -32.5q-3 -36 -23 -80q-36 -79 -98 -119q-74 -47 -185 -47zM215 543h205q-4 129 -19 190q-25 96 -84 96q-30 0 -47 -20q-51 -51 -55 -266z" />
    <glyph glyph-name="f" unicode="f" horiz-adv-x="718" 
d="M23 -567q-12 0 -15 12q-4 11 6 18q43 23 43 121v852q0 271 80 377q67 86 232 86q112 0 186 -47q64 -43 98 -119q15 -33 23 -80q3 -25 6.5 -32.5t15.5 -10.5q16 -4 13 -18q0 -6 -5.5 -10t-11.5 -4h-260q-11 0 -14 12q-4 11 6 18q21 12 31 42t4 63q-2 2 -2 4v6
q-20 80 -90 80q-26 0 -47 -21q-56 -56 -56 -319v-27v-28h17q95 0 123 43q3 8 12 8h6q10 -3 10 -17v-168q0 -13 -10 -16h-6q-9 0 -12 8q-26 45 -123 45h-17v-727q0 -97 45 -121q10 -7 6 -18q-3 -12 -16 -12h-278z" />
    <glyph glyph-name="g" unicode="g" horiz-adv-x="743" 
d="M377 -567q-213 0 -285 166q-18 40 -22 79q-5 25 -10 34t-17 12q-13 4 -10 18q0 14 16 14h260q12 0 15 -12q4 -11 -7 -18q-21 -12 -30.5 -42t-3.5 -63q0 -2 2 -4v-6q20 -82 92 -82q27 0 45 18q25 26 38.5 89t15 108.5t1.5 120.5v33v133q-67 -58 -160 -58q-81 0 -134 18
t-95 67t-61 142t-19 236t19 236t61 142t95 67t134 18q95 0 160 -59v43q0 6 5 11t12 5h227q11 0 14 -12q4 -12 -6 -19q-43 -24 -43 -118v-852q0 -116 -13.5 -198.5t-37.5 -134t-64 -81t-85 -40.5t-109 -11zM317 70q18 0 35 5.5t41 28t41.5 59.5t30 107t12.5 164v4
q0 53 -5.5 105t-20.5 116.5t-49.5 104t-84.5 39.5q-29 0 -47 -21q-25 -25 -38.5 -87.5t-15 -107.5t-1.5 -120v-61q0 -75 1.5 -120.5t15 -108.5t38.5 -89q18 -18 47 -18z" />
    <glyph glyph-name="h" unicode="h" horiz-adv-x="796" 
d="M25 0q-14 0 -17 12q-4 11 8 19q43 24 43 119v1132q0 93 -43 121q-11 8 -8 18q3 13 17 13h278q10 0 14 -11q3 -11 -4 -18l-6 -6l-2 -2q-37 -24 -37 -115v-416q66 60 160 60q71 0 131 -17q60 -21 100 -69q78 -103 78 -377v-313q0 -95 43 -119q8 -5 8 -19q-3 -12 -16 -12
h-278q-14 0 -17 12q-4 11 8 19q45 25 45 119v313v26q0 73 -1.5 119t-15 111t-38.5 90q-17 20 -47 20q-81 0 -121 -104q-39 -88 -39 -262v-313q0 -95 43 -119q8 -5 8 -19q-3 -12 -16 -12h-278z" />
    <glyph glyph-name="i" unicode="i" horiz-adv-x="327" 
d="M207 1010q-79 0 -121 55q-40 51 -20 129q13 61 10.5 90.5t-10.5 42.5q-9 9 -3 19q3 8 15 8h2q131 -22 160 -70q23 -39 6 -102q-11 -38 -11 -69.5t6 -46.5t15 -17q12 -4 12 -17q0 -12 -12 -16q-24 -6 -49 -6zM25 0q-14 0 -17 12q-4 11 8 19q43 24 43 119v626q0 95 -43 119
q-11 8 -8 18q3 13 17 13h278q13 0 16 -13q0 -13 -8 -18q-43 -24 -43 -119v-626q0 -95 43 -119q8 -5 8 -19q-3 -12 -16 -12h-278z" />
    <glyph glyph-name="j" unicode="j" horiz-adv-x="339" 
d="M219 1006q-78 0 -121 53q-39 55 -20 131q24 91 0 133q-8 8 -2 18q4 9 14 9h2q128 -22 162 -70q21 -40 4 -102q-11 -38 -10.5 -69.5t6.5 -47.5t14 -19q13 -3 13 -14q0 -13 -13 -16q-24 -6 -49 -6zM-31 -545q-208 0 -282 164q-15 35 -23 82q-3 19 -5.5 26.5t-6.5 12
t-12 6.5q-13 3 -13 18q4 15 17 15h260q12 0 16 -12q3 -12 -8 -19q-22 -12 -31.5 -42t-1.5 -64v-2v-7q12 -42 33 -60.5t57 -18.5q29 0 47 18q20 20 32.5 56t17 89.5t5.5 84.5t1 89v29v852q0 92 -43 119q-12 8 -9 18q4 13 17 13h278q13 0 17 -13q3 -11 -8 -18
q-43 -27 -43 -119v-852q0 -277 -80 -379q-40 -51 -98 -68.5t-134 -17.5z" />
    <glyph glyph-name="k" unicode="k" horiz-adv-x="765" 
d="M16 0q-13 0 -16 12q-4 11 8 19q43 24 43 119v1132q0 93 -43 121q-11 8 -8 18q3 13 16 13h279q9 0 16 -11q3 -8 -4 -18l-6 -6q-2 0 -2 -2q-39 -24 -39 -115v-473q76 46 111 104q84 133 84 424q0 6 5 11.5t11 5.5h94q7 0 12 -5.5t5 -11.5q0 -327 -101 -489q-3 -4 -8 -12.5
t-8 -12.5q130 -7 188 -88q76 -104 76 -373v-212q0 -95 43 -119q12 -8 8 -19q-3 -12 -16 -12h-279q-13 0 -16 12q-4 11 8 19q45 23 45 119v212v27q0 59 -1 87.5t-5 84.5t-16.5 92.5t-32.5 55.5q-17 20 -47 20q-81 0 -121 -104q-39 -95 -39 -263v-212q0 -95 43 -119
q12 -8 8 -19q-3 -12 -16 -12h-279z" />
    <glyph glyph-name="l" unicode="l" horiz-adv-x="327" 
d="M25 0q-14 0 -17 12q-4 11 8 19q43 24 43 119v1138q0 93 -43 121q-11 8 -8 18q3 13 17 13h278q13 0 16 -13q3 -10 -8 -18q-43 -28 -43 -121v-1138q0 -95 43 -119q12 -8 8 -19q-3 -12 -16 -12h-278z" />
    <glyph glyph-name="m" unicode="m" horiz-adv-x="1265" 
d="M25 0q-14 0 -17 12q-4 12 6 19q45 25 45 119v626q0 94 -45 119q-10 7 -6 18q3 13 17 13h227q6 0 11 -5.5t5 -11.5v-43q66 60 160 60q90 0 153 -25.5t101 -101.5q74 127 215 127q72 0 131 -17q60 -21 100 -69q80 -106 80 -377v-313q0 -95 43 -119q10 -7 6 -19
q-3 -12 -14 -12h-278q-14 0 -17 12q-4 12 6 19q45 25 45 119v313v26q0 73 -1.5 119t-15 111t-38.5 90q-20 20 -47 20q-80 0 -123 -104q-37 -90 -37 -262v-313q0 -95 43 -119q10 -7 6 -19q-3 -12 -14 -12h-278q-14 0 -17 12q-4 13 8 19q45 25 45 119v313v26q0 73 -1.5 119
t-15 111t-38.5 90q-20 20 -47 20q-80 0 -123 -104q-37 -90 -37 -262v-313q0 -95 43 -119q10 -7 6 -19q-3 -12 -14 -12h-278z" />
    <glyph glyph-name="n" unicode="n" horiz-adv-x="796" 
d="M25 0q-14 0 -17 12q-4 11 8 19q43 24 43 119v626q0 95 -43 119q-11 8 -8 18q3 13 17 13h227q6 0 11 -5.5t5 -11.5v-43q66 60 160 60q81 0 134 -18t95 -67t61 -142t19 -236v-313q0 -95 43 -119q12 -8 8 -19q-3 -12 -16 -12h-278q-14 0 -17 12q-4 11 8 19q45 23 45 119v313
v26q0 59 -1 87.5t-5 84.5t-16.5 92.5t-32.5 55.5q-17 20 -47 20q-50 0 -84.5 -39.5t-49.5 -103t-20.5 -116t-5.5 -105.5v-315q0 -95 43 -119q12 -8 8 -19q-3 -12 -16 -12h-278z" />
    <glyph glyph-name="o" unicode="o" horiz-adv-x="636" 
d="M317 0q-64 0 -109 10.5t-85 40.5t-64 81t-37.5 133.5t-13.5 197.5t13.5 197.5t37.5 133.5t64 81t85 40.5t109 10.5q75 0 134 -17q60 -21 100 -69q78 -103 78 -377t-78 -377q-40 -51 -99 -68.5t-135 -17.5zM317 96q29 0 50 21q25 25 38.5 90t15 110.5t1.5 118.5
q0 4 -1 13.5t-1 13.5t1 13t1 13q0 73 -1.5 119t-15 111t-38.5 90q-20 20 -50 20q-27 0 -47 -20q-24 -25 -37 -87.5t-14.5 -107.5t-1.5 -120v-31v-31q0 -75 1.5 -120t14.5 -107.5t37 -87.5q21 -21 47 -21z" />
    <glyph glyph-name="p" unicode="p" 
d="M25 -567q-13 0 -17 12q-3 12 6 18q45 28 45 121v1186q0 95 -45 121q-10 3 -6 18q4 11 17 11h198q66 63 162 63q71 -2 133.5 -45.5t106.5 -122.5q88 -157 88 -358q0 -99 -23 -191.5t-65 -154.5q-90 -135 -240 -138q-62 0 -117 25v-414q0 -94 43 -121q9 -6 6 -18
q-4 -12 -14 -12h-278zM385 70q56 0 87.5 104t31.5 283q0 202 -31.5 316t-87.5 114q-68 0 -117 -92v-656q48 -69 117 -69z" />
    <glyph glyph-name="q" unicode="q" 
d="M418 -567q-13 0 -17 12q-3 10 9 18q43 28 43 121v414q-58 -25 -119 -25q-75 3 -137 39q-57 33 -103 99q-41 62 -63.5 155.5t-22.5 190.5q0 205 86 358q46 80 108 123.5t132 44.5q92 0 164 -63h198q13 0 17 -11q4 -14 -8 -18q-43 -27 -43 -121v-1186q0 -93 43 -121
q11 -7 8 -18q-4 -12 -17 -12h-278zM334 70q68 0 119 69v656q-53 92 -119 92q-56 0 -86.5 -112.5t-30.5 -317.5q0 -70 5 -132t17 -122.5t36.5 -96.5t58.5 -36z" />
    <glyph glyph-name="r" unicode="r" horiz-adv-x="739" 
d="M25 0q-14 0 -17 12q-4 11 8 19q43 24 43 119v622q0 95 -43 119q-11 8 -8 18q3 13 17 13h227q6 0 11 -5.5t5 -11.5v-37q51 54 119 54q110 0 186 -48q69 -47 97 -118q15 -29 24 -80q5 -25 9 -32.5t16 -10.5t12 -19q-3 -14 -16 -14h-260q-14 0 -17 12q-4 11 8 19
q21 12 30 41.5t3 62.5v4q-2 2 -2 6q-20 80 -90 80q-36 0 -67.5 -45.5t-51.5 -126.5v-503q0 -95 43 -119q12 -8 8 -19q-3 -12 -16 -12h-278z" />
    <glyph glyph-name="s" unicode="s" horiz-adv-x="694" 
d="M365 0q-103 3 -175 37q-103 47 -124 131q-3 10 -5 20.5t-4.5 21.5t-3.5 17q-5 26 -7.5 35t-8.5 16.5t-17 10.5q-16 4 -12 18q0 6 5.5 10.5t11.5 4.5h260q13 0 16 -13q3 -10 -8 -18q-26 -17 -32.5 -49.5t3.5 -57.5q10 -35 37.5 -61.5t63.5 -26.5q44 2 80 41t36 99
q0 54 -42 96t-158 104q-114 62 -166 154q-48 86 -27 170q19 75 84 119q68 47 170 47q112 0 186 -47q68 -46 97 -119q15 -29 24 -80q5 -25 9 -32.5t16 -10.5t12 -19q-4 -14 -16 -14h-260q-14 0 -17 12q-4 11 8 19q21 12 30 41.5t3 62.5v4q-2 3 -2 7q-20 79 -90 79
q-20 0 -36.5 -16.5t-22.5 -42.5q-13 -48 12 -96q26 -59 104 -105q144 -82 203 -143q78 -81 78 -190q0 -119 -100 -181q-82 -55 -209 -55h-6z" />
    <glyph glyph-name="t" unicode="t" horiz-adv-x="712" 
d="M379 0q-75 0 -131 16q-64 21 -101 70q-79 101 -79 377v430h-154q-8 0 -14 6q-2 6 -2 16l22 64q7 10 17 10h131v299q0 93 -43 121q-12 8 -9 18q3 13 17 13h278q14 0 17 -13q3 -10 -9 -18q-43 -28 -43 -121v-299h162q10 0 13 -6q5 -7 2 -16l-23 -64q-3 -10 -14 -10h-140
v-430v-27q0 -56 1 -87t5.5 -85.5t17 -91t32.5 -55.5q18 -21 47 -21q70 0 90 80v6v4q6 33 -3 63t-30 42q-11 8 -8 18q3 13 16 13h261q12 0 16 -15q0 -15 -12 -18t-16 -10.5t-9 -32.5q-9 -51 -22 -80q-29 -74 -99 -119q-74 -47 -184 -47z" />
    <glyph glyph-name="u" unicode="u" horiz-adv-x="794" 
d="M371 0q-75 0 -131 16q-64 21 -101 70q-80 102 -80 377v313q0 95 -43 119q-11 8 -8 18q3 13 17 13h278q14 0 14 -13q4 -11 -6 -18q-43 -24 -43 -119v-313v-27q-5 -260 56 -319q18 -21 47 -21q77 0 118 103q38 96 41 262v315q0 94 -45 119q-11 8 -8 18q3 13 17 13h278
q14 0 14 -13q4 -11 -6 -18q-43 -24 -43 -119v-626q0 -95 43 -119q10 -7 6 -19q0 -12 -14 -12h-225q-7 0 -12 5t-5 11v43q-68 -59 -159 -59z" />
    <glyph glyph-name="v" unicode="v" horiz-adv-x="931" 
d="M328 0q-14 0 -17 10q-3 13 6 19q30 26 0 114l-213 627q-31 97 -88 125q-11 7 -8 18q4 13 17 13h278q11 0 14 -13q3 -10 -6 -16q-31 -25 0 -115l185 -544l182 544q34 86 0 115q-9 6 -6 16q3 13 16 13h219q4 0 9.5 -4t7.5 -9q0 -13 -11 -18q-52 -25 -88 -125l-211 -627
q-32 -87 0 -114q10 -7 7 -17q-3 -12 -15 -12h-278z" />
    <glyph glyph-name="w" unicode="w" horiz-adv-x="1204" 
d="M371 0q-75 0 -131 16q-64 21 -101 70q-80 102 -80 377v313q0 95 -43 119q-11 8 -8 18q3 13 17 13h278q11 0 14 -13q4 -11 -6 -18q-43 -24 -43 -119v-313v-27q-5 -260 56 -319q18 -21 47 -21q78 0 118 94q38 86 41 271v315q0 94 -45 119q-11 8 -8 18q3 13 17 13h278
q11 0 14 -13q4 -11 -6 -18q-43 -24 -43 -119v-313v-27q-5 -260 56 -319q18 -21 47 -21q81 0 121 97q38 90 38 270v313q0 95 -43 119q-11 8 -8 18q3 13 17 13h217q11 0 14 -13q4 -11 -6 -18q-43 -24 -43 -119v-313q0 -236 -78 -352q-43 -58 -98 -84q-55 -27 -131 -27
q-92 0 -152.5 24t-97.5 89q-67 -113 -219 -113z" />
    <glyph glyph-name="x" unicode="x" horiz-adv-x="741" 
d="M33 0q-21 0 -25 18q0 12 10 15q39 36 54 65l86 131l129 209l-189 381q-26 46 -49 64q-11 7 -8 18q3 14 25 14h215q13 0 20 -10q5 -8 2 -18q-8 -15 12 -60l95 -192l118 192q27 45 21 60l-2 2q0 12 4 16q10 10 20 10h115q23 0 27 -16q0 -13 -11 -16q-28 -22 -55 -64
l-110 -182l-72 -111l149 -297l64 -131q18 -38 49 -65q10 -6 6 -17q-3 -16 -24 -16h-215q-12 0 -19 10q-3 3 -3 8.5t3 8.5q3 24 -14 63l-66 131l-53 109l-149 -240q-25 -48 -19 -65q3 -5 -2 -15q-10 -10 -22 -10h-117z" />
    <glyph glyph-name="y" unicode="y" horiz-adv-x="796" 
d="M428 -567q-109 0 -186 47q-68 46 -97 117q-15 32 -24 81q-5 26 -9 34.5t-16 11.5q-16 4 -12 18q0 6 5 10t11 4h260q13 0 17 -12q3 -11 -8 -18q-22 -12 -31.5 -42.5t-1.5 -64.5v-2q0 -1 1 -3t1 -3q20 -82 90 -82q29 0 47 18q20 20 32.5 56t16.5 91.5t5 84.5t1 90v29v135
q-66 -60 -159 -60q-81 0 -131 17q-62 17 -101 69q-80 99 -80 377v314q0 91 -43 118q-11 7 -8 19q4 12 17 12h278q12 0 16 -12q3 -12 -8 -19q-43 -27 -43 -118v-314v-26q0 -76 1.5 -120.5t15 -110t39.5 -91.5q18 -18 47 -18q77 0 118 102q38 88 41 262v316q0 90 -45 118
q-11 7 -8 19q4 12 17 12h278q12 0 16 -12q4 -16 -10 -19q0 -1 -1 -2t-1 -2q-2 0 -6 -4l-4 -4l-4 -4q-2 -6 -7.5 -16t-6.5 -11l-7 -30v-2q0 -7 -2 -9q0 -10 -2 -14v-20v-852q0 -116 -13.5 -198.5t-37 -134t-63.5 -81t-85.5 -40.5t-109.5 -11z" />
    <glyph glyph-name="z" unicode="z" horiz-adv-x="753" 
d="M4 0q-12 0 -16 12q-4 15 8 19q64 30 113 127l311 626q0 3 4 11h-358l-50 -58q-6 -6 -12 -6t-8 2q-12 8 -8 19q22 76 28 102l8 28t9 31q3 13 16 13h680q12 0 16 -13q0 -15 -10 -18q-61 -30 -110 -127l-312 -627q-2 -2 -6 -10h359l51 57q3 7 12 7q4 0 8 -2q10 -7 6 -19
q-4 -14 -13 -49t-15 -53q-5 -22 -17 -60q-3 -12 -14 -12h-680z" />
    <glyph glyph-name="braceleft" unicode="{" horiz-adv-x="489" 
d="M479 4q-155 0 -259.5 133t-104.5 369v90q-13 41 -39.5 71t-47.5 40l-20 10q3 1 8.5 4t20.5 13t28 23t27.5 35t22.5 48v98q0 236 104 368t260 132v-111q-80 0 -126 -111.5t-46 -312.5v-63q-12 -41 -38.5 -71.5t-46.5 -40.5l-21 -11q9 -3 23 -10.5t42.5 -38.5t40.5 -72v-55
q0 -201 46 -312.5t126 -111.5v-113z" />
    <glyph glyph-name="bar" unicode="|" horiz-adv-x="192" 
d="M8 -141v1618h176v-1618h-176z" />
    <glyph glyph-name="braceright" unicode="}" horiz-adv-x="489" 
d="M8 4v113q80 0 126 111.5t46 312.5v55q12 41 38.5 71t47.5 40l21 10q-3 1 -8.5 4t-21 13t-28.5 23t-27 35t-22 48v63q0 201 -46 312.5t-126 111.5v111q156 0 261.5 -132t105.5 -368v-98q12 -41 38 -71.5t46 -40.5l20 -11q-3 -1 -8.5 -3.5t-20 -12.5t-27.5 -22.5
t-26.5 -34.5t-21.5 -48v-90q0 -236 -105.5 -369t-261.5 -133z" />
    <glyph glyph-name="exclamdown" unicode="&#xa1;" horiz-adv-x="264" 
d="M131 1196q-51 0 -87 36t-36 87t36 87t87 36q52 0 88.5 -36t36.5 -87t-36.5 -87t-88.5 -36zM35 -156v1274h192v-1274h-192z" />
    <glyph glyph-name="cent" unicode="&#xa2;" horiz-adv-x="468" 
d="M158 -82v219q-77 34 -113.5 131t-36.5 293t37 294t113 130v221h153v-196q54 -3 96 -27t52 -61q5 -21 -10.5 -33t-34.5 -12q6 6 -5 22t-40.5 31.5t-67.5 15.5q-29 0 -50.5 -16.5t-33.5 -44.5t-20 -64.5t-10 -76t-3.5 -79t0.5 -73.5v-31q0 -162 7 -216q22 -166 110 -167
q24 0 45 6.5t34 15.5t23 19t11.5 18t-0.5 11q19 0 34.5 -12t10.5 -33q-10 -37 -52 -61t-96 -27v-197h-153z" />
    <glyph glyph-name="sterling" unicode="&#xa3;" horiz-adv-x="833" 
d="M8 -12v112q141 38 185 508h-136v113h144q6 76 13.5 202.5t8.5 141.5q12 183 100.5 269.5t256.5 86.5q68 0 121.5 -42t66.5 -111q9 -49 -24.5 -92.5t-96.5 -26.5q30 18 32.5 57.5t-25 72t-74.5 32.5q-75 -1 -113 -38t-54 -126.5t-16 -263.5q0 -64 -4 -162h121v-113h-127
q-9 -108 -24.5 -200.5t-31 -146.5t-30.5 -92.5t-24 -53.5l-9 -15h557v-112h-817z" />
    <glyph glyph-name="yen" unicode="&#xa5;" horiz-adv-x="862" 
d="M252 -2q51 32 51 135v359h-160v112h160v113h-160v112h140l-68 179l-106 290q-40 107 -101 134h342q-40 -32 -2 -134l119 -323l149 323q49 102 11 134h227q-64 -31 -113 -134l-133 -290l-65 -140v-39h162v-112h-162v-113h162v-112h-162v-359q0 -103 51 -135h-342z" />
    <glyph glyph-name="section" unicode="&#xa7;" horiz-adv-x="686" 
d="M467 377q106 -65 157.5 -130.5t51.5 -158.5q0 -78 -47.5 -132t-115.5 -76t-148 -21q-59 1 -117 16t-111 52.5t-67 92.5q-6 20 -10.5 44.5t-7 37.5t-7.5 27t-14 21.5t-23 11.5h273q-33 -21 -41 -62t6 -79.5t46.5 -67.5t72.5 -29q54 3 96.5 49t42.5 115q0 63 -48 111
t-173 114q-103 55 -154 133t-45.5 148t58 125t141.5 69q-8 5 -39 23q-74 40 -122 93t-64.5 105.5t-8.5 104t39 91t86.5 63.5t126.5 24q211 0 281 -164q14 -29 20 -64.5t12.5 -52.5t28.5 -22h-272q27 15 39 50.5t4 76.5v4q0 2 -2 4q-23 101 -111 101q-45 -2 -70 -52
q-31 -65 8 -140q33 -65 113 -111q75 -44 120 -75t87 -71.5t60 -86t18 -101.5q0 -153 -170 -211zM373 434q39 20 64.5 60.5t25.5 93.5q0 70 -64 125q-28 14 -59 14q-26 -1 -46.5 -20.5t-28.5 -51t-3.5 -68.5t33 -78.5t78.5 -74.5z" />
    <glyph glyph-name="copyright" unicode="&#xa9;" horiz-adv-x="1449" 
d="M725 -156q-145 0 -278 57t-229 153t-153 229t-57 278q0 146 57 279t153 229t228.5 152.5t278.5 56.5t278.5 -56.5t228.5 -152.5t153 -229t57 -279q0 -145 -57 -278t-153 -229t-229 -153t-278 -57zM725 -37q119 0 229 46t193 130q85 85 130.5 194.5t45.5 227.5
q0 120 -45.5 229.5t-130.5 194.5q-83 84 -193 129t-229 45q-122 0 -232.5 -47t-190.5 -127t-127.5 -191t-47.5 -233t47.5 -232.5t127.5 -190.5t190.5 -127.5t232.5 -47.5zM795 98q-63 0 -107 10t-83.5 38.5t-62.5 79.5t-36.5 134.5t-13.5 200.5q0 118 13.5 201t36.5 134.5
t62.5 80.5t83.5 39t107 10q60 0 107 -25t59 -65q4 -22 -12.5 -34.5t-35.5 -12.5q3 3 -0.5 10.5t-12.5 18t-23 20.5t-35.5 16.5t-46.5 6.5q-30 0 -52.5 -16t-35 -51.5t-20.5 -65.5t-11 -84t-3.5 -79t-0.5 -78v-26q0 -172 10 -236q23 -161 113 -161q25 0 46.5 6.5t35.5 16
t23 20t12.5 18.5t0.5 11q19 0 35.5 -13t12.5 -35q-12 -40 -59 -65t-107 -25z" />
    <glyph glyph-name="guillemotleft" unicode="&#xab;" horiz-adv-x="1126" 
d="M717 -39l-709 623l66 73l571 652l135 -119l-571 -649l573 -504zM1051 -39l-707 623l66 73l569 652l135 -119l-569 -649l573 -504z" />
    <glyph glyph-name="registered" unicode="&#xae;" 
d="M360 930q-126 0 -215.5 89t-89.5 214q0 126 89.5 215.5t215.5 89.5q127 0 215 -88q91 -94 91 -215q0 -123 -91 -217q-88 -88 -215 -88zM360 975q106 0 181 78q77 74 77 180q0 108 -77 182q-75 78 -181 78t-182 -76.5t-76 -183.5q0 -106 76 -182t182 -76zM248 1038
q12 7 12 37v318q0 30 -12 37h96q40 0 71 -29t31 -72q0 -30 -1.5 -47.5t-13 -44.5t-34.5 -49l23 -55l24 -58q9 -27 29 -37h-94q10 7 0 37l-31 72q-8 -8 -20 -14v-58q0 -30 12 -37h-92zM328 1167q4 2 11 7t21.5 25t20.5 44q14 54 1.5 106t-40.5 52h-14v-234z" />
    <glyph glyph-name="degree" unicode="&#xb0;" horiz-adv-x="620" 
d="M309 1227q-87 0 -151 61q-62 62 -62 152q0 91 62 153q65 62 151 62q90 0 152 -62q61 -61 61 -153q0 -91 -61 -152t-152 -61zM309 1307q56 0 95.5 39t39.5 94q0 57 -39.5 96t-95.5 39t-94.5 -39t-38.5 -96q0 -56 39 -94.5t94 -38.5z" />
    <glyph glyph-name="guillemotright" unicode="&#xbb;" horiz-adv-x="1126" 
d="M74 -39l-66 76l574 504l-572 649l135 119l572 -652l65 -73zM410 -39l-66 76l571 504l-569 649l135 119l570 -652l67 -73z" />
    <glyph glyph-name="questiondown" unicode="&#xbf;" horiz-adv-x="563" 
d="M334 1196q-52 0 -88.5 36t-36.5 87t36.5 87t88.5 36q51 0 87 -36t36 -87t-36 -87t-87 -36zM334 -156q-91 0 -166 83t-117.5 223.5t-42.5 306.5v2q0 199 61.5 315.5t168.5 145.5v198h192v-250q-60 -16 -99 -37.5t-65 -50.5t-39.5 -76t-18.5 -102.5t-5 -142.5v-2
q0 -84 2.5 -149t10.5 -134t22 -114t38.5 -74t57.5 -29q50 0 88 27t50.5 56t2.5 38q30 0 54 -20t24 -58q0 -72 -61 -114t-158 -42z" />
    <glyph glyph-name="Agrave" unicode="&#xc0;" horiz-adv-x="892" 
d="M547 1507l-268 271l110 108l268 -268zM27 0q-11 0 -17 10t0 19q25 39 25 104v799q0 119 36.5 217t95.5 158.5t131.5 93.5t147.5 33q76 0 149 -33t132.5 -93.5t96 -158.5t36.5 -217v-799q0 -68 23 -104q6 -9 0 -19t-17 -10h-254q-11 0 -16.5 10t0.5 19q25 39 25 104v158
h-347v-158q0 -68 23 -104q6 -9 0.5 -19t-16.5 -10h-254zM274 401h347v498q0 201 -46.5 311.5t-128.5 110.5q-80 0 -126 -110.5t-46 -311.5v-498z" />
    <glyph glyph-name="Aacute" unicode="&#xc1;" horiz-adv-x="892" 
d="M485 1468l-108 109l268 268l109 -108zM27 0q-11 0 -17 10t0 19q25 39 25 104v799q0 119 36.5 217t95.5 158.5t131.5 93.5t147.5 33q76 0 149 -33t132.5 -93.5t96 -158.5t36.5 -217v-799q0 -68 23 -104q6 -9 0 -19t-17 -10h-254q-11 0 -16.5 10t0.5 19q25 39 25 104v158
h-347v-158q0 -68 23 -104q6 -9 0.5 -19t-16.5 -10h-254zM274 401h347v498q0 201 -46.5 311.5t-128.5 110.5q-80 0 -126 -110.5t-46 -311.5v-498z" />
    <glyph glyph-name="Acircumflex" unicode="&#xc2;" horiz-adv-x="892" 
d="M281 1417l-109 109l268 270l109 -110l160 -160l-74 -74l-160 160zM27 0q-11 0 -17 10t0 19q25 39 25 104v799q0 119 36.5 217t95.5 158.5t131.5 93.5t147.5 33q76 0 149 -33t132.5 -93.5t96 -158.5t36.5 -217v-799q0 -68 23 -104q6 -9 0 -19t-17 -10h-254q-11 0 -16.5 10
t0.5 19q25 39 25 104v158h-347v-158q0 -68 23 -104q6 -9 0.5 -19t-16.5 -10h-254zM274 401h347v498q0 201 -46.5 311.5t-128.5 110.5q-80 0 -126 -110.5t-46 -311.5v-498z" />
    <glyph glyph-name="Atilde" unicode="&#xc3;" horiz-adv-x="892" 
d="M567 1522q-8 2 -41 12.5t-51 15.5t-51 12.5t-55 8t-47 -1.5t-43 -13t-29 -30q0 74 55.5 108.5t124.5 14.5q13 -4 40 -12t44 -12.5t42 -10.5t41.5 -8t34.5 -1.5t30 6.5t18 17q12 -44 -20 -83.5t-93 -22.5zM27 0q-11 0 -17 10t0 19q25 39 25 104v799q0 119 36.5 217
t95.5 158.5t131.5 93.5t147.5 33q76 0 149 -33t132.5 -93.5t96 -158.5t36.5 -217v-799q0 -68 23 -104q6 -9 0 -19t-17 -10h-254q-11 0 -16.5 10t0.5 19q25 39 25 104v158h-347v-158q0 -68 23 -104q6 -9 0.5 -19t-16.5 -10h-254zM274 401h347v498q0 201 -46.5 311.5
t-128.5 110.5q-80 0 -126 -110.5t-46 -311.5v-498z" />
    <glyph glyph-name="Adieresis" unicode="&#xc4;" horiz-adv-x="892" 
d="M319 1481q-51 0 -86.5 36.5t-35.5 88.5q0 51 35.5 87t86.5 36q52 0 88.5 -36t36.5 -87q0 -52 -36 -88.5t-89 -36.5zM625 1481q-51 0 -87 36.5t-36 88.5q0 51 36 87t87 36q52 0 88.5 -36t36.5 -87q0 -52 -36 -88.5t-89 -36.5zM27 0q-11 0 -17 10t0 19q25 39 25 104v799
q0 119 36.5 217t95.5 158.5t131.5 93.5t147.5 33q76 0 149 -33t132.5 -93.5t96 -158.5t36.5 -217v-799q0 -68 23 -104q6 -9 0 -19t-17 -10h-254q-11 0 -16.5 10t0.5 19q25 39 25 104v158h-347v-158q0 -68 23 -104q6 -9 0.5 -19t-16.5 -10h-254zM274 401h347v498
q0 201 -46.5 311.5t-128.5 110.5q-80 0 -126 -110.5t-46 -311.5v-498z" />
    <glyph glyph-name="Aring" unicode="&#xc5;" horiz-adv-x="892" 
d="M477 1507q-58 0 -100.5 42.5t-42.5 101.5q0 60 42 101.5t101 41.5q60 0 102 -41.5t42 -101.5q0 -59 -42 -101.5t-102 -42.5zM477 1573q32 0 55 23t23 55t-23 55t-55 23t-55 -23t-23 -55t23 -55t55 -23zM27 0q-11 0 -17 10t0 19q25 39 25 104v799q0 119 36.5 217
t95.5 158.5t131.5 93.5t147.5 33q76 0 149 -33t132.5 -93.5t96 -158.5t36.5 -217v-799q0 -68 23 -104q6 -9 0 -19t-17 -10h-254q-11 0 -16.5 10t0.5 19q25 39 25 104v158h-347v-158q0 -68 23 -104q6 -9 0.5 -19t-16.5 -10h-254zM274 401h347v498q0 201 -46.5 311.5
t-128.5 110.5q-80 0 -126 -110.5t-46 -311.5v-498z" />
    <glyph glyph-name="AE" unicode="&#xc6;" horiz-adv-x="1323" 
d="M1133 113q161 0 182 39q0 -36 -4.5 -62t-16 -42.5t-23.5 -26.5t-36.5 -14.5t-44.5 -5.5t-57 -1h-539q51 32 51 133v158h-346v-158q0 -101 51 -133h-342q51 32 51 133v799q0 119 36.5 217t96 158.5t132 93.5t147.5 33h662q37 0 57 -1t44.5 -5.5t36.5 -14.5t23.5 -26.5
t16 -42.5t4.5 -62q-21 39 -182 39h-248v-920h151q162 0 183 39q0 -36 -4 -61.5t-16 -42t-24 -25.5t-36.5 -13.5t-44.5 -5.5t-58 -1h-151v-158v-20h248zM645 401v498q0 201 -46 311.5t-128 110.5q-80 0 -126 -110.5t-46 -311.5v-498h346z" />
    <glyph glyph-name="Egrave" unicode="&#xc8;" horiz-adv-x="710" 
d="M457 1505l-269 271l111 108l268 -268zM27 0q-11 0 -16 9t1 18q23 39 23 106v1167q0 66 -23 105q-6 9 -1 19t16 10h495q40 0 61.5 -1.5t46.5 -7t37.5 -17.5t22 -33.5t12.5 -53.5q1 -10 -7 -16.5t-17 -1.5q-48 18 -156 18h-248v-920h152q114 0 156 17q9 5 17 -2t7 -17
q-3 -31 -12.5 -51.5t-21.5 -32t-37.5 -17t-46.5 -6.5t-62 -1h-152v-178h248q114 0 156 16q9 5 17 -1.5t7 -16.5q-3 -32 -13 -53.5t-22 -33t-37.5 -17t-46 -6.5t-61.5 -1h-495z" />
    <glyph glyph-name="Eacute" unicode="&#xc9;" horiz-adv-x="710" 
d="M281 1524l-109 108l268 269l109 -109zM27 0q-11 0 -16 9t1 18q23 39 23 106v1167q0 66 -23 105q-6 9 -1 19t16 10h495q40 0 61.5 -1.5t46.5 -7t37.5 -17.5t22 -33.5t12.5 -53.5q1 -10 -7 -16.5t-17 -1.5q-48 18 -156 18h-248v-920h152q114 0 156 17q9 5 17 -2t7 -17
q-3 -31 -12.5 -51.5t-21.5 -32t-37.5 -17t-46.5 -6.5t-62 -1h-152v-178h248q114 0 156 16q9 5 17 -1.5t7 -16.5q-3 -32 -13 -53.5t-22 -33t-37.5 -17t-46 -6.5t-61.5 -1h-495z" />
    <glyph glyph-name="Ecircumflex" unicode="&#xca;" horiz-adv-x="710" 
d="M225 1501l-108 109l268 270l109 -111l159 -159l-73 -74l-160 160zM27 0q-11 0 -16 9t1 18q23 39 23 106v1167q0 66 -23 105q-6 9 -1 19t16 10h495q40 0 61.5 -1.5t46.5 -7t37.5 -17.5t22 -33.5t12.5 -53.5q1 -10 -7 -16.5t-17 -1.5q-48 18 -156 18h-248v-920h152
q114 0 156 17q9 5 17 -2t7 -17q-3 -31 -12.5 -51.5t-21.5 -32t-37.5 -17t-46.5 -6.5t-62 -1h-152v-178h248q114 0 156 16q9 5 17 -1.5t7 -16.5q-3 -32 -13 -53.5t-22 -33t-37.5 -17t-46 -6.5t-61.5 -1h-495z" />
    <glyph glyph-name="Edieresis" unicode="&#xcb;" horiz-adv-x="710" 
d="M213 1526q-51 0 -87 36.5t-36 88.5q0 51 36 87t87 36q52 0 88.5 -36t36.5 -87q0 -53 -36 -89t-89 -36zM518 1526q-51 0 -87 36.5t-36 88.5q0 51 36 87t87 36q52 0 88.5 -36t36.5 -87q0 -53 -36.5 -89t-88.5 -36zM27 0q-11 0 -16 9t1 18q23 39 23 106v1167q0 66 -23 105
q-6 9 -1 19t16 10h495q40 0 61.5 -1.5t46.5 -7t37.5 -17.5t22 -33.5t12.5 -53.5q1 -10 -7 -16.5t-17 -1.5q-48 18 -156 18h-248v-920h152q114 0 156 17q9 5 17 -2t7 -17q-3 -31 -12.5 -51.5t-21.5 -32t-37.5 -17t-46.5 -6.5t-62 -1h-152v-178h248q114 0 156 16q9 5 17 -1.5
t7 -16.5q-3 -32 -13 -53.5t-22 -33t-37.5 -17t-46 -6.5t-61.5 -1h-495z" />
    <glyph glyph-name="Igrave" unicode="&#xcc;" horiz-adv-x="307" 
d="M262 1520l-268 270l110 108l269 -268zM27 0q-10 0 -16 10t-1 19q25 39 25 104v1167q0 66 -25 105q-5 9 1 19t16 10h254q11 0 16.5 -10t-0.5 -19q-23 -36 -23 -105v-1167q0 -68 23 -104q6 -9 0.5 -19t-16.5 -10h-254z" />
    <glyph glyph-name="Iacute" unicode="&#xcd;" horiz-adv-x="307" 
d="M86 1511l-109 109l269 268l108 -108zM27 0q-10 0 -16 10t-1 19q25 39 25 104v1167q0 66 -25 105q-5 9 1 19t16 10h254q11 0 16.5 -10t-0.5 -19q-23 -36 -23 -105v-1167q0 -68 23 -104q6 -9 0.5 -19t-16.5 -10h-254z" />
    <glyph glyph-name="Icircumflex" unicode="&#xce;" horiz-adv-x="307" 
d="M23 1450l-109 109l268 270l109 -111l160 -159l-74 -74l-160 160zM27 0q-10 0 -16 10t-1 19q25 39 25 104v1167q0 66 -25 105q-5 9 1 19t16 10h254q11 0 16.5 -10t-0.5 -19q-23 -36 -23 -105v-1167q0 -68 23 -104q6 -9 0.5 -19t-16.5 -10h-254z" />
    <glyph glyph-name="Idieresis" unicode="&#xcf;" horiz-adv-x="307" 
d="M35 1518q-51 0 -87 36t-36 88q0 51 36 87t87 36q52 0 88.5 -36t36.5 -87q0 -52 -36 -88t-89 -36zM340 1518q-51 0 -87 36t-36 88q0 51 36 87t87 36q52 0 88.5 -36t36.5 -87q0 -52 -36 -88t-89 -36zM27 0q-10 0 -16 10t-1 19q25 39 25 104v1167q0 66 -25 105q-5 9 1 19
t16 10h254q11 0 16.5 -10t-0.5 -19q-23 -36 -23 -105v-1167q0 -68 23 -104q6 -9 0.5 -19t-16.5 -10h-254z" />
    <glyph glyph-name="Ntilde" unicode="&#xd1;" horiz-adv-x="858" 
d="M567 1536q-8 2 -41 12.5t-51 15.5t-51 12.5t-55 8t-47 -1.5t-43 -13t-29 -30q0 74 55.5 108.5t124.5 14.5q13 -4 40 -12t44 -12.5t42 -10.5t41.5 -8t34.5 -1.5t30 6.5t18 17q12 -44 -20 -83.5t-93 -22.5zM23 0q-8 0 -12.5 8.5t1.5 14.5q25 37 25 110v1167q0 74 -25 109
q-6 7 -1.5 16t12.5 9h276q9 0 13 -6.5t1 -14.5q-13 -36 13 -113l317 -874q3 -12 15 -10t12 14v870q0 74 -25 109q-6 7 -2 16t12 9h156q8 0 12 -9t-2 -16q-26 -36 -26 -109v-1167q0 -97 47 -131q1 0 3 -1t3 -1h-313q-8 0 -13 6.5t-2 13.5q17 38 -12 113l-78 213l-240 664
q-3 12 -15.5 10t-12.5 -14v-873q0 -71 26 -110q6 -6 1.5 -14.5t-13.5 -8.5h-153z" />
    <glyph glyph-name="Ograve" unicode="&#xd2;" horiz-adv-x="903" 
d="M541 1507l-269 271l111 108l268 -268zM461 0q-75 0 -147.5 33t-132 93.5t-96 158.5t-36.5 217v430q0 119 36.5 217t96 158.5t132 93.5t147.5 33t147.5 -33t132.5 -93.5t96.5 -158.5t36.5 -217v-430q0 -119 -36.5 -217t-96.5 -158.5t-132.5 -93.5t-147.5 -33zM461 113
q80 0 127 111t47 311v364q0 200 -47 311t-127 111t-126 -110.5t-46 -311.5v-364q0 -201 46 -311.5t126 -110.5z" />
    <glyph glyph-name="Oacute" unicode="&#xd3;" horiz-adv-x="903" 
d="M401 1505l-108 109l268 268l109 -108zM461 0q-75 0 -147.5 33t-132 93.5t-96 158.5t-36.5 217v430q0 119 36.5 217t96 158.5t132 93.5t147.5 33t147.5 -33t132.5 -93.5t96.5 -158.5t36.5 -217v-430q0 -119 -36.5 -217t-96.5 -158.5t-132.5 -93.5t-147.5 -33zM461 113
q80 0 127 111t47 311v364q0 200 -47 311t-127 111t-126 -110.5t-46 -311.5v-364q0 -201 46 -311.5t126 -110.5z" />
    <glyph glyph-name="Ocircumflex" unicode="&#xd4;" horiz-adv-x="903" 
d="M299 1485l-109 108l269 271l108 -111l160 -160l-74 -73l-159 159zM461 0q-75 0 -147.5 33t-132 93.5t-96 158.5t-36.5 217v430q0 119 36.5 217t96 158.5t132 93.5t147.5 33t147.5 -33t132.5 -93.5t96.5 -158.5t36.5 -217v-430q0 -119 -36.5 -217t-96.5 -158.5
t-132.5 -93.5t-147.5 -33zM461 113q80 0 127 111t47 311v364q0 200 -47 311t-127 111t-126 -110.5t-46 -311.5v-364q0 -201 46 -311.5t126 -110.5z" />
    <glyph glyph-name="Otilde" unicode="&#xd5;" horiz-adv-x="903" 
d="M567 1458q-8 2 -41 12.5t-51 15.5t-51 12.5t-55 8t-47 -1.5t-43 -13t-29 -30q0 74 55.5 108.5t124.5 14.5q12 -3 40 -11.5t44.5 -13t41.5 -10.5t41.5 -7.5t34.5 -1t30 6.5t18 17q12 -44 -20 -84t-93 -23zM461 0q-75 0 -147.5 33t-132 93.5t-96 158.5t-36.5 217v430
q0 119 36.5 217t96 158.5t132 93.5t147.5 33t147.5 -33t132.5 -93.5t96.5 -158.5t36.5 -217v-430q0 -119 -36.5 -217t-96.5 -158.5t-132.5 -93.5t-147.5 -33zM461 113q80 0 127 111t47 311v364q0 200 -47 311t-127 111t-126 -110.5t-46 -311.5v-364q0 -201 46 -311.5
t126 -110.5z" />
    <glyph glyph-name="Odieresis" unicode="&#xd6;" horiz-adv-x="903" 
d="M313 1489q-51 0 -87 36.5t-36 88.5q0 51 36 87t87 36q52 0 88.5 -36t36.5 -87q0 -52 -36 -88.5t-89 -36.5zM618 1489q-51 0 -86.5 36.5t-35.5 88.5q0 51 35.5 87t86.5 36q52 0 88.5 -36t36.5 -87q0 -52 -36.5 -88.5t-88.5 -36.5zM461 0q-75 0 -147.5 33t-132 93.5
t-96 158.5t-36.5 217v430q0 119 36.5 217t96 158.5t132 93.5t147.5 33t147.5 -33t132.5 -93.5t96.5 -158.5t36.5 -217v-430q0 -119 -36.5 -217t-96.5 -158.5t-132.5 -93.5t-147.5 -33zM461 113q80 0 127 111t47 311v364q0 200 -47 311t-127 111t-126 -110.5t-46 -311.5v-364
q0 -201 46 -311.5t126 -110.5z" />
    <glyph glyph-name="multiply" unicode="&#xd7;" horiz-adv-x="563" 
d="M106 303l-98 96l174 176l-174 175l98 98l175 -176l174 176l98 -98l-174 -175l174 -176l-98 -96l-174 174z" />
    <glyph glyph-name="Oslash" unicode="&#xd8;" horiz-adv-x="978" 
d="M979 1432l-131 -254q49 -107 49 -246v-430q0 -96 -24 -178.5t-65 -141t-94.5 -100.5t-112 -62t-118.5 -20q-108 0 -209 66l-34 -68h-240l127 244q-55 113 -55 260v430q0 119 36.5 217t95.5 158.5t131.5 93.5t147.5 33q116 0 219 -74l37 72h240zM311 899v-297l305 592
q-47 127 -133 127q-80 0 -126 -110.5t-46 -311.5zM657 535v274l-301 -584q47 -112 127 -112t127 111t47 311z" />
    <glyph glyph-name="Ugrave" unicode="&#xd9;" horiz-adv-x="780" 
d="M535 1538l-269 270l111 109l268 -268zM449 0q-214 0 -313 125t-99 377v798q0 69 -23 105q-6 9 -1 19t16 10h256q10 0 15 -10t-1 -19q-23 -36 -23 -105v-765q0 -86 4 -148t15 -116.5t30.5 -87.5t50 -51.5t73.5 -18.5q80 0 127 111t47 311v765q0 69 -23 105q-6 9 -1 19
t15 10h140q10 0 15 -10t-1 -19q-23 -36 -23 -105v-798q0 -502 -296 -502z" />
    <glyph glyph-name="Uacute" unicode="&#xda;" horiz-adv-x="780" 
d="M369 1468l-109 109l268 268l109 -108zM449 0q-214 0 -313 125t-99 377v798q0 69 -23 105q-6 9 -1 19t16 10h256q10 0 15 -10t-1 -19q-23 -36 -23 -105v-765q0 -86 4 -148t15 -116.5t30.5 -87.5t50 -51.5t73.5 -18.5q80 0 127 111t47 311v765q0 69 -23 105q-6 9 -1 19
t15 10h140q10 0 15 -10t-1 -19q-23 -36 -23 -105v-798q0 -502 -296 -502z" />
    <glyph glyph-name="Ucircumflex" unicode="&#xdb;" horiz-adv-x="780" 
d="M311 1483l-108 108l268 271l109 -111l159 -160l-73 -73l-160 159zM449 0q-214 0 -313 125t-99 377v798q0 69 -23 105q-6 9 -1 19t16 10h256q10 0 15 -10t-1 -19q-23 -36 -23 -105v-765q0 -86 4 -148t15 -116.5t30.5 -87.5t50 -51.5t73.5 -18.5q80 0 127 111t47 311v765
q0 69 -23 105q-6 9 -1 19t15 10h140q10 0 15 -10t-1 -19q-23 -36 -23 -105v-798q0 -502 -296 -502z" />
    <glyph glyph-name="Udieresis" unicode="&#xdc;" horiz-adv-x="780" 
d="M303 1536q-51 0 -87 36.5t-36 88.5q0 51 36 87t87 36q52 0 88.5 -36t36.5 -87q0 -53 -36 -89t-89 -36zM608 1536q-51 0 -87 36.5t-36 88.5q0 51 36 87t87 36q52 0 88.5 -36t36.5 -87q0 -53 -36.5 -89t-88.5 -36zM449 0q-214 0 -313 125t-99 377v798q0 69 -23 105
q-6 9 -1 19t16 10h256q10 0 15 -10t-1 -19q-23 -36 -23 -105v-765q0 -86 4 -148t15 -116.5t30.5 -87.5t50 -51.5t73.5 -18.5q80 0 127 111t47 311v765q0 69 -23 105q-6 9 -1 19t15 10h140q10 0 15 -10t-1 -19q-23 -36 -23 -105v-798q0 -502 -296 -502z" />
    <glyph glyph-name="Yacute" unicode="&#xdd;" horiz-adv-x="602" 
d="M418 1462l-109 109l269 268l108 -108zM258 0q-10 0 -15.5 9t-0.5 18q24 41 24 108v635l-194 530q-21 62 -60 101q-7 9 -2.5 21t15.5 12h254q9 0 15 -8t3 -17q-12 -40 14 -109l119 -325l150 325q33 73 24 109q-3 9 2.5 17t14.5 8h139q12 0 16.5 -12t-4.5 -21
q-43 -43 -67 -101l-134 -290l-65 -140v-735q0 -71 22 -108q6 -9 1.5 -18t-15.5 -9h-256z" />
    <glyph glyph-name="agrave" unicode="&#xe0;" 
d="M424 987l-268 270l110 109l269 -268zM227 -6q-93 0 -151 74q-72 91 -33 241q8 31 27 59t36.5 45.5t52 38.5t53 30.5t60.5 29.5q47 22 73 36t57 37t47 48q-3 82 -27 139q-23 57 -70 57q-72 0 -92 -81v-5q0 -2 -2 -4q-6 -33 3.5 -62.5t31.5 -41.5q10 -7 6 -19
q-3 -12 -14 -12h-260q-6 0 -11.5 4t-5.5 10q-1 6 2.5 11.5t9.5 7.5q9 1 12.5 8t6.5 29q9 54 29 88q95 164 284 164q64 0 109.5 -11t85.5 -40t64 -80.5t37.5 -134t13.5 -197.5v-313q0 -95 43 -119q10 -7 6 -19q-3 -12 -15 -12h-278q-14 0 -17 12q-4 12 7 19q37 21 43 88
q-67 -89 -170 -119q-27 -6 -54 -6zM281 90q4 0 8 2q11 2 38.5 25.5t55.5 60.5q70 97 70 195v137q-22 -24 -76 -64q-38 -27 -60.5 -45.5t-50 -58t-41.5 -88.5q-23 -92 15 -139q16 -25 41 -25z" />
    <glyph glyph-name="aacute" unicode="&#xe1;" 
d="M260 989l-108 109l268 268l108 -109zM227 -6q-93 0 -151 74q-72 91 -33 241q8 31 27 59t36.5 45.5t52 38.5t53 30.5t60.5 29.5q47 22 73 36t57 37t47 48q-3 82 -27 139q-23 57 -70 57q-72 0 -92 -81v-5q0 -2 -2 -4q-6 -33 3.5 -62.5t31.5 -41.5q10 -7 6 -19
q-3 -12 -14 -12h-260q-6 0 -11.5 4t-5.5 10q-1 6 2.5 11.5t9.5 7.5q9 1 12.5 8t6.5 29q9 54 29 88q95 164 284 164q64 0 109.5 -11t85.5 -40t64 -80.5t37.5 -134t13.5 -197.5v-313q0 -95 43 -119q10 -7 6 -19q-3 -12 -15 -12h-278q-14 0 -17 12q-4 12 7 19q37 21 43 88
q-67 -89 -170 -119q-27 -6 -54 -6zM281 90q4 0 8 2q11 2 38.5 25.5t55.5 60.5q70 97 70 195v137q-22 -24 -76 -64q-38 -27 -60.5 -45.5t-50 -58t-41.5 -88.5q-23 -92 15 -139q16 -25 41 -25z" />
    <glyph glyph-name="acircumflex" unicode="&#xe2;" 
d="M188 981l-108 109l268 270l109 -111l159 -159l-73 -74l-160 160zM227 -6q-93 0 -151 74q-72 91 -33 241q8 31 27 59t36.5 45.5t52 38.5t53 30.5t60.5 29.5q47 22 73 36t57 37t47 48q-3 82 -27 139q-23 57 -70 57q-72 0 -92 -81v-5q0 -2 -2 -4q-6 -33 3.5 -62.5
t31.5 -41.5q10 -7 6 -19q-3 -12 -14 -12h-260q-6 0 -11.5 4t-5.5 10q-1 6 2.5 11.5t9.5 7.5q9 1 12.5 8t6.5 29q9 54 29 88q95 164 284 164q64 0 109.5 -11t85.5 -40t64 -80.5t37.5 -134t13.5 -197.5v-313q0 -95 43 -119q10 -7 6 -19q-3 -12 -15 -12h-278q-14 0 -17 12
q-4 12 7 19q37 21 43 88q-67 -89 -170 -119q-27 -6 -54 -6zM281 90q4 0 8 2q11 2 38.5 25.5t55.5 60.5q70 97 70 195v137q-22 -24 -76 -64q-38 -27 -60.5 -45.5t-50 -58t-41.5 -88.5q-23 -92 15 -139q16 -25 41 -25z" />
    <glyph glyph-name="atilde" unicode="&#xe3;" 
d="M440 979q-8 2 -41 12.5t-51 15.5t-51 12.5t-55 8t-47 -1.5t-43 -13t-29 -30q0 74 55.5 108.5t124.5 14.5q13 -4 40 -12t44 -12.5t42 -10.5t41.5 -8t34.5 -1.5t30 6.5t18 17q12 -44 -20 -83.5t-93 -22.5zM227 -6q-93 0 -151 74q-72 91 -33 241q8 31 27 59t36.5 45.5
t52 38.5t53 30.5t60.5 29.5q47 22 73 36t57 37t47 48q-3 82 -27 139q-23 57 -70 57q-72 0 -92 -81v-5q0 -2 -2 -4q-6 -33 3.5 -62.5t31.5 -41.5q10 -7 6 -19q-3 -12 -14 -12h-260q-6 0 -11.5 4t-5.5 10q-1 6 2.5 11.5t9.5 7.5q9 1 12.5 8t6.5 29q9 54 29 88q95 164 284 164
q64 0 109.5 -11t85.5 -40t64 -80.5t37.5 -134t13.5 -197.5v-313q0 -95 43 -119q10 -7 6 -19q-3 -12 -15 -12h-278q-14 0 -17 12q-4 12 7 19q37 21 43 88q-67 -89 -170 -119q-27 -6 -54 -6zM281 90q4 0 8 2q11 2 38.5 25.5t55.5 60.5q70 97 70 195v137q-22 -24 -76 -64
q-38 -27 -60.5 -45.5t-50 -58t-41.5 -88.5q-23 -92 15 -139q16 -25 41 -25z" />
    <glyph glyph-name="adieresis" unicode="&#xe4;" 
d="M184 983q-51 0 -87 36.5t-36 88.5q0 51 36 87t87 36q52 0 88.5 -36t36.5 -87q0 -52 -36.5 -88.5t-88.5 -36.5zM489 983q-51 0 -86.5 36.5t-35.5 88.5q0 51 35.5 87t86.5 36q52 0 88.5 -36t36.5 -87q0 -52 -36 -88.5t-89 -36.5zM227 -6q-93 0 -151 74q-72 91 -33 241
q8 31 27 59t36.5 45.5t52 38.5t53 30.5t60.5 29.5q47 22 73 36t57 37t47 48q-3 82 -27 139q-23 57 -70 57q-72 0 -92 -81v-5q0 -2 -2 -4q-6 -33 3.5 -62.5t31.5 -41.5q10 -7 6 -19q-3 -12 -14 -12h-260q-6 0 -11.5 4t-5.5 10q-1 6 2.5 11.5t9.5 7.5q9 1 12.5 8t6.5 29
q9 54 29 88q95 164 284 164q64 0 109.5 -11t85.5 -40t64 -80.5t37.5 -134t13.5 -197.5v-313q0 -95 43 -119q10 -7 6 -19q-3 -12 -15 -12h-278q-14 0 -17 12q-4 12 7 19q37 21 43 88q-67 -89 -170 -119q-27 -6 -54 -6zM281 90q4 0 8 2q11 2 38.5 25.5t55.5 60.5q70 97 70 195
v137q-22 -24 -76 -64q-38 -27 -60.5 -45.5t-50 -58t-41.5 -88.5q-23 -92 15 -139q16 -25 41 -25z" />
    <glyph glyph-name="aring" unicode="&#xe5;" 
d="M336 977q-58 0 -100.5 42.5t-42.5 100.5q0 60 42 102t101 42q60 0 101.5 -42t41.5 -102q0 -59 -41.5 -101t-101.5 -42zM336 1042q32 0 55 23t23 55t-23 55t-55 23t-55 -23t-23 -55t23 -55t55 -23zM227 -6q-93 0 -151 74q-72 91 -33 241q8 31 27 59t36.5 45.5t52 38.5
t53 30.5t60.5 29.5q47 22 73 36t57 37t47 48q-3 82 -27 139q-23 57 -70 57q-72 0 -92 -81v-5q0 -2 -2 -4q-6 -33 3.5 -62.5t31.5 -41.5q10 -7 6 -19q-3 -12 -14 -12h-260q-6 0 -11.5 4t-5.5 10q-1 6 2.5 11.5t9.5 7.5q9 1 12.5 8t6.5 29q9 54 29 88q95 164 284 164
q64 0 109.5 -11t85.5 -40t64 -80.5t37.5 -134t13.5 -197.5v-313q0 -95 43 -119q10 -7 6 -19q-3 -12 -15 -12h-278q-14 0 -17 12q-4 12 7 19q37 21 43 88q-67 -89 -170 -119q-27 -6 -54 -6zM281 90q4 0 8 2q11 2 38.5 25.5t55.5 60.5q70 97 70 195v137q-22 -24 -76 -64
q-38 -27 -60.5 -45.5t-50 -58t-41.5 -88.5q-23 -92 15 -139q16 -25 41 -25z" />
    <glyph glyph-name="ae" unicode="&#xe6;" horiz-adv-x="1081" 
d="M813 295h260q-21 -5 -28 -20t-13.5 -50t-17.5 -63q-66 -156 -269 -156q-25 0 -71 4l6 -4h-279q52 32 52 133v35q-2 -5 -6 -14t-20 -33.5t-36 -45t-55 -42.5t-76 -33q-47 -13 -94.5 -0.5t-82.5 49.5t-48 97.5t8 142.5q14 50 52.5 88.5t88.5 64t100.5 48.5t97 54t69.5 68
q-12 218 -115 218q-84 0 -107 -95q-2 -2 -2 -6v-2q-8 -39 3.5 -73.5t37.5 -49.5h-260q21 5 27.5 21t12 50t18.5 62h2q66 156 268 156q143 0 205 -65q62 65 204 65q62 0 104.5 -9.5t81 -37t61 -77t35.5 -129.5t13 -193h-411v63h235q0 49 -1.5 86t-8.5 84t-19 77t-35 51.5
t-55 21.5q-29 0 -50 -16.5t-33 -44t-20 -63t-10 -74.5t-3.5 -77.5t0.5 -72.5v-12v-10v-11v-2v-109q1 -55 5.5 -97.5t16 -86t35.5 -67t59 -23.5q50 0 76 32.5t26 73t-10 76t-24 43.5zM453 362v91v96q-19 -35 -58.5 -67t-74.5 -54.5t-71.5 -69.5t-53.5 -110q-24 -90 7 -141.5
t74 -40.5t110 101.5t67 194.5z" />
    <glyph glyph-name="egrave" unicode="&#xe8;" horiz-adv-x="667" 
d="M373 956l-269 271l111 108l268 -268zM317 0q-81 0 -134 18t-95 67t-61 142t-19 236t19 236t61 142t95 67t134 18q73 0 132 -17q60 -21 100 -69q80 -106 80 -377q0 -6 -5.5 -11.5t-11.5 -5.5h-395q-2 -4 -2 -14q0 -75 1.5 -120t15 -107.5t38.5 -87.5q18 -21 47 -21
q50 0 68 60q12 39 6 86q-5 44 -16 49q-10 7 -6 18q3 13 16 13h260q14 0 14 -15q3 -14 -10 -18q-12 -3 -17 -10.5t-9 -32.5q-3 -36 -23 -80q-36 -79 -98 -119q-74 -47 -185 -47zM215 543h205q-4 129 -19 190q-25 96 -84 96q-30 0 -47 -20q-51 -51 -55 -266z" />
    <glyph glyph-name="eacute" unicode="&#xe9;" horiz-adv-x="667" 
d="M219 975l-108 108l268 269l108 -109zM317 0q-81 0 -134 18t-95 67t-61 142t-19 236t19 236t61 142t95 67t134 18q73 0 132 -17q60 -21 100 -69q80 -106 80 -377q0 -6 -5.5 -11.5t-11.5 -5.5h-395q-2 -4 -2 -14q0 -75 1.5 -120t15 -107.5t38.5 -87.5q18 -21 47 -21
q50 0 68 60q12 39 6 86q-5 44 -16 49q-10 7 -6 18q3 13 16 13h260q14 0 14 -15q3 -14 -10 -18q-12 -3 -17 -10.5t-9 -32.5q-3 -36 -23 -80q-36 -79 -98 -119q-74 -47 -185 -47zM215 543h205q-4 129 -19 190q-25 96 -84 96q-30 0 -47 -20q-51 -51 -55 -266z" />
    <glyph glyph-name="ecircumflex" unicode="&#xea;" horiz-adv-x="667" 
d="M125 973l-109 108l269 271l108 -111l160 -160l-74 -73l-160 159zM317 0q-81 0 -134 18t-95 67t-61 142t-19 236t19 236t61 142t95 67t134 18q73 0 132 -17q60 -21 100 -69q80 -106 80 -377q0 -6 -5.5 -11.5t-11.5 -5.5h-395q-2 -4 -2 -14q0 -75 1.5 -120t15 -107.5
t38.5 -87.5q18 -21 47 -21q50 0 68 60q12 39 6 86q-5 44 -16 49q-10 7 -6 18q3 13 16 13h260q14 0 14 -15q3 -14 -10 -18q-12 -3 -17 -10.5t-9 -32.5q-3 -36 -23 -80q-36 -79 -98 -119q-74 -47 -185 -47zM215 543h205q-4 129 -19 190q-25 96 -84 96q-30 0 -47 -20
q-51 -51 -55 -266z" />
    <glyph glyph-name="edieresis" unicode="&#xeb;" horiz-adv-x="667" 
d="M131 967q-51 0 -87 36.5t-36 88.5q0 51 36 86.5t87 35.5q52 0 88.5 -35.5t36.5 -86.5q0 -52 -36 -88.5t-89 -36.5zM436 967q-51 0 -87 36.5t-36 88.5q0 51 36 86.5t87 35.5q52 0 88.5 -35.5t36.5 -86.5q0 -52 -36.5 -88.5t-88.5 -36.5zM317 0q-81 0 -134 18t-95 67
t-61 142t-19 236t19 236t61 142t95 67t134 18q73 0 132 -17q60 -21 100 -69q80 -106 80 -377q0 -6 -5.5 -11.5t-11.5 -5.5h-395q-2 -4 -2 -14q0 -75 1.5 -120t15 -107.5t38.5 -87.5q18 -21 47 -21q50 0 68 60q12 39 6 86q-5 44 -16 49q-10 7 -6 18q3 13 16 13h260
q14 0 14 -15q3 -14 -10 -18q-12 -3 -17 -10.5t-9 -32.5q-3 -36 -23 -80q-36 -79 -98 -119q-74 -47 -185 -47zM215 543h205q-4 129 -19 190q-25 96 -84 96q-30 0 -47 -20q-51 -51 -55 -266z" />
    <glyph glyph-name="igrave" unicode="&#xec;" horiz-adv-x="372" 
d="M252 983l-268 270l110 109l268 -268zM8 6q51 32 51 133v627q0 101 -51 133h279q-51 -32 -51 -133v-627q0 -101 51 -133h-279z" />
    <glyph glyph-name="iacute" unicode="&#xed;" horiz-adv-x="333" 
d="M66 977l-109 108l268 269l109 -109zM8 6q51 32 51 133v627q0 101 -51 133h279q-51 -32 -51 -133v-627q0 -101 51 -133h-279z" />
    <glyph glyph-name="icircumflex" unicode="&#xee;" horiz-adv-x="403" 
d="M-25 997l-108 109l268 270l109 -110l159 -160l-73 -74l-160 160zM8 6q51 32 51 133v627q0 101 -51 133h279q-51 -32 -51 -133v-627q0 -101 51 -133h-279z" />
    <glyph glyph-name="idieresis" unicode="&#xef;" horiz-adv-x="368" 
d="M10 987q-51 0 -87 36.5t-36 88.5q0 51 36 87t87 36q52 0 88.5 -36t36.5 -87q0 -52 -36.5 -88.5t-88.5 -36.5zM315 987q-51 0 -86.5 36.5t-35.5 88.5q0 51 35.5 87t86.5 36q52 0 88.5 -36t36.5 -87q0 -52 -36 -88.5t-89 -36.5zM8 6q51 32 51 133v627q0 101 -51 133h279
q-51 -32 -51 -133v-627q0 -101 51 -133h-279z" />
    <glyph glyph-name="ntilde" unicode="&#xf1;" horiz-adv-x="796" 
d="M514 995q-8 2 -41 12.5t-51 15.5t-51 12.5t-55 8t-47 -1.5t-43 -13t-29 -30q0 74 55.5 108.5t124.5 14.5q12 -3 40 -11.5t44.5 -13t41.5 -10.5t41.5 -7.5t34.5 -1t30 6.5t18 17q12 -44 -20 -84t-93 -23zM25 0q-14 0 -17 12q-4 11 8 19q43 24 43 119v626q0 95 -43 119
q-11 8 -8 18q3 13 17 13h227q6 0 11 -5.5t5 -11.5v-43q66 60 160 60q81 0 134 -18t95 -67t61 -142t19 -236v-313q0 -95 43 -119q12 -8 8 -19q-3 -12 -16 -12h-278q-14 0 -17 12q-4 11 8 19q45 23 45 119v313v26q0 59 -1 87.5t-5 84.5t-16.5 92.5t-32.5 55.5q-17 20 -47 20
q-50 0 -84.5 -39.5t-49.5 -103t-20.5 -116t-5.5 -105.5v-315q0 -95 43 -119q12 -8 8 -19q-3 -12 -16 -12h-278z" />
    <glyph glyph-name="ograve" unicode="&#xf2;" horiz-adv-x="636" 
d="M379 969l-268 270l110 109l268 -269zM317 0q-64 0 -109 10.5t-85 40.5t-64 81t-37.5 133.5t-13.5 197.5t13.5 197.5t37.5 133.5t64 81t85 40.5t109 10.5q75 0 134 -17q60 -21 100 -69q78 -103 78 -377t-78 -377q-40 -51 -99 -68.5t-135 -17.5zM317 96q29 0 50 21
q25 25 38.5 90t15 110.5t1.5 118.5q0 4 -1 13.5t-1 13.5t1 13t1 13q0 73 -1.5 119t-15 111t-38.5 90q-20 20 -50 20q-27 0 -47 -20q-24 -25 -37 -87.5t-14.5 -107.5t-1.5 -120v-31v-31q0 -75 1.5 -120t14.5 -107.5t37 -87.5q21 -21 47 -21z" />
    <glyph glyph-name="oacute" unicode="&#xf3;" horiz-adv-x="636" 
d="M219 973l-108 108l268 269l108 -109zM317 0q-64 0 -109 10.5t-85 40.5t-64 81t-37.5 133.5t-13.5 197.5t13.5 197.5t37.5 133.5t64 81t85 40.5t109 10.5q75 0 134 -17q60 -21 100 -69q78 -103 78 -377t-78 -377q-40 -51 -99 -68.5t-135 -17.5zM317 96q29 0 50 21
q25 25 38.5 90t15 110.5t1.5 118.5q0 4 -1 13.5t-1 13.5t1 13t1 13q0 73 -1.5 119t-15 111t-38.5 90q-20 20 -50 20q-27 0 -47 -20q-24 -25 -37 -87.5t-14.5 -107.5t-1.5 -120v-31v-31q0 -75 1.5 -120t14.5 -107.5t37 -87.5q21 -21 47 -21z" />
    <glyph glyph-name="ocircumflex" unicode="&#xf4;" horiz-adv-x="636" 
d="M125 973l-109 108l269 271l108 -111l160 -160l-74 -73l-160 159zM317 0q-64 0 -109 10.5t-85 40.5t-64 81t-37.5 133.5t-13.5 197.5t13.5 197.5t37.5 133.5t64 81t85 40.5t109 10.5q75 0 134 -17q60 -21 100 -69q78 -103 78 -377t-78 -377q-40 -51 -99 -68.5t-135 -17.5z
M317 96q29 0 50 21q25 25 38.5 90t15 110.5t1.5 118.5q0 4 -1 13.5t-1 13.5t1 13t1 13q0 73 -1.5 119t-15 111t-38.5 90q-20 20 -50 20q-27 0 -47 -20q-24 -25 -37 -87.5t-14.5 -107.5t-1.5 -120v-31v-31q0 -75 1.5 -120t14.5 -107.5t37 -87.5q21 -21 47 -21z" />
    <glyph glyph-name="otilde" unicode="&#xf5;" horiz-adv-x="636" 
d="M399 971q-8 2 -41 12.5t-51 15.5t-51 12.5t-55 8t-47 -1.5t-43 -13t-29 -30q0 74 55.5 108.5t124.5 14.5q13 -4 40 -12t44 -12.5t42 -10.5t41.5 -8t34.5 -1.5t30 6.5t18 17q12 -44 -20 -83.5t-93 -22.5zM317 0q-64 0 -109 10.5t-85 40.5t-64 81t-37.5 133.5t-13.5 197.5
t13.5 197.5t37.5 133.5t64 81t85 40.5t109 10.5q75 0 134 -17q60 -21 100 -69q78 -103 78 -377t-78 -377q-40 -51 -99 -68.5t-135 -17.5zM317 96q29 0 50 21q25 25 38.5 90t15 110.5t1.5 118.5q0 4 -1 13.5t-1 13.5t1 13t1 13q0 73 -1.5 119t-15 111t-38.5 90q-20 20 -50 20
q-27 0 -47 -20q-24 -25 -37 -87.5t-14.5 -107.5t-1.5 -120v-31v-31q0 -75 1.5 -120t14.5 -107.5t37 -87.5q21 -21 47 -21z" />
    <glyph glyph-name="odieresis" unicode="&#xf6;" horiz-adv-x="636" 
d="M131 971q-51 0 -87 36.5t-36 88.5q0 51 36 87t87 36q52 0 88.5 -36t36.5 -87q0 -52 -36 -88.5t-89 -36.5zM436 971q-51 0 -87 36.5t-36 88.5q0 51 36 87t87 36q52 0 88.5 -36t36.5 -87q0 -52 -36.5 -88.5t-88.5 -36.5zM317 0q-64 0 -109 10.5t-85 40.5t-64 81
t-37.5 133.5t-13.5 197.5t13.5 197.5t37.5 133.5t64 81t85 40.5t109 10.5q75 0 134 -17q60 -21 100 -69q78 -103 78 -377t-78 -377q-40 -51 -99 -68.5t-135 -17.5zM317 96q29 0 50 21q25 25 38.5 90t15 110.5t1.5 118.5q0 4 -1 13.5t-1 13.5t1 13t1 13q0 73 -1.5 119
t-15 111t-38.5 90q-20 20 -50 20q-27 0 -47 -20q-24 -25 -37 -87.5t-14.5 -107.5t-1.5 -120v-31v-31q0 -75 1.5 -120t14.5 -107.5t37 -87.5q21 -21 47 -21z" />
    <glyph glyph-name="oslash" unicode="&#xf8;" horiz-adv-x="669" 
d="M670 948l-82 -157q57 -99 57 -338q0 -113 -13 -193.5t-35.5 -129.5t-61 -77t-81 -37.5t-104.5 -9.5q-96 0 -151 27l-35 -66h-164l96 187q-39 98 -39 299q0 113 13 193t35.5 129.5t61 77t80.5 37t103 9.5q71 0 123 -14l33 63h164zM350 836q-29 0 -50.5 -16.5t-33.5 -44.5
t-20 -64.5t-10 -75.5t-3.5 -78.5t0.5 -72.5v-11v-10v-10v-33l191 371q-25 45 -74 45zM469 453v106l-211 -407q30 -82 92 -82q29 0 50.5 15.5t34 49t20.5 62t10.5 80t3 75.5t0.5 75v26z" />
    <glyph glyph-name="ugrave" unicode="&#xf9;" horiz-adv-x="794" 
d="M467 969l-268 270l110 109l269 -269zM371 0q-75 0 -131 16q-64 21 -101 70q-80 102 -80 377v313q0 95 -43 119q-11 8 -8 18q3 13 17 13h278q14 0 14 -13q4 -11 -6 -18q-43 -24 -43 -119v-313v-27q-5 -260 56 -319q18 -21 47 -21q77 0 118 103q38 96 41 262v315
q0 94 -45 119q-11 8 -8 18q3 13 17 13h278q14 0 14 -13q4 -11 -6 -18q-43 -24 -43 -119v-626q0 -95 43 -119q10 -7 6 -19q0 -12 -14 -12h-225q-7 0 -12 5t-5 11v43q-68 -59 -159 -59z" />
    <glyph glyph-name="uacute" unicode="&#xfa;" horiz-adv-x="794" 
d="M289 973l-109 108l269 269l108 -109zM371 0q-75 0 -131 16q-64 21 -101 70q-80 102 -80 377v313q0 95 -43 119q-11 8 -8 18q3 13 17 13h278q14 0 14 -13q4 -11 -6 -18q-43 -24 -43 -119v-313v-27q-5 -260 56 -319q18 -21 47 -21q77 0 118 103q38 96 41 262v315
q0 94 -45 119q-11 8 -8 18q3 13 17 13h278q14 0 14 -13q4 -11 -6 -18q-43 -24 -43 -119v-626q0 -95 43 -119q10 -7 6 -19q0 -12 -14 -12h-225q-7 0 -12 5t-5 11v43q-68 -59 -159 -59z" />
    <glyph glyph-name="ucircumflex" unicode="&#xfb;" horiz-adv-x="794" 
d="M229 977l-108 108l268 271l109 -111l159 -160l-73 -73l-160 159zM371 0q-75 0 -131 16q-64 21 -101 70q-80 102 -80 377v313q0 95 -43 119q-11 8 -8 18q3 13 17 13h278q14 0 14 -13q4 -11 -6 -18q-43 -24 -43 -119v-313v-27q-5 -260 56 -319q18 -21 47 -21q77 0 118 103
q38 96 41 262v315q0 94 -45 119q-11 8 -8 18q3 13 17 13h278q14 0 14 -13q4 -11 -6 -18q-43 -24 -43 -119v-626q0 -95 43 -119q10 -7 6 -19q0 -12 -14 -12h-225q-7 0 -12 5t-5 11v43q-68 -59 -159 -59z" />
    <glyph glyph-name="udieresis" unicode="&#xfc;" horiz-adv-x="794" 
d="M254 985q-51 0 -87 36.5t-36 88.5q0 51 36 87t87 36q52 0 88.5 -36t36.5 -87q0 -52 -36.5 -88.5t-88.5 -36.5zM559 985q-51 0 -87 36.5t-36 88.5q0 51 36 87t87 36q52 0 88.5 -36t36.5 -87q0 -52 -36 -88.5t-89 -36.5zM371 0q-75 0 -131 16q-64 21 -101 70
q-80 102 -80 377v313q0 95 -43 119q-11 8 -8 18q3 13 17 13h278q14 0 14 -13q4 -11 -6 -18q-43 -24 -43 -119v-313v-27q-5 -260 56 -319q18 -21 47 -21q77 0 118 103q38 96 41 262v315q0 94 -45 119q-11 8 -8 18q3 13 17 13h278q14 0 14 -13q4 -11 -6 -18q-43 -24 -43 -119
v-626q0 -95 43 -119q10 -7 6 -19q0 -12 -14 -12h-225q-7 0 -12 5t-5 11v43q-68 -59 -159 -59z" />
    <glyph glyph-name="yacute" unicode="&#xfd;" horiz-adv-x="796" 
d="M309 952l-108 109l268 268l109 -108zM428 -567q-109 0 -186 47q-68 46 -97 117q-15 32 -24 81q-5 26 -9 34.5t-16 11.5q-16 4 -12 18q0 6 5 10t11 4h260q13 0 17 -12q3 -11 -8 -18q-22 -12 -31.5 -42.5t-1.5 -64.5v-2q0 -1 1 -3t1 -3q20 -82 90 -82q29 0 47 18
q20 20 32.5 56t16.5 91.5t5 84.5t1 90v29v135q-66 -60 -159 -60q-81 0 -131 17q-62 17 -101 69q-80 99 -80 377v314q0 91 -43 118q-11 7 -8 19q4 12 17 12h278q12 0 16 -12q3 -12 -8 -19q-43 -27 -43 -118v-314v-26q0 -76 1.5 -120.5t15 -110t39.5 -91.5q18 -18 47 -18
q77 0 118 102q38 88 41 262v316q0 90 -45 118q-11 7 -8 19q4 12 17 12h278q12 0 16 -12q4 -16 -10 -19q0 -1 -1 -2t-1 -2q-2 0 -6 -4l-4 -4l-4 -4q-2 -6 -7.5 -16t-6.5 -11l-7 -30v-2q0 -7 -2 -9q0 -10 -2 -14v-20v-852q0 -116 -13.5 -198.5t-37 -134t-63.5 -81t-85.5 -40.5
t-109.5 -11z" />
    <glyph glyph-name="ydieresis" unicode="&#xff;" horiz-adv-x="796" 
d="M233 981q-51 0 -86.5 36.5t-35.5 88.5q0 51 35.5 87t86.5 36q52 0 88.5 -36t36.5 -87q0 -52 -36 -88.5t-89 -36.5zM539 981q-51 0 -87 36.5t-36 88.5q0 51 36 87t87 36q52 0 88.5 -36t36.5 -87q0 -52 -36 -88.5t-89 -36.5zM428 -567q-109 0 -186 47q-68 46 -97 117
q-15 32 -24 81q-5 26 -9 34.5t-16 11.5q-16 4 -12 18q0 6 5 10t11 4h260q13 0 17 -12q3 -11 -8 -18q-22 -12 -31.5 -42.5t-1.5 -64.5v-2q0 -1 1 -3t1 -3q20 -82 90 -82q29 0 47 18q20 20 32.5 56t16.5 91.5t5 84.5t1 90v29v135q-66 -60 -159 -60q-81 0 -131 17
q-62 17 -101 69q-80 99 -80 377v314q0 91 -43 118q-11 7 -8 19q4 12 17 12h278q12 0 16 -12q3 -12 -8 -19q-43 -27 -43 -118v-314v-26q0 -76 1.5 -120.5t15 -110t39.5 -91.5q18 -18 47 -18q77 0 118 102q38 88 41 262v316q0 90 -45 118q-11 7 -8 19q4 12 17 12h278
q12 0 16 -12q4 -16 -10 -19q0 -1 -1 -2t-1 -2q-2 0 -6 -4l-4 -4l-4 -4q-2 -6 -7.5 -16t-6.5 -11l-7 -30v-2q0 -7 -2 -9q0 -10 -2 -14v-20v-852q0 -116 -13.5 -198.5t-37 -134t-63.5 -81t-85.5 -40.5t-109.5 -11z" />
    <glyph glyph-name="OE" unicode="&#x152;" horiz-adv-x="1312" 
d="M1122 113q162 0 183 39q0 -54 -10 -85.5t-37 -46t-54 -17.5t-82 -3h-661q-75 0 -147.5 33t-132 93.5t-96 158.5t-36.5 217v430q0 119 36.5 217t96 158.5t132 93.5t147.5 33h661q55 0 82 -3t54 -17.5t37 -46t10 -85.5q-21 39 -183 39h-248v-920h152q161 0 182 39
q0 -36 -4 -61.5t-16 -42t-23.5 -25.5t-36.5 -13.5t-44.5 -5.5t-57.5 -1h-152v-178h248zM289 535q0 -201 46 -311.5t126 -110.5t127 111t47 311v364q0 200 -47 311t-127 111t-126 -110.5t-46 -311.5v-364z" />
    <glyph glyph-name="oe" unicode="&#x153;" horiz-adv-x="1048" 
d="M780 295h260q-21 -5 -28 -20t-13.5 -50t-17.5 -63q-66 -156 -268 -156q-142 0 -205 66q-63 -66 -207 -66q-61 0 -103.5 9.5t-80.5 37.5t-60.5 77t-35.5 129.5t-13 193.5t13 193t35.5 129.5t61 77t80.5 37t103 9.5q145 0 207 -65q62 65 205 65q62 0 104.5 -9.5t81 -37
t61 -77t35.5 -129.5t13 -193h-412v63h235q0 64 -3 109t-14 99t-36.5 83t-64.5 29q-29 0 -50.5 -16.5t-33.5 -44.5t-20 -64t-10 -75t-3.5 -78t0.5 -72v-31v-2v-2q0 -161 7 -215q20 -166 110 -166q48 0 73.5 32.5t26 73t-9 76t-23.5 43.5zM301 70q29 0 50.5 15.5t34 49
t20.5 62t10.5 80t3 75.5t0.5 75v26v26q1 25 0 54t-1.5 58.5t-4 59.5t-8.5 57t-14 50.5t-21 40.5t-30 27t-40 10q-29 0 -50.5 -16.5t-33.5 -44.5t-20 -64.5t-10 -75.5t-3.5 -78.5t0.5 -72.5v-11v-10v-10q0 -162 7 -216q20 -167 110 -167z" />
    <glyph glyph-name="Wcircumflex" unicode="&#x174;" horiz-adv-x="1228" 
d="M598 1407l-109 109l269 270l108 -111l160 -159l-74 -74l-159 160zM360 0q-10 0 -15.5 9t-0.5 18q14 37 -2 108l-53 211l-232 954q-12 62 -45 103q-7 9 -2.5 20t15.5 11h254q10 0 15.5 -8t2.5 -17q-16 -36 0 -109l70 -290l161 -664l27 -108l27 108l41 172l120 492l62 -254
l127 -518l24 108l162 664l72 290q16 72 2 109q-4 9 1.5 17t14.5 8h140q12 0 17 -11t-3 -18q-28 -33 -49 -105l-283 -1165q-16 -71 0 -108q3 -9 -2.5 -18t-15.5 -9h-277q-9 0 -14.5 9t-1.5 18q14 35 -2 108l-31 127l-33 -127q-16 -71 0 -108q4 -9 -1.5 -18t-14.5 -9h-277z
" />
    <glyph glyph-name="wcircumflex" unicode="&#x175;" horiz-adv-x="1204" 
d="M459 956l-109 109l268 270l109 -110l160 -160l-74 -74l-160 160zM371 0q-75 0 -131 16q-64 21 -101 70q-80 102 -80 377v313q0 95 -43 119q-11 8 -8 18q3 13 17 13h278q11 0 14 -13q4 -11 -6 -18q-43 -24 -43 -119v-313v-27q-5 -260 56 -319q18 -21 47 -21q78 0 118 94
q38 86 41 271v315q0 94 -45 119q-11 8 -8 18q3 13 17 13h278q11 0 14 -13q4 -11 -6 -18q-43 -24 -43 -119v-313v-27q-5 -260 56 -319q18 -21 47 -21q81 0 121 97q38 90 38 270v313q0 95 -43 119q-11 8 -8 18q3 13 17 13h217q11 0 14 -13q4 -11 -6 -18q-43 -24 -43 -119v-313
q0 -236 -78 -352q-43 -58 -98 -84q-55 -27 -131 -27q-92 0 -152.5 24t-97.5 89q-67 -113 -219 -113z" />
    <glyph glyph-name="Ycircumflex" unicode="&#x176;" horiz-adv-x="602" 
d="M328 1470l-109 109l268 270l109 -110l160 -160l-74 -74l-160 160zM258 0q-10 0 -15.5 9t-0.5 18q24 41 24 108v635l-194 530q-21 62 -60 101q-7 9 -2.5 21t15.5 12h254q9 0 15 -8t3 -17q-12 -40 14 -109l119 -325l150 325q33 73 24 109q-3 9 2.5 17t14.5 8h139
q12 0 16.5 -12t-4.5 -21q-43 -43 -67 -101l-134 -290l-65 -140v-735q0 -71 22 -108q6 -9 1.5 -18t-15.5 -9h-256z" />
    <glyph glyph-name="ycircumflex" unicode="&#x177;" horiz-adv-x="796" 
d="M248 963l-109 108l269 270l108 -110l160 -160l-74 -74l-160 160zM428 -567q-109 0 -186 47q-68 46 -97 117q-15 32 -24 81q-5 26 -9 34.5t-16 11.5q-16 4 -12 18q0 6 5 10t11 4h260q13 0 17 -12q3 -11 -8 -18q-22 -12 -31.5 -42.5t-1.5 -64.5v-2q0 -1 1 -3t1 -3
q20 -82 90 -82q29 0 47 18q20 20 32.5 56t16.5 91.5t5 84.5t1 90v29v135q-66 -60 -159 -60q-81 0 -131 17q-62 17 -101 69q-80 99 -80 377v314q0 91 -43 118q-11 7 -8 19q4 12 17 12h278q12 0 16 -12q3 -12 -8 -19q-43 -27 -43 -118v-314v-26q0 -76 1.5 -120.5t15 -110
t39.5 -91.5q18 -18 47 -18q77 0 118 102q38 88 41 262v316q0 90 -45 118q-11 7 -8 19q4 12 17 12h278q12 0 16 -12q4 -16 -10 -19q0 -1 -1 -2t-1 -2q-2 0 -6 -4l-4 -4l-4 -4q-2 -6 -7.5 -16t-6.5 -11l-7 -30v-2q0 -7 -2 -9q0 -10 -2 -14v-20v-852q0 -116 -13.5 -198.5
t-37 -134t-63.5 -81t-85.5 -40.5t-109.5 -11z" />
    <glyph glyph-name="Ydieresis" unicode="&#x178;" horiz-adv-x="602" 
d="M330 1491q-51 0 -87 36.5t-36 88.5q0 51 36 87t87 36q52 0 88.5 -36t36.5 -87q0 -52 -36.5 -88.5t-88.5 -36.5zM635 1491q-51 0 -87 36.5t-36 88.5q0 51 36 87t87 36q52 0 88.5 -36t36.5 -87q0 -52 -36 -88.5t-89 -36.5zM258 0q-10 0 -15.5 9t-0.5 18q24 41 24 108v635
l-194 530q-21 62 -60 101q-7 9 -2.5 21t15.5 12h254q9 0 15 -8t3 -17q-12 -40 14 -109l119 -325l150 325q33 73 24 109q-3 9 2.5 17t14.5 8h139q12 0 16.5 -12t-4.5 -21q-43 -43 -67 -101l-134 -290l-65 -140v-735q0 -71 22 -108q6 -9 1.5 -18t-15.5 -9h-256z" />
    <glyph glyph-name="gravecomb" unicode="&#x300;" horiz-adv-x="0" 
d="M-143 1057l-269 270l111 109l268 -269z" />
    <glyph glyph-name="acutecomb" unicode="&#x301;" horiz-adv-x="0" 
d="M-268 1059l-109 108l268 269l109 -109z" />
    <glyph glyph-name="uni0302" unicode="&#x302;" horiz-adv-x="0" 
d="M-430 1063l-109 108l269 271l108 -111l160 -160l-74 -73l-160 159z" />
    <glyph glyph-name="tildecomb" unicode="&#x303;" horiz-adv-x="0" 
d="M-354 1307q-8 2 -41 12.5t-51.5 15t-51.5 12.5t-54.5 8.5t-47 -1.5t-43.5 -13t-29 -30q0 74 55.5 108.5t124.5 14.5q13 -4 40 -12t44 -12.5t42 -10.5t41.5 -8t34.5 -1.5t30 6.5t18 17q12 -44 -19.5 -83.5t-92.5 -22.5z" />
    <glyph glyph-name="uni0307" unicode="&#x307;" horiz-adv-x="0" 
d="M-133 1186q-51 0 -87 36.5t-36 88.5q0 51 36 87t87 36q52 0 88.5 -36t36.5 -87q0 -53 -36 -89t-89 -36z" />
    <glyph glyph-name="uni0308" unicode="&#x308;" horiz-adv-x="0" 
d="M-438 1186q-51 0 -87 36.5t-36 88.5q0 51 36 87t87 36q52 0 88.5 -36t36.5 -87q0 -53 -36.5 -89t-88.5 -36zM-133 1186q-51 0 -87 36.5t-36 88.5q0 51 36 87t87 36q52 0 88.5 -36t36.5 -87q0 -53 -36 -89t-89 -36z" />
    <glyph glyph-name="uni030A" unicode="&#x30a;" horiz-adv-x="0" 
d="M-137 1147q-59 0 -101.5 42.5t-42.5 100.5q0 60 42.5 102t101.5 42q60 0 101.5 -42t41.5 -102q0 -59 -41.5 -101t-101.5 -42zM-137 1212q32 0 55 23t23 55t-23 55t-55 23t-55 -23t-23 -55t23 -55t55 -23z" />
    <glyph glyph-name="Wgrave" unicode="&#x1e80;" horiz-adv-x="1228" 
d="M864 1384l-268 271l111 108l268 -268zM360 0q-10 0 -15.5 9t-0.5 18q14 37 -2 108l-53 211l-232 954q-12 62 -45 103q-7 9 -2.5 20t15.5 11h254q10 0 15.5 -8t2.5 -17q-16 -36 0 -109l70 -290l161 -664l27 -108l27 108l41 172l120 492l62 -254l127 -518l24 108l162 664
l72 290q16 72 2 109q-4 9 1.5 17t14.5 8h140q12 0 17 -11t-3 -18q-28 -33 -49 -105l-283 -1165q-16 -71 0 -108q3 -9 -2.5 -18t-15.5 -9h-277q-9 0 -14.5 9t-1.5 18q14 35 -2 108l-31 127l-33 -127q-16 -71 0 -108q4 -9 -1.5 -18t-14.5 -9h-277z" />
    <glyph glyph-name="wgrave" unicode="&#x1e81;" horiz-adv-x="1204" 
d="M707 965l-269 270l111 108l268 -268zM371 0q-75 0 -131 16q-64 21 -101 70q-80 102 -80 377v313q0 95 -43 119q-11 8 -8 18q3 13 17 13h278q11 0 14 -13q4 -11 -6 -18q-43 -24 -43 -119v-313v-27q-5 -260 56 -319q18 -21 47 -21q78 0 118 94q38 86 41 271v315
q0 94 -45 119q-11 8 -8 18q3 13 17 13h278q11 0 14 -13q4 -11 -6 -18q-43 -24 -43 -119v-313v-27q-5 -260 56 -319q18 -21 47 -21q81 0 121 97q38 90 38 270v313q0 95 -43 119q-11 8 -8 18q3 13 17 13h217q11 0 14 -13q4 -11 -6 -18q-43 -24 -43 -119v-313q0 -236 -78 -352
q-43 -58 -98 -84q-55 -27 -131 -27q-92 0 -152.5 24t-97.5 89q-67 -113 -219 -113z" />
    <glyph glyph-name="Wacute" unicode="&#x1e82;" horiz-adv-x="1228" 
d="M694 1423l-108 109l268 268l109 -108zM360 0q-10 0 -15.5 9t-0.5 18q14 37 -2 108l-53 211l-232 954q-12 62 -45 103q-7 9 -2.5 20t15.5 11h254q10 0 15.5 -8t2.5 -17q-16 -36 0 -109l70 -290l161 -664l27 -108l27 108l41 172l120 492l62 -254l127 -518l24 108l162 664
l72 290q16 72 2 109q-4 9 1.5 17t14.5 8h140q12 0 17 -11t-3 -18q-28 -33 -49 -105l-283 -1165q-16 -71 0 -108q3 -9 -2.5 -18t-15.5 -9h-277q-9 0 -14.5 9t-1.5 18q14 35 -2 108l-31 127l-33 -127q-16 -71 0 -108q4 -9 -1.5 -18t-14.5 -9h-277z" />
    <glyph glyph-name="wacute" unicode="&#x1e83;" horiz-adv-x="1204" 
d="M551 981l-109 109l269 268l108 -109zM371 0q-75 0 -131 16q-64 21 -101 70q-80 102 -80 377v313q0 95 -43 119q-11 8 -8 18q3 13 17 13h278q11 0 14 -13q4 -11 -6 -18q-43 -24 -43 -119v-313v-27q-5 -260 56 -319q18 -21 47 -21q78 0 118 94q38 86 41 271v315
q0 94 -45 119q-11 8 -8 18q3 13 17 13h278q11 0 14 -13q4 -11 -6 -18q-43 -24 -43 -119v-313v-27q-5 -260 56 -319q18 -21 47 -21q81 0 121 97q38 90 38 270v313q0 95 -43 119q-11 8 -8 18q3 13 17 13h217q11 0 14 -13q4 -11 -6 -18q-43 -24 -43 -119v-313q0 -236 -78 -352
q-43 -58 -98 -84q-55 -27 -131 -27q-92 0 -152.5 24t-97.5 89q-67 -113 -219 -113z" />
    <glyph glyph-name="Wdieresis" unicode="&#x1e84;" horiz-adv-x="1228" 
d="M625 1468q-51 0 -87 36.5t-36 88.5q0 51 36 87t87 36q52 0 88.5 -36t36.5 -87q0 -53 -36 -89t-89 -36zM930 1468q-51 0 -87 36.5t-36 88.5q0 51 36 87t87 36q52 0 88.5 -36t36.5 -87q0 -53 -36.5 -89t-88.5 -36zM360 0q-10 0 -15.5 9t-0.5 18q14 37 -2 108l-53 211
l-232 954q-12 62 -45 103q-7 9 -2.5 20t15.5 11h254q10 0 15.5 -8t2.5 -17q-16 -36 0 -109l70 -290l161 -664l27 -108l27 108l41 172l120 492l62 -254l127 -518l24 108l162 664l72 290q16 72 2 109q-4 9 1.5 17t14.5 8h140q12 0 17 -11t-3 -18q-28 -33 -49 -105l-283 -1165
q-16 -71 0 -108q3 -9 -2.5 -18t-15.5 -9h-277q-9 0 -14.5 9t-1.5 18q14 35 -2 108l-31 127l-33 -127q-16 -71 0 -108q4 -9 -1.5 -18t-14.5 -9h-277z" />
    <glyph glyph-name="wdieresis" unicode="&#x1e85;" horiz-adv-x="1204" 
d="M465 971q-51 0 -87 36.5t-36 88.5q0 51 36 87t87 36q52 0 88.5 -36t36.5 -87q0 -52 -36 -88.5t-89 -36.5zM770 971q-51 0 -87 36.5t-36 88.5q0 51 36 87t87 36q52 0 88.5 -36t36.5 -87q0 -52 -36.5 -88.5t-88.5 -36.5zM371 0q-75 0 -131 16q-64 21 -101 70
q-80 102 -80 377v313q0 95 -43 119q-11 8 -8 18q3 13 17 13h278q11 0 14 -13q4 -11 -6 -18q-43 -24 -43 -119v-313v-27q-5 -260 56 -319q18 -21 47 -21q78 0 118 94q38 86 41 271v315q0 94 -45 119q-11 8 -8 18q3 13 17 13h278q11 0 14 -13q4 -11 -6 -18q-43 -24 -43 -119
v-313v-27q-5 -260 56 -319q18 -21 47 -21q81 0 121 97q38 90 38 270v313q0 95 -43 119q-11 8 -8 18q3 13 17 13h217q11 0 14 -13q4 -11 -6 -18q-43 -24 -43 -119v-313q0 -236 -78 -352q-43 -58 -98 -84q-55 -27 -131 -27q-92 0 -152.5 24t-97.5 89q-67 -113 -219 -113z" />
    <glyph glyph-name="Ygrave" unicode="&#x1ef2;" horiz-adv-x="602" 
d="M545 1432l-269 270l111 108l268 -268zM258 0q-10 0 -15.5 9t-0.5 18q24 41 24 108v635l-194 530q-21 62 -60 101q-7 9 -2.5 21t15.5 12h254q9 0 15 -8t3 -17q-12 -40 14 -109l119 -325l150 325q33 73 24 109q-3 9 2.5 17t14.5 8h139q12 0 16.5 -12t-4.5 -21
q-43 -43 -67 -101l-134 -290l-65 -140v-735q0 -71 22 -108q6 -9 1.5 -18t-15.5 -9h-256z" />
    <glyph glyph-name="ygrave" unicode="&#x1ef3;" horiz-adv-x="796" 
d="M459 971l-269 270l111 109l268 -269zM428 -567q-109 0 -186 47q-68 46 -97 117q-15 32 -24 81q-5 26 -9 34.5t-16 11.5q-16 4 -12 18q0 6 5 10t11 4h260q13 0 17 -12q3 -11 -8 -18q-22 -12 -31.5 -42.5t-1.5 -64.5v-2q0 -1 1 -3t1 -3q20 -82 90 -82q29 0 47 18
q20 20 32.5 56t16.5 91.5t5 84.5t1 90v29v135q-66 -60 -159 -60q-81 0 -131 17q-62 17 -101 69q-80 99 -80 377v314q0 91 -43 118q-11 7 -8 19q4 12 17 12h278q12 0 16 -12q3 -12 -8 -19q-43 -27 -43 -118v-314v-26q0 -76 1.5 -120.5t15 -110t39.5 -91.5q18 -18 47 -18
q77 0 118 102q38 88 41 262v316q0 90 -45 118q-11 7 -8 19q4 12 17 12h278q12 0 16 -12q4 -16 -10 -19q0 -1 -1 -2t-1 -2q-2 0 -6 -4l-4 -4l-4 -4q-2 -6 -7.5 -16t-6.5 -11l-7 -30v-2q0 -7 -2 -9q0 -10 -2 -14v-20v-852q0 -116 -13.5 -198.5t-37 -134t-63.5 -81t-85.5 -40.5
t-109.5 -11z" />
    <glyph glyph-name="endash" unicode="&#x2013;" horiz-adv-x="1273" 
d="M8 438v140h1256v-140h-1256z" />
    <glyph glyph-name="emdash" unicode="&#x2014;" horiz-adv-x="2201" 
d="M8 438v140h2185v-140h-2185z" />
    <glyph glyph-name="quotesinglbase" unicode="&#x201a;" horiz-adv-x="172" 
d="M25 -184v192h84v-192h-84z" />
    <glyph glyph-name="quotedblleft" unicode="&#x201c;" horiz-adv-x="403" 
d="M55 1358l-104 41l104 243l105 -38zM213 1298l-104 39l104 246l104 -41z" />
    <glyph glyph-name="quotedblright" unicode="&#x201d;" horiz-adv-x="526" 
d="M352 1317l-102 280l112 43l101 -280zM180 1255l-102 281l112 43l105 -283z" />
    <glyph glyph-name="quotedblbase" unicode="&#x201e;" horiz-adv-x="270" 
d="M23 -182v192h75v-192h-75zM180 -186v192h70v-192h-70z" />
    <glyph glyph-name="bullet" unicode="&#x2022;" horiz-adv-x="356" 
d="M178 379q-70 0 -120 49.5t-50 118.5q0 71 50 120.5t120 49.5q69 0 118.5 -50t49.5 -120q0 -69 -49.5 -118.5t-118.5 -49.5z" />
    <glyph glyph-name="ellipsis" unicode="&#x2026;" horiz-adv-x="229" 
d="M115 57q43 0 73.5 -31t30.5 -75q0 -43 -31 -75t-73 -32q-44 0 -75.5 32t-31.5 75q0 44 31.5 75t75.5 31z" />
    <glyph glyph-name="guilsinglleft" unicode="&#x2039;" horiz-adv-x="792" 
d="M717 23l-709 622l66 74l571 651l135 -119l-571 -649l573 -504z" />
    <glyph glyph-name="guilsinglright" unicode="&#x203a;" horiz-adv-x="792" 
d="M74 23l-66 75l574 504l-572 649l135 119l572 -651l65 -74z" />
    <glyph glyph-name="Euro" unicode="&#x20ac;" horiz-adv-x="874" 
d="M588 -156q-75 0 -147.5 32.5t-131.5 93t-95.5 156.5t-37.5 212h-168v113h166v112h-166v113h166v102q0 118 36.5 215.5t96 158t132.5 93.5t149 33q98 0 177 -42.5t97 -111.5q9 -37 -18.5 -58.5t-59.5 -21.5q3 6 0.5 19.5t-20 31.5t-39.5 34t-59 27t-78 11q-80 0 -127 -112
t-47 -312v-67h155v-113h-155v-112h155v-113h-153q4 -182 49.5 -281.5t122.5 -99.5q41 0 78 11t59 27t39.5 33.5t20 30.5t-0.5 19q32 0 59.5 -21t18.5 -57q-18 -69 -97 -112.5t-177 -43.5z" />
    <glyph glyph-name="trademark" unicode="&#x2122;" horiz-adv-x="501" 
d="M483 1223q0 -21 9 -33q1 -1 0.5 -3t-2.5 -3.5t-5 -1.5h-75q-3 0 -4.5 3t0.5 5q6 8 6 33v268l-93 -291q-1 -3 -3.5 -4t-4.5 0t-2 4l-67 234v-211q0 -22 8 -33q2 -2 0 -5t-6 -3h-41q-2 0 -3.5 1.5t-2 3.5t1.5 3q4 8 4 33v350v10h-35v-8v-352q0 -23 6 -31q4 -8 -6 -8h-74
q-10 0 -6 8q8 11 8 31v352v8h-39q-32 0 -47 -6q-3 -3 -5.5 -1t-2.5 7q2 15 9.5 22.5t17 9t28.5 1.5h148q27 0 37 -4h16q61 -202 68 -234q2 -3 6 -3t6 3l74 234h73q3 0 5 -1t2.5 -2.5t-0.5 -2.5q-9 -12 -9 -33v-350z" />
    <glyph glyph-name="LF" horiz-adv-x="0" 
 />
    <glyph glyph-name="controlCR" horiz-adv-x="0" 
 />
    </font>
</defs>
</svg>
