<svg id="Layer_1" data-name="Layer 1" xmlns="http://www.w3.org/2000/svg" viewBox="0 0 20 20"><defs><style>.cls-1{fill:#0c1925;}</style></defs><path class="cls-1" d="M10,1.5c6.32,0,9.93,5.33,8.43,9.82a4.62,4.62,0,0,1-3.08,3.17,2.19,2.19,0,0,1-2.51-1A4.5,4.5,0,1,1,10,5.5a4.43,4.43,0,0,1,2.7.9,1,1,0,0,1,.8-.4,1,1,0,0,1,1,.88V12c0,.54.1.62.42.54a2.68,2.68,0,0,0,1.63-1.86C17.63,7.46,14.94,3.5,10,3.5a6.5,6.5,0,1,0,1.66,12.78,6.19,6.19,0,0,0,1.39-.55A1,1,0,0,1,14,17.5a8.84,8.84,0,0,1-1.81.71A8.5,8.5,0,0,1,7.8,1.79,8.35,8.35,0,0,1,10,1.5Zm0,6A2.5,2.5,0,1,0,12.5,10,2.5,2.5,0,0,0,10,7.5Z"/></svg>