<svg id="Layer_1" data-name="Layer 1" xmlns="http://www.w3.org/2000/svg" viewBox="0 0 48 48"><defs><style>.cls-1{fill:#0c1925;}</style></defs><path class="cls-1" d="M42.23,7.13l-18-4.23a.9.9,0,0,0-.46,0l-18,4.23a1,1,0,0,0-.77,1V21.38a24.26,24.26,0,0,0,18.77,23.7.9.9,0,0,0,.46,0A24.26,24.26,0,0,0,43,21.38V8.11A1,1,0,0,0,42.23,7.13ZM41,21.38a22.28,22.28,0,0,1-17,21.7A22.28,22.28,0,0,1,7,21.38V8.9l17-4,17,4Z"/><path class="cls-1" d="M18.6,14.39v1.2H15.2a1,1,0,0,0-1,1V31a1,1,0,0,0,1,1H32.8a1,1,0,0,0,1-1V16.59a1,1,0,0,0-1-1H29.4v-1.2a5.4,5.4,0,1,0-10.8,0ZM31.8,30H16.2V17.59H31.8Zm-4.4-15.6v1.2H20.6v-1.2a3.4,3.4,0,1,1,6.8,0Z"/><path class="cls-1" d="M24,19.23a2.85,2.85,0,0,0-1,5.53V27a1,1,0,0,0,2,0V24.76a2.85,2.85,0,0,0-1-5.53Zm0,2a.86.86,0,1,1-.86.86.84.84,0,0,1,.84-.86Z"/></svg>