<?xml version="1.0" standalone="no"?>
<!DOCTYPE svg PUBLIC "-//W3C//DTD SVG 1.1//EN" "http://www.w3.org/Graphics/SVG/1.1/DTD/svg11.dtd" >
<svg xmlns="http://www.w3.org/2000/svg" xmlns:xlink="http://www.w3.org/1999/xlink" version="1.1">
<metadata>
Created by FontForge 20170731 at Mon May 31 12:46:20 2021
 By Aleksey,,,
Silverdav Studio
</metadata>
<defs>
<font id="BackslashRegular" horiz-adv-x="0" >
  <font-face 
    font-family="Backslash"
    font-weight="400"
    font-stretch="normal"
    units-per-em="2048"
    panose-1="0 0 0 0 0 0 0 0 0 0"
    ascent="1638"
    descent="-410"
    x-height="958"
    cap-height="1481"
    bbox="-55 -494.462 9175 1850"
    underline-thickness="102"
    underline-position="-307"
    unicode-range="U+000A-F001"
  />
<missing-glyph horiz-adv-x="1079" 
d="M102 1434h875v-1434h-875v1434zM160 1393l379 -633l381 633h-760zM514 717l-369 614v-1231zM541 674l-379 -631h758zM565 717l371 -621v1239z" />
    <glyph glyph-name="Backslash.liga" unicode="Backslash" horiz-adv-x="9277" 
d="M965 791q85 -17 157.5 -44.5t136 -69t107.5 -95t69.5 -125.5t25.5 -156q0 -89 -37 -176.5t-107.5 -161.5t-165 -131t-217.5 -89.5t-257 -32.5q-119 0 -218.5 31.5t-164 81.5t-109.5 113.5t-64 125t-19 119.5q0 202 151 305q119 81 281 72q149 -8 241 -87q77 -67 77 -163
q0 -55 -31.5 -102t-97.5 -59q-67 -11 -124 34.5t-45 121.5q39 25 44.5 70t-17.5 80t-58 35q-87 0 -150.5 -91.5t-63.5 -210.5v-3q-1 -41 11.5 -91.5t41.5 -106t70.5 -101.5t105.5 -77.5t139 -34.5q101 0 181.5 39t129 97.5t80.5 133t44 140t12 124.5q0 63 -10 120.5
t-38 118.5t-73 105t-121 72.5t-176 28.5h-29v-171q-74 28 -159 29.5t-166 -24.5v752q0 25 -40 72.5t-56 47.5v20h522q229 0 371.5 -87t142.5 -243q0 -137 -88 -225t-239 -131zM677 818q87 6 151 40t98 84.5t50 103t16 106.5q0 42 -18 84t-53.5 80.5t-99 62.5t-144.5 25v-586
zM2487 147q9 0 9 -10q-7 -44 -51.5 -77t-100 -47.5t-110.5 -14.5q-62 0 -112 32.5t-73 80.5q-194 -135 -338 -103q-95 20 -131 104q-39 89 12 189q63 124 230 186q93 35 208 45v235q0 56 -25 86t-69 30q-35 0 -58 -35t-17.5 -80t44.5 -70q12 -76 -44.5 -122t-123.5 -35
q-66 12 -98 59t-32 102q0 119 116 190q110 68 260 57q166 -11 269 -112q103 -102 103 -267l2 -396q0 -38 9.5 -58t36.5 -24q24 -2 44.5 9.5t27.5 35.5q3 10 12 10zM2030 488q-119 -20 -177 -109q-46 -70 -24 -136t100 -74q46 -4 103 14zM3288 311q3 6 10 7.5t12.5 -0.5
t5.5 -7q-25 -137 -133.5 -224t-248.5 -87q-110 0 -206.5 61t-155.5 169t-59 237q0 117 34 212t91.5 155.5t132 93t158.5 32.5q147 0 257.5 -92.5t110.5 -217.5q0 -79 -42 -140t-104.5 -79.5t-136.5 9.5q-38 17 -62.5 46.5t-31.5 60.5t-6.5 60t9 48.5t18.5 22.5
q54 16 61.5 69.5t-25.5 98.5t-79 39q-45 -6 -79.5 -66.5t-45 -151.5t9.5 -200q27 -133 107 -204t188 -77q61 -4 120.5 30t89.5 95zM4372 137q47 -53 83 -86.5t47 -33.5v-19h-462v19q11 0 23.5 17t11 46.5t-27.5 56.5l-238 335l-31 -41v-294q0 -26 41.5 -73t59.5 -47v-19
h-522v19q16 0 56.5 47.5t40.5 72.5v1142q0 18 -9.5 34.5t-19.5 25t-24 17.5t-15 10q-5 4 -7 8t-0.5 7t7.5 4q233 18 378 113q5 4 9.5 2t4.5 -11v-964l178 230q42 57 35.5 98t-29 64.5t-37.5 22.5v20h363v-20q-31 0 -110 -56t-150 -129l-65 -84zM4983 613q118 -82 150 -110
q109 -95 126 -216q3 -25 3 -53q0 -67 -33 -118.5t-88.5 -82t-122.5 -46t-141 -15.5h-10q-139 0 -221.5 62t-112.5 152q-15 39 -15 86t14.5 92t47 83.5t78.5 57.5q39 11 82 9t80.5 -27.5t46.5 -67.5q11 -52 -24 -103t-91 -46q-38 40 -60.5 33t-31 -38.5t-2.5 -69.5
q3 -17 13 -39t32 -52t65 -51.5t99 -23.5q86 0 130 47t44 105q0 43 -38 77.5t-109 73.5q21 50 16.5 92t-35 72t-70.5 45.5t-90 12.5t-93 -27q-55 74 -55 171q0 120 97.5 198t253.5 78q62 0 118.5 -23t89.5 -45.5t40 -22.5q9 0 14 5.5t12 19.5l2 4h15v-248h-22
q0 88 -79.5 165.5t-184.5 77.5q-69 0 -113.5 -26t-43.5 -73q1 -23 13 -44.5t36.5 -41t47.5 -34.5t60.5 -37.5t59.5 -37.5zM5773 101q0 -25 40.5 -54.5t60.5 -29.5v-19h-521v19q18 0 57 30t39 54v1159q0 18 -9.5 34.5t-19.5 25t-24 17.5t-15 10q-5 4 -7 8t-0.5 7t7.5 4
q233 18 378 113q5 4 9.5 1.5t4.5 -11.5v-55v-1313zM6888 147q10 0 10 -10q-7 -44 -51.5 -77t-100 -47.5t-110.5 -14.5q-62 0 -112 32.5t-73 80.5q-194 -135 -338 -103q-95 20 -131 104q-39 89 12 189q63 124 230 186q93 35 208 45v235q0 56 -25 86t-69 30q-35 0 -58 -35
t-17.5 -80t44.5 -70q12 -76 -45 -122t-124 -35q-66 12 -98 59t-32 102q0 119 116 190q110 68 260 57q166 -11 269 -112q103 -102 103 -267l3 -396q0 -38 9 -58.5t36 -23.5q24 -2 44.5 9.5t27.5 35.5q3 10 12 10zM6432 488q-119 -20 -177 -109q-46 -70 -24 -136t100 -74
q46 -4 103 14zM7379 613q118 -82 150 -110q109 -95 126 -216q3 -25 3 -53q0 -66 -32.5 -114.5t-89.5 -74.5t-122 -37.5t-141 -11.5q-72 0 -142 19t-77 19q-15 0 -24 -10.5t-19 -35.5h-21l-5 246h26q18 -95 89.5 -138t160.5 -43q70 0 123 37.5t53 90.5q0 21 -11 41.5
t-25.5 35.5t-43 34t-48.5 30t-58 32t-57 31q-53 30 -89.5 57t-71.5 64.5t-52.5 85.5t-17.5 106q0 120 97.5 198t253.5 78q62 0 118.5 -23t89.5 -45.5t40 -22.5t12 4t8 8.5t9 16.5h14v-248h-22q0 88 -79.5 165.5t-184.5 77.5q-68 0 -112.5 -26t-43.5 -73q1 -23 13 -44.5
t36.5 -41t47 -34.5t60 -37.5t59.5 -37.5zM9045 -43q66 -12 98 -59t32 -102q0 -119 -116 -190q-110 -68 -260 -57q-166 11 -269 112q-103 102 -103 267v734q0 75 -21 115t-53.5 44t-71.5 -11.5t-74.5 -45t-62.5 -64.5v-599q0 -25 40.5 -54.5t60.5 -29.5v-19h-522v19
q18 0 57 30t39 54v1145q0 18 -9.5 34.5t-19 24.5t-23.5 17t-15 10q-5 3 -7 7.5t-0.5 8t7.5 4.5q232 18 377 113q5 4 10 1.5t5 -11.5v-676q162 156 301.5 198.5t223 -39.5t83.5 -276v-931q0 -56 25 -85.5t69 -29.5q35 0 58 35t17.5 80t-44.5 70q-12 76 44.5 121.5t123.5 34.5
z" />
    <glyph glyph-name="backslash.liga" unicode="backslash" horiz-adv-x="9252" 
d="M953 791q107 -21 194 -59.5t156 -97t107 -143.5t38 -190q0 -112 -58.5 -219t-160 -189.5t-249.5 -132.5t-315 -50q-119 0 -218.5 31.5t-164 81.5t-109.5 113.5t-64 125t-19 119.5q0 202 151 305q119 81 281 72q149 -8 241 -87q77 -67 77 -163q0 -55 -32 -102t-98 -59
q-67 -11 -123.5 34.5t-44.5 121.5q39 25 44.5 70t-17.5 80t-58 35q-87 0 -150.5 -91.5t-63.5 -210.5v-3q-1 -41 11.5 -91.5t41.5 -106t70.5 -101.5t105.5 -77.5t139 -34.5q101 0 181.5 39t129 97.5t80.5 133t44 140t12 124.5q0 63 -10 120.5t-38 118.5t-73 105t-121 72.5
t-176 28.5h-29v-171q-74 28 -159 29.5t-166 -24.5v752q0 25 -40 72.5t-56 47.5v20h522q229 0 371.5 -87t142.5 -243q0 -137 -88 -225t-239 -131zM665 818q87 6 151 40t98 84.5t50 103t16 106.5q0 42 -18 84t-53.5 80.5t-99 62.5t-144.5 25v-586zM2474 147q10 0 10 -10
q-7 -44 -51.5 -77t-100 -47.5t-110.5 -14.5q-62 0 -112 32.5t-73 80.5q-194 -135 -338 -103q-95 20 -131 104q-39 89 12 189q63 124 230 186q93 35 208 45v235q0 56 -25 86t-69 30q-35 0 -58 -35t-17.5 -80t44.5 -70q12 -76 -45 -122t-124 -35q-66 12 -97.5 59t-31.5 102
q0 120 116 190q110 68 260 57q166 -11 268 -112q103 -102 103 -267l3 -396q0 -38 9 -58.5t36 -23.5q24 -2 44.5 9.5t27.5 35.5q3 10 12 10zM2018 488q-119 -20 -177 -109q-46 -70 -24 -136t100 -74q46 -4 103 14zM3275 311q3 6 10.5 7.5t13 -0.5t5.5 -7
q-25 -137 -133.5 -224t-248.5 -87q-110 0 -206.5 61t-155.5 169t-59 237q0 117 34 212t91.5 155.5t132 93t158.5 32.5q147 0 257.5 -92.5t110.5 -217.5q0 -79 -42 -140t-105 -79.5t-137 9.5q-38 17 -62.5 46.5t-31.5 60.5t-6 60t9.5 48.5t18.5 22.5q54 16 61.5 69.5
t-25.5 98.5t-79 39q-45 -6 -80 -66.5t-45.5 -151.5t9.5 -200q27 -133 107.5 -204t188.5 -77q61 -4 120 30t89 95zM4360 137q47 -53 83 -86.5t47 -33.5v-19h-462v19q11 0 23.5 17t11 46.5t-27.5 56.5l-238 335l-31 -41v-294q0 -26 41.5 -73t59.5 -47v-19h-522v19
q16 0 56 47.5t40 72.5v1142q0 18 -9.5 34.5t-19 25t-23.5 17.5t-15 10q-5 4 -7 8t-0.5 7t7.5 4q232 18 377 113q5 4 10 2t5 -11v-964l178 230q42 57 35.5 98t-29 64.5t-37.5 22.5v20h363v-20q-31 0 -110 -56t-150 -129l-65 -84zM4971 613q117 -82 150 -111q109 -95 125 -218
q3 -24 3 -50q0 -67 -33 -118.5t-88.5 -82t-122 -46t-140.5 -15.5h-10q-139 0 -221.5 62t-112.5 152q-15 39 -15 86t14.5 92t47 83.5t78.5 57.5q39 11 82 9t80.5 -27.5t46.5 -67.5q11 -52 -24 -103t-91 -46q-38 40 -60.5 33t-31 -38.5t-2.5 -69.5q3 -17 13 -39t32 -52
t65 -51.5t99 -23.5q86 0 129.5 46.5t43.5 105.5q0 43 -38 78t-108 73q21 50 16.5 92t-35 72t-70.5 45.5t-90 12.5t-93 -27q-55 74 -55 171q0 120 97.5 198t253.5 78q62 0 118 -23t89 -45.5t40 -22.5t12 4t8 8.5t9 16.5h14v-248h-21q0 88 -80 165.5t-185 77.5
q-68 0 -112.5 -26t-43.5 -73q1 -23 13 -44.5t36.5 -41t47.5 -34.5t60.5 -37.5t59.5 -37.5zM5761 101q0 -25 40.5 -54.5t60.5 -29.5v-19h-522v19q18 0 57 30t39 54v1159q0 18 -9.5 34.5t-19 25t-23.5 17.5t-15 10q-5 4 -7 8t-0.5 7t7.5 4q233 18 378 113q5 4 9.5 1.5
t4.5 -11.5v-55v-1313zM6876 147q10 0 10 -10q-7 -44 -51.5 -77t-100 -47.5t-110.5 -14.5q-62 0 -112 32.5t-73 80.5q-194 -135 -339 -103q-94 20 -131 104q-38 88 12 188q62 124 229 187q93 35 209 45v235q0 56 -24.5 86t-68.5 30q-35 0 -58.5 -35t-18 -80t44.5 -70
q12 -76 -44.5 -122t-123.5 -35q-66 12 -98 59t-32 102q0 119 116 190q110 68 260 57q166 -11 269 -112q103 -102 103 -267l2 -396q0 -38 9.5 -58t36.5 -24q24 -2 44.5 9.5t27.5 35.5q3 10 12 10zM6419 488q-119 -20 -177 -109q-46 -70 -24 -136q23 -66 101 -74q45 -4 103 14
zM7367 613q118 -82 150 -110q109 -95 126 -216q3 -25 3 -53q0 -66 -32.5 -114.5t-89.5 -74.5t-122 -37.5t-141 -11.5q-72 0 -142 19t-77 19q-15 0 -24 -10.5t-19 -35.5h-22l-5 246h27q18 -95 89.5 -138t160.5 -43q70 0 122.5 37.5t52.5 90.5q0 21 -11 41.5t-25 35.5t-43 34
t-48.5 30t-58 32t-56.5 31q-53 30 -89.5 57t-71.5 64.5t-52.5 85.5t-17.5 106q0 120 97.5 198t253.5 78q62 0 118 -23t89 -45.5t40 -22.5t12 4t8 8.5t9 16.5h15v-248h-22q0 88 -79.5 165.5t-184.5 77.5q-69 0 -113.5 -26t-43.5 -73q1 -23 13 -44.5t36.5 -41t47.5 -34.5
t60.5 -37.5t59.5 -37.5zM9033 -43q66 -12 98 -59t32 -102q0 -119 -116 -190q-110 -68 -260 -57q-166 11 -269 112q-103 102 -103 267v734q0 75 -21 115t-54 44t-71.5 -11.5t-74.5 -45t-63 -64.5v-599q0 -25 40.5 -54.5t60.5 -29.5v-19h-521v19q18 0 57 30t39 54v1145
q0 18 -9.5 34.5t-19 24.5t-23.5 17t-15 10q-5 3 -7 7.5t-0.5 8t7.5 4.5q232 18 377 113q5 4 9.5 1.5t4.5 -11.5v-676q121 117 233 170t194.5 39.5t132 -97t49.5 -229.5v-931q0 -56 24.5 -85.5t68.5 -29.5q35 0 58.5 35t18 80t-44.5 70q-12 76 44.5 121.5t123.5 34.5z" />
    <glyph glyph-name=".notdef" horiz-adv-x="1079" 
d="M102 1434h875v-1434h-875v1434zM160 1393l379 -633l381 633h-760zM514 717l-369 614v-1231zM541 674l-379 -631h758zM565 717l371 -621v1239z" />
    <glyph glyph-name=".null" 
 />
    <glyph glyph-name=".null" 
 />
    <glyph glyph-name="nonmarkingreturn" horiz-adv-x="682" 
 />
    <glyph glyph-name="controlLF" unicode="&#xa;" 
 />
    <glyph glyph-name="controlCR" unicode="&#xd;" 
 />
    <glyph glyph-name="space" unicode=" " horiz-adv-x="577" 
 />
    <glyph glyph-name="numbersign" unicode="#" horiz-adv-x="1112" 
d="M1038 659l-166 2l-44 -199h147l-26 -118h-147l-79 -344h-121l80 346l-294 3l-79 -349h-120l79 349l-221 2l24 115h224l45 198l-204 2l26 115h205l72 322h120l-74 -324h293l74 324h121l-75 -326h166zM708 464l43 197l-290 3l-46 -200h293z" />
    <glyph glyph-name="dollar" unicode="$" horiz-adv-x="1167" 
d="M657 1029q47 -26 70.5 -39.5t68.5 -40.5t69.5 -45t62 -47t59 -53t47 -56.5t38.5 -64t22.5 -69.5t9.5 -78q0 -84 -36 -151.5t-99.5 -112t-141.5 -72.5t-170 -39v-161h-121v154q-78 0 -153 14.5t-126 29t-72 14.5q-22 0 -35 -16t-27 -52h-29l-7 392h36q26 -141 140.5 -224
t272.5 -91v512q-88 49 -115 63q-339 184 -339 430q0 162 125 275t329 129v207h121v-207q61 -8 119.5 -30t92.5 -44.5t61 -40t34 -17.5q10 0 16.5 9t19.5 32h27v-363h-36q0 59 -22.5 120t-63 114.5t-105.5 90.5t-143 45v-517zM536 1094v447q-98 -14 -169 -61.5t-71 -118.5
q0 -45 18.5 -83.5t57.5 -72t73 -56t91 -55.5zM657 231q158 39 158 187q0 84 -35 137.5t-123 108.5v-433z" />
    <glyph glyph-name="percent" unicode="%" horiz-adv-x="1050" 
d="M301 870q-104 4 -177 85t-73 199q0 112 76 189t181 75q105 -4 177.5 -79t72.5 -192q0 -113 -76.5 -195.5t-180.5 -81.5zM306 1315q-12 1 -21 -20.5t-13 -53t-5.5 -55t-1.5 -39.5q0 -18 1 -38.5t4 -56t12 -58.5t22 -23q22 0 31.5 66.5t9.5 109.5q0 166 -39 168zM772 1418
h121l-657 -1418h-120zM751 606q105 -4 177.5 -79.5t72.5 -192.5q0 -114 -76.5 -197t-180.5 -79t-177 84.5t-73 198.5q0 113 76 191t181 74zM746 159q22 0 31.5 66t9.5 109q0 166 -39 168q-12 1 -21 -20t-12.5 -53t-5 -55t-1.5 -40q0 -175 38 -175z" />
    <glyph glyph-name="ampersand" unicode="&#x26;" horiz-adv-x="1349" 
d="M871 796q72 -54 121.5 -97t101.5 -101.5t75 -120t15 -124.5q-8 -70 -42 -127.5t-80.5 -95t-109 -65.5t-122.5 -42.5t-125 -22.5l-19 26q123 25 179 95t9 170q-22 48 -70.5 95.5t-107.5 89.5t-126.5 86t-133 93t-121 103t-95.5 123.5t-53 145.5q-13 79 7.5 158.5t68 143
t131 100t187.5 28.5q94 -8 165 -70.5t71 -145.5q0 -113 -96 -193q-21 -16 -77 -55l-12 14q43 67 59.5 151.5t-4.5 144.5t-77 58q-33 -2 -59.5 -28t-38.5 -62t-14.5 -75.5t13.5 -67.5q23 -44 52.5 -80.5t68.5 -67.5t74 -55.5t89.5 -61t95.5 -67.5zM1220 1140
q26 -9 44.5 -27.5t25 -38t10 -39t-0.5 -30.5q-12 -76 -68.5 -109t-104.5 -6q-38 22 -45 64t33 97q7 8 -2 8q-27 -2 -78 -47q-92 -79 -141 -214l-10 10q3 36 19 84.5t44.5 102t68.5 92.5t91.5 57t113.5 -4zM770 394l15 -5q-5 -42 -53.5 -114t-128.5 -142t-183.5 -95.5
t-218.5 25.5q-52 25 -86.5 81t-43 131.5t9 158t75 169.5t148.5 157l22 -27q-68 -105 -44 -208.5t118 -163.5q115 -78 203.5 -72.5t166.5 105.5z" />
    <glyph glyph-name="parenleft" unicode="(" horiz-adv-x="581" 
d="M545 1802q13 6 16 -15q5 -35 -16 -67q-129 -226 -182 -407t-53 -422q0 -422 223 -793q24 -35 21 -75q-1 -25 -16 -23q-2 0 -5 1q-124 65 -231.5 217.5t-168 333.5t-61.5 339q-4 578 473 911z" />
    <glyph glyph-name="parenright" unicode=")" horiz-adv-x="581" 
d="M35 1802q477 -333 473 -911q-1 -158 -61.5 -339t-168 -333.5t-231.5 -217.5q-19 -7 -21 21q-3 40 21 76q223 371 223 793q0 241 -53 422t-182 407q-21 32 -16 67q3 21 16 15z" />
    <glyph glyph-name="asterisk" unicode="*" horiz-adv-x="755" 
d="M245 1251q-18 -19 -46.5 -21.5t-47.5 17.5q-11 8 -19 31q-18 42 5 70l2 2q155 123 214 156q-27 0 -79 6.5t-108.5 15t-67.5 9.5q-3 3 -7 3q-7 0 -14 7q-22 19 -25 43q-8 26 3 48q8 24 36 34.5t55 -2.5q15 -6 104 -65t117 -84q-14 37 -33.5 125.5t-23.5 126.5q-3 7 -3 12
q0 27 21.5 46t48.5 19t48.5 -19t21.5 -46q0 -6 -3 -14q-5 -39 -26 -128.5t-34 -124.5q26 23 117.5 84.5t106.5 67.5q27 13 55 2.5t36 -34.5q11 -22 3 -48q-3 -25 -24 -43q-7 -7 -15 -7q-4 0 -7 -3q-11 -1 -67.5 -9.5t-108.5 -15t-79 -6.5q59 -33 214 -156l3 -2q22 -27 4 -70
q-8 -23 -19 -31q-19 -20 -47.5 -17.5t-46.5 21.5l-2 3q-11 11 -15 24q-26 45 -66 123t-49 103h-2q-9 -26 -47.5 -103.5t-65.5 -122.5q-4 -13 -15 -24z" />
    <glyph glyph-name="comma" unicode="," horiz-adv-x="389" 
d="M276 414q50 -29 60.5 -86t-13 -118.5t-80.5 -120t-133 -88.5q-8 -2 -15.5 0.5t-11 6.5t-2.5 7q50 35 68.5 86.5t-0.5 99t-73 69.5q-44 23 -26 74q17 49 71 77q77 39 155 -7z" />
    <glyph glyph-name="one" unicode="1" horiz-adv-x="645" 
d="M484 103q0 -25 40.5 -54.5t60.5 -29.5v-19h-522v19q18 0 57.5 30t39.5 54v1046q0 18 -9.5 34.5t-19.5 25t-24 17.5t-15 10q-5 4 -7 8t-0.5 7t7.5 4q90 7 204 81t174 145q5 5 9.5 2t4.5 -12v-55v-1313z" />
    <glyph glyph-name="two" unicode="2" horiz-adv-x="1175" 
d="M1097 1084q-5 -86 -47 -165.5t-103.5 -139.5t-145 -123.5t-162 -114.5t-164.5 -117.5t-143 -127.5l618 -3q25 0 45.5 10.5t32 24t22 27t14.5 19t11 -0.5v-373h-1009q19 79 68 165.5t110.5 164t132 157.5t137.5 158t122 153.5t90 155t37 152.5q2 17 2 47t-3.5 75t-17 86.5
t-35 77.5t-61.5 53t-92 7q-60 -11 -107 -59.5t-69.5 -117.5t-26 -146t21.5 -153t75 -130q12 -78 -28 -129t-104 -51q-63 4 -127 56t-87 110q-30 64 -31 148.5t31 172t88.5 163.5t151.5 129.5t212 64.5q71 7 145.5 -5.5t145.5 -46t126.5 -83.5t89.5 -125.5t34 -165.5z" />
    <glyph glyph-name="three" unicode="3" horiz-adv-x="1243" 
d="M676 853q87 -6 175.5 -39t162.5 -85t120.5 -127.5t46.5 -159.5q0 -96 -37.5 -175t-98 -130.5t-139 -87t-158 -51t-158.5 -15.5q-97 0 -183 24.5t-148.5 65.5t-108.5 96t-67.5 115t-20.5 123.5t28 121.5q27 65 95.5 122t137.5 61q72 0 117.5 -55.5t31.5 -142.5
q-68 -73 -90 -156.5t-3.5 -148.5t62 -111t98.5 -52q54 -4 98 12.5t72 44.5t49 66t31.5 73.5t17 71.5t8 54.5t1.5 28.5q4 57 0 111.5t-22.5 111t-49.5 100.5t-84.5 76t-124.5 41q-32 3 -44 7q-5 2 -5 9t5 8q31 4 44 9q115 44 174 124t59 186v2q0 15 -0.5 28.5t-4.5 45
t-11.5 57t-23.5 56t-38.5 50t-59 31t-81.5 7.5q-44 -4 -78.5 -40t-48.5 -87.5t3.5 -117.5t70.5 -123q9 -70 -25.5 -114.5t-89.5 -44.5q-57 4 -113 49.5t-75 95.5q-21 46 -21.5 97.5t16.5 99.5t53.5 92t86 76.5t117.5 52t145 19.5q63 0 126 -12.5t125.5 -40.5t110.5 -69.5
t77.5 -105t29.5 -140.5q0 -82 -60.5 -147.5t-145 -100t-177.5 -43.5z" />
    <glyph glyph-name="four" unicode="4" horiz-adv-x="1318" 
d="M1216 678q3 7 12 9t16.5 -0.5t7.5 -8.5v-423q0 -6 -7.5 -8.5t-16.5 -0.5t-12 9q-15 43 -25 65.5t-28 45.5t-43.5 35t-65.5 20v-318q0 -25 40.5 -54.5t60.5 -29.5v-19h-521v19q18 0 57 30t39 54v332h-628l880 1077h72v-1000q40 8 65.5 20t43.5 35t28 45.5t25 65.5z
M730 498v618l-505 -618h505z" />
    <glyph glyph-name="five" unicode="5" horiz-adv-x="1138" 
d="M1061 1202h-846l-31 -336q156 134 408 134q41 0 97.5 -17t122 -55.5t121 -91t92 -132t36.5 -170.5q0 -130 -49 -235.5t-128.5 -168.5t-173 -96.5t-190.5 -33.5q-111 0 -200 34.5t-139.5 87t-76.5 108t-26 104.5q0 83 49.5 139t121.5 46q34 -4 63 -19.5t46.5 -37t27 -46
t6.5 -48t-18 -41.5q-51 -19 -56.5 -81.5t45 -119t138.5 -56.5q48 0 86 19.5t62 48t41.5 72t25.5 78.5t12.5 82t5 68t0.5 50q-4 200 -64.5 321.5t-182.5 130.5q-54 0 -99.5 -10.5t-80 -30.5t-55 -35.5t-45.5 -40.5t-31 -30h-72l65 686h736q25 0 45.5 10.5t32 24t22 26.5
t14.5 18.5t11 -0.5z" />
    <glyph glyph-name="six" unicode="6" horiz-adv-x="1196" 
d="M635 981q87 0 171.5 -31.5t157 -90.5t117 -157t44.5 -219q0 -101 -33 -185t-85 -138t-118.5 -91t-130 -53t-123.5 -16q-250 0 -407.5 200.5t-157.5 535.5q0 118 35.5 234t97.5 211t141 168.5t172 114.5t184 41q103 3 194 -31t137 -96.5t20 -134.5q-27 -75 -109 -96
q-67 -17 -113 11q-41 25 -24 68q21 39 17 80t-28 68.5t-63.5 40t-88.5 -5.5q-63 -21 -112 -75.5t-78 -129t-45.5 -145.5t-24.5 -148q116 70 253 70zM635 96q44 0 80.5 27.5t59 70t38 97.5t22 107.5t6.5 101.5q0 74 -11.5 142t-35 126.5t-64.5 93.5t-95 35q-52 0 -101.5 -39
t-85.5 -104.5t-52.5 -159.5t-3.5 -195q57 -303 243 -303z" />
    <glyph glyph-name="seven" unicode="7" horiz-adv-x="1232" 
d="M61 1123v358h1068l-115 -272q-28 -55 -97 -157.5t-139 -200.5t-138.5 -214t-108.5 -210t-35 -175t70 -122q-10 -53 -52.5 -87.5t-99.5 -40.5t-114.5 7.5t-104 57.5t-61.5 109q-16 75 1.5 150.5t63 145.5t105.5 138.5t136 141t147.5 140.5t147.5 151t129 159h-678
q-25 0 -45.5 -10.5t-32 -24t-22 -26.5t-14.5 -18.5t-11 0.5z" />
    <glyph glyph-name="eight" unicode="8" horiz-adv-x="1220" 
d="M798 784q159 -42 259 -144.5t100 -230.5q0 -81 -42.5 -154.5t-115.5 -126.5t-173.5 -84.5t-212.5 -31.5q-148 0 -273.5 52.5t-198.5 144t-73 200.5q0 125 95 225.5t248 144.5q-127 42 -204 133t-77 208q0 160 136.5 273.5t329.5 113.5q128 0 236 -51.5t170.5 -141
t62.5 -194.5q0 -113 -72.5 -202.5t-194.5 -133.5zM596 1435q-63 0 -108 -91t-45 -224q0 -132 44.5 -222t108.5 -90t110.5 90t46.5 222t-46.5 223.5t-110.5 91.5zM613 87q73 0 127 93.5t54 228.5q0 137 -54.5 239t-126.5 102t-126 -102t-54 -239q0 -135 53.5 -228.5
t126.5 -93.5z" />
    <glyph glyph-name="nine" unicode="9" horiz-adv-x="1183" 
d="M562 1507q114 0 213 -39t174 -113t118 -189.5t43 -259.5q0 -188 -52.5 -358.5t-137.5 -288.5t-196.5 -187.5t-226.5 -69.5q-101 2 -191.5 51.5t-136 125.5t-23.5 148q30 82 135 104q86 17 154 -14q60 -27 46 -69q0 -2 -1 -4q-51 -46 -57 -114.5t32 -110.5t100 -20
q63 21 112 75.5t78 128.5t45.5 145t24.5 148q-114 -69 -253 -69q-69 0 -137 19t-132 59.5t-113 97.5t-78.5 140t-29.5 181q0 101 33 185t85 138t118.5 91t130 53t123.5 16zM562 611q52 0 101.5 39t85.5 104t52.5 159t3.5 195q-57 303 -243 303q-55 0 -97 -40.5t-65 -104.5
t-34 -130t-11 -129q0 -74 12 -142t35.5 -126t64.5 -93t95 -35z" />
    <glyph glyph-name="A" unicode="A" horiz-adv-x="1306" 
d="M231 19v-19h-245v19q23 0 57 39t48 81l397 1193q-3 7 -10.5 15t-12 14t-1.5 12t43 10.5t115 27t147 68.5l448 -1340q14 -37 49 -78.5t52 -41.5v-19h-522v19q11 0 38 18.5t47.5 48t10.5 53.5l-154 452h-425l-149 -452q-16 -52 9.5 -86t57.5 -34zM524 1224l-190 -572h385z
" />
    <glyph glyph-name="A" unicode="&#xc5;" horiz-adv-x="1306" 
d="M231 19v-19h-245v19q23 0 57 39t48 81l397 1193q-3 7 -10.5 15t-12 14t-1.5 12t43 10.5t115 27t147 68.5l448 -1340q14 -37 49 -78.5t52 -41.5v-19h-522v19q11 0 38 18.5t47.5 48t10.5 53.5l-154 452h-425l-149 -452q-16 -52 9.5 -86t57.5 -34zM524 1224l-190 -572h385z
" />
    <glyph glyph-name="A" unicode="&#xc4;" horiz-adv-x="1306" 
d="M231 19v-19h-245v19q23 0 57 39t48 81l397 1193q-3 7 -10.5 15t-12 14t-1.5 12t43 10.5t115 27t147 68.5l448 -1340q14 -37 49 -78.5t52 -41.5v-19h-522v19q11 0 38 18.5t47.5 48t10.5 53.5l-154 452h-425l-149 -452q-16 -52 9.5 -86t57.5 -34zM524 1224l-190 -572h385z
" />
    <glyph glyph-name="A" unicode="&#xc3;" horiz-adv-x="1306" 
d="M231 19v-19h-245v19q23 0 57 39t48 81l397 1193q-3 7 -10.5 15t-12 14t-1.5 12t43 10.5t115 27t147 68.5l448 -1340q14 -37 49 -78.5t52 -41.5v-19h-522v19q11 0 38 18.5t47.5 48t10.5 53.5l-154 452h-425l-149 -452q-16 -52 9.5 -86t57.5 -34zM524 1224l-190 -572h385z
" />
    <glyph glyph-name="A" unicode="&#xc2;" horiz-adv-x="1306" 
d="M231 19v-19h-245v19q23 0 57 39t48 81l397 1193q-3 7 -10.5 15t-12 14t-1.5 12t43 10.5t115 27t147 68.5l448 -1340q14 -37 49 -78.5t52 -41.5v-19h-522v19q11 0 38 18.5t47.5 48t10.5 53.5l-154 452h-425l-149 -452q-16 -52 9.5 -86t57.5 -34zM524 1224l-190 -572h385z
" />
    <glyph glyph-name="A" unicode="&#xc1;" horiz-adv-x="1306" 
d="M231 19v-19h-245v19q23 0 57 39t48 81l397 1193q-3 7 -10.5 15t-12 14t-1.5 12t43 10.5t115 27t147 68.5l448 -1340q14 -37 49 -78.5t52 -41.5v-19h-522v19q11 0 38 18.5t47.5 48t10.5 53.5l-154 452h-425l-149 -452q-16 -52 9.5 -86t57.5 -34zM524 1224l-190 -572h385z
" />
    <glyph glyph-name="A" unicode="&#xc0;" horiz-adv-x="1306" 
d="M231 19v-19h-245v19q23 0 57 39t48 81l397 1193q-3 7 -10.5 15t-12 14t-1.5 12t43 10.5t115 27t147 68.5l448 -1340q14 -37 49 -78.5t52 -41.5v-19h-522v19q11 0 38 18.5t47.5 48t10.5 53.5l-154 452h-425l-149 -452q-16 -52 9.5 -86t57.5 -34zM524 1224l-190 -572h385z
" />
    <glyph glyph-name="B" unicode="B" horiz-adv-x="1275" 
d="M39 19q16 0 56 47.5t40 72.5v1200q0 25 -40 72.5t-56 47.5v20h522q229 0 371.5 -87t142.5 -243q0 -247 -291 -346q81 -10 147 -27.5t125.5 -49t99.5 -75t63.5 -107.5t23.5 -145q0 -110 -57.5 -190.5t-164.5 -127t-246.5 -66.5t-314.5 -15h-421v19zM460 1406v-586
q87 6 151 40t98 84.5t50 103t16 106.5q0 42 -18 84t-53.5 80.5t-99 62.5t-144.5 25zM488 753h-28v-690q99 0 178 23t128 58.5t81.5 82.5t45.5 90.5t14 86.5q4 154 -110 251.5t-309 97.5z" />
    <glyph glyph-name="C" unicode="C" horiz-adv-x="1230" 
d="M1118 163q-55 -51 -98.5 -82t-116 -56.5t-153.5 -24.5q-142 2 -272.5 62.5t-227.5 162t-154 245t-55 302.5q2 201 105.5 366t270.5 254.5t357 86.5q43 -1 74.5 -6.5t67 -23.5t53 -29.5t67.5 -46.5l27 41q0 2 7 2t7 -2l17 -421q0 -8 -14 -20t-27 -16.5t-17 2.5
q-16 115 -48 206t-88 153.5t-126 63.5q-68 1 -124 -25t-92.5 -68.5t-65 -101t-43.5 -115t-25 -119t-12.5 -105.5t-2.5 -81q0 -45 1.5 -87t9 -113.5t20.5 -130.5t38.5 -124.5t60.5 -111t89.5 -76t121.5 -30.5q80 -1 149 41.5t116.5 113.5t78.5 154t46 174q2 3 11 -3.5t17 -16
t8 -14.5l-17 -418q0 -4 -7 -2l-8 2z" />
    <glyph glyph-name="C" unicode="&#xc7;" horiz-adv-x="1230" 
d="M1118 163q-55 -51 -98.5 -82t-116 -56.5t-153.5 -24.5q-142 2 -272.5 62.5t-227.5 162t-154 245t-55 302.5q2 201 105.5 366t270.5 254.5t357 86.5q43 -1 74.5 -6.5t67 -23.5t53 -29.5t67.5 -46.5l27 41q0 2 7 2t7 -2l17 -421q0 -8 -14 -20t-27 -16.5t-17 2.5
q-16 115 -48 206t-88 153.5t-126 63.5q-68 1 -124 -25t-92.5 -68.5t-65 -101t-43.5 -115t-25 -119t-12.5 -105.5t-2.5 -81q0 -45 1.5 -87t9 -113.5t20.5 -130.5t38.5 -124.5t60.5 -111t89.5 -76t121.5 -30.5q80 -1 149 41.5t116.5 113.5t78.5 154t46 174q2 3 11 -3.5t17 -16
t8 -14.5l-17 -418q0 -4 -7 -2l-8 2z" />
    <glyph glyph-name="D" unicode="D" horiz-adv-x="1372" 
d="M460 1483q413 -2 641.5 -194t223.5 -539q-5 -353 -229.5 -549t-635.5 -196h-421v19q16 0 56 47.5t40 72.5v1200q0 25 -40 72.5t-56 47.5v19h421zM989 755q1 48 -3 96.5t-17 115t-35 124.5t-62.5 118t-94.5 102.5t-135.5 70.5t-181.5 29v-1332q102 0 184.5 28.5t136 72
t93.5 107t61 122.5t34 130.5t16 118t4 97.5z" />
    <glyph glyph-name="E" unicode="E" horiz-adv-x="1138" 
d="M1049 457q3 7 17 9t26 -0.5t12 -8.5l-58 -457h-1007v19q16 0 56 47.5t40 72.5v1200q0 25 -40 72.5t-56 47.5v20h909l57 -373q0 -6 -12 -8.5t-26 -0.5t-17 9q-11 55 -36.5 99t-57.5 71.5t-74 48t-79 30t-81 15t-71 6t-57.5 0t-33.5 -0.5v-574q118 13 174.5 49t84.5 121
q3 7 12 9t16.5 -0.5t7.5 -8.5v-430q0 -6 -7.5 -8.5t-16.5 -0.5t-12 9q-28 85 -85 121.5t-174 49.5v-609h34q64 0 98.5 0.5t96.5 7t99 19t86 38.5t79 63t57 94.5t39 131.5z" />
    <glyph glyph-name="E" unicode="&#xcb;" horiz-adv-x="1138" 
d="M1049 457q3 7 17 9t26 -0.5t12 -8.5l-58 -457h-1007v19q16 0 56 47.5t40 72.5v1200q0 25 -40 72.5t-56 47.5v20h909l57 -373q0 -6 -12 -8.5t-26 -0.5t-17 9q-11 55 -36.5 99t-57.5 71.5t-74 48t-79 30t-81 15t-71 6t-57.5 0t-33.5 -0.5v-574q118 13 174.5 49t84.5 121
q3 7 12 9t16.5 -0.5t7.5 -8.5v-430q0 -6 -7.5 -8.5t-16.5 -0.5t-12 9q-28 85 -85 121.5t-174 49.5v-609h34q64 0 98.5 0.5t96.5 7t99 19t86 38.5t79 63t57 94.5t39 131.5z" />
    <glyph glyph-name="E" unicode="&#xca;" horiz-adv-x="1138" 
d="M1049 457q3 7 17 9t26 -0.5t12 -8.5l-58 -457h-1007v19q16 0 56 47.5t40 72.5v1200q0 25 -40 72.5t-56 47.5v20h909l57 -373q0 -6 -12 -8.5t-26 -0.5t-17 9q-11 55 -36.5 99t-57.5 71.5t-74 48t-79 30t-81 15t-71 6t-57.5 0t-33.5 -0.5v-574q118 13 174.5 49t84.5 121
q3 7 12 9t16.5 -0.5t7.5 -8.5v-430q0 -6 -7.5 -8.5t-16.5 -0.5t-12 9q-28 85 -85 121.5t-174 49.5v-609h34q64 0 98.5 0.5t96.5 7t99 19t86 38.5t79 63t57 94.5t39 131.5z" />
    <glyph glyph-name="E" unicode="&#xc9;" horiz-adv-x="1138" 
d="M1049 457q3 7 17 9t26 -0.5t12 -8.5l-58 -457h-1007v19q16 0 56 47.5t40 72.5v1200q0 25 -40 72.5t-56 47.5v20h909l57 -373q0 -6 -12 -8.5t-26 -0.5t-17 9q-11 55 -36.5 99t-57.5 71.5t-74 48t-79 30t-81 15t-71 6t-57.5 0t-33.5 -0.5v-574q118 13 174.5 49t84.5 121
q3 7 12 9t16.5 -0.5t7.5 -8.5v-430q0 -6 -7.5 -8.5t-16.5 -0.5t-12 9q-28 85 -85 121.5t-174 49.5v-609h34q64 0 98.5 0.5t96.5 7t99 19t86 38.5t79 63t57 94.5t39 131.5z" />
    <glyph glyph-name="E" unicode="&#xc8;" horiz-adv-x="1138" 
d="M1049 457q3 7 17 9t26 -0.5t12 -8.5l-58 -457h-1007v19q16 0 56 47.5t40 72.5v1200q0 25 -40 72.5t-56 47.5v20h909l57 -373q0 -6 -12 -8.5t-26 -0.5t-17 9q-11 55 -36.5 99t-57.5 71.5t-74 48t-79 30t-81 15t-71 6t-57.5 0t-33.5 -0.5v-574q118 13 174.5 49t84.5 121
q3 7 12 9t16.5 -0.5t7.5 -8.5v-430q0 -6 -7.5 -8.5t-16.5 -0.5t-12 9q-28 85 -85 121.5t-174 49.5v-609h34q64 0 98.5 0.5t96.5 7t99 19t86 38.5t79 63t57 94.5t39 131.5z" />
    <glyph glyph-name="F" unicode="F" horiz-adv-x="1011" 
d="M950 1106q-11 55 -36.5 99t-57.5 71.5t-74 48t-79 30t-81 15t-71 6t-57.5 0t-33.5 -0.5v-574q118 13 174.5 49t84.5 121q3 7 12 9t16.5 -0.5t7.5 -8.5v-430q0 -6 -7.5 -8.5t-16.5 -0.5t-12 9q-28 85 -85 121.5t-174 49.5v-573q0 -26 41.5 -73t59.5 -47v-19h-522v19
q16 0 56 47.5t40 72.5v1200q0 26 -39.5 73t-56.5 47v20h909l57 -373q0 -6 -12 -8.5t-26 -0.5t-17 9z" />
    <glyph glyph-name="G" unicode="G" horiz-adv-x="1374" 
d="M1353 584q-21 0 -49 -25t-28 -59v-363q0 -4 -6 -2l-6 2l-21 22q-229 -159 -488 -159q-146 0 -279 63.5t-227.5 168.5t-150 245.5t-55.5 289.5q0 159 60.5 296t161.5 228.5t233.5 143t275.5 48.5q176 -3 322 -105l26 40q0 2 7.5 2t7.5 -2l17 -420q0 -16 -19 -32
q-13 -11 -17 -2q-10 67 -28 127t-47 114.5t-67 94t-90 63t-112 24.5q-68 1 -123.5 -23.5t-92 -63.5t-64.5 -96t-43 -112t-24 -120.5t-11.5 -113t-2.5 -96.5q0 -50 1.5 -94.5t9 -116t21 -129t39 -121.5t60.5 -107t89.5 -71.5t121.5 -28.5q74 0 120 28.5t50 84.5v293
q0 26 -35.5 55t-60.5 29v19h524v-19z" />
    <glyph glyph-name="H" unicode="H" horiz-adv-x="1419" 
d="M1380 1462q-18 0 -59.5 -47.5t-41.5 -73.5v-1202q0 -26 41.5 -73t59.5 -47v-19h-521v19q16 0 56 47.5t40 72.5v577h-495v-577q0 -26 41.5 -73t59.5 -47v-19h-522v19q16 0 56 47.5t40 72.5v1202q0 25 -40 73t-56 48v19h522v-19q-18 0 -59.5 -47.5t-41.5 -73.5v-564h495
v564q0 25 -40 73t-56 48v19h521v-19z" />
    <glyph glyph-name="I" unicode="I" horiz-adv-x="598" 
d="M561 1462q-15 2 -57.5 -46t-43.5 -75v-1202q0 -26 41.5 -73t59.5 -47v-19h-522v19q16 0 56 47.5t40 72.5v1202q0 25 -40 73t-56 48v19h522v-19z" />
    <glyph glyph-name="I" unicode="&#xcf;" horiz-adv-x="598" 
d="M561 1462q-15 2 -57.5 -46t-43.5 -75v-1202q0 -26 41.5 -73t59.5 -47v-19h-522v19q16 0 56 47.5t40 72.5v1202q0 25 -40 73t-56 48v19h522v-19z" />
    <glyph glyph-name="I" unicode="&#xce;" horiz-adv-x="598" 
d="M561 1462q-15 2 -57.5 -46t-43.5 -75v-1202q0 -26 41.5 -73t59.5 -47v-19h-522v19q16 0 56 47.5t40 72.5v1202q0 25 -40 73t-56 48v19h522v-19z" />
    <glyph glyph-name="I" unicode="&#xcd;" horiz-adv-x="598" 
d="M561 1462q-15 2 -57.5 -46t-43.5 -75v-1202q0 -26 41.5 -73t59.5 -47v-19h-522v19q16 0 56 47.5t40 72.5v1202q0 25 -40 73t-56 48v19h522v-19z" />
    <glyph glyph-name="I" unicode="&#xcc;" horiz-adv-x="598" 
d="M561 1462q-15 2 -57.5 -46t-43.5 -75v-1202q0 -26 41.5 -73t59.5 -47v-19h-522v19q16 0 56 47.5t40 72.5v1202q0 25 -40 73t-56 48v19h522v-19z" />
    <glyph glyph-name="J" unicode="J" horiz-adv-x="552" 
d="M18 1462v19h522v-19q-15 2 -57.5 -46t-43.5 -75v-1202q0 -93 -62 -176.5t-171.5 -135t-237.5 -51.5q-5 0 -4.5 18.5t4.5 22.5q69 57 107.5 141t38.5 181v1202q0 25 -40 73t-56 48z" />
    <glyph glyph-name="K" unicode="K" horiz-adv-x="1280" 
d="M825 19q18 0 34 9t23.5 27.5t-11.5 47.5l-411 625v-589q0 -26 41.5 -73t59.5 -47v-19h-522v19q16 0 56 47.5t40 72.5v1202q0 25 -40 73t-56 48v19h522v-19q-15 2 -57.5 -46t-43.5 -75v-581l459 553q20 33 12 65.5t-29 56.5t-38 24v20h257v-20q-11 0 -77 -84l-380 -454
l531 -818q22 -36 52.5 -60t48.5 -24v-19h-471v19z" />
    <glyph glyph-name="L" unicode="L" horiz-adv-x="1116" 
d="M1104 457l-58 -457h-1007v19q17 0 56.5 47t39.5 73v1200q0 25 -40 72.5t-56 47.5v20h522v-20q-18 0 -59.5 -47t-41.5 -73v-1236h34q64 0 98.5 0.5t96.5 7t99 19t86 38.5t79 63t57 94.5t39 131.5q3 7 17 9t26 -0.5t12 -8.5z" />
    <glyph glyph-name="M" unicode="M" horiz-adv-x="1615" 
d="M34 1462q-4 0 -4 8.5t4 8.5h397l339 -974l382 974h426v-20q-18 0 -59.5 -47t-41.5 -73v-1200q0 -26 41.5 -73t59.5 -47v-19h-522v19q16 0 56 47.5t40 72.5v1169l-447 -1181h-82l-416 1044v-1068q0 -26 29 -55t48 -29v-19h-245v19q25 0 60 28.5t36 55.5v1248
q-15 51 -39.5 75t-61.5 36z" />
    <glyph glyph-name="N" unicode="N" horiz-adv-x="1298" 
d="M38 1423q-4 0 -4 28t4 28h431l651 -953v849q-1 27 -36 55.5t-60 28.5v20h245v-20q-19 0 -48 -29t-29 -55v-1375h-72l-908 1226v-1123q0 -27 29 -55.5t47 -28.5v-19h-245v19q25 0 60 28.5t36 55.5v1219q-16 30 -37 51t-41.5 34.5t-22.5 15.5z" />
    <glyph glyph-name="N" unicode="&#xd1;" horiz-adv-x="1298" 
d="M38 1423q-4 0 -4 28t4 28h431l651 -953v849q-1 27 -36 55.5t-60 28.5v20h245v-20q-19 0 -48 -29t-29 -55v-1375h-72l-908 1226v-1123q0 -27 29 -55.5t47 -28.5v-19h-245v19q25 0 60 28.5t36 55.5v1219q-16 30 -37 51t-41.5 34.5t-22.5 15.5z" />
    <glyph glyph-name="O" unicode="O" horiz-adv-x="1468" 
d="M1423 750q0 -204 -94.5 -378t-255.5 -274t-348 -98q-141 2 -267 61.5t-216.5 161t-143.5 243t-53 301.5q0 153 56 288t150.5 230t223.5 149t270 52q140 -2 264.5 -57t216 -150t144.5 -232.5t53 -296.5zM384 762q0 -30 1.5 -66t9 -104.5t20.5 -130t39 -131t60.5 -119.5
t89 -83.5t121.5 -33.5q67 -1 122.5 31t91.5 83t64 118.5t43.5 131.5t25 129.5t12 104.5t2.5 63q0 32 -2 69.5t-9.5 102.5t-21 123.5t-39.5 122.5t-60.5 110t-88.5 76.5t-120 30.5q-67 0 -123 -29.5t-92.5 -76t-64.5 -109.5t-43 -122.5t-24 -122t-11.5 -101.5t-2.5 -67z" />
    <glyph glyph-name="O" unicode="&#xd8;" horiz-adv-x="1468" 
d="M1423 750q0 -204 -94.5 -378t-255.5 -274t-348 -98q-141 2 -267 61.5t-216.5 161t-143.5 243t-53 301.5q0 153 56 288t150.5 230t223.5 149t270 52q140 -2 264.5 -57t216 -150t144.5 -232.5t53 -296.5zM384 762q0 -30 1.5 -66t9 -104.5t20.5 -130t39 -131t60.5 -119.5
t89 -83.5t121.5 -33.5q67 -1 122.5 31t91.5 83t64 118.5t43.5 131.5t25 129.5t12 104.5t2.5 63q0 32 -2 69.5t-9.5 102.5t-21 123.5t-39.5 122.5t-60.5 110t-88.5 76.5t-120 30.5q-67 0 -123 -29.5t-92.5 -76t-64.5 -109.5t-43 -122.5t-24 -122t-11.5 -101.5t-2.5 -67z" />
    <glyph glyph-name="O" unicode="&#xd6;" horiz-adv-x="1468" 
d="M1423 750q0 -204 -94.5 -378t-255.5 -274t-348 -98q-141 2 -267 61.5t-216.5 161t-143.5 243t-53 301.5q0 153 56 288t150.5 230t223.5 149t270 52q140 -2 264.5 -57t216 -150t144.5 -232.5t53 -296.5zM384 762q0 -30 1.5 -66t9 -104.5t20.5 -130t39 -131t60.5 -119.5
t89 -83.5t121.5 -33.5q67 -1 122.5 31t91.5 83t64 118.5t43.5 131.5t25 129.5t12 104.5t2.5 63q0 32 -2 69.5t-9.5 102.5t-21 123.5t-39.5 122.5t-60.5 110t-88.5 76.5t-120 30.5q-67 0 -123 -29.5t-92.5 -76t-64.5 -109.5t-43 -122.5t-24 -122t-11.5 -101.5t-2.5 -67z" />
    <glyph glyph-name="O" unicode="&#xd5;" horiz-adv-x="1468" 
d="M1423 750q0 -204 -94.5 -378t-255.5 -274t-348 -98q-141 2 -267 61.5t-216.5 161t-143.5 243t-53 301.5q0 153 56 288t150.5 230t223.5 149t270 52q140 -2 264.5 -57t216 -150t144.5 -232.5t53 -296.5zM384 762q0 -30 1.5 -66t9 -104.5t20.5 -130t39 -131t60.5 -119.5
t89 -83.5t121.5 -33.5q67 -1 122.5 31t91.5 83t64 118.5t43.5 131.5t25 129.5t12 104.5t2.5 63q0 32 -2 69.5t-9.5 102.5t-21 123.5t-39.5 122.5t-60.5 110t-88.5 76.5t-120 30.5q-67 0 -123 -29.5t-92.5 -76t-64.5 -109.5t-43 -122.5t-24 -122t-11.5 -101.5t-2.5 -67z" />
    <glyph glyph-name="O" unicode="&#xd4;" horiz-adv-x="1468" 
d="M1423 750q0 -204 -94.5 -378t-255.5 -274t-348 -98q-141 2 -267 61.5t-216.5 161t-143.5 243t-53 301.5q0 153 56 288t150.5 230t223.5 149t270 52q140 -2 264.5 -57t216 -150t144.5 -232.5t53 -296.5zM384 762q0 -30 1.5 -66t9 -104.5t20.5 -130t39 -131t60.5 -119.5
t89 -83.5t121.5 -33.5q67 -1 122.5 31t91.5 83t64 118.5t43.5 131.5t25 129.5t12 104.5t2.5 63q0 32 -2 69.5t-9.5 102.5t-21 123.5t-39.5 122.5t-60.5 110t-88.5 76.5t-120 30.5q-67 0 -123 -29.5t-92.5 -76t-64.5 -109.5t-43 -122.5t-24 -122t-11.5 -101.5t-2.5 -67z" />
    <glyph glyph-name="O" unicode="&#xd3;" horiz-adv-x="1468" 
d="M1423 750q0 -204 -94.5 -378t-255.5 -274t-348 -98q-141 2 -267 61.5t-216.5 161t-143.5 243t-53 301.5q0 153 56 288t150.5 230t223.5 149t270 52q140 -2 264.5 -57t216 -150t144.5 -232.5t53 -296.5zM384 762q0 -30 1.5 -66t9 -104.5t20.5 -130t39 -131t60.5 -119.5
t89 -83.5t121.5 -33.5q67 -1 122.5 31t91.5 83t64 118.5t43.5 131.5t25 129.5t12 104.5t2.5 63q0 32 -2 69.5t-9.5 102.5t-21 123.5t-39.5 122.5t-60.5 110t-88.5 76.5t-120 30.5q-67 0 -123 -29.5t-92.5 -76t-64.5 -109.5t-43 -122.5t-24 -122t-11.5 -101.5t-2.5 -67z" />
    <glyph glyph-name="O" unicode="&#xd2;" horiz-adv-x="1468" 
d="M1423 750q0 -204 -94.5 -378t-255.5 -274t-348 -98q-141 2 -267 61.5t-216.5 161t-143.5 243t-53 301.5q0 153 56 288t150.5 230t223.5 149t270 52q140 -2 264.5 -57t216 -150t144.5 -232.5t53 -296.5zM384 762q0 -30 1.5 -66t9 -104.5t20.5 -130t39 -131t60.5 -119.5
t89 -83.5t121.5 -33.5q67 -1 122.5 31t91.5 83t64 118.5t43.5 131.5t25 129.5t12 104.5t2.5 63q0 32 -2 69.5t-9.5 102.5t-21 123.5t-39.5 122.5t-60.5 110t-88.5 76.5t-120 30.5q-67 0 -123 -29.5t-92.5 -76t-64.5 -109.5t-43 -122.5t-24 -122t-11.5 -101.5t-2.5 -67z" />
    <glyph glyph-name="P" unicode="P" horiz-adv-x="1265" 
d="M1243 1039q0 -101 -47 -182t-123 -132.5t-180 -85.5t-211 -48t-222 -14v-438q0 -26 41.5 -73t59.5 -47v-19h-522v19q16 0 56 47.5t40 72.5v1205q0 25 -40 72.5t-56 47.5v19h522q112 0 208 -13t185.5 -44.5t151.5 -81t99.5 -127.5t37.5 -178zM488 1402h-28v-751
q104 0 185.5 28t129 69.5t79 96.5t42.5 103.5t11 94.5q0 56 -11 105t-40.5 97t-75.5 81.5t-120.5 54.5t-171.5 21z" />
    <glyph glyph-name="Q" unicode="Q" horiz-adv-x="1468" 
d="M1233 -385q-56 -2 -135 18.5t-165 57.5t-150 68t-135 68.5t-76 40.5q-138 69 -186 21q14 -5 27 -22.5t12 -41.5q-2 -40 -39 -56t-69 12q-30 28 -34 73t27 86t91 53q126 26 159 31q-227 62 -371 266.5t-144 476.5q0 153 56 288t150.5 230t223.5 149t270 52
q140 -2 264.5 -57t216 -150t144.5 -232.5t53 -296.5q0 -204 -94.5 -378t-255.5 -274t-348 -98h-28q-30 4 -171 -12q55 -10 157.5 -36t191.5 -47.5t186.5 -38t180.5 -12t137 34.5q51 29 60 53q1 8 10.5 8t9.5 -8q-1 -14 0.5 -37.5t-4 -53.5t-12 -62t-24 -62.5t-40.5 -54.5
t-61 -40t-85 -17zM384 762q0 -30 1.5 -66t9 -104.5t20.5 -130t39 -131t60.5 -119.5t89 -83.5t121.5 -33.5q67 -1 122.5 31t91.5 83t64 118.5t43.5 131.5t25 129.5t12 104.5t2.5 63q0 32 -2 69.5t-9.5 102.5t-21 123.5t-39.5 122.5t-60.5 110t-88.5 76.5t-120 30.5
q-67 0 -123 -29.5t-92.5 -76t-64.5 -109.5t-43 -122.5t-24 -122t-11.5 -101.5t-2.5 -67z" />
    <glyph glyph-name="R" unicode="R" horiz-adv-x="1325" 
d="M1243 1063q0 -80 -28 -146t-80 -115t-117 -83.5t-147 -59.5l336 -556q21 -41 51 -62.5t50 -21.5v-19h-471v19q18 0 32.5 7.5t22 26t-8.5 50.5l-313 508q-54 -3 -110 -3v-469q0 -26 41.5 -73t59.5 -47v-19h-522v19q16 0 56 47.5t40 72.5v1200q0 25 -40 72.5t-56 47.5v20
h524q94 0 173.5 -7t159 -24t140.5 -48t108.5 -76t73 -111t25.5 -150zM460 683q104 0 185.5 27t129.5 68t79 94.5t42 101t11 93.5q0 330 -419 330h-28v-714z" />
    <glyph glyph-name="S" unicode="S" horiz-adv-x="1130" 
d="M593 899q12 -7 38 -21q47 -26 71 -39.5t69 -40.5t70.5 -45t63 -47.5t59.5 -53.5t47.5 -57t39 -64.5t23 -70t9.5 -78.5q0 -97 -48.5 -172.5t-130 -120t-180 -67t-206.5 -22.5q-80 0 -155 14.5t-126 29t-72 14.5q-22 0 -35.5 -16t-27.5 -52h-29l-7 392h36
q28 -147 150.5 -231t287.5 -84q52 0 95.5 10t80.5 31.5t58 61.5t21 94q0 116 -68.5 177.5t-301.5 186.5q-16 9 -25 14q-339 184 -339 430q0 175 144.5 291t372.5 116q74 0 143.5 -21t110 -46.5t72.5 -46.5t40 -21q10 0 16.5 9t19.5 32h26v-363h-36q0 63 -25 127.5t-71 119.5
t-119.5 90t-161.5 35q-71 0 -141.5 -20t-123.5 -64t-53 -103q0 -25 5.5 -47.5t18.5 -43t25.5 -37.5t35.5 -35.5t39.5 -31.5t46.5 -30.5t47 -27.5t50.5 -28t49.5 -27z" />
    <glyph glyph-name="T" unicode="T" horiz-adv-x="1300" 
d="M487 1375q-1 0 -25 0.5t-41 0.5t-50.5 -3t-58.5 -8t-59 -16t-59.5 -26.5t-52 -40t-43.5 -55t-28 -73.5t-11 -94q-3 -7 -17 -9t-26 0.5t-12 8.5l58 419h1175l58 -419q0 -6 -12 -8.5t-26 -0.5t-17 9q-10 59 -31 107t-47 79.5t-57.5 56.5t-64 37t-65 21.5t-61 10.5t-52 3.5
t-38.5 -0.5h-12v-1236q0 -26 41.5 -73t59.5 -47v-19h-522v19q16 0 56 47.5t40 72.5v1236z" />
    <glyph glyph-name="U" unicode="U" horiz-adv-x="1208" 
d="M1109 387q0 -122 -63 -211t-168.5 -132.5t-239.5 -43.5q-142 0 -263 48t-195 137.5t-74 201.5v947q0 25 -40 73t-56 48v19h522v-20q-18 0 -59.5 -47t-41.5 -73v-1009q0 -111 70.5 -172.5t215.5 -61.5q68 0 130 28.5t102.5 71.5t64 90t23.5 87v1002q0 27 -35.5 56
t-60.5 29v19h245v-19q-18 0 -47.5 -29.5t-29.5 -55.5v-983z" />
    <glyph glyph-name="U" unicode="&#xdc;" horiz-adv-x="1208" 
d="M1109 387q0 -122 -63 -211t-168.5 -132.5t-239.5 -43.5q-142 0 -263 48t-195 137.5t-74 201.5v947q0 25 -40 73t-56 48v19h522v-20q-18 0 -59.5 -47t-41.5 -73v-1009q0 -111 70.5 -172.5t215.5 -61.5q68 0 130 28.5t102.5 71.5t64 90t23.5 87v1002q0 27 -35.5 56
t-60.5 29v19h245v-19q-18 0 -47.5 -29.5t-29.5 -55.5v-983z" />
    <glyph glyph-name="U" unicode="&#xdb;" horiz-adv-x="1208" 
d="M1109 387q0 -122 -63 -211t-168.5 -132.5t-239.5 -43.5q-142 0 -263 48t-195 137.5t-74 201.5v947q0 25 -40 73t-56 48v19h522v-20q-18 0 -59.5 -47t-41.5 -73v-1009q0 -111 70.5 -172.5t215.5 -61.5q68 0 130 28.5t102.5 71.5t64 90t23.5 87v1002q0 27 -35.5 56
t-60.5 29v19h245v-19q-18 0 -47.5 -29.5t-29.5 -55.5v-983z" />
    <glyph glyph-name="U" unicode="&#xda;" horiz-adv-x="1208" 
d="M1109 387q0 -122 -63 -211t-168.5 -132.5t-239.5 -43.5q-142 0 -263 48t-195 137.5t-74 201.5v947q0 25 -40 73t-56 48v19h522v-20q-18 0 -59.5 -47t-41.5 -73v-1009q0 -111 70.5 -172.5t215.5 -61.5q68 0 130 28.5t102.5 71.5t64 90t23.5 87v1002q0 27 -35.5 56
t-60.5 29v19h245v-19q-18 0 -47.5 -29.5t-29.5 -55.5v-983z" />
    <glyph glyph-name="U" unicode="&#xd9;" horiz-adv-x="1208" 
d="M1109 387q0 -122 -63 -211t-168.5 -132.5t-239.5 -43.5q-142 0 -263 48t-195 137.5t-74 201.5v947q0 25 -40 73t-56 48v19h522v-20q-18 0 -59.5 -47t-41.5 -73v-1009q0 -111 70.5 -172.5t215.5 -61.5q68 0 130 28.5t102.5 71.5t64 90t23.5 87v1002q0 27 -35.5 56
t-60.5 29v19h245v-19q-18 0 -47.5 -29.5t-29.5 -55.5v-983z" />
    <glyph glyph-name="V" unicode="V" horiz-adv-x="1087" 
d="M1055 1375l-387 -1310q-17 -58 -17 -65h-154l-447 1339q-14 37 -49 78.5t-52 41.5v20h521v-20q-11 0 -38 -18.5t-47.5 -48t-10.5 -53.5q209 -698 308 -981l301 1017q9 38 -21.5 61t-55.5 23v20h245v-20q-23 0 -55 -28t-41 -56z" />
    <glyph glyph-name="W" unicode="W" horiz-adv-x="1773" 
d="M1567 1459v20h246v-20q-23 0 -55.5 -28t-41.5 -56l-387 -1310q-16 -54 -16 -65h-154l-265 793l-216 -728q-17 -58 -17 -65h-154l-447 1339q-14 37 -49 78.5t-52 41.5v20h522v-20q-11 0 -38 -18.5t-47.5 -48t-10.5 -53.5q215 -718 307 -981l164 551l-144 430
q-14 37 -49 78.5t-52 41.5v20h550v-20q-23 0 -55 -28t-41 -56l-19 -67q192 -637 298 -950l300 1017q9 38 -21.5 61t-55.5 23z" />
    <glyph glyph-name="X" unicode="X" horiz-adv-x="1128" 
d="M1034 139q21 -41 53 -80.5t48 -39.5v-19h-521v19q9 0 29 7t42.5 22t30.5 37.5t-6 53.5l-219 402l-260 -438q-44 -84 32 -84v-19h-200v19q52 0 96 84l296 503l-399 733q-21 41 -53 80.5t-48 39.5v20h522v-20q-9 0 -29 -7t-42.5 -22t-31 -37.5t5.5 -53.5l246 -449l286 485
q44 84 -31 84v20h199v-20q-20 5 -47.5 -20.5t-48.5 -63.5l-325 -548z" />
    <glyph glyph-name="Y" unicode="Y" horiz-adv-x="997" 
d="M873 1459v20h199v-20q-24 0 -52 -23.5t-44 -60.5l-324 -627v-609q78 -120 100 -120v-19h-521v19q16 0 56 47.5t40 72.5v565l-279 635q-24 46 -55.5 83t-47.5 37v20h471v-20q-26 0 -43.5 -37.5t0.5 -82.5l240 -538l291 574q44 84 -31 84z" />
    <glyph glyph-name="Y" unicode="&#x178;" horiz-adv-x="997" 
d="M873 1459v20h199v-20q-24 0 -52 -23.5t-44 -60.5l-324 -627v-609q78 -120 100 -120v-19h-521v19q16 0 56 47.5t40 72.5v565l-279 635q-24 46 -55.5 83t-47.5 37v20h471v-20q-26 0 -43.5 -37.5t0.5 -82.5l240 -538l291 574q44 84 -31 84z" />
    <glyph glyph-name="Y" unicode="&#xdd;" horiz-adv-x="997" 
d="M873 1459v20h199v-20q-24 0 -52 -23.5t-44 -60.5l-324 -627v-609q78 -120 100 -120v-19h-521v19q16 0 56 47.5t40 72.5v565l-279 635q-24 46 -55.5 83t-47.5 37v20h471v-20q-26 0 -43.5 -37.5t0.5 -82.5l240 -538l291 574q44 84 -31 84z" />
    <glyph glyph-name="Z" unicode="Z" horiz-adv-x="1097" 
d="M1010 392q3 7 17 9t26 -0.5t12 -8.5l-58 -392h-993l690 1375q-93 0 -151.5 -1t-119 -6t-95 -13t-69.5 -23.5t-53.5 -35t-36.5 -51t-28 -68.5t-19 -90q-3 -7 -17 -9t-26 0.5t-12 8.5l58 392h947l-690 -1376q75 0 126.5 1t106.5 3.5t91 7t74.5 13t62.5 19.5t48.5 27.5
t39.5 36.5t29.5 47.5t23.5 60t16 73.5z" />
    <glyph glyph-name="a" unicode="a" horiz-adv-x="997" 
d="M970 150q9 0 9 -10q-7 -44 -51.5 -77t-100 -47.5t-110.5 -14.5q-62 0 -112 32.5t-73 80.5q-194 -135 -338 -103q-95 20 -131 104q-39 89 12 189q63 124 230 186q93 35 208 45v235q0 56 -25 86t-69 30q-35 0 -58 -35t-17.5 -80.5t44.5 -70.5q12 -76 -44.5 -121.5
t-123.5 -34.5q-66 12 -98 59t-32 102q0 120 116 190q110 68 260 57q166 -11 268 -112q103 -102 103 -267l3 -397q0 -38 9.5 -57.5t36.5 -23.5q24 -2 44.5 9.5t27.5 35.5q3 10 12 10zM513 491q-119 -20 -177 -109q-46 -70 -24 -136t100 -74q45 -4 103 14z" />
    <glyph glyph-name="a" unicode="&#xe5;" horiz-adv-x="997" 
d="M970 150q9 0 9 -10q-7 -44 -51.5 -77t-100 -47.5t-110.5 -14.5q-62 0 -112 32.5t-73 80.5q-194 -135 -338 -103q-95 20 -131 104q-39 89 12 189q63 124 230 186q93 35 208 45v235q0 56 -25 86t-69 30q-35 0 -58 -35t-17.5 -80.5t44.5 -70.5q12 -76 -44.5 -121.5
t-123.5 -34.5q-66 12 -98 59t-32 102q0 120 116 190q110 68 260 57q166 -11 268 -112q103 -102 103 -267l3 -397q0 -38 9.5 -57.5t36.5 -23.5q24 -2 44.5 9.5t27.5 35.5q3 10 12 10zM513 491q-119 -20 -177 -109q-46 -70 -24 -136t100 -74q45 -4 103 14z" />
    <glyph glyph-name="a" unicode="&#xe4;" horiz-adv-x="997" 
d="M970 150q9 0 9 -10q-7 -44 -51.5 -77t-100 -47.5t-110.5 -14.5q-62 0 -112 32.5t-73 80.5q-194 -135 -338 -103q-95 20 -131 104q-39 89 12 189q63 124 230 186q93 35 208 45v235q0 56 -25 86t-69 30q-35 0 -58 -35t-17.5 -80.5t44.5 -70.5q12 -76 -44.5 -121.5
t-123.5 -34.5q-66 12 -98 59t-32 102q0 120 116 190q110 68 260 57q166 -11 268 -112q103 -102 103 -267l3 -397q0 -38 9.5 -57.5t36.5 -23.5q24 -2 44.5 9.5t27.5 35.5q3 10 12 10zM513 491q-119 -20 -177 -109q-46 -70 -24 -136t100 -74q45 -4 103 14z" />
    <glyph glyph-name="a" unicode="&#xe3;" horiz-adv-x="997" 
d="M970 150q9 0 9 -10q-7 -44 -51.5 -77t-100 -47.5t-110.5 -14.5q-62 0 -112 32.5t-73 80.5q-194 -135 -338 -103q-95 20 -131 104q-39 89 12 189q63 124 230 186q93 35 208 45v235q0 56 -25 86t-69 30q-35 0 -58 -35t-17.5 -80.5t44.5 -70.5q12 -76 -44.5 -121.5
t-123.5 -34.5q-66 12 -98 59t-32 102q0 120 116 190q110 68 260 57q166 -11 268 -112q103 -102 103 -267l3 -397q0 -38 9.5 -57.5t36.5 -23.5q24 -2 44.5 9.5t27.5 35.5q3 10 12 10zM513 491q-119 -20 -177 -109q-46 -70 -24 -136t100 -74q45 -4 103 14z" />
    <glyph glyph-name="a" unicode="&#xe2;" horiz-adv-x="997" 
d="M970 150q9 0 9 -10q-7 -44 -51.5 -77t-100 -47.5t-110.5 -14.5q-62 0 -112 32.5t-73 80.5q-194 -135 -338 -103q-95 20 -131 104q-39 89 12 189q63 124 230 186q93 35 208 45v235q0 56 -25 86t-69 30q-35 0 -58 -35t-17.5 -80.5t44.5 -70.5q12 -76 -44.5 -121.5
t-123.5 -34.5q-66 12 -98 59t-32 102q0 120 116 190q110 68 260 57q166 -11 268 -112q103 -102 103 -267l3 -397q0 -38 9.5 -57.5t36.5 -23.5q24 -2 44.5 9.5t27.5 35.5q3 10 12 10zM513 491q-119 -20 -177 -109q-46 -70 -24 -136t100 -74q45 -4 103 14z" />
    <glyph glyph-name="a" unicode="&#xe1;" horiz-adv-x="997" 
d="M970 150q9 0 9 -10q-7 -44 -51.5 -77t-100 -47.5t-110.5 -14.5q-62 0 -112 32.5t-73 80.5q-194 -135 -338 -103q-95 20 -131 104q-39 89 12 189q63 124 230 186q93 35 208 45v235q0 56 -25 86t-69 30q-35 0 -58 -35t-17.5 -80.5t44.5 -70.5q12 -76 -44.5 -121.5
t-123.5 -34.5q-66 12 -98 59t-32 102q0 120 116 190q110 68 260 57q166 -11 268 -112q103 -102 103 -267l3 -397q0 -38 9.5 -57.5t36.5 -23.5q24 -2 44.5 9.5t27.5 35.5q3 10 12 10zM513 491q-119 -20 -177 -109q-46 -70 -24 -136t100 -74q45 -4 103 14z" />
    <glyph glyph-name="a" unicode="&#xe0;" horiz-adv-x="997" 
d="M970 150q9 0 9 -10q-7 -44 -51.5 -77t-100 -47.5t-110.5 -14.5q-62 0 -112 32.5t-73 80.5q-194 -135 -338 -103q-95 20 -131 104q-39 89 12 189q63 124 230 186q93 35 208 45v235q0 56 -25 86t-69 30q-35 0 -58 -35t-17.5 -80.5t44.5 -70.5q12 -76 -44.5 -121.5
t-123.5 -34.5q-66 12 -98 59t-32 102q0 120 116 190q110 68 260 57q166 -11 268 -112q103 -102 103 -267l3 -397q0 -38 9.5 -57.5t36.5 -23.5q24 -2 44.5 9.5t27.5 35.5q3 10 12 10zM513 491q-119 -20 -177 -109q-46 -70 -24 -136t100 -74q45 -4 103 14z" />
    <glyph glyph-name="b" unicode="b" horiz-adv-x="1079" 
d="M633 989q77 0 145 -28t124.5 -85t89.5 -155t33 -225q0 -111 -33.5 -205.5t-88.5 -156.5t-125.5 -97t-144.5 -36h-2q-76 -1 -141 12t-102.5 28.5t-85 28.5t-92.5 13q-28 0 -49 -13t-30.5 -26t-33.5 -50q-7 -10 -7 0v1269q0 18 -9.5 34.5t-19.5 25t-24 17.5t-15 10
q-5 4 -7 8t-0.5 7t7.5 4q102 4 202.5 34t175.5 79q5 4 9.5 1.5t4.5 -11.5v-55l5 -524q93 96 214 96zM725 496q17 182 -11 306.5t-95 133.5q-70 7 -125 -109t-72 -295v-5l2 -242q11 -96 39.5 -155t71.5 -64q42 -3 82.5 56t68.5 158.5t39 215.5z" />
    <glyph glyph-name="c" unicode="c" horiz-adv-x="892" 
d="M823 313q3 6 10.5 7.5t13 -0.5t5.5 -7q-25 -137 -133.5 -223.5t-248.5 -86.5q-110 0 -206.5 61t-155.5 169t-59 237q0 117 34 212t91.5 155.5t132 92.5t158.5 32q142 0 241.5 -95t99.5 -215q0 -58 -39.5 -101t-109.5 -31q-32 5 -57 21.5t-38.5 37t-20.5 43t-5.5 41
t8.5 28.5q33 53 25 98.5t-47.5 75t-87.5 23.5q-45 -6 -80 -66.5t-45.5 -151.5t9.5 -200q27 -133 107.5 -204.5t188.5 -77.5q61 -4 120 30t89 95z" />
    <glyph glyph-name="c" unicode="&#xe7;" horiz-adv-x="892" 
d="M823 313q3 6 10.5 7.5t13 -0.5t5.5 -7q-25 -137 -133.5 -223.5t-248.5 -86.5q-110 0 -206.5 61t-155.5 169t-59 237q0 117 34 212t91.5 155.5t132 92.5t158.5 32q142 0 241.5 -95t99.5 -215q0 -58 -39.5 -101t-109.5 -31q-32 5 -57 21.5t-38.5 37t-20.5 43t-5.5 41
t8.5 28.5q33 53 25 98.5t-47.5 75t-87.5 23.5q-45 -6 -80 -66.5t-45.5 -151.5t9.5 -200q27 -133 107.5 -204.5t188.5 -77.5q61 -4 120 30t89 95z" />
    <glyph glyph-name="d" unicode="d" horiz-adv-x="1099" 
d="M974 104q0 -24 39 -54t57 -30v-19h-421v101q-98 -101 -219 -101q-75 0 -142 32.5t-119 93.5t-83 156t-31 211q0 119 30.5 215t83 156t119.5 92t142 32q123 0 219 -101v375q0 18 -9.5 34.5t-19 25t-23.5 17.5t-15 10q-5 4 -7 8t-0.5 7t7.5 4q102 4 202 34t175 79
q5 4 10 1.5t5 -11.5v-1368zM649 292v459q-39 129 -110 132q-66 4 -124.5 -113.5t-65.5 -280.5q-8 -170 35.5 -288.5t113.5 -122.5q49 -1 89 56.5t62 157.5z" />
    <glyph glyph-name="e" unicode="e" horiz-adv-x="911" 
d="M864 506v-17h-550l4 -22q28 -129 108.5 -202.5t187.5 -78.5q59 -4 109 29t81 96q2 6 9.5 8.5t14 0.5t5.5 -9q-26 -139 -125.5 -224.5t-237.5 -85.5q-82 0 -159 36t-134.5 97.5t-92.5 148.5t-35 184q0 117 34 212t91.5 155.5t132 93t158.5 32.5q171 0 285 -127t114 -327z
M516 551q53 0 79 35t26 81q0 57 -59.5 138t-127.5 81q-50 0 -85 -51.5t-44.5 -126t1.5 -157.5h210z" />
    <glyph glyph-name="e" unicode="&#xeb;" horiz-adv-x="911" 
d="M864 506v-17h-550l4 -22q28 -129 108.5 -202.5t187.5 -78.5q59 -4 109 29t81 96q2 6 9.5 8.5t14 0.5t5.5 -9q-26 -139 -125.5 -224.5t-237.5 -85.5q-82 0 -159 36t-134.5 97.5t-92.5 148.5t-35 184q0 117 34 212t91.5 155.5t132 93t158.5 32.5q171 0 285 -127t114 -327z
M516 551q53 0 79 35t26 81q0 57 -59.5 138t-127.5 81q-50 0 -85 -51.5t-44.5 -126t1.5 -157.5h210z" />
    <glyph glyph-name="e" unicode="&#xea;" horiz-adv-x="911" 
d="M864 506v-17h-550l4 -22q28 -129 108.5 -202.5t187.5 -78.5q59 -4 109 29t81 96q2 6 9.5 8.5t14 0.5t5.5 -9q-26 -139 -125.5 -224.5t-237.5 -85.5q-82 0 -159 36t-134.5 97.5t-92.5 148.5t-35 184q0 117 34 212t91.5 155.5t132 93t158.5 32.5q171 0 285 -127t114 -327z
M516 551q53 0 79 35t26 81q0 57 -59.5 138t-127.5 81q-50 0 -85 -51.5t-44.5 -126t1.5 -157.5h210z" />
    <glyph glyph-name="e" unicode="&#xe9;" horiz-adv-x="911" 
d="M864 506v-17h-550l4 -22q28 -129 108.5 -202.5t187.5 -78.5q59 -4 109 29t81 96q2 6 9.5 8.5t14 0.5t5.5 -9q-26 -139 -125.5 -224.5t-237.5 -85.5q-82 0 -159 36t-134.5 97.5t-92.5 148.5t-35 184q0 117 34 212t91.5 155.5t132 93t158.5 32.5q171 0 285 -127t114 -327z
M516 551q53 0 79 35t26 81q0 57 -59.5 138t-127.5 81q-50 0 -85 -51.5t-44.5 -126t1.5 -157.5h210z" />
    <glyph glyph-name="e" unicode="&#xe8;" horiz-adv-x="911" 
d="M864 506v-17h-550l4 -22q28 -129 108.5 -202.5t187.5 -78.5q59 -4 109 29t81 96q2 6 9.5 8.5t14 0.5t5.5 -9q-26 -139 -125.5 -224.5t-237.5 -85.5q-82 0 -159 36t-134.5 97.5t-92.5 148.5t-35 184q0 117 34 212t91.5 155.5t132 93t158.5 32.5q171 0 285 -127t114 -327z
M516 551q53 0 79 35t26 81q0 57 -59.5 138t-127.5 81q-50 0 -85 -51.5t-44.5 -126t1.5 -157.5h210z" />
    <glyph glyph-name="f" unicode="f" horiz-adv-x="749" 
d="M162 1030q0 279 168 427q123 108 292 113q152 4 257 -77q107 -81 107 -213q0 -80 -35 -143.5t-102 -75.5q-70 -11 -119 23.5t-49 103.5q37 25 51 75.5t5 99t-41.5 85t-79.5 36.5q-59 0 -94.5 -49.5t-35.5 -111.5v-361h248q13 0 13.5 -28.5t-13.5 -28.5h-248l-2 -801
q0 -25 40.5 -54.5t60.5 -29.5v-19h-522v19q18 0 57 30t39 54l3 801h-130q-14 0 -13.5 28.5t13.5 28.5h130v68z" />
    <glyph glyph-name="g" unicode="g" horiz-adv-x="954" 
d="M362 236q36 -9 106 -20t123.5 -19.5t118 -30.5t107 -51.5t71.5 -83.5t29 -126q0 -161 -111.5 -273t-294.5 -112q-105 0 -190 27t-136.5 70.5t-79 95t-27.5 105.5q-2 57 36 103t118 41q51 -4 88 -42t37 -73q-52 -65 -40 -122t72 -96t137 -39q95 0 164 43t69 118
q0 50 -31.5 85t-87.5 54.5t-110 31t-122 23t-101 20.5q-85 24 -134.5 76.5t-56 110t15.5 112t69 85.5l26 -14q-84 48 -132 123t-48 163q0 146 124.5 248.5t301.5 102.5q45 0 86 -7q28 61 78.5 99t99.5 46t91 -9.5t56 -58.5q24 -65 -24 -121q-36 -42 -74 -40q-27 2 -37 29
q-8 40 -35.5 63.5t-61 20t-57.5 -35.5q133 -33 218 -126t85 -211q0 -146 -124 -247.5t-301 -101.5q-127 0 -231 56q-28 -35 0 -52.5t120 -39.5zM473 907q-58 0 -100 -83t-42 -203t42 -202t100 -82t99.5 82t41.5 202t-41.5 203t-99.5 83z" />
    <glyph glyph-name="h" unicode="h" horiz-adv-x="1183" 
d="M1058 104q0 -25 40.5 -54.5t60.5 -29.5v-19h-522v19q18 0 57 30t39 54v560q0 75 -21 115t-54 44.5t-71.5 -11t-74.5 -45t-63 -64.5v-599q0 -25 40.5 -54.5t60.5 -29.5v-19h-521v19q18 0 57 30t39 54v1145q0 18 -9.5 34.5t-19 24.5t-23.5 17t-15 10q-5 4 -7 8t-0.5 7
t7.5 4q232 18 377 113q5 4 9.5 2t4.5 -11v-676q121 117 233 169.5t194.5 39t132 -97t49.5 -229.5v-560z" />
    <glyph glyph-name="i" unicode="i" horiz-adv-x="583" 
d="M266 1018q-78 0 -133 54t-55 131t55.5 132t132.5 55t131 -55t54 -132t-54 -131t-131 -54zM456 104q0 -25 40.5 -54.5t60.5 -29.5v-19h-522v19q18 0 57 30t39 54v678q0 18 -9.5 34.5t-19 25t-23.5 17.5t-15 10q-5 4 -7 8t-0.5 7t7.5 4q232 18 377 113q5 4 10 1.5t5 -11.5
v-55v-832z" />
    <glyph glyph-name="i" unicode="&#xef;" horiz-adv-x="583" 
d="M266 1018q-78 0 -133 54t-55 131t55.5 132t132.5 55t131 -55t54 -132t-54 -131t-131 -54zM456 104q0 -25 40.5 -54.5t60.5 -29.5v-19h-522v19q18 0 57 30t39 54v678q0 18 -9.5 34.5t-19 25t-23.5 17.5t-15 10q-5 4 -7 8t-0.5 7t7.5 4q232 18 377 113q5 4 10 1.5t5 -11.5
v-55v-832z" />
    <glyph glyph-name="i" unicode="&#xee;" horiz-adv-x="583" 
d="M266 1018q-78 0 -133 54t-55 131t55.5 132t132.5 55t131 -55t54 -132t-54 -131t-131 -54zM456 104q0 -25 40.5 -54.5t60.5 -29.5v-19h-522v19q18 0 57 30t39 54v678q0 18 -9.5 34.5t-19 25t-23.5 17.5t-15 10q-5 4 -7 8t-0.5 7t7.5 4q232 18 377 113q5 4 10 1.5t5 -11.5
v-55v-832z" />
    <glyph glyph-name="i" unicode="&#xed;" horiz-adv-x="583" 
d="M266 1018q-78 0 -133 54t-55 131t55.5 132t132.5 55t131 -55t54 -132t-54 -131t-131 -54zM456 104q0 -25 40.5 -54.5t60.5 -29.5v-19h-522v19q18 0 57 30t39 54v678q0 18 -9.5 34.5t-19 25t-23.5 17.5t-15 10q-5 4 -7 8t-0.5 7t7.5 4q232 18 377 113q5 4 10 1.5t5 -11.5
v-55v-832z" />
    <glyph glyph-name="i" unicode="&#xec;" horiz-adv-x="583" 
d="M266 1018q-78 0 -133 54t-55 131t55.5 132t132.5 55t131 -55t54 -132t-54 -131t-131 -54zM456 104q0 -25 40.5 -54.5t60.5 -29.5v-19h-522v19q18 0 57 30t39 54v678q0 18 -9.5 34.5t-19 25t-23.5 17.5t-15 10q-5 4 -7 8t-0.5 7t7.5 4q232 18 377 113q5 4 10 1.5t5 -11.5
v-55v-832z" />
    <glyph glyph-name="j" unicode="j" horiz-adv-x="530" 
d="M424 1001q5 4 10 1.5t5 -11.5v-55v-935q0 -93 -62 -176.5t-171.5 -135t-237.5 -51.5q-5 0 -4.5 18.5t4.5 22.5q69 57 107.5 141t38.5 181v781q0 18 -9.5 34.5t-19 25t-23.5 17.5t-15 10q-5 4 -7 8t-0.5 7t7.5 4q232 18 377 113zM249 1018q-78 0 -133 54t-55 131t55.5 132
t132.5 55t131 -55t54 -132t-54 -131t-131 -54z" />
    <glyph glyph-name="k" unicode="k" horiz-adv-x="1173" 
d="M1043 140q47 -53 83 -86.5t47 -33.5v-19h-462v19q11 0 24 17t11.5 46.5t-27.5 56.5l-238 334l-32 -40v-294q0 -26 41.5 -73t59.5 -47v-19h-521v19q16 0 56 47.5t40 72.5v1142q0 18 -9.5 34.5t-19 25t-23.5 17.5t-15 10q-5 4 -7 8t-0.5 7t7.5 4q232 18 377 113
q5 4 9.5 1.5t4.5 -11.5v-964l178 231q42 57 35.5 98t-29 64.5t-37.5 22.5v20h363v-20q-31 0 -110 -56t-150 -129l-65 -84z" />
    <glyph glyph-name="l" unicode="l" horiz-adv-x="577" 
d="M449 104q0 -25 40.5 -54.5t60.5 -29.5v-19h-521v19q18 0 57 30t39 54v1159q0 18 -9.5 34.5t-19 25t-23.5 17.5t-15 10q-5 4 -7 8t-0.5 7t7.5 4q232 18 377 113q5 4 9.5 1.5t4.5 -11.5v-55v-1313z" />
    <glyph glyph-name="m" unicode="m" horiz-adv-x="1796" 
d="M1670 104q0 -25 40.5 -54.5t60.5 -29.5v-19h-522v19q18 0 57 30t39 54v560q0 74 -21 114t-53 44.5t-70.5 -11t-74 -44t-62.5 -62.5v-601q0 -25 40.5 -54.5t60.5 -29.5v-19h-522v19q18 0 57 30t39 54v560q0 75 -21 115t-53.5 44.5t-71.5 -11t-74.5 -45t-62.5 -64.5v-599
q0 -25 40.5 -54.5t60.5 -29.5v-19h-522v19q18 0 57 30t39 54v678q0 18 -9.5 34.5t-19 25t-23.5 17.5t-15 10q-5 4 -7 8t-0.5 7t7.5 4q232 18 377 113q5 4 10 1.5t5 -11.5v-55v-154q145 139 273 187.5t214 -1t111 -191.5q162 156 303.5 199.5t227 -37.5t85.5 -275v-560z" />
    <glyph glyph-name="n" unicode="n" horiz-adv-x="1189" 
d="M1064 104q0 -25 40.5 -54.5t60.5 -29.5v-19h-522v19q18 0 57 30t39 54v560q0 75 -21 115t-53.5 44.5t-71.5 -11t-74.5 -45t-62.5 -64.5v-599q0 -25 40.5 -54.5t60.5 -29.5v-19h-522v19q18 0 57 30t39 54v678q0 18 -9.5 34.5t-19 25t-23.5 17.5t-15 10q-5 4 -7 8t-0.5 7
t7.5 4q232 18 377 113q5 4 10 1.5t5 -11.5v-55v-154q97 93 188.5 147t167 62t132.5 -23t88.5 -109t31.5 -195v-560z" />
    <glyph glyph-name="n" unicode="&#xf1;" horiz-adv-x="1189" 
d="M1064 104q0 -25 40.5 -54.5t60.5 -29.5v-19h-522v19q18 0 57 30t39 54v560q0 75 -21 115t-53.5 44.5t-71.5 -11t-74.5 -45t-62.5 -64.5v-599q0 -25 40.5 -54.5t60.5 -29.5v-19h-522v19q18 0 57 30t39 54v678q0 18 -9.5 34.5t-19 25t-23.5 17.5t-15 10q-5 4 -7 8t-0.5 7
t7.5 4q232 18 377 113q5 4 10 1.5t5 -11.5v-55v-154q97 93 188.5 147t167 62t132.5 -23t88.5 -109t31.5 -195v-560z" />
    <glyph glyph-name="o" unicode="o" horiz-adv-x="1056" 
d="M526 994q131 0 242.5 -66.5t176 -180.5t64.5 -249q0 -205 -141.5 -350t-341.5 -145q-129 0 -240 66t-176 180.5t-65 248.5t65 248.5t176 181t240 66.5zM526 66q74 0 127 127t53 305q0 117 -24 217t-65.5 158t-90.5 58q-72 0 -125 -127.5t-53 -305.5t53 -305t125 -127z
" />
    <glyph glyph-name="o" unicode="&#xf8;" horiz-adv-x="1056" 
d="M526 994q131 0 242.5 -66.5t176 -180.5t64.5 -249q0 -205 -141.5 -350t-341.5 -145q-129 0 -240 66t-176 180.5t-65 248.5t65 248.5t176 181t240 66.5zM526 66q74 0 127 127t53 305q0 117 -24 217t-65.5 158t-90.5 58q-72 0 -125 -127.5t-53 -305.5t53 -305t125 -127z
" />
    <glyph glyph-name="o" unicode="&#xf6;" horiz-adv-x="1056" 
d="M526 994q131 0 242.5 -66.5t176 -180.5t64.5 -249q0 -205 -141.5 -350t-341.5 -145q-129 0 -240 66t-176 180.5t-65 248.5t65 248.5t176 181t240 66.5zM526 66q74 0 127 127t53 305q0 117 -24 217t-65.5 158t-90.5 58q-72 0 -125 -127.5t-53 -305.5t53 -305t125 -127z
" />
    <glyph glyph-name="o" unicode="&#xf5;" horiz-adv-x="1056" 
d="M526 994q131 0 242.5 -66.5t176 -180.5t64.5 -249q0 -205 -141.5 -350t-341.5 -145q-129 0 -240 66t-176 180.5t-65 248.5t65 248.5t176 181t240 66.5zM526 66q74 0 127 127t53 305q0 117 -24 217t-65.5 158t-90.5 58q-72 0 -125 -127.5t-53 -305.5t53 -305t125 -127z
" />
    <glyph glyph-name="o" unicode="&#xf4;" horiz-adv-x="1056" 
d="M526 994q131 0 242.5 -66.5t176 -180.5t64.5 -249q0 -205 -141.5 -350t-341.5 -145q-129 0 -240 66t-176 180.5t-65 248.5t65 248.5t176 181t240 66.5zM526 66q74 0 127 127t53 305q0 117 -24 217t-65.5 158t-90.5 58q-72 0 -125 -127.5t-53 -305.5t53 -305t125 -127z
" />
    <glyph glyph-name="o" unicode="&#xf3;" horiz-adv-x="1056" 
d="M526 994q131 0 242.5 -66.5t176 -180.5t64.5 -249q0 -205 -141.5 -350t-341.5 -145q-129 0 -240 66t-176 180.5t-65 248.5t65 248.5t176 181t240 66.5zM526 66q74 0 127 127t53 305q0 117 -24 217t-65.5 158t-90.5 58q-72 0 -125 -127.5t-53 -305.5t53 -305t125 -127z
" />
    <glyph glyph-name="o" unicode="&#xf2;" horiz-adv-x="1056" 
d="M526 994q131 0 242.5 -66.5t176 -180.5t64.5 -249q0 -205 -141.5 -350t-341.5 -145q-129 0 -240 66t-176 180.5t-65 248.5t65 248.5t176 181t240 66.5zM526 66q74 0 127 127t53 305q0 117 -24 217t-65.5 158t-90.5 58q-72 0 -125 -127.5t-53 -305.5t53 -305t125 -127z
" />
    <glyph glyph-name="p" unicode="p" horiz-adv-x="1089" 
d="M658 996q75 0 142 -32.5t119 -93.5t83 -156t31 -211q0 -119 -30.5 -215t-83 -156t-119.5 -92t-142 -32q-123 0 -219 101v-486q0 -25 40.5 -54.5t60.5 -29.5v-19h-522v19q18 0 57.5 30t39.5 54v1159q0 18 -9.5 34.5t-19.5 25t-24 17.5t-15 10q-5 4 -7 8t-0.5 7t7.5 4
q233 18 378 113q5 4 9.5 1.5t4.5 -11.5v-55v-41q98 101 219 101zM740 508q8 170 -35.5 288.5t-113.5 122.5q-49 1 -89.5 -57t-62.5 -157v-459q39 -129 111 -132q43 -2 84.5 50t70 144t35.5 200z" />
    <glyph glyph-name="q" unicode="q" horiz-adv-x="1079" 
d="M1056 -360q5 -4 7 -8t0.5 -7t-7.5 -4q-102 -4 -202.5 -34t-175.5 -79q-5 -4 -9.5 -1.5t-4.5 11.5v55l-5 524q-93 -96 -214 -96q-77 0 -145 28t-124.5 85t-89.5 155t-33 225q0 111 33.5 205.5t88.5 156.5t125.5 97t144.5 36h3q76 1 141 -12t102 -28.5t84.5 -28.5t92.5 -13
q28 0 49 13t30.5 26t33.5 50q7 10 7 0v-1269q0 -18 9.5 -34.5t19.5 -25t24 -17.5t15 -10zM657 458v4l-3 246q-11 95 -39.5 153.5t-70.5 62.5q-42 3 -82.5 -56t-68.5 -158.5t-39 -215.5q-17 -182 11 -307.5t95 -132.5q70 -7 125 109t72 295z" />
    <glyph glyph-name="r" unicode="r" horiz-adv-x="901" 
d="M874 898q30 -79 -25 -150q-40 -53 -90 -60q-46 -7 -61 36q-13 58 -58 87t-98.5 15t-85.5 -70v-652q0 -25 40.5 -54.5t60.5 -29.5v-19h-522v19q18 0 57 30t39 54v678q0 18 -9.5 34.5t-19 25t-23.5 17.5t-15 10q-5 4 -7 8t-0.5 7t7.5 4q232 18 377 113q5 4 10 1.5t5 -11.5
v-55v-103q57 91 146.5 133.5t167 23.5t104.5 -92z" />
    <glyph glyph-name="s" unicode="s" horiz-adv-x="806" 
d="M473 616q118 -82 151 -111q110 -97 125 -221q3 -23 3 -48q0 -66 -32.5 -114.5t-89 -74.5t-121.5 -37.5t-141 -11.5q-72 0 -142 19.5t-77 19.5q-15 0 -24.5 -11t-19.5 -35h-21l-5 245h26q18 -95 89.5 -137.5t160.5 -42.5q70 0 123 37t53 90q0 21 -11 41.5t-25 35.5
t-43.5 34.5t-48.5 30.5t-58 32t-57 31q-53 30 -89 56.5t-71.5 64t-53 85.5t-17.5 106q0 120 98 198.5t253 78.5q49 0 95 -14.5t73.5 -31.5t50 -31.5t29.5 -14.5t12 4t8 8.5t9 16.5h14v-247h-21q0 88 -80 165.5t-185 77.5q-68 0 -112.5 -26t-43.5 -73q1 -23 13 -44.5
t36.5 -41t47 -34.5t60 -37.5t59.5 -37.5z" />
    <glyph glyph-name="t" unicode="t" horiz-adv-x="667" 
d="M633 962q11 0 11.5 -28.5t-11.5 -28.5h-178l3 -762q0 -42 22 -64t55 -18q33 7 51.5 25.5t29.5 51.5q3 9 12 9q10 0 10 -9q-10 -86 -84.5 -128.5t-184.5 -42.5q-85 0 -160.5 57t-75.5 119l-2 721q0 13 -4 22t-8.5 14t-14 8t-14 4t-15.5 1.5t-12 0.5q-26 0 -34.5 8.5
t1 21.5t33.5 26l35 18q36 19 71.5 41.5t83.5 58.5t98 89t90 115q6 9 12 -2l2 -8v-320h178z" />
    <glyph glyph-name="u" unicode="u" horiz-adv-x="1159" 
d="M1110 135q5 -4 7 -8t0.5 -7t-7.5 -4q-232 -18 -377 -113q-5 -4 -9.5 -1.5t-4.5 11.5v209q-121 -117 -233 -169.5t-194.5 -39t-132 97t-49.5 229.5v442q0 18 -9.5 34.5t-19 25t-23.5 17.5t-15 10q-5 4 -7 8t-0.5 7t7.5 4q105 8 206.5 37t170.5 76q5 4 10 1.5t5 -11.5v-651
q0 -75 21 -115t54 -44.5t71.5 11t74.5 45t63 64.5v481q0 18 -9.5 34.5t-19.5 25t-24 17.5t-15 10q-5 4 -7 8t-0.5 7t7.5 4q105 8 207 37t171 76q5 4 9.5 1.5t4.5 -11.5v-769q0 -18 9.5 -34.5t19 -25t23.5 -17.5t15 -10z" />
    <glyph glyph-name="u" unicode="&#xfc;" horiz-adv-x="1159" 
d="M1110 135q5 -4 7 -8t0.5 -7t-7.5 -4q-232 -18 -377 -113q-5 -4 -9.5 -1.5t-4.5 11.5v209q-121 -117 -233 -169.5t-194.5 -39t-132 97t-49.5 229.5v442q0 18 -9.5 34.5t-19 25t-23.5 17.5t-15 10q-5 4 -7 8t-0.5 7t7.5 4q105 8 206.5 37t170.5 76q5 4 10 1.5t5 -11.5v-651
q0 -75 21 -115t54 -44.5t71.5 11t74.5 45t63 64.5v481q0 18 -9.5 34.5t-19.5 25t-24 17.5t-15 10q-5 4 -7 8t-0.5 7t7.5 4q105 8 207 37t171 76q5 4 9.5 1.5t4.5 -11.5v-769q0 -18 9.5 -34.5t19 -25t23.5 -17.5t15 -10z" />
    <glyph glyph-name="u" unicode="&#xfb;" horiz-adv-x="1159" 
d="M1110 135q5 -4 7 -8t0.5 -7t-7.5 -4q-232 -18 -377 -113q-5 -4 -9.5 -1.5t-4.5 11.5v209q-121 -117 -233 -169.5t-194.5 -39t-132 97t-49.5 229.5v442q0 18 -9.5 34.5t-19 25t-23.5 17.5t-15 10q-5 4 -7 8t-0.5 7t7.5 4q105 8 206.5 37t170.5 76q5 4 10 1.5t5 -11.5v-651
q0 -75 21 -115t54 -44.5t71.5 11t74.5 45t63 64.5v481q0 18 -9.5 34.5t-19.5 25t-24 17.5t-15 10q-5 4 -7 8t-0.5 7t7.5 4q105 8 207 37t171 76q5 4 9.5 1.5t4.5 -11.5v-769q0 -18 9.5 -34.5t19 -25t23.5 -17.5t15 -10z" />
    <glyph glyph-name="u" unicode="&#xfa;" horiz-adv-x="1159" 
d="M1110 135q5 -4 7 -8t0.5 -7t-7.5 -4q-232 -18 -377 -113q-5 -4 -9.5 -1.5t-4.5 11.5v209q-121 -117 -233 -169.5t-194.5 -39t-132 97t-49.5 229.5v442q0 18 -9.5 34.5t-19 25t-23.5 17.5t-15 10q-5 4 -7 8t-0.5 7t7.5 4q105 8 206.5 37t170.5 76q5 4 10 1.5t5 -11.5v-651
q0 -75 21 -115t54 -44.5t71.5 11t74.5 45t63 64.5v481q0 18 -9.5 34.5t-19.5 25t-24 17.5t-15 10q-5 4 -7 8t-0.5 7t7.5 4q105 8 207 37t171 76q5 4 9.5 1.5t4.5 -11.5v-769q0 -18 9.5 -34.5t19 -25t23.5 -17.5t15 -10z" />
    <glyph glyph-name="u" unicode="&#xf9;" horiz-adv-x="1159" 
d="M1110 135q5 -4 7 -8t0.5 -7t-7.5 -4q-232 -18 -377 -113q-5 -4 -9.5 -1.5t-4.5 11.5v209q-121 -117 -233 -169.5t-194.5 -39t-132 97t-49.5 229.5v442q0 18 -9.5 34.5t-19 25t-23.5 17.5t-15 10q-5 4 -7 8t-0.5 7t7.5 4q105 8 206.5 37t170.5 76q5 4 10 1.5t5 -11.5v-651
q0 -75 21 -115t54 -44.5t71.5 11t74.5 45t63 64.5v481q0 18 -9.5 34.5t-19.5 25t-24 17.5t-15 10q-5 4 -7 8t-0.5 7t7.5 4q105 8 207 37t171 76q5 4 9.5 1.5t4.5 -11.5v-769q0 -18 9.5 -34.5t19 -25t23.5 -17.5t15 -10z" />
    <glyph glyph-name="v" unicode="v" horiz-adv-x="999" 
d="M663 958l334 -3v-19q-35 0 -77.5 -44t-80.5 -139l-272 -731l-5 -21h-74h-80l-305 822q-21 41 -53 80.5t-48 39.5v20h522v-20q-11 0 -38 -18.5t-47.5 -48t-10.5 -53.5q110 -358 168 -531l171 461q14 49 5 84.5t-33 57.5t-44.5 32.5t-31.5 10.5v20z" />
    <glyph glyph-name="w" unicode="w" horiz-adv-x="1611" 
d="M1276 960l334 -2v-20q-35 0 -77.5 -43.5t-80.5 -138.5l-272 -731l-5 -22h-74h-80l-202 565l-266 -558q-3 -8 -3 -9h-2h-152l-293 822q-12 41 -47.5 80.5t-53.5 39.5v19h522v-19q-24 0 -68.5 -39t-27.5 -81q120 -419 168 -570l192 402l-60 170q-21 41 -53 81t-48 40v19
h522v-19q-21 0 -65.5 -43t-30.5 -78q103 -355 156 -528l171 459q14 50 5 85t-33 57t-44.5 32.5t-31.5 10.5v19z" />
    <glyph glyph-name="x" unicode="x" horiz-adv-x="1050" 
d="M1040 936q-30 0 -123.5 -70t-126.5 -115l-149 -188l264 -423q29 -47 58.5 -76t45.5 -36.5t26 -7.5v-19h-461v19q11 0 20 12t8 41t-21 67l-123 195l-101 -130q-37 -55 -27.5 -96t31.5 -65t37 -24v-19h-363v19q30 0 123.5 70t126.5 115l142 180l-272 433q-22 36 -47.5 62
t-46 37.5t-34.5 16t-21 4.5v20h498v-20q-12 0 -24.5 -13t-17 -39.5t17.5 -67.5l130 -204l108 137q37 55 27.5 96t-31.5 65t-37 24v19h363v-19z" />
    <glyph glyph-name="y" unicode="y" horiz-adv-x="995" 
d="M661 958l334 -3v-19q-35 0 -78 -44t-81 -139l-384 -978q-88 -238 -212 -238q-74 0 -109 54.5t-20 112.5t64 66q21 -33 63 -40.5t86 17.5t67 78l56 137h-24l-320 861q-21 41 -53 80.5t-48 39.5v20h522v-20q-11 0 -38 -18.5t-47.5 -48t-10.5 -53.5q101 -346 156 -519
l180 449q14 49 5.5 84.5t-32.5 57.5t-44.5 32.5t-31.5 10.5v20z" />
    <glyph glyph-name="y" unicode="&#xff;" horiz-adv-x="995" 
d="M661 958l334 -3v-19q-35 0 -78 -44t-81 -139l-384 -978q-88 -238 -212 -238q-74 0 -109 54.5t-20 112.5t64 66q21 -33 63 -40.5t86 17.5t67 78l56 137h-24l-320 861q-21 41 -53 80.5t-48 39.5v20h522v-20q-11 0 -38 -18.5t-47.5 -48t-10.5 -53.5q101 -346 156 -519
l180 449q14 49 5.5 84.5t-32.5 57.5t-44.5 32.5t-31.5 10.5v20z" />
    <glyph glyph-name="y" unicode="&#xfd;" horiz-adv-x="995" 
d="M661 958l334 -3v-19q-35 0 -78 -44t-81 -139l-384 -978q-88 -238 -212 -238q-74 0 -109 54.5t-20 112.5t64 66q21 -33 63 -40.5t86 17.5t67 78l56 137h-24l-320 861q-21 41 -53 80.5t-48 39.5v20h522v-20q-11 0 -38 -18.5t-47.5 -48t-10.5 -53.5q101 -346 156 -519
l180 449q14 49 5.5 84.5t-32.5 57.5t-44.5 32.5t-31.5 10.5v20z" />
    <glyph glyph-name="z" unicode="z" horiz-adv-x="843" 
d="M736 345q4 5 20 5t16 -5v-344h-745l466 918q-169 -1 -247 -45t-145 -171q-4 -5 -20 -5t-16 5l39 259h704l-464 -916q294 20 392 299z" />
    <glyph glyph-name="nonbreakingspace" unicode="&#xa0;" horiz-adv-x="577" 
 />
    <glyph glyph-name="softhyphen" unicode="&#xad;" 
 />
    </font>
</defs>
</svg>
