<svg id="Layer_1" data-name="Layer 1" xmlns="http://www.w3.org/2000/svg" viewBox="0 0 45 45"><defs><style>.cls-1{fill:#d30913;}</style></defs><path class="cls-1" d="M35.58,29.46c-.67-1.25-1.93-1.7-1.71-4.41s3.06-6.34.91-13.13S25.12,4.79,22.5,4.79s-10.13.34-12.28,7.13.68,10.41.91,13.13-1,3.16-1.71,4.41.35,3.17,1.14,4S14.18,34,15,35.57s.9,4.64,7.52,4.64,6.73-3.06,7.53-4.64,3.62-1.36,4.41-2.15S36.25,30.7,35.58,29.46Zm-18.7-2.21c-1.81.25-3.52-.14-3.86-1.39a3.56,3.56,0,0,1,2.72-4.3c2.6-.68,4.82.44,5.09,1.82C21.28,25.64,18.68,27,16.88,27.25Zm7.9,6c-.79,2-1.58,0-2.28,0s-1.49,2-2.28,0S22,28.58,22.5,28.58,25.57,31.19,24.78,33.22ZM32,25.86c-.34,1.25-2.05,1.64-3.86,1.39s-4.4-1.61-3.95-3.87c.27-1.38,2.49-2.49,5.09-1.82A3.56,3.56,0,0,1,32,25.86Z"/><path class="cls-1" d="M36.55,11.72,42,6.23a1.68,1.68,0,0,0,0-2.38L41.15,3a1.68,1.68,0,0,0-2.38,0l-4.5,4.5a10.78,10.78,0,0,1,2.18,3.93C36.49,11.5,36.52,11.61,36.55,11.72Z"/><path class="cls-1" d="M9.32,34.66a6.31,6.31,0,0,1-1-1.28L3,38.77a1.68,1.68,0,0,0,0,2.38l.89.89a1.68,1.68,0,0,0,2.38,0l6.13-6.13-.57-.14A5,5,0,0,1,9.32,34.66Z"/><path class="cls-1" d="M8.45,11.72c0-.11.06-.22.1-.33a10.93,10.93,0,0,1,2.18-3.93L6.23,3A1.68,1.68,0,0,0,3.85,3L3,3.85A1.68,1.68,0,0,0,3,6.23Z"/><path class="cls-1" d="M36.65,33.38a6.31,6.31,0,0,1-1,1.28,5,5,0,0,1-2.47,1.11l-.57.14L38.77,42a1.68,1.68,0,0,0,2.38,0l.89-.89a1.69,1.69,0,0,0,0-2.39Z"/></svg>