<svg id="Layer_1" data-name="Layer 1" xmlns="http://www.w3.org/2000/svg" viewBox="0 0 100 100"><defs><style>.cls-1{fill:#084298;}</style></defs><path class="cls-1" d="M50,5A45,45,0,1,0,95,50,45,45,0,0,0,50,5Zm7.54,66.08c-2.56,3.6-5.11,6.07-7.86,7.45a13.6,13.6,0,0,1-6.42,1.38c-5.81-.48-8.51-4.87-6-11.84l7.64-21c1.65-4.54,0-5.91-1.26-5.95q-2.34,0-5.58,4.38a1.16,1.16,0,0,1-1.61.26,1.14,1.14,0,0,1-.27-1.6c2.55-3.6,5.11-6.07,7.86-7.46a13.7,13.7,0,0,1,6.41-1.37c5.82.48,8.52,4.87,6,11.83l-7.64,21c-1.65,4.53,0,5.91,1.26,6q2.33,0,5.58-4.38a1.15,1.15,0,0,1,1.61-.27,1.17,1.17,0,0,1,.27,1.61Zm6.13-43.71a5.43,5.43,0,1,1-3.25-7,5.43,5.43,0,0,1,3.25,7Z"/></svg>