<svg xmlns="http://www.w3.org/2000/svg" viewBox="0 0 100 100"><defs><style>.cls-1{fill:#cec413;}</style></defs><g id="Layer_1" data-name="Layer 1"><path class="cls-1" d="M94.7,81.57,54.9,12.68a5.72,5.72,0,0,0-9.9,0L5.2,81.57a5.72,5.72,0,0,0,4.9,8.61H89.7A5.73,5.73,0,0,0,94.7,81.57Zm-46-47.8a5.18,5.18,0,0,1,5.9,2.8,4.42,4.42,0,0,1,.4,2.5c-.2,2.5-.3,5-.4,7.61-.2,3.89-.5,7.89-.7,11.79-.1,1.21-.1,2.4-.2,3.71a3.78,3.78,0,0,1-3.8,3.7,3.83,3.83,0,0,1-3.8-3.6c-.3-6.1-.7-12.21-1-18.3-.1-1.61-.2-3.3-.3-4.9A5.49,5.49,0,0,1,48.7,33.77ZM50,79.57a5,5,0,0,1-5-5.1,5.13,5.13,0,0,1,5.1-5.1,5.06,5.06,0,0,1,5,5.2A5.24,5.24,0,0,1,50,79.57Z"/></g></svg>