<?xml version="1.0" standalone="no"?>
<!DOCTYPE svg PUBLIC "-//W3C//DTD SVG 1.1//EN" "http://www.w3.org/Graphics/SVG/1.1/DTD/svg11.dtd" >
<svg xmlns="http://www.w3.org/2000/svg" xmlns:xlink="http://www.w3.org/1999/xlink" version="1.1">
<metadata>
Created by FontForge 20170731 at Mon May 31 12:49:11 2021
 By Aleksey,,,
(c)typefactory
</metadata>
<defs>
<font id="DayNNiteFreeTrial-Regular" horiz-adv-x="976" >
  <font-face 
    font-family="Day n Nite Free Trial"
    font-weight="400"
    font-stretch="normal"
    units-per-em="2048"
    panose-1="0 0 0 0 0 0 0 0 0 0"
    ascent="1638"
    descent="-410"
    x-height="1092"
    cap-height="1442"
    bbox="-520.624 -590.333 1575 1466"
    underline-thickness="102"
    underline-position="-307"
    unicode-range="U+000A-FB06"
  />
<missing-glyph horiz-adv-x="1079" 
d="M102 1434h875v-1434h-875v1434zM160 1393l379 -633l381 633h-760zM514 717l-369 614v-1231zM541 674l-379 -631h758zM565 717l371 -621v1239z" />
    <glyph glyph-name="fj.liga" unicode="fj" horiz-adv-x="993" 
d="M940 846q2 -1 1 -109.5t-1 -109.5q-4 -492 -8 -742q0 -100 -12 -202q-14 -117 -68.5 -177t-181.5 -84q-45 -9 -104.5 -11t-88 -1t-106.5 6q-119 8 -187 131q-25 44 -30 82q-14 87 -17 193q-2 24 6.5 32.5t32.5 8.5q1 1 106.5 0.5t106.5 -0.5q35 -3 35 -41q0 -2 6 -125
q11 -97 51 -152q15 -22 43 -24.5t47 16.5q36 33 45 82q21 100 23 143q6 226 10 682q4 242 4 359q-12 -2 -35 -2q-44 -1 -132.5 -2t-133.5 -2h-10v-248h-2q4 -163 8 -477q0 -3 0.5 -9.5t0.5 -12t-1 -9.5q-2 -26 -11 -35.5t-34 -9.5q-99 -3 -197 0q-27 1 -35 10t-10 39
q-1 158 -4 473.5t-4 472.5q0 134 41 250q58 166 219 199q90 16 140 16q138 3 258 -8q110 -9 166 -117q30 -58 39.5 -120.5t11.5 -151.5q3 -41 -37 -41h-213q-34 0 -37 47q-9 121 -18 160q-14 56 -54 121q-18 27 -37 30.5t-49 -14.5q-57 -30 -90 -102q-49 -112 -49 -248
q-2 -51 -2 -152q46 1 136.5 2t135.5 2q6 0 19.5 -1t19.5 -1q1 19 11.5 26t33.5 7q65 2 197 -2q28 0 36.5 -9t8.5 -38z" />
    <glyph glyph-name="ff" unicode="ff" horiz-adv-x="1499" 
d="M1466 1331q30 -58 40 -121.5t12 -150.5q3 -41 -37 -41h-213q-20 1 -27.5 12.5t-9.5 34.5q-2 17 -4.5 50.5t-6 59.5t-8.5 50q-15 62 -55 121q-17 27 -35.5 30.5t-48.5 -14.5q-57 -30 -90 -102q-48 -109 -51 -248v-152q45 1 136 2t136 2q34 0 64 -6q3 -1 5.5 -5t7 -12
t5.5 -10q-2 -2 -5.5 -8.5t-6 -10t-6.5 -3.5q-24 -8 -60 -8q-44 -1 -132.5 -2t-133.5 -2h-10v-248h-2q1 -80 4 -238.5t4 -238.5v-31q-2 -25 -11.5 -35t-33.5 -10q-99 -3 -197 0q-28 2 -36.5 11t-8.5 38q-4 504 -6 758q-10 -2 -27 -2q-44 -1 -132.5 -2t-133.5 -2h-10v-248h-2
q4 -163 8 -477q0 -3 0.5 -9.5t0.5 -12t-1 -9.5q-2 -26 -11 -35.5t-34 -9.5q-99 -3 -197 0q-27 1 -35 10t-10 39q-1 158 -4 473.5t-4 472.5q0 134 41 250q58 166 219 199q90 16 140 16q138 3 258 -8q60 -6 104 -41q45 25 88 33q90 16 137 16q140 3 260 -8q107 -8 166 -117z
M614 864q5 0 15 -1t14 -1v129q0 35 2 53q-4 12 -4 21q-9 121 -18 160q-14 56 -54 121q-18 27 -37 30.5t-49 -14.5q-57 -30 -90 -102q-49 -112 -49 -248q-2 -51 -2 -152q46 1 136.5 2t135.5 2z" />
    <glyph glyph-name="fi" unicode="fi" horiz-adv-x="978" 
d="M874 877q30 0 39 -9t9 -37q1 -125 2 -373.5t2 -373.5v-21q-2 -30 -11 -40.5t-38 -10.5q-65 -2 -197 2q-25 0 -34 9.5t-9 33.5q-8 480 -4 744h-15q-44 -1 -132.5 -2t-133.5 -2h-10v-248h-2q4 -163 8 -477q0 -3 0.5 -9.5t0.5 -12t-1 -9.5q-2 -26 -11 -35.5t-34 -9.5
q-99 -3 -197 0q-27 1 -35 10t-10 39q-1 158 -4 473.5t-4 472.5q0 134 41 250q58 166 219 199q90 16 140 16q138 3 258 -8q110 -9 166 -117q30 -58 39.5 -120.5t11.5 -151.5q3 -41 -37 -41h-213q-34 0 -37 47q-9 121 -18 160q-14 56 -54 121q-18 27 -37 30.5t-49 -14.5
q-57 -30 -90 -102q-49 -112 -49 -248q-2 -51 -2 -152q46 1 136.5 2t135.5 2q4 0 12.5 -1t12.5 -1q7 17 55 17q121 0 180 -2z" />
    <glyph glyph-name="fl" unicode="fl" horiz-adv-x="1134" 
d="M1018 1434q43 0 53 -10.5t10 -55.5q-1 -133 -2 -400t-2 -401q0 -85 -1 -254.5t-1 -253.5q0 -44 -11 -54.5t-54 -12.5q-109 0 -162 2q-40 0 -50 10t-10 49q-2 139 3 965h-113q-34 0 -37 47q-9 121 -18 160q-14 56 -54 121q-18 27 -37 30.5t-49 -14.5q-57 -30 -90 -102
q-49 -112 -49 -248q-2 -51 -2 -152q48 1 143 2t142 2q35 0 65 -6q6 -1 21 -27q-1 -2 -4.5 -6.5t-5.5 -7.5t-5 -5.5t-6 -2.5q-24 -8 -61 -8q-45 -1 -135.5 -2t-135.5 -2q-12 0 -18 -2v-246h-2q4 -163 8 -477q0 -3 0.5 -9.5t0.5 -12t-1 -9.5q-2 -26 -11 -35.5t-34 -9.5
q-99 -3 -197 0q-27 1 -35 10t-10 39q-1 158 -4 473.5t-4 472.5q0 134 41 250q58 166 219 199q90 16 140 16q138 3 258 -8q44 -3 88 -29q10 17 67 17q101 0 152 -2z" />
    <glyph glyph-name="st" unicode="st" horiz-adv-x="1558" 
d="M627 2h-322q-16 5 -46.5 15.5t-45.5 15.5q-129 40 -160 176q-12 59 -14 86q-3 28 7.5 40.5t37.5 12.5q106 3 213 0q5 0 11.5 -2t14 -5.5t11.5 -4.5q-15 -68 18 -150q12 -32 45 -69q31 -31 56 -32.5t59 24.5q44 35 71 80.5t33 94.5t-18 100.5t-80 92.5q-37 29 -104 55
q-2 1 -207 74q-18 5 -47 21q-145 81 -137 213q10 177 143 241q127 62 293 62h166q66 0 110 -25q89 -49 101 -141q3 -27 7 -81.5t7 -80.5q0 -13 4 -49h107q0 7 2 22.5t2 22.5q4 352 6 530v41q-3 39 37 39q145 0 219 -2q33 0 33 -43q-3 -202 -3 -409v-203q33 -2 105 -2
q6 -1 25.5 -0.5t25.5 -1.5t16 -12.5t13 -12.5q-18 -23 -25 -24q-22 -7 -59 -11h-103q-4 -28 -4 -36v-318q0 -83 41 -176q39 -92 154 -102q15 -1 30.5 -1t34.5 0.5t29 0.5q1 0 4.5 -0.5t5 -0.5t5 -0.5t5 -1.5t4 -2t4 -2t3 -3t2.5 -4t1.5 -5t0.5 -6q-1 -5 -4.5 -9.5
t-11.5 -11.5t-9 -8q-2 -2 -28 -12h-281q-40 11 -45 12q-165 29 -203 174q-27 98 -30 174q-2 43 -2 91t1 107.5t1 92.5q0 2 -5 47h-102q-147 0 -223 2q-44 3 -55.5 15.5t-14.5 58.5q-6 97 -18 197q-2 23 -27 65q-12 26 -47 17q-75 -22 -122 -89t-40 -143q11 -110 125 -159
q2 -1 225 -80q89 -29 152 -86q125 -118 86 -252q-48 -173 -211 -223q-26 -8 -59 -21z" />
    <glyph glyph-name=".notdef" horiz-adv-x="1079" 
d="M102 1434h875v-1434h-875v1434zM160 1393l379 -633l381 633h-760zM514 717l-369 614v-1231zM541 674l-379 -631h758zM565 717l371 -621v1239z" />
    <glyph glyph-name=".null" horiz-adv-x="0" 
 />
    <glyph glyph-name=".null" horiz-adv-x="0" 
 />
    <glyph glyph-name="nonmarkingreturn" unicode="&#xa;" horiz-adv-x="0" 
 />
    <glyph glyph-name="space" unicode=" " horiz-adv-x="591" 
 />
    <glyph glyph-name="exclam" unicode="!" horiz-adv-x="407" 
d="M356 1090q0 -4 -6 -187v-108q-4 -147 -12 -363q-3 -42 -16 -53.5t-56 -11.5q-111 0 -166 2q-35 0 -45 11.5t-8 47.5q8 106 8 160q2 87 6.5 256.5t6.5 251.5q0 29 9 38t38 9q95 3 190 0q32 0 42 -10.5t9 -42.5zM303 252q39 0 39 -37q1 -20 2.5 -57t2.5 -67.5t1 -57.5
q0 -32 -10 -41.5t-41 -11.5h-188q-31 2 -40.5 11t-9.5 38q-4 118 -4 178q0 29 8 37t37 8h101h102z" />
    <glyph glyph-name="quotedbl" unicode="&#x22;" 
d="M791 991q68 0 115.5 -39t47.5 -94v-330q0 -55 -47.5 -94t-115.5 -39h-601q-68 0 -115.5 39t-47.5 94v330q0 55 47.5 94t115.5 39h601zM920 528v330q0 43 -37.5 74t-91.5 31h-601q-53 0 -91 -31t-38 -74v-330q0 -43 38 -73.5t91 -30.5h601q54 0 91.5 30.5t37.5 73.5z
M252 750v-41h-51v125h125v-31h-74v-23h65v-30h-65zM395 741v-32h-53v125h76q32 0 50.5 -13t18.5 -35q0 -26 -28 -38l33 -39h-56l-26 32h-15zM395 801v-29h19q22 0 22 14q0 15 -22 15h-19zM637 741v-32h-129v125h127v-31h-76v-15h66v-30h-66v-17h78zM786 741v-32h-129v125
h127v-31h-75v-15h65v-30h-65v-17h77zM229 584l23 43h31l-39 -72h-29l-39 72h33zM315 582v-9h45v-18h-75v72h73v-19h-43v-8h39v-18h-39zM457 600q0 -15 -17 -22l19 -23h-33l-14 18h-9v-18h-30v72h43q41 0 41 -27zM414 592q12 0 12 8t-12 8h-11v-16h11zM496 606
q0 -3 24.5 -7.5t24.5 -20.5q0 -25 -43 -25q-24 0 -39 6l10 19q14 -7 31 -7q10 0 10 4q0 2 -24.5 7.5t-24.5 21.5q0 25 41 25q23 0 35 -6l-9 -19q-15 6 -26 6q-10 0 -10 -4zM553 555v72h31v-72h-31zM647 629q22 0 36.5 -11t14.5 -28q0 -15 -14.5 -26t-36.5 -11q-23 0 -37 11
t-14 26q0 17 14 28t37 11zM647 571q8 0 14.5 6t6.5 13q0 18 -21 18q-20 0 -20 -18q0 -8 5.5 -13.5t14.5 -5.5zM768 594v33h31v-72h-27l-33 33v-33h-30v72h24z" />
    <glyph glyph-name="quotedbl" unicode="&#x201d;" 
d="M791 991q68 0 115.5 -39t47.5 -94v-330q0 -55 -47.5 -94t-115.5 -39h-601q-68 0 -115.5 39t-47.5 94v330q0 55 47.5 94t115.5 39h601zM920 528v330q0 43 -37.5 74t-91.5 31h-601q-53 0 -91 -31t-38 -74v-330q0 -43 38 -73.5t91 -30.5h601q54 0 91.5 30.5t37.5 73.5z
M252 750v-41h-51v125h125v-31h-74v-23h65v-30h-65zM395 741v-32h-53v125h76q32 0 50.5 -13t18.5 -35q0 -26 -28 -38l33 -39h-56l-26 32h-15zM395 801v-29h19q22 0 22 14q0 15 -22 15h-19zM637 741v-32h-129v125h127v-31h-76v-15h66v-30h-66v-17h78zM786 741v-32h-129v125
h127v-31h-75v-15h65v-30h-65v-17h77zM229 584l23 43h31l-39 -72h-29l-39 72h33zM315 582v-9h45v-18h-75v72h73v-19h-43v-8h39v-18h-39zM457 600q0 -15 -17 -22l19 -23h-33l-14 18h-9v-18h-30v72h43q41 0 41 -27zM414 592q12 0 12 8t-12 8h-11v-16h11zM496 606
q0 -3 24.5 -7.5t24.5 -20.5q0 -25 -43 -25q-24 0 -39 6l10 19q14 -7 31 -7q10 0 10 4q0 2 -24.5 7.5t-24.5 21.5q0 25 41 25q23 0 35 -6l-9 -19q-15 6 -26 6q-10 0 -10 -4zM553 555v72h31v-72h-31zM647 629q22 0 36.5 -11t14.5 -28q0 -15 -14.5 -26t-36.5 -11q-23 0 -37 11
t-14 26q0 17 14 28t37 11zM647 571q8 0 14.5 6t6.5 13q0 18 -21 18q-20 0 -20 -18q0 -8 5.5 -13.5t14.5 -5.5zM768 594v33h31v-72h-27l-33 33v-33h-30v72h24z" />
    <glyph glyph-name="quotedbl" unicode="&#x201c;" 
d="M791 991q68 0 115.5 -39t47.5 -94v-330q0 -55 -47.5 -94t-115.5 -39h-601q-68 0 -115.5 39t-47.5 94v330q0 55 47.5 94t115.5 39h601zM920 528v330q0 43 -37.5 74t-91.5 31h-601q-53 0 -91 -31t-38 -74v-330q0 -43 38 -73.5t91 -30.5h601q54 0 91.5 30.5t37.5 73.5z
M252 750v-41h-51v125h125v-31h-74v-23h65v-30h-65zM395 741v-32h-53v125h76q32 0 50.5 -13t18.5 -35q0 -26 -28 -38l33 -39h-56l-26 32h-15zM395 801v-29h19q22 0 22 14q0 15 -22 15h-19zM637 741v-32h-129v125h127v-31h-76v-15h66v-30h-66v-17h78zM786 741v-32h-129v125
h127v-31h-75v-15h65v-30h-65v-17h77zM229 584l23 43h31l-39 -72h-29l-39 72h33zM315 582v-9h45v-18h-75v72h73v-19h-43v-8h39v-18h-39zM457 600q0 -15 -17 -22l19 -23h-33l-14 18h-9v-18h-30v72h43q41 0 41 -27zM414 592q12 0 12 8t-12 8h-11v-16h11zM496 606
q0 -3 24.5 -7.5t24.5 -20.5q0 -25 -43 -25q-24 0 -39 6l10 19q14 -7 31 -7q10 0 10 4q0 2 -24.5 7.5t-24.5 21.5q0 25 41 25q23 0 35 -6l-9 -19q-15 6 -26 6q-10 0 -10 -4zM553 555v72h31v-72h-31zM647 629q22 0 36.5 -11t14.5 -28q0 -15 -14.5 -26t-36.5 -11q-23 0 -37 11
t-14 26q0 17 14 28t37 11zM647 571q8 0 14.5 6t6.5 13q0 18 -21 18q-20 0 -20 -18q0 -8 5.5 -13.5t14.5 -5.5zM768 594v33h31v-72h-27l-33 33v-33h-30v72h24z" />
    <glyph glyph-name="numbersign" unicode="#" 
d="M791 991q68 0 115.5 -39t47.5 -94v-330q0 -55 -47.5 -94t-115.5 -39h-601q-68 0 -115.5 39t-47.5 94v330q0 55 47.5 94t115.5 39h601zM920 528v330q0 43 -37.5 74t-91.5 31h-601q-53 0 -91 -31t-38 -74v-330q0 -43 38 -73.5t91 -30.5h601q54 0 91.5 30.5t37.5 73.5z
M252 750v-41h-51v125h125v-31h-74v-23h65v-30h-65zM395 741v-32h-53v125h76q32 0 50.5 -13t18.5 -35q0 -26 -28 -38l33 -39h-56l-26 32h-15zM395 801v-29h19q22 0 22 14q0 15 -22 15h-19zM637 741v-32h-129v125h127v-31h-76v-15h66v-30h-66v-17h78zM786 741v-32h-129v125
h127v-31h-75v-15h65v-30h-65v-17h77zM229 584l23 43h31l-39 -72h-29l-39 72h33zM315 582v-9h45v-18h-75v72h73v-19h-43v-8h39v-18h-39zM457 600q0 -15 -17 -22l19 -23h-33l-14 18h-9v-18h-30v72h43q41 0 41 -27zM414 592q12 0 12 8t-12 8h-11v-16h11zM496 606
q0 -3 24.5 -7.5t24.5 -20.5q0 -25 -43 -25q-24 0 -39 6l10 19q14 -7 31 -7q10 0 10 4q0 2 -24.5 7.5t-24.5 21.5q0 25 41 25q23 0 35 -6l-9 -19q-15 6 -26 6q-10 0 -10 -4zM553 555v72h31v-72h-31zM647 629q22 0 36.5 -11t14.5 -28q0 -15 -14.5 -26t-36.5 -11q-23 0 -37 11
t-14 26q0 17 14 28t37 11zM647 571q8 0 14.5 6t6.5 13q0 18 -21 18q-20 0 -20 -18q0 -8 5.5 -13.5t14.5 -5.5zM768 594v33h31v-72h-27l-33 33v-33h-30v72h24z" />
    <glyph glyph-name="dollar" unicode="$" 
d="M791 991q68 0 115.5 -39t47.5 -94v-330q0 -55 -47.5 -94t-115.5 -39h-601q-68 0 -115.5 39t-47.5 94v330q0 55 47.5 94t115.5 39h601zM920 528v330q0 43 -37.5 74t-91.5 31h-601q-53 0 -91 -31t-38 -74v-330q0 -43 38 -73.5t91 -30.5h601q54 0 91.5 30.5t37.5 73.5z
M252 750v-41h-51v125h125v-31h-74v-23h65v-30h-65zM395 741v-32h-53v125h76q32 0 50.5 -13t18.5 -35q0 -26 -28 -38l33 -39h-56l-26 32h-15zM395 801v-29h19q22 0 22 14q0 15 -22 15h-19zM637 741v-32h-129v125h127v-31h-76v-15h66v-30h-66v-17h78zM786 741v-32h-129v125
h127v-31h-75v-15h65v-30h-65v-17h77zM229 584l23 43h31l-39 -72h-29l-39 72h33zM315 582v-9h45v-18h-75v72h73v-19h-43v-8h39v-18h-39zM457 600q0 -15 -17 -22l19 -23h-33l-14 18h-9v-18h-30v72h43q41 0 41 -27zM414 592q12 0 12 8t-12 8h-11v-16h11zM496 606
q0 -3 24.5 -7.5t24.5 -20.5q0 -25 -43 -25q-24 0 -39 6l10 19q14 -7 31 -7q10 0 10 4q0 2 -24.5 7.5t-24.5 21.5q0 25 41 25q23 0 35 -6l-9 -19q-15 6 -26 6q-10 0 -10 -4zM553 555v72h31v-72h-31zM647 629q22 0 36.5 -11t14.5 -28q0 -15 -14.5 -26t-36.5 -11q-23 0 -37 11
t-14 26q0 17 14 28t37 11zM647 571q8 0 14.5 6t6.5 13q0 18 -21 18q-20 0 -20 -18q0 -8 5.5 -13.5t14.5 -5.5zM768 594v33h31v-72h-27l-33 33v-33h-30v72h24z" />
    <glyph glyph-name="percent" unicode="%" 
d="M791 991q68 0 115.5 -39t47.5 -94v-330q0 -55 -47.5 -94t-115.5 -39h-601q-68 0 -115.5 39t-47.5 94v330q0 55 47.5 94t115.5 39h601zM920 528v330q0 43 -37.5 74t-91.5 31h-601q-53 0 -91 -31t-38 -74v-330q0 -43 38 -73.5t91 -30.5h601q54 0 91.5 30.5t37.5 73.5z
M252 750v-41h-51v125h125v-31h-74v-23h65v-30h-65zM395 741v-32h-53v125h76q32 0 50.5 -13t18.5 -35q0 -26 -28 -38l33 -39h-56l-26 32h-15zM395 801v-29h19q22 0 22 14q0 15 -22 15h-19zM637 741v-32h-129v125h127v-31h-76v-15h66v-30h-66v-17h78zM786 741v-32h-129v125
h127v-31h-75v-15h65v-30h-65v-17h77zM229 584l23 43h31l-39 -72h-29l-39 72h33zM315 582v-9h45v-18h-75v72h73v-19h-43v-8h39v-18h-39zM457 600q0 -15 -17 -22l19 -23h-33l-14 18h-9v-18h-30v72h43q41 0 41 -27zM414 592q12 0 12 8t-12 8h-11v-16h11zM496 606
q0 -3 24.5 -7.5t24.5 -20.5q0 -25 -43 -25q-24 0 -39 6l10 19q14 -7 31 -7q10 0 10 4q0 2 -24.5 7.5t-24.5 21.5q0 25 41 25q23 0 35 -6l-9 -19q-15 6 -26 6q-10 0 -10 -4zM553 555v72h31v-72h-31zM647 629q22 0 36.5 -11t14.5 -28q0 -15 -14.5 -26t-36.5 -11q-23 0 -37 11
t-14 26q0 17 14 28t37 11zM647 571q8 0 14.5 6t6.5 13q0 18 -21 18q-20 0 -20 -18q0 -8 5.5 -13.5t14.5 -5.5zM768 594v33h31v-72h-27l-33 33v-33h-30v72h24z" />
    <glyph glyph-name="ampersand" unicode="&#x26;" 
d="M791 991q68 0 115.5 -39t47.5 -94v-330q0 -55 -47.5 -94t-115.5 -39h-601q-68 0 -115.5 39t-47.5 94v330q0 55 47.5 94t115.5 39h601zM920 528v330q0 43 -37.5 74t-91.5 31h-601q-53 0 -91 -31t-38 -74v-330q0 -43 38 -73.5t91 -30.5h601q54 0 91.5 30.5t37.5 73.5z
M252 750v-41h-51v125h125v-31h-74v-23h65v-30h-65zM395 741v-32h-53v125h76q32 0 50.5 -13t18.5 -35q0 -26 -28 -38l33 -39h-56l-26 32h-15zM395 801v-29h19q22 0 22 14q0 15 -22 15h-19zM637 741v-32h-129v125h127v-31h-76v-15h66v-30h-66v-17h78zM786 741v-32h-129v125
h127v-31h-75v-15h65v-30h-65v-17h77zM229 584l23 43h31l-39 -72h-29l-39 72h33zM315 582v-9h45v-18h-75v72h73v-19h-43v-8h39v-18h-39zM457 600q0 -15 -17 -22l19 -23h-33l-14 18h-9v-18h-30v72h43q41 0 41 -27zM414 592q12 0 12 8t-12 8h-11v-16h11zM496 606
q0 -3 24.5 -7.5t24.5 -20.5q0 -25 -43 -25q-24 0 -39 6l10 19q14 -7 31 -7q10 0 10 4q0 2 -24.5 7.5t-24.5 21.5q0 25 41 25q23 0 35 -6l-9 -19q-15 6 -26 6q-10 0 -10 -4zM553 555v72h31v-72h-31zM647 629q22 0 36.5 -11t14.5 -28q0 -15 -14.5 -26t-36.5 -11q-23 0 -37 11
t-14 26q0 17 14 28t37 11zM647 571q8 0 14.5 6t6.5 13q0 18 -21 18q-20 0 -20 -18q0 -8 5.5 -13.5t14.5 -5.5zM768 594v33h31v-72h-27l-33 33v-33h-30v72h24z" />
    <glyph glyph-name="quotesingle" unicode="'" 
d="M791 991q68 0 115.5 -39t47.5 -94v-330q0 -55 -47.5 -94t-115.5 -39h-601q-68 0 -115.5 39t-47.5 94v330q0 55 47.5 94t115.5 39h601zM920 528v330q0 43 -37.5 74t-91.5 31h-601q-53 0 -91 -31t-38 -74v-330q0 -43 38 -73.5t91 -30.5h601q54 0 91.5 30.5t37.5 73.5z
M252 750v-41h-51v125h125v-31h-74v-23h65v-30h-65zM395 741v-32h-53v125h76q32 0 50.5 -13t18.5 -35q0 -26 -28 -38l33 -39h-56l-26 32h-15zM395 801v-29h19q22 0 22 14q0 15 -22 15h-19zM637 741v-32h-129v125h127v-31h-76v-15h66v-30h-66v-17h78zM786 741v-32h-129v125
h127v-31h-75v-15h65v-30h-65v-17h77zM229 584l23 43h31l-39 -72h-29l-39 72h33zM315 582v-9h45v-18h-75v72h73v-19h-43v-8h39v-18h-39zM457 600q0 -15 -17 -22l19 -23h-33l-14 18h-9v-18h-30v72h43q41 0 41 -27zM414 592q12 0 12 8t-12 8h-11v-16h11zM496 606
q0 -3 24.5 -7.5t24.5 -20.5q0 -25 -43 -25q-24 0 -39 6l10 19q14 -7 31 -7q10 0 10 4q0 2 -24.5 7.5t-24.5 21.5q0 25 41 25q23 0 35 -6l-9 -19q-15 6 -26 6q-10 0 -10 -4zM553 555v72h31v-72h-31zM647 629q22 0 36.5 -11t14.5 -28q0 -15 -14.5 -26t-36.5 -11q-23 0 -37 11
t-14 26q0 17 14 28t37 11zM647 571q8 0 14.5 6t6.5 13q0 18 -21 18q-20 0 -20 -18q0 -8 5.5 -13.5t14.5 -5.5zM768 594v33h31v-72h-27l-33 33v-33h-30v72h24z" />
    <glyph glyph-name="quotesingle" unicode="&#x2019;" 
d="M791 991q68 0 115.5 -39t47.5 -94v-330q0 -55 -47.5 -94t-115.5 -39h-601q-68 0 -115.5 39t-47.5 94v330q0 55 47.5 94t115.5 39h601zM920 528v330q0 43 -37.5 74t-91.5 31h-601q-53 0 -91 -31t-38 -74v-330q0 -43 38 -73.5t91 -30.5h601q54 0 91.5 30.5t37.5 73.5z
M252 750v-41h-51v125h125v-31h-74v-23h65v-30h-65zM395 741v-32h-53v125h76q32 0 50.5 -13t18.5 -35q0 -26 -28 -38l33 -39h-56l-26 32h-15zM395 801v-29h19q22 0 22 14q0 15 -22 15h-19zM637 741v-32h-129v125h127v-31h-76v-15h66v-30h-66v-17h78zM786 741v-32h-129v125
h127v-31h-75v-15h65v-30h-65v-17h77zM229 584l23 43h31l-39 -72h-29l-39 72h33zM315 582v-9h45v-18h-75v72h73v-19h-43v-8h39v-18h-39zM457 600q0 -15 -17 -22l19 -23h-33l-14 18h-9v-18h-30v72h43q41 0 41 -27zM414 592q12 0 12 8t-12 8h-11v-16h11zM496 606
q0 -3 24.5 -7.5t24.5 -20.5q0 -25 -43 -25q-24 0 -39 6l10 19q14 -7 31 -7q10 0 10 4q0 2 -24.5 7.5t-24.5 21.5q0 25 41 25q23 0 35 -6l-9 -19q-15 6 -26 6q-10 0 -10 -4zM553 555v72h31v-72h-31zM647 629q22 0 36.5 -11t14.5 -28q0 -15 -14.5 -26t-36.5 -11q-23 0 -37 11
t-14 26q0 17 14 28t37 11zM647 571q8 0 14.5 6t6.5 13q0 18 -21 18q-20 0 -20 -18q0 -8 5.5 -13.5t14.5 -5.5zM768 594v33h31v-72h-27l-33 33v-33h-30v72h24z" />
    <glyph glyph-name="quotesingle" unicode="&#x2018;" 
d="M791 991q68 0 115.5 -39t47.5 -94v-330q0 -55 -47.5 -94t-115.5 -39h-601q-68 0 -115.5 39t-47.5 94v330q0 55 47.5 94t115.5 39h601zM920 528v330q0 43 -37.5 74t-91.5 31h-601q-53 0 -91 -31t-38 -74v-330q0 -43 38 -73.5t91 -30.5h601q54 0 91.5 30.5t37.5 73.5z
M252 750v-41h-51v125h125v-31h-74v-23h65v-30h-65zM395 741v-32h-53v125h76q32 0 50.5 -13t18.5 -35q0 -26 -28 -38l33 -39h-56l-26 32h-15zM395 801v-29h19q22 0 22 14q0 15 -22 15h-19zM637 741v-32h-129v125h127v-31h-76v-15h66v-30h-66v-17h78zM786 741v-32h-129v125
h127v-31h-75v-15h65v-30h-65v-17h77zM229 584l23 43h31l-39 -72h-29l-39 72h33zM315 582v-9h45v-18h-75v72h73v-19h-43v-8h39v-18h-39zM457 600q0 -15 -17 -22l19 -23h-33l-14 18h-9v-18h-30v72h43q41 0 41 -27zM414 592q12 0 12 8t-12 8h-11v-16h11zM496 606
q0 -3 24.5 -7.5t24.5 -20.5q0 -25 -43 -25q-24 0 -39 6l10 19q14 -7 31 -7q10 0 10 4q0 2 -24.5 7.5t-24.5 21.5q0 25 41 25q23 0 35 -6l-9 -19q-15 6 -26 6q-10 0 -10 -4zM553 555v72h31v-72h-31zM647 629q22 0 36.5 -11t14.5 -28q0 -15 -14.5 -26t-36.5 -11q-23 0 -37 11
t-14 26q0 17 14 28t37 11zM647 571q8 0 14.5 6t6.5 13q0 18 -21 18q-20 0 -20 -18q0 -8 5.5 -13.5t14.5 -5.5zM768 594v33h31v-72h-27l-33 33v-33h-30v72h24z" />
    <glyph glyph-name="parenleft" unicode="(" 
d="M791 991q68 0 115.5 -39t47.5 -94v-330q0 -55 -47.5 -94t-115.5 -39h-601q-68 0 -115.5 39t-47.5 94v330q0 55 47.5 94t115.5 39h601zM920 528v330q0 43 -37.5 74t-91.5 31h-601q-53 0 -91 -31t-38 -74v-330q0 -43 38 -73.5t91 -30.5h601q54 0 91.5 30.5t37.5 73.5z
M252 750v-41h-51v125h125v-31h-74v-23h65v-30h-65zM395 741v-32h-53v125h76q32 0 50.5 -13t18.5 -35q0 -26 -28 -38l33 -39h-56l-26 32h-15zM395 801v-29h19q22 0 22 14q0 15 -22 15h-19zM637 741v-32h-129v125h127v-31h-76v-15h66v-30h-66v-17h78zM786 741v-32h-129v125
h127v-31h-75v-15h65v-30h-65v-17h77zM229 584l23 43h31l-39 -72h-29l-39 72h33zM315 582v-9h45v-18h-75v72h73v-19h-43v-8h39v-18h-39zM457 600q0 -15 -17 -22l19 -23h-33l-14 18h-9v-18h-30v72h43q41 0 41 -27zM414 592q12 0 12 8t-12 8h-11v-16h11zM496 606
q0 -3 24.5 -7.5t24.5 -20.5q0 -25 -43 -25q-24 0 -39 6l10 19q14 -7 31 -7q10 0 10 4q0 2 -24.5 7.5t-24.5 21.5q0 25 41 25q23 0 35 -6l-9 -19q-15 6 -26 6q-10 0 -10 -4zM553 555v72h31v-72h-31zM647 629q22 0 36.5 -11t14.5 -28q0 -15 -14.5 -26t-36.5 -11q-23 0 -37 11
t-14 26q0 17 14 28t37 11zM647 571q8 0 14.5 6t6.5 13q0 18 -21 18q-20 0 -20 -18q0 -8 5.5 -13.5t14.5 -5.5zM768 594v33h31v-72h-27l-33 33v-33h-30v72h24z" />
    <glyph glyph-name="parenright" unicode=")" 
d="M791 991q68 0 115.5 -39t47.5 -94v-330q0 -55 -47.5 -94t-115.5 -39h-601q-68 0 -115.5 39t-47.5 94v330q0 55 47.5 94t115.5 39h601zM920 528v330q0 43 -37.5 74t-91.5 31h-601q-53 0 -91 -31t-38 -74v-330q0 -43 38 -73.5t91 -30.5h601q54 0 91.5 30.5t37.5 73.5z
M252 750v-41h-51v125h125v-31h-74v-23h65v-30h-65zM395 741v-32h-53v125h76q32 0 50.5 -13t18.5 -35q0 -26 -28 -38l33 -39h-56l-26 32h-15zM395 801v-29h19q22 0 22 14q0 15 -22 15h-19zM637 741v-32h-129v125h127v-31h-76v-15h66v-30h-66v-17h78zM786 741v-32h-129v125
h127v-31h-75v-15h65v-30h-65v-17h77zM229 584l23 43h31l-39 -72h-29l-39 72h33zM315 582v-9h45v-18h-75v72h73v-19h-43v-8h39v-18h-39zM457 600q0 -15 -17 -22l19 -23h-33l-14 18h-9v-18h-30v72h43q41 0 41 -27zM414 592q12 0 12 8t-12 8h-11v-16h11zM496 606
q0 -3 24.5 -7.5t24.5 -20.5q0 -25 -43 -25q-24 0 -39 6l10 19q14 -7 31 -7q10 0 10 4q0 2 -24.5 7.5t-24.5 21.5q0 25 41 25q23 0 35 -6l-9 -19q-15 6 -26 6q-10 0 -10 -4zM553 555v72h31v-72h-31zM647 629q22 0 36.5 -11t14.5 -28q0 -15 -14.5 -26t-36.5 -11q-23 0 -37 11
t-14 26q0 17 14 28t37 11zM647 571q8 0 14.5 6t6.5 13q0 18 -21 18q-20 0 -20 -18q0 -8 5.5 -13.5t14.5 -5.5zM768 594v33h31v-72h-27l-33 33v-33h-30v72h24z" />
    <glyph glyph-name="asterisk" unicode="*" 
d="M791 991q68 0 115.5 -39t47.5 -94v-330q0 -55 -47.5 -94t-115.5 -39h-601q-68 0 -115.5 39t-47.5 94v330q0 55 47.5 94t115.5 39h601zM920 528v330q0 43 -37.5 74t-91.5 31h-601q-53 0 -91 -31t-38 -74v-330q0 -43 38 -73.5t91 -30.5h601q54 0 91.5 30.5t37.5 73.5z
M252 750v-41h-51v125h125v-31h-74v-23h65v-30h-65zM395 741v-32h-53v125h76q32 0 50.5 -13t18.5 -35q0 -26 -28 -38l33 -39h-56l-26 32h-15zM395 801v-29h19q22 0 22 14q0 15 -22 15h-19zM637 741v-32h-129v125h127v-31h-76v-15h66v-30h-66v-17h78zM786 741v-32h-129v125
h127v-31h-75v-15h65v-30h-65v-17h77zM229 584l23 43h31l-39 -72h-29l-39 72h33zM315 582v-9h45v-18h-75v72h73v-19h-43v-8h39v-18h-39zM457 600q0 -15 -17 -22l19 -23h-33l-14 18h-9v-18h-30v72h43q41 0 41 -27zM414 592q12 0 12 8t-12 8h-11v-16h11zM496 606
q0 -3 24.5 -7.5t24.5 -20.5q0 -25 -43 -25q-24 0 -39 6l10 19q14 -7 31 -7q10 0 10 4q0 2 -24.5 7.5t-24.5 21.5q0 25 41 25q23 0 35 -6l-9 -19q-15 6 -26 6q-10 0 -10 -4zM553 555v72h31v-72h-31zM647 629q22 0 36.5 -11t14.5 -28q0 -15 -14.5 -26t-36.5 -11q-23 0 -37 11
t-14 26q0 17 14 28t37 11zM647 571q8 0 14.5 6t6.5 13q0 18 -21 18q-20 0 -20 -18q0 -8 5.5 -13.5t14.5 -5.5zM768 594v33h31v-72h-27l-33 33v-33h-30v72h24z" />
    <glyph glyph-name="plus" unicode="+" 
d="M791 991q68 0 115.5 -39t47.5 -94v-330q0 -55 -47.5 -94t-115.5 -39h-601q-68 0 -115.5 39t-47.5 94v330q0 55 47.5 94t115.5 39h601zM920 528v330q0 43 -37.5 74t-91.5 31h-601q-53 0 -91 -31t-38 -74v-330q0 -43 38 -73.5t91 -30.5h601q54 0 91.5 30.5t37.5 73.5z
M252 750v-41h-51v125h125v-31h-74v-23h65v-30h-65zM395 741v-32h-53v125h76q32 0 50.5 -13t18.5 -35q0 -26 -28 -38l33 -39h-56l-26 32h-15zM395 801v-29h19q22 0 22 14q0 15 -22 15h-19zM637 741v-32h-129v125h127v-31h-76v-15h66v-30h-66v-17h78zM786 741v-32h-129v125
h127v-31h-75v-15h65v-30h-65v-17h77zM229 584l23 43h31l-39 -72h-29l-39 72h33zM315 582v-9h45v-18h-75v72h73v-19h-43v-8h39v-18h-39zM457 600q0 -15 -17 -22l19 -23h-33l-14 18h-9v-18h-30v72h43q41 0 41 -27zM414 592q12 0 12 8t-12 8h-11v-16h11zM496 606
q0 -3 24.5 -7.5t24.5 -20.5q0 -25 -43 -25q-24 0 -39 6l10 19q14 -7 31 -7q10 0 10 4q0 2 -24.5 7.5t-24.5 21.5q0 25 41 25q23 0 35 -6l-9 -19q-15 6 -26 6q-10 0 -10 -4zM553 555v72h31v-72h-31zM647 629q22 0 36.5 -11t14.5 -28q0 -15 -14.5 -26t-36.5 -11q-23 0 -37 11
t-14 26q0 17 14 28t37 11zM647 571q8 0 14.5 6t6.5 13q0 18 -21 18q-20 0 -20 -18q0 -8 5.5 -13.5t14.5 -5.5zM768 594v33h31v-72h-27l-33 33v-33h-30v72h24z" />
    <glyph glyph-name="comma" unicode="," horiz-adv-x="319" 
d="M41 -160q-87 0 -104 2q-7 0 -20.5 10t-16.5 11q13 26 20 33q103 92 94 221v20q0 35 9.5 44t44.5 9h176q37 -1 47.5 -11.5t13.5 -47.5q6 -154 -94 -254q-42 -42 -92 -39q-27 2 -78 2z" />
    <glyph glyph-name="hyphenminus" unicode="-" 
d="M791 991q68 0 115.5 -39t47.5 -94v-330q0 -55 -47.5 -94t-115.5 -39h-601q-68 0 -115.5 39t-47.5 94v330q0 55 47.5 94t115.5 39h601zM920 528v330q0 43 -37.5 74t-91.5 31h-601q-53 0 -91 -31t-38 -74v-330q0 -43 38 -73.5t91 -30.5h601q54 0 91.5 30.5t37.5 73.5z
M252 750v-41h-51v125h125v-31h-74v-23h65v-30h-65zM395 741v-32h-53v125h76q32 0 50.5 -13t18.5 -35q0 -26 -28 -38l33 -39h-56l-26 32h-15zM395 801v-29h19q22 0 22 14q0 15 -22 15h-19zM637 741v-32h-129v125h127v-31h-76v-15h66v-30h-66v-17h78zM786 741v-32h-129v125
h127v-31h-75v-15h65v-30h-65v-17h77zM229 584l23 43h31l-39 -72h-29l-39 72h33zM315 582v-9h45v-18h-75v72h73v-19h-43v-8h39v-18h-39zM457 600q0 -15 -17 -22l19 -23h-33l-14 18h-9v-18h-30v72h43q41 0 41 -27zM414 592q12 0 12 8t-12 8h-11v-16h11zM496 606
q0 -3 24.5 -7.5t24.5 -20.5q0 -25 -43 -25q-24 0 -39 6l10 19q14 -7 31 -7q10 0 10 4q0 2 -24.5 7.5t-24.5 21.5q0 25 41 25q23 0 35 -6l-9 -19q-15 6 -26 6q-10 0 -10 -4zM553 555v72h31v-72h-31zM647 629q22 0 36.5 -11t14.5 -28q0 -15 -14.5 -26t-36.5 -11q-23 0 -37 11
t-14 26q0 17 14 28t37 11zM647 571q8 0 14.5 6t6.5 13q0 18 -21 18q-20 0 -20 -18q0 -8 5.5 -13.5t14.5 -5.5zM768 594v33h31v-72h-27l-33 33v-33h-30v72h24z" />
    <glyph glyph-name="period" unicode="." horiz-adv-x="335" 
d="M16 178v41q35 32 84 29q27 -1 81 -1t81 -1q35 0 44 -9.5t11 -43.5q0 -29 2.5 -87t2.5 -86q0 -29 -10 -39t-40 -12q-129 0 -192 2q-27 0 -35.5 9t-11.5 38q-2 30 -17 160z" />
    <glyph glyph-name="slash" unicode="/" 
d="M791 991q68 0 115.5 -39t47.5 -94v-330q0 -55 -47.5 -94t-115.5 -39h-601q-68 0 -115.5 39t-47.5 94v330q0 55 47.5 94t115.5 39h601zM920 528v330q0 43 -37.5 74t-91.5 31h-601q-53 0 -91 -31t-38 -74v-330q0 -43 38 -73.5t91 -30.5h601q54 0 91.5 30.5t37.5 73.5z
M252 750v-41h-51v125h125v-31h-74v-23h65v-30h-65zM395 741v-32h-53v125h76q32 0 50.5 -13t18.5 -35q0 -26 -28 -38l33 -39h-56l-26 32h-15zM395 801v-29h19q22 0 22 14q0 15 -22 15h-19zM637 741v-32h-129v125h127v-31h-76v-15h66v-30h-66v-17h78zM786 741v-32h-129v125
h127v-31h-75v-15h65v-30h-65v-17h77zM229 584l23 43h31l-39 -72h-29l-39 72h33zM315 582v-9h45v-18h-75v72h73v-19h-43v-8h39v-18h-39zM457 600q0 -15 -17 -22l19 -23h-33l-14 18h-9v-18h-30v72h43q41 0 41 -27zM414 592q12 0 12 8t-12 8h-11v-16h11zM496 606
q0 -3 24.5 -7.5t24.5 -20.5q0 -25 -43 -25q-24 0 -39 6l10 19q14 -7 31 -7q10 0 10 4q0 2 -24.5 7.5t-24.5 21.5q0 25 41 25q23 0 35 -6l-9 -19q-15 6 -26 6q-10 0 -10 -4zM553 555v72h31v-72h-31zM647 629q22 0 36.5 -11t14.5 -28q0 -15 -14.5 -26t-36.5 -11q-23 0 -37 11
t-14 26q0 17 14 28t37 11zM647 571q8 0 14.5 6t6.5 13q0 18 -21 18q-20 0 -20 -18q0 -8 5.5 -13.5t14.5 -5.5zM768 594v33h31v-72h-27l-33 33v-33h-30v72h24z" />
    <glyph glyph-name="zero" unicode="0" horiz-adv-x="1130" 
d="M1051 1106q8 -45 39 -309q-5 -195 -48 -447q-24 -157 -141 -262q-56 -50 -125 -59q-224 -29 -424 4q-188 30 -254 219q-70 209 -57 453q11 186 63 385q35 135 130.5 219t259.5 90q21 1 88.5 1.5t103.5 2.5q142 7 239 -75.5t126 -221.5zM752 342q43 234 43 489
q-9 111 -25 228q-18 132 -111 219q-37 37 -60.5 40t-66.5 -24q-99 -63 -143 -221q-78 -292 -55 -559q9 -135 59 -262q41 -104 137 -146q59 -24 105 19q97 94 117 217z" />
    <glyph glyph-name="one" unicode="1" horiz-adv-x="966" 
d="M651 98q0 -2 4 -22q40 -9 72.5 -5t71 -2t65.5 -28q-11 -35 -51 -35h-104q-30 -1 -125 -7t-146 -7h-233q-21 0 -29 6q-22 9 -22 22q0 6 7 14.5t13 10.5q22 4 63 7.5t46 4.5q9 1 35.5 3t43.5 3q6 639 15 1303h-172q-49 0 -72 4q-5 1 -10.5 4.5t-11.5 10t-9 8.5q22 22 27 24
q19 8 51 8h400h26q35 -3 46.5 -15.5t11.5 -49.5q-1 -112 -3.5 -340t-3.5 -344q-1 -96 -3 -288.5t-3 -289.5z" />
    <glyph glyph-name="two" unicode="2" horiz-adv-x="964" 
d="M662 256q-25 -28 -55.5 -54.5t-77 -61.5t-62.5 -48q66 -4 197.5 -11t193.5 -11q2 0 5.5 -5.5t6.5 -7.5q-26 -51 -92 -51h-286q-137 2 -406 10q-27 0 -53 13q-17 6 -16.5 20t16.5 23q15 7 28 10q312 102 474 424q143 284 86 647q-13 81 -56 135q-33 39 -64.5 47t-76.5 -12
q-86 -44 -94 -115q-6 -45 -15 -188q0 -11 1 -35t1 -37q0 -26 -9.5 -37t-35.5 -12q-35 0 -103 1t-103 1q-37 3 -37 35q5 208 10 266q11 119 147 174q93 35 224 35q77 2 233 -6q214 -9 258 -209q109 -545 -239 -940z" />
    <glyph glyph-name="three" unicode="3" horiz-adv-x="935" 
d="M702 756q-2 -2 -2 -8q8 -2 22.5 -8t18.5 -7q154 -56 160 -203q13 -297 -203 -456q-92 -69 -213 -72h-196q-45 3 -88 12q-125 29 -146 142q-4 26 -7 57t-4 53.5t-2.5 58t-2.5 54.5q-3 41 41 41l104 1q105 1 105 -1q22 0 28.5 -8.5t8.5 -34.5q1 -18 1.5 -51t1.5 -60t3 -51
q7 -87 61 -125q84 47 121 98q115 164 98 336q-7 80 -59 127q-37 32 -90 29q-45 -2 -126.5 -2.5t-107.5 -1.5q-20 0 -26 4q-23 17 -23 22q0 6 7 15t14 12q50 14 90 19q100 18 153 57q70 49 88 129q24 126 -4 258q-15 79 -86 129q-21 13 -34 10t-25 -24q-18 -37 -21 -68
q-4 -79 -8 -233q-2 -36 -12 -47.5t-45 -12.5h-172q-39 2 -49.5 13t-9.5 49q0 128 8 229q6 79 55 126t129 50q165 3 297 -2q102 -3 174.5 -66t91.5 -163q20 -117 2 -240q-19 -112 -106 -174q-9 -6 -15 -12z" />
    <glyph glyph-name="four" unicode="4" horiz-adv-x="966" 
d="M330 715v-66h280v56q1 102 11 620v43q2 33 10.5 42t38.5 9h192q32 -2 39.5 -9.5t7.5 -41.5q-1 -82 -4 -245.5t-4 -245.5q-2 -137 -6 -412t-6 -412v-33q-3 -32 -35 -38q-15 -5 -16 -5q-96 0 -187 3q-35 1 -44 11.5t-9 47.5q2 79 5 237.5t5 237.5v64q-7 1 -18.5 3t-21 3
t-17.5 0q-253 -19 -399 -6q-21 0 -31 2q-46 8 -63 27.5t-17 68.5q-1 115 -2 345t-2 345v20q2 31 12 41.5t39 10.5h188q32 -2 41 -11.5t9 -44.5q1 -111 2 -333.5t2 -333.5z" />
    <glyph glyph-name="five" unicode="5" horiz-adv-x="884" 
d="M274 438q9 0 27.5 -2.5t24.5 -3.5v-162q0 -75 36 -131q21 -35 38.5 -39t52.5 15q80 48 100 157q42 222 -61 412q-92 170 -314 190q-60 6 -70.5 17.5t-11.5 75.5q0 114 -4 344q0 65 13 79t75 13q382 0 572 -2q28 0 82 -8q14 -4 20 -21q0 -6 -5 -14.5t-11 -9.5
q-16 -7 -45 -11q-40 0 -120 -1t-120 -1h-168v-399q65 -8 80 -12q170 -39 260.5 -145t118.5 -290q21 -142 -8 -245q-43 -158 -185 -199q-112 -33 -188 -33q-29 1 -90 1t-92 1q-114 3 -178 68.5t-68 183.5q0 70 2 103q4 50 17 61.5t61 9.5q106 0 159 -2z" />
    <glyph glyph-name="six" unicode="6" horiz-adv-x="985" 
d="M754 1419q28 -2 35.5 -5t27.5 -23q-7 -29 -47 -33q-172 -10 -293 -189q-82 -124 -115 -303q0 -2 1.5 -10.5t1.5 -15.5h192q132 -4 180 -11q109 -16 154 -66t61 -151q30 -195 -41 -385q-63 -177 -249 -213q-194 -38 -392 4q-141 28 -196 187q-25 73 -31 147
q-20 365 61 645q52 177 168 293q135 132 320 129q24 -1 51.5 -1t60 0.5t50.5 0.5zM547 766q-28 7 -59.5 9t-75 1t-62.5 0q-8 -28 -8 -35q-1 -31 -7 -130.5t-7 -153.5q0 -128 26 -224q21 -75 92 -133q22 -22 52 -6q87 47 123 135q67 172 45 375q-2 11 -23 72q-19 67 -96 90z
" />
    <glyph glyph-name="seven" unicode="7" horiz-adv-x="1007" 
d="M125 952q25 1 54.5 1t66 -0.5t57.5 -0.5q3 6 28.5 56.5t32 62t29 53t35.5 59t35.5 49t44.5 54.5t47 45q-169 17 -268 15h-199q-25 0 -55 10q-6 1 -11.5 8.5t-5.5 13.5q0 12 17 23q21 6 47 6q352 0 530 -2q72 -2 211 -10h21q3 0 13.5 -0.5t15.5 -1.5t12 -3t11.5 -7
t6.5 -13q4 -12 -1.5 -20t-19 -15t-16.5 -10q-71 -67 -84 -80q-17 -17 -32.5 -35.5t-31 -42t-25.5 -39t-26 -45.5t-21.5 -41.5t-23.5 -47.5l-22 -44q43 -6 117 -14q1 0 5.5 -0.5t5.5 -0.5t5 -1t5.5 -1.5l4.5 -1.5t4.5 -2.5t3.5 -3t3 -4t1.5 -5.5t0.5 -7q0 -17 -11 -22.5
t-30 -7.5h-115q-4 0 -13 -1t-16 -1q-17 -34 -18 -37q-94 -300 -123 -428q-22 -98 -33 -185q-3 -25 -8 -76.5t-8 -78.5q-3 -37 -15 -49.5t-45 -12.5q-86 -3 -172 0q-40 0 -50 13t-7 57q24 290 109 557q40 127 65 215q4 16 4 29q-60 4 -188 8q-4 1 -11.5 1t-13.5 1t-10 4
q-7 3 -13.5 11t-6.5 14t7.5 14.5t14.5 9.5q50 8 78 8z" />
    <glyph glyph-name="eight" unicode="8" horiz-adv-x="999" 
d="M246 694q20 14 100 68q-13 8 -39 23t-39 24q-117 77 -121 80q-128 100 -106 260q27 194 184 254q81 33 219 37q111 0 166 -2q130 -7 203 -35q138 -51 141 -199q9 -214 -147 -352q-21 -19 -63 -49.5t-54 -40.5q64 -52 90 -74q86 -72 117 -162q37 -117 53 -192
q8 -51 -2 -117q-14 -99 -76 -150.5t-163 -72.5q-175 -29 -363 -4q-278 35 -285 340q-6 230 185 364zM584 561q-8 15 -19 29t-28.5 34t-24.5 29q-15 -12 -34.5 -30.5t-22.5 -20.5q-80 -70 -100 -199.5t26 -222.5q40 -81 98 -106q32 -12 56 -6q94 32 112 108q19 95 17 127
q-9 140 -80 258zM420 1321q-83 -72 -92 -215q5 -43 14 -72t23.5 -52t38.5 -43t40 -31t48 -31q16 -8 36 8q69 50 111 156t25 190q-19 94 -96.5 122t-147.5 -32z" />
    <glyph glyph-name="nine" unicode="9" horiz-adv-x="1024" 
d="M682 612q2 12 2 43h-57q-22 1 -115 4.5t-143 6.5q-163 13 -263 127q-88 102 -89.5 255t85.5 255q85 97 228 104q166 7 276 0q121 -10 210.5 -85t121.5 -183q55 -198 43 -406q-13 -272 -107 -467q-93 -194 -294 -237q-91 -18 -187 -21q-75 -4 -229 0q-28 0 -55 12
q-6 1 -11.5 11t-5.5 18q0 6 7 15t14 12q8 4 41 4h114q223 0 324 209q76 166 90 323zM395 811q58 -57 128.5 -75.5t166.5 -16.5q4 35 6 55q5 158 -41 336q-27 108 -114 174q-49 42 -74.5 41.5t-81.5 -49.5q-4 -4 -12 -16q-55 -67 -65 -159t15.5 -168.5t71.5 -121.5z" />
    <glyph glyph-name="colon" unicode=":" 
d="M791 991q68 0 115.5 -39t47.5 -94v-330q0 -55 -47.5 -94t-115.5 -39h-601q-68 0 -115.5 39t-47.5 94v330q0 55 47.5 94t115.5 39h601zM920 528v330q0 43 -37.5 74t-91.5 31h-601q-53 0 -91 -31t-38 -74v-330q0 -43 38 -73.5t91 -30.5h601q54 0 91.5 30.5t37.5 73.5z
M252 750v-41h-51v125h125v-31h-74v-23h65v-30h-65zM395 741v-32h-53v125h76q32 0 50.5 -13t18.5 -35q0 -26 -28 -38l33 -39h-56l-26 32h-15zM395 801v-29h19q22 0 22 14q0 15 -22 15h-19zM637 741v-32h-129v125h127v-31h-76v-15h66v-30h-66v-17h78zM786 741v-32h-129v125
h127v-31h-75v-15h65v-30h-65v-17h77zM229 584l23 43h31l-39 -72h-29l-39 72h33zM315 582v-9h45v-18h-75v72h73v-19h-43v-8h39v-18h-39zM457 600q0 -15 -17 -22l19 -23h-33l-14 18h-9v-18h-30v72h43q41 0 41 -27zM414 592q12 0 12 8t-12 8h-11v-16h11zM496 606
q0 -3 24.5 -7.5t24.5 -20.5q0 -25 -43 -25q-24 0 -39 6l10 19q14 -7 31 -7q10 0 10 4q0 2 -24.5 7.5t-24.5 21.5q0 25 41 25q23 0 35 -6l-9 -19q-15 6 -26 6q-10 0 -10 -4zM553 555v72h31v-72h-31zM647 629q22 0 36.5 -11t14.5 -28q0 -15 -14.5 -26t-36.5 -11q-23 0 -37 11
t-14 26q0 17 14 28t37 11zM647 571q8 0 14.5 6t6.5 13q0 18 -21 18q-20 0 -20 -18q0 -8 5.5 -13.5t14.5 -5.5zM768 594v33h31v-72h-27l-33 33v-33h-30v72h24z" />
    <glyph glyph-name="semicolon" unicode=";" 
d="M791 991q68 0 115.5 -39t47.5 -94v-330q0 -55 -47.5 -94t-115.5 -39h-601q-68 0 -115.5 39t-47.5 94v330q0 55 47.5 94t115.5 39h601zM920 528v330q0 43 -37.5 74t-91.5 31h-601q-53 0 -91 -31t-38 -74v-330q0 -43 38 -73.5t91 -30.5h601q54 0 91.5 30.5t37.5 73.5z
M252 750v-41h-51v125h125v-31h-74v-23h65v-30h-65zM395 741v-32h-53v125h76q32 0 50.5 -13t18.5 -35q0 -26 -28 -38l33 -39h-56l-26 32h-15zM395 801v-29h19q22 0 22 14q0 15 -22 15h-19zM637 741v-32h-129v125h127v-31h-76v-15h66v-30h-66v-17h78zM786 741v-32h-129v125
h127v-31h-75v-15h65v-30h-65v-17h77zM229 584l23 43h31l-39 -72h-29l-39 72h33zM315 582v-9h45v-18h-75v72h73v-19h-43v-8h39v-18h-39zM457 600q0 -15 -17 -22l19 -23h-33l-14 18h-9v-18h-30v72h43q41 0 41 -27zM414 592q12 0 12 8t-12 8h-11v-16h11zM496 606
q0 -3 24.5 -7.5t24.5 -20.5q0 -25 -43 -25q-24 0 -39 6l10 19q14 -7 31 -7q10 0 10 4q0 2 -24.5 7.5t-24.5 21.5q0 25 41 25q23 0 35 -6l-9 -19q-15 6 -26 6q-10 0 -10 -4zM553 555v72h31v-72h-31zM647 629q22 0 36.5 -11t14.5 -28q0 -15 -14.5 -26t-36.5 -11q-23 0 -37 11
t-14 26q0 17 14 28t37 11zM647 571q8 0 14.5 6t6.5 13q0 18 -21 18q-20 0 -20 -18q0 -8 5.5 -13.5t14.5 -5.5zM768 594v33h31v-72h-27l-33 33v-33h-30v72h24z" />
    <glyph glyph-name="less" unicode="&#x3c;" 
d="M791 991q68 0 115.5 -39t47.5 -94v-330q0 -55 -47.5 -94t-115.5 -39h-601q-68 0 -115.5 39t-47.5 94v330q0 55 47.5 94t115.5 39h601zM920 528v330q0 43 -37.5 74t-91.5 31h-601q-53 0 -91 -31t-38 -74v-330q0 -43 38 -73.5t91 -30.5h601q54 0 91.5 30.5t37.5 73.5z
M252 750v-41h-51v125h125v-31h-74v-23h65v-30h-65zM395 741v-32h-53v125h76q32 0 50.5 -13t18.5 -35q0 -26 -28 -38l33 -39h-56l-26 32h-15zM395 801v-29h19q22 0 22 14q0 15 -22 15h-19zM637 741v-32h-129v125h127v-31h-76v-15h66v-30h-66v-17h78zM786 741v-32h-129v125
h127v-31h-75v-15h65v-30h-65v-17h77zM229 584l23 43h31l-39 -72h-29l-39 72h33zM315 582v-9h45v-18h-75v72h73v-19h-43v-8h39v-18h-39zM457 600q0 -15 -17 -22l19 -23h-33l-14 18h-9v-18h-30v72h43q41 0 41 -27zM414 592q12 0 12 8t-12 8h-11v-16h11zM496 606
q0 -3 24.5 -7.5t24.5 -20.5q0 -25 -43 -25q-24 0 -39 6l10 19q14 -7 31 -7q10 0 10 4q0 2 -24.5 7.5t-24.5 21.5q0 25 41 25q23 0 35 -6l-9 -19q-15 6 -26 6q-10 0 -10 -4zM553 555v72h31v-72h-31zM647 629q22 0 36.5 -11t14.5 -28q0 -15 -14.5 -26t-36.5 -11q-23 0 -37 11
t-14 26q0 17 14 28t37 11zM647 571q8 0 14.5 6t6.5 13q0 18 -21 18q-20 0 -20 -18q0 -8 5.5 -13.5t14.5 -5.5zM768 594v33h31v-72h-27l-33 33v-33h-30v72h24z" />
    <glyph glyph-name="equal" unicode="=" 
d="M791 991q68 0 115.5 -39t47.5 -94v-330q0 -55 -47.5 -94t-115.5 -39h-601q-68 0 -115.5 39t-47.5 94v330q0 55 47.5 94t115.5 39h601zM920 528v330q0 43 -37.5 74t-91.5 31h-601q-53 0 -91 -31t-38 -74v-330q0 -43 38 -73.5t91 -30.5h601q54 0 91.5 30.5t37.5 73.5z
M252 750v-41h-51v125h125v-31h-74v-23h65v-30h-65zM395 741v-32h-53v125h76q32 0 50.5 -13t18.5 -35q0 -26 -28 -38l33 -39h-56l-26 32h-15zM395 801v-29h19q22 0 22 14q0 15 -22 15h-19zM637 741v-32h-129v125h127v-31h-76v-15h66v-30h-66v-17h78zM786 741v-32h-129v125
h127v-31h-75v-15h65v-30h-65v-17h77zM229 584l23 43h31l-39 -72h-29l-39 72h33zM315 582v-9h45v-18h-75v72h73v-19h-43v-8h39v-18h-39zM457 600q0 -15 -17 -22l19 -23h-33l-14 18h-9v-18h-30v72h43q41 0 41 -27zM414 592q12 0 12 8t-12 8h-11v-16h11zM496 606
q0 -3 24.5 -7.5t24.5 -20.5q0 -25 -43 -25q-24 0 -39 6l10 19q14 -7 31 -7q10 0 10 4q0 2 -24.5 7.5t-24.5 21.5q0 25 41 25q23 0 35 -6l-9 -19q-15 6 -26 6q-10 0 -10 -4zM553 555v72h31v-72h-31zM647 629q22 0 36.5 -11t14.5 -28q0 -15 -14.5 -26t-36.5 -11q-23 0 -37 11
t-14 26q0 17 14 28t37 11zM647 571q8 0 14.5 6t6.5 13q0 18 -21 18q-20 0 -20 -18q0 -8 5.5 -13.5t14.5 -5.5zM768 594v33h31v-72h-27l-33 33v-33h-30v72h24z" />
    <glyph glyph-name="greater" unicode="&#x3e;" 
d="M791 991q68 0 115.5 -39t47.5 -94v-330q0 -55 -47.5 -94t-115.5 -39h-601q-68 0 -115.5 39t-47.5 94v330q0 55 47.5 94t115.5 39h601zM920 528v330q0 43 -37.5 74t-91.5 31h-601q-53 0 -91 -31t-38 -74v-330q0 -43 38 -73.5t91 -30.5h601q54 0 91.5 30.5t37.5 73.5z
M252 750v-41h-51v125h125v-31h-74v-23h65v-30h-65zM395 741v-32h-53v125h76q32 0 50.5 -13t18.5 -35q0 -26 -28 -38l33 -39h-56l-26 32h-15zM395 801v-29h19q22 0 22 14q0 15 -22 15h-19zM637 741v-32h-129v125h127v-31h-76v-15h66v-30h-66v-17h78zM786 741v-32h-129v125
h127v-31h-75v-15h65v-30h-65v-17h77zM229 584l23 43h31l-39 -72h-29l-39 72h33zM315 582v-9h45v-18h-75v72h73v-19h-43v-8h39v-18h-39zM457 600q0 -15 -17 -22l19 -23h-33l-14 18h-9v-18h-30v72h43q41 0 41 -27zM414 592q12 0 12 8t-12 8h-11v-16h11zM496 606
q0 -3 24.5 -7.5t24.5 -20.5q0 -25 -43 -25q-24 0 -39 6l10 19q14 -7 31 -7q10 0 10 4q0 2 -24.5 7.5t-24.5 21.5q0 25 41 25q23 0 35 -6l-9 -19q-15 6 -26 6q-10 0 -10 -4zM553 555v72h31v-72h-31zM647 629q22 0 36.5 -11t14.5 -28q0 -15 -14.5 -26t-36.5 -11q-23 0 -37 11
t-14 26q0 17 14 28t37 11zM647 571q8 0 14.5 6t6.5 13q0 18 -21 18q-20 0 -20 -18q0 -8 5.5 -13.5t14.5 -5.5zM768 594v33h31v-72h-27l-33 33v-33h-30v72h24z" />
    <glyph glyph-name="question" unicode="?" horiz-adv-x="903" 
d="M885 950q5 -63 -13 -155q-35 -171 -217 -236q-34 -12 -71 -22q-4 -98 -4 -144q-1 -35 -11 -44t-45 -9q-90 -3 -180 0q-33 0 -42 8.5t-9 38.5q-3 66 4 145q0 47 49 60q6 1 16.5 4t12.5 4q187 47 217 229q20 115 -17 205q-27 74 -96 111q-36 17 -67 -2q-81 -55 -95 -133
q-8 -33 -12 -103v-139q3 -41 -35 -41q-106 -3 -213 0q-39 0 -39 39q-5 57 -3.5 130t16.5 128q30 124 153 178q74 34 172 37q72 0 224 -4q92 -3 184 -61q111 -69 121 -224zM518 242q40 0 37 -39q0 -107 -2 -160q0 -28 -9 -36.5t-38 -10.5h-98q-66 0 -99 2q-25 0 -34 9t-9 34
q-2 54 2 156q0 26 9 35.5t34 11.5q137 0 207 -2z" />
    <glyph glyph-name="at" unicode="@" 
d="M791 991q68 0 115.5 -39t47.5 -94v-330q0 -55 -47.5 -94t-115.5 -39h-601q-68 0 -115.5 39t-47.5 94v330q0 55 47.5 94t115.5 39h601zM920 528v330q0 43 -37.5 74t-91.5 31h-601q-53 0 -91 -31t-38 -74v-330q0 -43 38 -73.5t91 -30.5h601q54 0 91.5 30.5t37.5 73.5z
M252 750v-41h-51v125h125v-31h-74v-23h65v-30h-65zM395 741v-32h-53v125h76q32 0 50.5 -13t18.5 -35q0 -26 -28 -38l33 -39h-56l-26 32h-15zM395 801v-29h19q22 0 22 14q0 15 -22 15h-19zM637 741v-32h-129v125h127v-31h-76v-15h66v-30h-66v-17h78zM786 741v-32h-129v125
h127v-31h-75v-15h65v-30h-65v-17h77zM229 584l23 43h31l-39 -72h-29l-39 72h33zM315 582v-9h45v-18h-75v72h73v-19h-43v-8h39v-18h-39zM457 600q0 -15 -17 -22l19 -23h-33l-14 18h-9v-18h-30v72h43q41 0 41 -27zM414 592q12 0 12 8t-12 8h-11v-16h11zM496 606
q0 -3 24.5 -7.5t24.5 -20.5q0 -25 -43 -25q-24 0 -39 6l10 19q14 -7 31 -7q10 0 10 4q0 2 -24.5 7.5t-24.5 21.5q0 25 41 25q23 0 35 -6l-9 -19q-15 6 -26 6q-10 0 -10 -4zM553 555v72h31v-72h-31zM647 629q22 0 36.5 -11t14.5 -28q0 -15 -14.5 -26t-36.5 -11q-23 0 -37 11
t-14 26q0 17 14 28t37 11zM647 571q8 0 14.5 6t6.5 13q0 18 -21 18q-20 0 -20 -18q0 -8 5.5 -13.5t14.5 -5.5zM768 594v33h31v-72h-27l-33 33v-33h-30v72h24z" />
    <glyph glyph-name="A" unicode="A" horiz-adv-x="1001" 
d="M655 70q2 60 6.5 197.5t6.5 213.5h-328q0 -4 -3 -30.5t-3 -40.5q-1 -64 -3 -190l-3 -189q0 -24 -8 -34.5t-29 -10.5q-105 -3 -209 0q-24 0 -33.5 11.5t-9.5 39.5q0 180 2 270q23 508 33 666q7 130 30 225q26 114 100.5 174.5t190.5 65.5q151 3 301 0q139 -6 197 -140
q36 -83 39 -208q5 -89 9.5 -252t6.5 -215q4 -222 4 -334q0 -71 -8 -223q-1 -34 -14 -46t-47 -12q-86 -3 -172 0q-40 1 -49 11t-7 51zM348 614h314q-3 62 -7 168t-8 192.5t-8 162.5q-2 53 -29 135q-25 81 -73 88q-20 4 -40 -7t-30 -22.5t-29 -36.5q-54 -75 -65 -198
q-7 -89 -17 -254t-12 -199q0 -5 2 -16t2 -13z" />
    <glyph glyph-name="B" unicode="B" horiz-adv-x="1085" 
d="M803 807q-4 -4 -10 -7.5t-15 -9t-16 -10.5q24 -10 31 -12q202 -52 262 -274q40 -141 2 -250q-48 -129 -193 -193q-104 -46 -248 -49q-38 -1 -223 4q-145 0 -219 2h-57q-34 0 -43.5 8.5t-10.5 40.5q-6 43 -6 88q0 219 4 671.5t7 539.5q1 42 12 52.5t51 10.5q308 4 463 2
q65 0 137 -16q170 -42 217 -254q25 -104 -15 -192.5t-130 -151.5zM346 715q0 -537 2 -647q13 0 30.5 0.5t29.5 0.5t22 -1q100 -6 188 34q105 49 148 146q38 80 9 209.5t-105 197.5q-61 50 -115 58q-30 4 -63 4.5t-78 -1t-68 -1.5zM346 823v-39q69 13 82 17q201 58 238 233
q16 89 -43 211q-50 105 -177 115q-20 4 -46.5 1t-45.5 -22q-4 -348 -8 -516z" />
    <glyph glyph-name="C" unicode="C" horiz-adv-x="1005" 
d="M51 385q-2 52 -5 156t-5 155q-8 270 18 410q8 54 35 119q79 185 287 198q241 15 389 -8q38 -7 94 -29q84 -31 97 -118q10 -82 10 -197q3 -45 -45 -45q-101 -3 -203 0q-24 1 -31.5 11t-7.5 38q-1 19 -1 57t-1 56q0 10 -10 78q-9 51 -66 76t-104 -1q-84 -51 -123 -135
q-45 -101 -45 -231q-3 -203 4 -459q4 -157 12 -237q5 -53 29 -115q40 -95 127 -92q48 2 84 26.5t51 69.5q21 66 41 192q3 26 6 73.5t4 62.5q2 27 9.5 36t33.5 9q68 2 203 -2q25 0 33 -9t8 -36q-3 -167 -37 -299q-34 -129 -164 -170q-114 -34 -205 -31q-211 0 -299 18
q-174 37 -204 207q-14 95 -19 166z" />
    <glyph glyph-name="D" unicode="D" horiz-adv-x="987" 
d="M47 76q3 121 12.5 372t12.5 330q0 344 -2 553q0 11 -4 35q-12 53 34 70q24 6 52 6q242 0 290 -2q234 -6 394 -142q83 -69 106 -192q19 -90 19.5 -203t-9.5 -203q-16 -259 -110 -462q-50 -109 -152 -160q-138 -69 -289 -72q-193 -4 -290 -2q-43 1 -54.5 14.5t-9.5 57.5z
M444 1337q-15 7 -44.5 17.5t-37.5 13.5q-3 -220 -10 -644.5t-10 -631.5q84 19 136 61.5t87 120.5q54 119 77 250.5t30 294.5q7 179 -19 287q-24 106 -90 158q-28 22 -119 73z" />
    <glyph glyph-name="E" unicode="E" horiz-adv-x="864" 
d="M354 729q-23 -275 -16 -655q132 -8 190 -8h244q12 1 23.5 1t20 -6.5t9.5 -19.5q0 -11 -6.5 -18t-11.5 -9t-18 -4t-15 -2q-58 -10 -104 -10q-288 -7 -477 14q-13 2 -39 3t-39 3q-40 3 -53 17t-13 55q-4 193 0 291q5 140 16.5 418t16.5 418q1 23 -1 71t-1 72q1 41 15 54
t57 13q362 0 544 -2q72 0 146 -6q2 0 43 -14q2 -32 -29 -39q-74 -12 -113 -16q-27 -1 -82.5 -2t-82.5 -2q-29 -1 -61.5 -2.5t-74.5 -4.5t-67 -4q-3 -78 -9.5 -259t-9.5 -281h127h131q27 0 31 -2q19 -8 23 -23q1 -4 -6 -12t-13 -10q-40 -10 -69 -13q-31 -1 -94 -2t-95 -2
q-21 0 -37 -2z" />
    <glyph glyph-name="F" unicode="F" horiz-adv-x="868" 
d="M809 1442h13h14t12.5 -0.5t13.5 -2t12.5 -4t13 -6.5t11.5 -10q-8 -37 -55 -37q-244 -8 -373 -10q-37 -2 -115 -2q-4 -380 -4 -573q10 0 24 -1t21 -1q78 0 238 4q21 0 57 -8q4 0 10.5 -6.5t6.5 -10.5q-5 -21 -15 -24q-31 -10 -55 -13q-42 -2 -127 -6t-127 -6q-5 0 -29 -4
q-1 -26 -3 -77t-3 -77q-8 -342 -14 -506q0 -28 -9 -38t-36 -11q-131 -4 -193 -2q-32 0 -40.5 9t-8.5 40q0 1 6 166q1 42 4.5 176t3.5 207q3 276 3 549q0 67 4 203q0 48 12 62t57 14q119 0 176 2q166 0 494 4z" />
    <glyph glyph-name="G" unicode="G" horiz-adv-x="989" 
d="M637 295q11 67 9.5 209.5t-13.5 220.5q-127 10 -152 12q-2 0 -10 0.5t-10.5 1t-9 1.5t-9 3t-6 5.5t-5 8.5t-1.5 11t1.5 10.5t3.5 8t6 5.5t6.5 3t8.5 1.5t8.5 0.5h9.5h9q62 1 188 3l189 3q19 0 27 -2q24 -3 32.5 -11.5t8.5 -31.5q4 -266 4 -402q-2 -41 -23 -141
q-37 -175 -215 -197q-275 -34 -483 31q-141 43 -158 176q0 3 -3 35t-3 49q4 529 10 793q2 63 21 158q32 135 178 172q33 10 61 10q232 0 349 -6q60 -2 147 -21q121 -26 137 -162q3 -26 3.5 -53.5t-0.5 -66t-1 -54.5q0 -43 -41 -43q-101 -3 -202 0q-27 1 -35 11.5t-10 39.5
q0 14 1 48t0.5 58.5t-3.5 47.5q-6 62 -37.5 92.5t-92.5 38.5q-120 13 -157 -100q-24 -74 -27 -139q-3 -56 -8 -332q-4 -328 -4 -492q0 -42 10 -94q10 -61 56.5 -92t103.5 -33q42 -2 82 55q15 21 25.5 49.5t14 47t9.5 53.5z" />
    <glyph glyph-name="H" unicode="H" horiz-adv-x="1112" 
d="M1061 1362q0 -123 -4 -373q-1 -44 -4 -134.5t-4 -137.5h2q-2 -80 -7.5 -242.5t-7.5 -245.5q-1 -23 -1 -49t0.5 -58t0.5 -50q0 -36 -9.5 -47t-41.5 -11q-104 -3 -188 2q-32 0 -40.5 10t-8.5 44q0 172 2 258q1 62 4 188.5t4 190.5q-272 4 -404 8q-2 -81 -7 -243t-7 -243
q-1 -23 -1 -49t0.5 -58t0.5 -50q0 -36 -9.5 -47t-41.5 -11q-105 -3 -187 2q-33 0 -42 10t-9 44q0 172 2 258q3 136 10.5 414t10.5 419q1 34 0 102t0 103q2 40 11.5 49.5t49.5 9.5h166q43 -2 53.5 -11.5t10.5 -51.5q0 -61 -5 -373q-3 -105 -6 -213q53 -1 160 -2t160 -2
q57 0 86 -2q2 65 5 195.5t5 195.5q1 34 0 102t0 103q2 40 11.5 49.5t49.5 9.5h166q43 -2 53.5 -11.5t10.5 -51.5z" />
    <glyph glyph-name="I" unicode="I" horiz-adv-x="415" 
d="M352 725h2q-2 -81 -7 -245.5t-7 -248.5q-1 -23 -1 -49t0.5 -58t0.5 -50q0 -36 -9.5 -48t-41.5 -12q-105 -3 -187 2q-33 0 -42 10t-9 44q0 174 2 260q3 143 10.5 424t10.5 420q1 35 0 104t0 104q2 40 12 50t49 10h166q43 0 53.5 -10.5t10.5 -53.5q0 -64 -5 -377
q-1 -46 -4 -138t-4 -138z" />
    <glyph glyph-name="J" unicode="J" horiz-adv-x="925" 
d="M870 1352q4 -496 4 -742q0 -92 -12 -268q-7 -70 -22 -113q-60 -180 -267 -213q-190 -29 -350 -10q-52 6 -104 29q-118 59 -129 178l-3 45l-3 45q-3 40 34 43q148 4 220 4q31 0 34 -37q1 -16 11 -110q11 -72 90 -113q21 -12 49 0q101 34 131 152q24 85 27 176
q20 435 4 921q0 42 2 60q13 10 16 10l240 6q6 0 13.5 -9t10.5 -17q4 -7 4 -37z" />
    <glyph glyph-name="K" unicode="K" horiz-adv-x="974" 
d="M352 973v-58q7 4 16.5 8.5t12.5 6.5q134 87 207 221q84 148 90 244q0 35 37 35q161 0 213 -3q46 0 37 -49q-9 -56 -27 -108q-102 -270 -311 -396q-14 -8 -42 -27.5t-40 -27.5q43 -11 45 -12q161 -46 237 -207q70 -142 86 -334q12 -88 21 -180q3 -37 -8 -50t-49 -13
q-86 -3 -172 0q-36 0 -45.5 9.5t-14.5 47.5q-35 270 -53 364q-4 18 -10.5 39t-12.5 35.5t-17 39.5t-15 36q-31 70 -134 139q-1 1 -47 19q-4 -46 -4 -56q-4 -201 -8 -587v-37q0 -43 -37 -43q-145 0 -219 2q-29 0 -33 32v39q2 208 6.5 628.5t6.5 633.5q1 25 1 33.5t3.5 21
t6 14.5t14 5.5t21 3.5h33.5h156q35 0 44 -10t9 -48q0 -137 -4 -411z" />
    <glyph glyph-name="L" unicode="L" horiz-adv-x="704" 
d="M342 113q0 -5 4 -37h311h41q35 -4 37 -23q2 -22 -30 -30q-2 0 -21.5 -3.5t-30.5 -3.5q-329 0 -493 -2h-4q-71 6 -87 23t-16 86q2 200 6.5 600.5t6.5 601.5v25q1 41 11 50t50 9q27 0 83 -1t83 -1q43 0 52 -8t9 -49q-4 -290 -8 -858q-1 -63 -2 -189.5t-2 -189.5z" />
    <glyph glyph-name="M" unicode="M" horiz-adv-x="1568" 
d="M1516 252q0 -29 1 -90t1 -92q0 -30 -9.5 -39t-40.5 -11h-170q-47 0 -58 11t-13 57q-2 234 -10 707q-5 220 -5 264q-2 0 -5.5 1t-4.5 1q-7 -10 -26 -43q-166 -318 -236 -612q-8 -35 -17 -46t-36 -12q-2 0 -8 -1t-9 -1h-86h-86q-3 0 -8.5 1t-7.5 1q-27 1 -36 12t-17 46
q-67 282 -236 612q-19 33 -26 43q-1 0 -5 -1t-6 -1q-1 -44 -2 -132t-2 -132q-2 -118 -6 -353.5t-6 -353.5q0 -46 -11.5 -57t-58.5 -11h-170q-32 1 -40.5 10t-8.5 40q0 123 2 182q3 175 9.5 517.5t9.5 510.5q0 39 -2 57q-10 61 39 64q145 6 274 -2q36 -3 76 -49
q69 -73 112 -136q123 -189 213 -401q82 200 213 401q36 53 111 136q47 47 78 49q128 8 274 2q24 -1 34 -19t5 -45q-4 -38 -2 -57q3 -168 9.5 -510.5t9.5 -517.5z" />
    <glyph glyph-name="N" unicode="N" horiz-adv-x="1181" 
d="M786 852q13 -20 25 -41v451q0 10 -0.5 28t-0.5 32.5t1 27.5q0 27 8 35t35 8h193q32 -1 41.5 -11.5t9.5 -42.5q2 -65 4 -197.5t4 -197.5q2 -67 5 -141t7 -164t6 -141q2 -68 6.5 -210t6.5 -216q2 -31 -7 -41t-40 -11q-98 0 -197 3q-29 0 -41 9t-18 34q-24 93 -62 187
t-98 220.5t-82 177.5q-90 206 -211 375q-6 10 -27 37q-4 -54 -4 -59q0 -304 -4 -910v-33q-2 -22 -10 -31t-31 -10h-209q-36 0 -39 39v47q6 584 9 1176v10v11.5t-0.5 10t-1.5 11t-3 10t-5 11t-7 10.5q-10 12 -4 24.5t25 18.5q16 4 30 4q146 0 187 -4q36 -2 96 -33
q28 -15 56.5 -40t45.5 -43t47 -52q121 -151 254 -379z" />
    <glyph glyph-name="O" unicode="O" horiz-adv-x="1138" 
d="M1100 965q58 -347 -74 -641q-37 -81 -102 -166q-119 -150 -308 -150q-9 0 -28.5 -1t-28.5 -1v-2q-90 4 -135 4q-126 5 -225 113t-140 270q-95 359 43 703q55 136 144 221q112 107 239 102q38 -2 132.5 -0.5t132.5 0.5q38 0 84 -22q89 -39 161 -150q75 -118 105 -280z
M825 678q16 254 -67 452q-53 121 -131 185q-28 22 -39 22t-37 -22q-74 -61 -129 -162q-145 -279 -103 -608q19 -183 105 -318q54 -92 127 -129q95 57 172 197q90 178 102 383z" />
    <glyph glyph-name="P" unicode="P" horiz-adv-x="974" 
d="M946 1122q62 -201 -16 -358q-58 -122 -185 -193q-138 -80 -321 -90q-33 0 -51 -2q-1 0 -21 -4q-4 -32 -4 -43v-385q2 -27 -6.5 -38.5t-34.5 -12.5q-69 -4 -203 -8q-27 0 -36 9.5t-9 37.5q4 352 4 524q0 2 -6 629q0 26 -1 78t-1 77q0 36 10 46t44 12q337 18 450 18
q139 -2 241 -79t146 -218zM635 752q75 128 37 301q-28 148 -135 233q-85 73 -191 64q2 -100 6 -372t6 -423q195 55 277 197z" />
    <glyph glyph-name="Q" unicode="Q" horiz-adv-x="1138" 
d="M1047 -268q5 -2 11.5 -7t6.5 -8q-4 -18 -14 -26q-17 -13 -33 -13q-110 -8 -184 -14q-158 17 -203 27q-133 26 -174 172q-21 84 -13 145h-20q-126 5 -225 113t-140 270q-95 359 43 703q55 136 144 221q112 107 239 102q38 -2 132.5 -0.5t132.5 0.5q38 0 84 -22
q89 -39 161 -150q75 -118 105 -280q58 -347 -74 -641q-37 -81 -102 -166q-79 -99 -189 -133v-13q0 -94 10 -139q12 -61 62 -101t111 -34h88q23 0 41 -6zM424 227q54 -92 127 -129q95 57 172 197q90 178 102 383q16 254 -67 452q-53 121 -131 185q-28 22 -39 22t-37 -22
q-74 -61 -129 -162q-145 -279 -103 -608q19 -183 105 -318z" />
    <glyph glyph-name="R" unicode="R" horiz-adv-x="1048" 
d="M743 698q-18 -6 -45 -12q7 -5 15 -11t10 -7q155 -100 231 -281q62 -151 62 -313q0 -31 -9 -41t-38 -10q-97 -3 -193 0q-28 0 -37 9t-10 38q-11 180 -59 297q-59 143 -164 225q-28 21 -103 55q-6 4 -14 5t-21 1.5t-18 1.5q-4 -46 -4 -57q-6 -411 -6 -416q0 -22 2 -65
t2 -64q1 -34 -9 -44.5t-44 -10.5q-121 0 -182 2q-33 0 -42.5 9t-11.5 42q-2 43 -2 129q2 147 7.5 440t7.5 439v295q0 46 12 58.5t55 12.5q313 0 402 -4q118 -10 223 -43q163 -51 237 -256q40 -109 15 -209q-24 -105 -117 -151q-37 -19 -152 -64zM360 1358q-1 -105 -4 -312.5
t-4 -312.5q132 -3 262 62q122 57 119 194q-2 51 -15.5 101t-43 99t-71.5 86t-104.5 59.5t-138.5 23.5z" />
    <glyph glyph-name="S" unicode="S" horiz-adv-x="991" 
d="M311 627q6 0 17 -7t14 -8q-8 -125 -6 -182q0 -53 10 -121q19 -114 129 -196q36 -26 72 0q111 82 129 215q21 187 -82 352q-56 91 -172 117q-27 7 -86.5 22t-89.5 23q-93 23 -156 80q-86 83 -61 206q49 217 274 289q67 21 160 21q37 1 79.5 0t94 -3t80.5 -3q4 0 12 -1
t12 -1q90 -17 131 -60.5t54 -136.5q3 -21 4 -44.5t1 -53t1 -45.5q0 -39 -39 -39q-105 -3 -213 0q-21 1 -27 10t-8 37q-5 111 -8 131q-8 43 -31 90q-12 27 -35.5 37t-50.5 2q-73 -22 -136 -101t-71 -157q-13 -127 111 -182q17 -8 37.5 -15.5t34 -11.5t39.5 -11t36 -10
q16 -4 44.5 -11t52.5 -13t45 -12q90 -28 151 -115q133 -192 97 -400q-23 -143 -112 -223t-222 -86q-116 -8 -265 6q-120 12 -205 98.5t-104 211.5q-12 88 0 264q3 37 35 37h223z" />
    <glyph glyph-name="T" unicode="T" horiz-adv-x="806" 
d="M260 1290v60q-28 1 -77 4t-70 4q-3 0 -49.5 4t-69.5 8q-7 1 -15.5 10t-11.5 17q-2 3 6.5 13t14.5 11q41 13 75 13h318q44 0 93 1t109.5 2.5t94.5 2.5q37 0 119 -8q10 0 24 -7q18 -18 17 -24q-4 -19 -19 -27q-5 -3 -12 -4t-15.5 -1t-13.5 -1q-38 -2 -113 -5t-112 -5
q-4 -32 -4 -43q-6 -414 -14 -1231v-27q0 -47 -39 -47q-73 -2 -213 2q-37 0 -37 41v43q8 795 14 1194z" />
    <glyph glyph-name="U" unicode="U" horiz-adv-x="1064" 
d="M1018 1384v-391q-8 -240 -25 -571q-2 -82 -24 -195q-22 -93 -83.5 -150.5t-150.5 -64.5q-242 -22 -387 0q-239 39 -266 269q-8 66 -33 424q-2 26 -2 156.5t0.5 255.5t-0.5 214v39t4 25t7 17t16.5 8t24 4t36.5 1q25 0 76 1t76 1q31 0 40 -8.5t9 -40.5v-430
q0 -148 0.5 -217t6.5 -188.5t19 -214.5q11 -90 44 -146q40 -68 120 -96q34 -14 68 10q80 59 92 160q25 199 27 242q16 455 22 686q1 30 0 63.5t-3 74.5t-3 64q-2 37 5.5 45.5t41.5 8.5q122 4 182 4q37 0 48.5 -11t11.5 -49z" />
    <glyph glyph-name="V" unicode="V" horiz-adv-x="1142" 
d="M1102 1444q8 0 17 -1.5t22 -4.5t22 -4q-2 -10 -6.5 -33.5t-7.5 -34.5q-20 -67 -56 -182t-65.5 -211t-54.5 -182q-114 -366 -225 -732q-12 -39 -21.5 -46t-48.5 -9h-107h-106q-39 2 -48.5 9t-21.5 46q-38 122 -112.5 366t-112.5 366q-20 67 -56 182t-65.5 211t-54.5 182
q-3 11 -7.5 34.5t-6.5 33.5q9 1 22 4t22 4.5t17 1.5q27 0 84 -1t86 -1q35 -2 45 -9.5t20 -43.5q49 -159 147.5 -479t147.5 -480q49 159 147.5 479t147.5 480q10 36 20 43.5t44 9.5q28 0 86 1t86 1z" />
    <glyph glyph-name="W" unicode="W" horiz-adv-x="1579" 
d="M1524 1405q0 -295 4 -881q0 -186 -35 -323q-39 -164 -197 -195q-155 -30 -356 0q-89 14 -152 103q-60 -89 -149 -103q-201 -30 -358 0q-155 31 -197 195q-33 140 -33 323q0 295 4 881q0 3 1.5 10t2.5 12q27 9 31 9q143 0 213 -2q26 0 33.5 -11t7.5 -45q0 -75 -1 -224
t-1 -224q0 -435 4 -559q1 -23 5 -50.5t8.5 -45.5t13 -51t12.5 -48q10 -34 35 -59q22 -28 38.5 -27.5t35.5 29.5q59 90 75 149q36 119 45 238q4 54 31 614v4q0 45 17 52q8 4 40 4h86h89q33 0 41 -4q17 -7 14 -52v-4q22 -458 33 -614q10 -128 43 -238q18 -59 77 -149
q19 -29 35 -29.5t39 27.5q26 30 35 59q4 17 14.5 60.5t16 74t6.5 60.5q6 186 6 559q0 75 -1 224t-1 224q-1 34 6.5 45t32.5 11q72 2 213 2q6 0 33 -9q1 -5 2.5 -12t1.5 -10z" />
    <glyph glyph-name="X" unicode="X" horiz-adv-x="1185" 
d="M1014 377q28 -49 84 -148.5t84 -148.5q16 -27 16 -33q0 -21 -14 -35q-8 -8 -31 -8q-31 0 -93 1t-93 1q-41 0 -62 41q-21 37 -136 239.5t-177 309.5q-173 -302 -311 -549q-21 -41 -64 -41q-31 0 -93 -1t-93 -1q-21 0 -29 8q-16 13 -16 35q0 6 16 33q29 49 85.5 148.5
t84.5 148.5q45 79 135 236.5t135 236.5q-95 160 -159 250q-113 165 -277 289q-4 3 -7 8t-7 13t-6 11q3 2 10 7.5t12.5 8.5t9.5 3q39 2 115 2h21q66 0 92.5 -5.5t47 -19.5t71.5 -63q123 -117 227 -264q104 147 227 264q51 49 71.5 63t47 19.5t92.5 5.5h21q77 0 114 -2
q5 0 11 -3t12.5 -8.5t9.5 -7.5q-2 -3 -5.5 -10.5t-7 -13t-7.5 -8.5q-164 -124 -277 -289q-85 -124 -160 -250q109 -191 273 -473z" />
    <glyph glyph-name="Y" unicode="Y" horiz-adv-x="1015" 
d="M692 623q-7 0 -22 -3t-23 -4v-200q4 -246 4 -369q0 -31 -8 -41t-35 -10q-67 -2 -202 2q-41 0 -41 43q-3 21 -3 43q-1 80 -2 239.5t-2 239.5v62q-9 2 -22 5t-24 5.5t-21 5.5q-231 60 -268 279q-15 113 -15 135q-2 104 -2 315q0 39 10.5 50.5t46.5 11.5q122 0 183 -2
q30 0 39.5 -11t11.5 -45q0 -34 -0.5 -97t-0.5 -115t1 -97q3 -74 20 -166q31 -145 189 -199q21 -7 43 9q54 41 90 110q64 125 74 309q8 171 10 261q2 36 10 45t41 10q126 0 187 -2q31 0 41 -10t10 -41q-3 -241 -17 -344q-7 -47 -16 -89q-16 -78 -59 -165q-76 -156 -228 -170z
" />
    <glyph glyph-name="Z" unicode="Z" horiz-adv-x="962" 
d="M287 907v17q-14 0 -39 -0.5t-46 -0.5t-40 1q-36 0 -45 10q-6 7 -6 20q0 6 1 10.5t3 8t6 5.5t7 3t9 1.5t8.5 0.5h9h7.5q79 4 119 0q47 -3 75 43q42 71 142 215q9 13 20.5 25.5t27 28.5t23.5 24q6 6 18 20t19 21h-205l-132 -1q-132 -1 -132 1q-24 0 -51 10q-5 2 -9.5 10
t-4.5 15q-1 3 4 9.5t10 8.5q28 8 45 8q133 2 400.5 6.5t400.5 6.5h14q20 -10 35 -19q-2 -3 -5.5 -11.5t-6 -13.5t-6.5 -8q-13 -11 -44 -33.5t-45 -35.5q-128 -115 -231 -299q-4 -7 -8 -21q2 -2 4 -10h100q44 -4 68 -8q6 -2 12.5 -9.5t5.5 -11.5q-4 -19 -18 -26q-5 -2 -45 -8
q-45 -2 -135 -2q-38 0 -54 -33q-105 -224 -171.5 -400t-98.5 -358q-5 -25 -8 -66q12 0 31.5 -1t27.5 -1q342 0 514 -2q31 0 58 -6q4 -1 9 -9.5t5 -14.5q1 -4 -3 -11.5t-9 -9.5q-40 -12 -62 -12h-352q-239 0 -358 2q-37 0 -111 8q-28 3 -35.5 12.5t-3.5 38.5q2 13 12.5 72
t15 83t14.5 67t20 77q59 211 200 508q19 43 19 45z" />
    <glyph glyph-name="bracketleft" unicode="[" 
d="M791 991q68 0 115.5 -39t47.5 -94v-330q0 -55 -47.5 -94t-115.5 -39h-601q-68 0 -115.5 39t-47.5 94v330q0 55 47.5 94t115.5 39h601zM920 528v330q0 43 -37.5 74t-91.5 31h-601q-53 0 -91 -31t-38 -74v-330q0 -43 38 -73.5t91 -30.5h601q54 0 91.5 30.5t37.5 73.5z
M252 750v-41h-51v125h125v-31h-74v-23h65v-30h-65zM395 741v-32h-53v125h76q32 0 50.5 -13t18.5 -35q0 -26 -28 -38l33 -39h-56l-26 32h-15zM395 801v-29h19q22 0 22 14q0 15 -22 15h-19zM637 741v-32h-129v125h127v-31h-76v-15h66v-30h-66v-17h78zM786 741v-32h-129v125
h127v-31h-75v-15h65v-30h-65v-17h77zM229 584l23 43h31l-39 -72h-29l-39 72h33zM315 582v-9h45v-18h-75v72h73v-19h-43v-8h39v-18h-39zM457 600q0 -15 -17 -22l19 -23h-33l-14 18h-9v-18h-30v72h43q41 0 41 -27zM414 592q12 0 12 8t-12 8h-11v-16h11zM496 606
q0 -3 24.5 -7.5t24.5 -20.5q0 -25 -43 -25q-24 0 -39 6l10 19q14 -7 31 -7q10 0 10 4q0 2 -24.5 7.5t-24.5 21.5q0 25 41 25q23 0 35 -6l-9 -19q-15 6 -26 6q-10 0 -10 -4zM553 555v72h31v-72h-31zM647 629q22 0 36.5 -11t14.5 -28q0 -15 -14.5 -26t-36.5 -11q-23 0 -37 11
t-14 26q0 17 14 28t37 11zM647 571q8 0 14.5 6t6.5 13q0 18 -21 18q-20 0 -20 -18q0 -8 5.5 -13.5t14.5 -5.5zM768 594v33h31v-72h-27l-33 33v-33h-30v72h24z" />
    <glyph glyph-name="backslash" unicode="\" 
d="M791 991q68 0 115.5 -39t47.5 -94v-330q0 -55 -47.5 -94t-115.5 -39h-601q-68 0 -115.5 39t-47.5 94v330q0 55 47.5 94t115.5 39h601zM920 528v330q0 43 -37.5 74t-91.5 31h-601q-53 0 -91 -31t-38 -74v-330q0 -43 38 -73.5t91 -30.5h601q54 0 91.5 30.5t37.5 73.5z
M252 750v-41h-51v125h125v-31h-74v-23h65v-30h-65zM395 741v-32h-53v125h76q32 0 50.5 -13t18.5 -35q0 -26 -28 -38l33 -39h-56l-26 32h-15zM395 801v-29h19q22 0 22 14q0 15 -22 15h-19zM637 741v-32h-129v125h127v-31h-76v-15h66v-30h-66v-17h78zM786 741v-32h-129v125
h127v-31h-75v-15h65v-30h-65v-17h77zM229 584l23 43h31l-39 -72h-29l-39 72h33zM315 582v-9h45v-18h-75v72h73v-19h-43v-8h39v-18h-39zM457 600q0 -15 -17 -22l19 -23h-33l-14 18h-9v-18h-30v72h43q41 0 41 -27zM414 592q12 0 12 8t-12 8h-11v-16h11zM496 606
q0 -3 24.5 -7.5t24.5 -20.5q0 -25 -43 -25q-24 0 -39 6l10 19q14 -7 31 -7q10 0 10 4q0 2 -24.5 7.5t-24.5 21.5q0 25 41 25q23 0 35 -6l-9 -19q-15 6 -26 6q-10 0 -10 -4zM553 555v72h31v-72h-31zM647 629q22 0 36.5 -11t14.5 -28q0 -15 -14.5 -26t-36.5 -11q-23 0 -37 11
t-14 26q0 17 14 28t37 11zM647 571q8 0 14.5 6t6.5 13q0 18 -21 18q-20 0 -20 -18q0 -8 5.5 -13.5t14.5 -5.5zM768 594v33h31v-72h-27l-33 33v-33h-30v72h24z" />
    <glyph glyph-name="bracketright" unicode="]" 
d="M791 991q68 0 115.5 -39t47.5 -94v-330q0 -55 -47.5 -94t-115.5 -39h-601q-68 0 -115.5 39t-47.5 94v330q0 55 47.5 94t115.5 39h601zM920 528v330q0 43 -37.5 74t-91.5 31h-601q-53 0 -91 -31t-38 -74v-330q0 -43 38 -73.5t91 -30.5h601q54 0 91.5 30.5t37.5 73.5z
M252 750v-41h-51v125h125v-31h-74v-23h65v-30h-65zM395 741v-32h-53v125h76q32 0 50.5 -13t18.5 -35q0 -26 -28 -38l33 -39h-56l-26 32h-15zM395 801v-29h19q22 0 22 14q0 15 -22 15h-19zM637 741v-32h-129v125h127v-31h-76v-15h66v-30h-66v-17h78zM786 741v-32h-129v125
h127v-31h-75v-15h65v-30h-65v-17h77zM229 584l23 43h31l-39 -72h-29l-39 72h33zM315 582v-9h45v-18h-75v72h73v-19h-43v-8h39v-18h-39zM457 600q0 -15 -17 -22l19 -23h-33l-14 18h-9v-18h-30v72h43q41 0 41 -27zM414 592q12 0 12 8t-12 8h-11v-16h11zM496 606
q0 -3 24.5 -7.5t24.5 -20.5q0 -25 -43 -25q-24 0 -39 6l10 19q14 -7 31 -7q10 0 10 4q0 2 -24.5 7.5t-24.5 21.5q0 25 41 25q23 0 35 -6l-9 -19q-15 6 -26 6q-10 0 -10 -4zM553 555v72h31v-72h-31zM647 629q22 0 36.5 -11t14.5 -28q0 -15 -14.5 -26t-36.5 -11q-23 0 -37 11
t-14 26q0 17 14 28t37 11zM647 571q8 0 14.5 6t6.5 13q0 18 -21 18q-20 0 -20 -18q0 -8 5.5 -13.5t14.5 -5.5zM768 594v33h31v-72h-27l-33 33v-33h-30v72h24z" />
    <glyph glyph-name="asciicircum" unicode="^" 
d="M791 991q68 0 115.5 -39t47.5 -94v-330q0 -55 -47.5 -94t-115.5 -39h-601q-68 0 -115.5 39t-47.5 94v330q0 55 47.5 94t115.5 39h601zM920 528v330q0 43 -37.5 74t-91.5 31h-601q-53 0 -91 -31t-38 -74v-330q0 -43 38 -73.5t91 -30.5h601q54 0 91.5 30.5t37.5 73.5z
M252 750v-41h-51v125h125v-31h-74v-23h65v-30h-65zM395 741v-32h-53v125h76q32 0 50.5 -13t18.5 -35q0 -26 -28 -38l33 -39h-56l-26 32h-15zM395 801v-29h19q22 0 22 14q0 15 -22 15h-19zM637 741v-32h-129v125h127v-31h-76v-15h66v-30h-66v-17h78zM786 741v-32h-129v125
h127v-31h-75v-15h65v-30h-65v-17h77zM229 584l23 43h31l-39 -72h-29l-39 72h33zM315 582v-9h45v-18h-75v72h73v-19h-43v-8h39v-18h-39zM457 600q0 -15 -17 -22l19 -23h-33l-14 18h-9v-18h-30v72h43q41 0 41 -27zM414 592q12 0 12 8t-12 8h-11v-16h11zM496 606
q0 -3 24.5 -7.5t24.5 -20.5q0 -25 -43 -25q-24 0 -39 6l10 19q14 -7 31 -7q10 0 10 4q0 2 -24.5 7.5t-24.5 21.5q0 25 41 25q23 0 35 -6l-9 -19q-15 6 -26 6q-10 0 -10 -4zM553 555v72h31v-72h-31zM647 629q22 0 36.5 -11t14.5 -28q0 -15 -14.5 -26t-36.5 -11q-23 0 -37 11
t-14 26q0 17 14 28t37 11zM647 571q8 0 14.5 6t6.5 13q0 18 -21 18q-20 0 -20 -18q0 -8 5.5 -13.5t14.5 -5.5zM768 594v33h31v-72h-27l-33 33v-33h-30v72h24z" />
    <glyph glyph-name="underscore" unicode="_" 
d="M791 991q68 0 115.5 -39t47.5 -94v-330q0 -55 -47.5 -94t-115.5 -39h-601q-68 0 -115.5 39t-47.5 94v330q0 55 47.5 94t115.5 39h601zM920 528v330q0 43 -37.5 74t-91.5 31h-601q-53 0 -91 -31t-38 -74v-330q0 -43 38 -73.5t91 -30.5h601q54 0 91.5 30.5t37.5 73.5z
M252 750v-41h-51v125h125v-31h-74v-23h65v-30h-65zM395 741v-32h-53v125h76q32 0 50.5 -13t18.5 -35q0 -26 -28 -38l33 -39h-56l-26 32h-15zM395 801v-29h19q22 0 22 14q0 15 -22 15h-19zM637 741v-32h-129v125h127v-31h-76v-15h66v-30h-66v-17h78zM786 741v-32h-129v125
h127v-31h-75v-15h65v-30h-65v-17h77zM229 584l23 43h31l-39 -72h-29l-39 72h33zM315 582v-9h45v-18h-75v72h73v-19h-43v-8h39v-18h-39zM457 600q0 -15 -17 -22l19 -23h-33l-14 18h-9v-18h-30v72h43q41 0 41 -27zM414 592q12 0 12 8t-12 8h-11v-16h11zM496 606
q0 -3 24.5 -7.5t24.5 -20.5q0 -25 -43 -25q-24 0 -39 6l10 19q14 -7 31 -7q10 0 10 4q0 2 -24.5 7.5t-24.5 21.5q0 25 41 25q23 0 35 -6l-9 -19q-15 6 -26 6q-10 0 -10 -4zM553 555v72h31v-72h-31zM647 629q22 0 36.5 -11t14.5 -28q0 -15 -14.5 -26t-36.5 -11q-23 0 -37 11
t-14 26q0 17 14 28t37 11zM647 571q8 0 14.5 6t6.5 13q0 18 -21 18q-20 0 -20 -18q0 -8 5.5 -13.5t14.5 -5.5zM768 594v33h31v-72h-27l-33 33v-33h-30v72h24z" />
    <glyph glyph-name="grave" unicode="`" 
d="M791 991q68 0 115.5 -39t47.5 -94v-330q0 -55 -47.5 -94t-115.5 -39h-601q-68 0 -115.5 39t-47.5 94v330q0 55 47.5 94t115.5 39h601zM920 528v330q0 43 -37.5 74t-91.5 31h-601q-53 0 -91 -31t-38 -74v-330q0 -43 38 -73.5t91 -30.5h601q54 0 91.5 30.5t37.5 73.5z
M252 750v-41h-51v125h125v-31h-74v-23h65v-30h-65zM395 741v-32h-53v125h76q32 0 50.5 -13t18.5 -35q0 -26 -28 -38l33 -39h-56l-26 32h-15zM395 801v-29h19q22 0 22 14q0 15 -22 15h-19zM637 741v-32h-129v125h127v-31h-76v-15h66v-30h-66v-17h78zM786 741v-32h-129v125
h127v-31h-75v-15h65v-30h-65v-17h77zM229 584l23 43h31l-39 -72h-29l-39 72h33zM315 582v-9h45v-18h-75v72h73v-19h-43v-8h39v-18h-39zM457 600q0 -15 -17 -22l19 -23h-33l-14 18h-9v-18h-30v72h43q41 0 41 -27zM414 592q12 0 12 8t-12 8h-11v-16h11zM496 606
q0 -3 24.5 -7.5t24.5 -20.5q0 -25 -43 -25q-24 0 -39 6l10 19q14 -7 31 -7q10 0 10 4q0 2 -24.5 7.5t-24.5 21.5q0 25 41 25q23 0 35 -6l-9 -19q-15 6 -26 6q-10 0 -10 -4zM553 555v72h31v-72h-31zM647 629q22 0 36.5 -11t14.5 -28q0 -15 -14.5 -26t-36.5 -11q-23 0 -37 11
t-14 26q0 17 14 28t37 11zM647 571q8 0 14.5 6t6.5 13q0 18 -21 18q-20 0 -20 -18q0 -8 5.5 -13.5t14.5 -5.5zM768 594v33h31v-72h-27l-33 33v-33h-30v72h24z" />
    <glyph glyph-name="a" unicode="a" horiz-adv-x="911" 
d="M856 801q17 -120 14 -217q-2 -97 -10 -276t-10 -238q-4 -33 -31 -45q-68 -32 -166 -39q-88 -9 -200 -8t-199 22q-83 19 -141 74q-52 47 -74.5 114t-14.5 130.5t33.5 120.5t63.5 91q124 109 274 123q26 3 54 3.5t67.5 -0.5t56.5 -1q11 103 -17 193t-85 137q-25 20 -55 11
t-39 -40q-24 -79 -37 -145q-6 -39 -17 -49t-47 -10q-86 -3 -172 0q-37 2 -47 13.5t-4 47.5q12 79 25 127q42 151 194 160q96 4 285 -4q113 -6 196.5 -83.5t102.5 -211.5zM559 68q19 185 27 520q-131 -25 -204.5 -108t-70.5 -201q0 -140 131 -207q58 -31 117 -4z" />
    <glyph glyph-name="b" unicode="b" horiz-adv-x="1028" 
d="M969 743q66 -207 30 -372q-22 -111 -125 -201q-185 -165 -456 -162q-91 0 -271 -4q-37 0 -57 2q-37 3 -37 41v31q2 217 5 652t5 652q0 38 9.5 48t46.5 10h180q36 -1 44.5 -10.5t8.5 -45.5q0 -105 -4 -313v-61h223q101 0 199 -45q149 -67 199 -222zM715 399
q29 208 -53 381q-40 85 -129.5 131t-184.5 31v-862q8 2 23 5t22 5q89 20 209 117q102 82 113 192z" />
    <glyph glyph-name="c" unicode="c" horiz-adv-x="921" 
d="M858 307q34 -1 42.5 -13.5t2.5 -47.5q-18 -93 -74.5 -154.5t-142.5 -73.5q-204 -27 -356 5q-127 25 -206.5 115.5t-96.5 226.5q-32 254 92 509q48 97 145 168q100 72 211 66q68 -5 156 -2q121 4 189.5 -87.5t62.5 -215.5q0 -41 -39 -41h-207q-41 0 -41 45q0 97 -39 156
q-5 8 -27 34q-83 -58 -124 -139q-126 -256 -89 -500q22 -160 150 -243q29 -19 42 -17.5t38 27.5q55 53 71 135q4 33 12 40t36 7h192z" />
    <glyph glyph-name="d" unicode="d" horiz-adv-x="1060" 
d="M1001 223v-151q0 -29 -8 -37.5t-35 -11.5q-25 -3 -72.5 -9t-85.5 -9.5t-73 -4.5q-229 -4 -342 4q-156 12 -270 129q-88 88 -97 215q-17 267 113 449q115 159 328 202q33 7 254 41v134v237q0 34 10.5 44.5t44.5 10.5q28 0 86 -1t86 -1q41 0 51 -10t10 -51v-1180zM711 72
v876q-192 -35 -295 -176q-108 -141 -111 -381q-2 -107 55.5 -189.5t152.5 -117.5t198 -12z" />
    <glyph glyph-name="e" unicode="e" horiz-adv-x="964" 
d="M377 621h-53q-11 -87 -8 -190.5t34 -182.5q34 -94 103 -137q39 -24 82 0q70 46 94 147q14 59 24.5 68t67.5 8h141q44 0 54.5 -13t3.5 -59q-37 -198 -236 -235q-192 -34 -393 2q-147 24 -213 168q-43 94 -49 194q-12 206 39 395q25 95 90 179q107 137 280 137
q29 0 87.5 -1t88.5 -1q221 3 287 -219q23 -84 39 -183q8 -47 -4 -61t-59 -14q-55 -2 -166 -2h-334zM520 1012q-152 -108 -184 -324h315q-4 18 -10.5 57.5t-10.5 61t-14 55t-21 56t-30.5 48.5t-44.5 46z" />
    <glyph glyph-name="f" unicode="f" horiz-adv-x="909" 
d="M877 1331q30 -58 39.5 -121t11.5 -153q3 -39 -37 -39h-213q-34 0 -37 47q-9 121 -18 160q-14 56 -54 121q-18 27 -37 30.5t-49 -14.5q-57 -30 -90 -102q-49 -112 -49 -248q-2 -51 -2 -152q46 1 136.5 2t135.5 2q34 0 64 -6q4 -1 7 -5.5t6.5 -11t6.5 -10.5q-3 -3 -6.5 -9
t-6.5 -9.5t-7 -3.5q-24 -8 -60 -8q-44 -1 -132.5 -2t-133.5 -2h-10v-248h-2q4 -163 8 -477q0 -3 0.5 -9.5t0.5 -12t-1 -9.5q-2 -26 -11 -35.5t-34 -9.5q-99 -3 -197 0q-27 1 -35 10t-10 39q-1 158 -4 473.5t-4 472.5q0 134 41 250q58 166 219 199q90 16 140 16q138 3 258 -8
q110 -9 166 -117z" />
    <glyph glyph-name="g" unicode="g" horiz-adv-x="1038" 
d="M977 1024q2 -305 2 -915q0 -193 -2 -291q-2 -27 -14 -76q-52 -199 -254 -246q-183 -40 -392 -8q-97 15 -159.5 84t-73.5 168q-6 44 -6 88q1 26 9.5 34.5t33.5 10.5q139 0 209 -2q24 0 30.5 -9t6.5 -36q-4 -160 86 -236q30 -26 45 -28t51 18q80 45 115 135q25 68 32 215.5
t-12 225.5h-186q-152 0 -267 30q-52 14 -83 28.5t-62 42t-48 74t-24 115.5q-9 103 27 209q59 201 166 301q149 136 332 136q69 -1 199 3.5t159 4.5h35q39 0 45 -41v-35zM674 223q6 261 14 791q-39 11 -92 -13q-122 -60 -190 -172q-68 -116 -93 -235q-28 -153 17 -254
q24 -58 82 -82q111 -45 262 -35z" />
    <glyph glyph-name="h" unicode="h" horiz-adv-x="987" 
d="M942 578q3 -83 8 -498q0 -43 -12 -55.5t-53 -12.5q-109 0 -162 2q-42 0 -53 11t-11 53q0 340 -2 409q-2 76 -18 228q-4 29 -23 76q-72 173 -264 110q-4 -102 -4 -153q-2 -87 -6 -260.5t-6 -260.5q0 -29 2 -87.5t2 -88.5q0 -38 -11.5 -49.5t-49.5 -11.5h-160
q-45 2 -56.5 12.5t-11.5 52.5q2 168 6 500q10 651 11 778q0 18 0.5 25.5t1.5 19.5t1.5 16t4 11.5t5.5 9t8.5 5t11.5 4t16 1.5t20 0.5t25 -0.5h149q33 -1 40 -8.5t7 -40.5q-1 -62 -2 -184.5t-2 -183.5q0 -3 2.5 -10t3.5 -13q10 0 28 0.5t33.5 0.5t29.5 -1q148 -4 223 -10
q194 -14 244 -213q21 -88 24 -184z" />
    <glyph glyph-name="i" unicode="i" horiz-adv-x="403" 
d="M344 1049q1 -125 3 -482.5t3 -482.5v-21q-3 -30 -12.5 -40.5t-36.5 -10.5q-133 0 -199 2q-24 0 -33.5 9.5t-9.5 33.5q0 66 -2 490.5t-2 484.5q0 43 10.5 53.5t51.5 10.5q121 0 182 -2q29 0 37 -8.5t8 -36.5zM106 1186q-27 0 -35 9.5t-10 39.5q-1 27 -3 82.5t-3 83.5
q0 28 8.5 36.5t36.5 10.5h99v-2h104q39 0 39 -37q1 -30 4 -88.5t4 -87.5q0 -28 -9 -38t-36 -11q-133 0 -199 2z" />
    <glyph glyph-name="j" unicode="j" horiz-adv-x="405" 
d="M348 1040q1 -32 1 -115t-0.5 -181.5t-0.5 -116.5q-1 -124 -3 -371t-3 -371q-3 -111 -14 -202q-14 -116 -68.5 -176.5t-179.5 -84.5q-46 -9 -106 -11t-89 -1t-106 6q-119 8 -187 131q-25 44 -30 82q-10 80 -17 193q-1 23 7.5 32t31.5 9q1 1 106.5 0.5t106.5 -0.5
q37 -3 37 -41q0 -43 4 -125q11 -97 51 -152q17 -22 45 -24.5t48 16.5q34 34 43 82q22 86 22 143q6 226 10 682q4 266 4 594q0 30 9 41t36 11q99 3 197 0q28 -1 36.5 -11t8.5 -39zM106 1186q-28 0 -36.5 9.5t-8.5 39.5q-6 83 -6 166q-1 28 7.5 36.5t37.5 10.5h99v-2h104
q39 0 39 -37q1 -20 2.5 -55.5t2.5 -65t1 -55.5q0 -28 -9 -38t-36 -11q-131 0 -197 2z" />
    <glyph glyph-name="k" unicode="k" horiz-adv-x="897" 
d="M874 53q1 -36 -9.5 -46.5t-47.5 -10.5h-172q-37 2 -45.5 10.5t-11.5 48.5q-15 218 -31 357q-19 178 -162 264q-4 3 -47 22q0 -42 0.5 -113.5t0.5 -128t-1 -106.5q0 -96 -8 -284q-1 -38 -13 -49t-51 -13q-117 0 -176 2q-33 0 -41 9t-8 44q8 408 10 617q0 118 -1 353.5
t-1 354.5q0 38 9 47t49 9h170q41 0 52 -11t11 -53v-256v-254q29 12 35 17q123 113 156 151q37 40 86 37q25 -1 75 -1t74 -1q26 0 58 -4q4 -7 5 -14.5t1 -12t-4 -12t-4.5 -9t-7.5 -9.5l-7 -9q-99 -123 -233 -202q-22 -11 -37 -21q-2 -2 -6 -10q16 -8 22 -8q230 -61 273 -297
q9 -47 15.5 -103.5t9 -96.5t7 -107.5t6.5 -100.5z" />
    <glyph glyph-name="l" unicode="l" horiz-adv-x="403" 
d="M285 1434q43 0 53 -10.5t10 -55.5q0 -265 -4 -801q0 -340 -2 -508q0 -44 -11.5 -54.5t-54.5 -12.5q-106 0 -161 2q-38 0 -49 10.5t-11 48.5q0 111 2 657t2 654q0 51 11 61.5t63 10.5q101 0 152 -2z" />
    <glyph glyph-name="m" unicode="m" horiz-adv-x="1513" 
d="M1460 725q3 -94 4 -199.5t1 -234.5t1 -199q0 -60 -13.5 -73t-70.5 -11h-151q-36 1 -46 13t-7 49q12 326 -7 671q-4 55 -20 156q-15 77 -82 123q-31 -9 -56 -25t-46 -41.5t-33.5 -44.5t-32.5 -53q2 -32 7 -89.5t8.5 -106t3.5 -91.5q1 -83 -9 -503q0 -40 -11.5 -52
t-49.5 -12q-86 -3 -176 0q-35 1 -44 11.5t-7 47.5q1 63 3 179.5t3 212.5t0 182q0 105 -31 239q-22 88 -95 133t-159 25v-61q0 -291 4 -873q0 -61 -11.5 -73.5t-70.5 -10.5h-155q-34 2 -43 11t-9 43q-4 660 -4 987q0 35 10.5 45t45.5 10q300 0 452 -2q101 -3 170 -41
q29 -14 70 -2q93 33 139 37q180 7 295 -2q73 -6 122.5 -51.5t70.5 -120.5q27 -94 30 -203z" />
    <glyph glyph-name="n" unicode="n" horiz-adv-x="1050" 
d="M1012 102q0 -58 -13.5 -70t-72.5 -12q-84 0 -166 3q-26 1 -33.5 10.5t-7.5 34.5q4 281 0 421q-1 50 -21 279q-2 26 -18 76q-31 96 -111.5 140.5t-179.5 19.5q-32 -7 -37.5 -14.5t-5.5 -41.5l1 -236q1 -237 -1 -237q0 -281 -2 -422q0 -27 -7.5 -37t-31.5 -10
q-104 -3 -207 0q-40 0 -43 43v55v428h2v447v41q0 31 35 37q234 35 576 14q53 -2 149 -39q106 -41 141 -151q35 -121 37 -172q14 -276 17 -607z" />
    <glyph glyph-name="o" unicode="o" horiz-adv-x="1069" 
d="M1042 692v-194q-18 -195 -143 -348q-127 -151 -321 -148q-131 0 -197 4q-166 14 -272 174q-65 103 -80 223q-42 299 121 527q58 78 145 129q12 7 25 12.5t23.5 9t26 6.5t24.5 4.5t27.5 3.5t25.5 2.5t27 1.5t26 1q23 2 78 0.5t77 -0.5q183 6 301 -160q77 -117 86 -248z
M641 207q120 160 123 389q0 145 -55 258q-40 84 -107 137q-28 22 -40 22.5t-40 -22.5q-65 -53 -90 -88q-207 -297 -74 -637q36 -86 105 -143q33 -27 45 -27.5t43 23.5q54 45 90 88z" />
    <glyph glyph-name="p" unicode="p" horiz-adv-x="1034" 
d="M1012 651q7 -61 4 -149q-3 -98 -60 -180q-146 -206 -344 -252q-22 -6 -49 -9.5t-45.5 -4.5t-52 -2.5t-47.5 -2.5h-80q0 -55 -2 -80q-1 -63 -3 -187.5t-3 -186.5q0 -35 -10 -45.5t-44 -10.5q-90 -3 -176 0q-38 1 -47.5 11t-9.5 47q4 330 8 499q2 164 17 930v21
q1 28 9 35.5t34 9.5q71 4 213 8q156 0 186 -2q207 -9 340.5 -128.5t161.5 -320.5zM719 446q60 285 -137 488q-61 61 -183 94h-43q-3 -153 -8 -455.5t-8 -453.5q80 5 170 65q86 62 138.5 121.5t70.5 140.5z" />
    <glyph glyph-name="q" unicode="q" horiz-adv-x="964" 
d="M905 946q0 -214 1 -642t1 -642v-37q0 -39 -39 -39q-107 -3 -213 0q-40 0 -37 47v150v240v57q-15 0 -37.5 -0.5t-39 -0.5t-31.5 1q-21 2 -60.5 4t-71.5 5t-59 9q-159 36 -236.5 151.5t-66.5 285.5q8 128 80 272q79 157 246 235q176 81 344 64q23 -2 48.5 -2t57.5 1t50 1
q41 0 51.5 -10t13.5 -52q1 -19 -0.5 -53t-1.5 -45zM614 143v858q-132 -55 -196 -153q-72 -107 -101 -227q-44 -171 29 -314q77 -148 268 -164z" />
    <glyph glyph-name="r" unicode="r" horiz-adv-x="899" 
d="M889 940q10 -72 10 -135q2 -29 -9 -41t-40 -12q-28 -1 -60 -1t-71 0.5t-60 0.5q-30 1 -38 10.5t-11 44.5q-4 85 -10 125q-7 57 -45 90q-49 -34 -66 -51q-105 -102 -131 -223q-5 -20 -7.5 -40.5t-3.5 -44.5t-1.5 -39t0 -44.5t0.5 -40.5q0 -155 4 -471q0 -43 -11 -55.5
t-50 -12.5h-162q-42 1 -53 13.5t-13 58.5q-1 147 -4 441.5t-4 442.5q-2 39 -2 115q0 32 9 41.5t40 11.5q130 0 193 -2q8 0 17 -3t20.5 -8t17.5 -7q91 17 162 12h149q54 -4 82 -10q126 -30 148 -166z" />
    <glyph glyph-name="s" unicode="s" horiz-adv-x="964" 
d="M756 586q109 -31 160 -130t16 -214q-45 -139 -154 -195q-154 -75 -274 -70q-150 0 -199 3q-126 7 -201 92t-73 217q0 30 8.5 40.5t34.5 10.5q69 2 209 -2q24 0 30 -7.5t6 -35.5q-3 -114 58 -186q29 -35 50 -40.5t62 11.5q100 43 146 147q46 101 3.5 194t-146.5 116
q-41 9 -117 23.5t-92 17.5q-119 22 -193 108q-56 63 -64.5 137t31.5 148q75 138 230 157q42 6 187.5 2.5t195.5 -12.5q168 -30 196 -215q10 -79 13 -135q2 -32 -7.5 -42.5t-40.5 -10.5q-95 -3 -190 0q-29 1 -36.5 9.5t-12.5 39.5q-2 20 -17 151q-11 69 -73 121q-39 28 -76 4
q-121 -86 -111 -206q11 -131 146 -183q26 -10 57.5 -17.5t70 -14t58.5 -11.5q69 -11 109 -22z" />
    <glyph glyph-name="t" unicode="t" horiz-adv-x="612" 
d="M606 63q6 0 15 -7t10 -13q0 -6 -6.5 -15t-12.5 -10q-30 -12 -61 -12q-90 0 -270 4q-17 0 -45 8q-85 20 -133.5 78t-51.5 144q-2 59 -2 176q4 614 6 919q0 65 11 75.5t77 10.5q25 0 73 1t73 1q40 0 48.5 -8.5t6.5 -46.5q0 -113 -2 -166q34 0 101.5 1t101.5 1q29 0 53 -6
q3 -1 5.5 -5t6.5 -12t6 -10q-2 -3 -5 -8.5t-5.5 -9t-5.5 -4.5q-24 -8 -53 -8q-68 -2 -205 -2q-1 -45 -2 -133.5t-2 -124.5q2 -258 2 -625q0 -67 29 -109q48 -76 153 -79q7 0 37 -1.5t47 -3.5z" />
    <glyph glyph-name="u" unicode="u" horiz-adv-x="1001" 
d="M944 508q0 -72 1 -216.5t1 -217.5q0 -40 -11 -53t-50 -19q-14 -2 -41 -2q-240 0 -361 4q-55 2 -200 23q-112 14 -167.5 85t-60.5 177q-8 139 -8 313q0 210 6 418q0 41 10.5 51t51.5 10q114 -4 170 -4q41 -1 48 -9t7 -48q-3 -347 0 -694q0 -44 14 -105q34 -131 166 -143
q25 -2 71.5 -2.5t61.5 -1.5q0 58 2 166.5t2 162.5q0 107 -2 321t-2 320q0 43 10.5 54t51.5 10q27 -1 82.5 -2t83.5 -2q41 -1 50 -11t11 -51q0 -89 1 -267t1 -267z" />
    <glyph glyph-name="v" unicode="v" horiz-adv-x="1099" 
d="M1079 1104q23 -3 30 -14.5t-1 -34.5q-6 -21 -14 -37q-12 -29 -88.5 -222t-116.5 -296q-18 -45 -81 -204t-97 -247q-18 -49 -56 -49h-12h-2h-92h-90h-2h-13q-23 0 -34.5 12.5t-20.5 36.5q-34 88 -97 247t-81 204q-27 68 -97.5 245t-109.5 273q-2 6 -6 18.5t-6 18.5
q-8 23 -1.5 34.5t29.5 14.5q18 1 92 0t85 0q49 0 61 -8.5t31 -55.5q88 -219 260 -657q44 110 131 329t131 328q19 47 31 55.5t61 8.5q11 -1 84 0t92 0z" />
    <glyph glyph-name="w" unicode="w" horiz-adv-x="1511" 
d="M1468 1100q35 -1 43.5 -14t-0.5 -48q-47 -164 -140 -492.5t-140 -492.5q-11 -36 -23 -45.5t-47 -9.5h-166q-44 1 -55 11t-22 54q-20 83 -62.5 250t-62.5 250q0 1 -19 64q-16 -28 -20 -39q-111 -273 -219 -549q-15 -43 -58 -43h-192q-28 1 -34 8.5t-9 40.5q-1 7 -4.5 21.5
t-4.5 21.5q-105 433 -225 940q-15 58 -5.5 71t67.5 13h149q41 0 52 -8.5t20 -48.5q19 -80 58 -241t59 -241q9 -39 14 -55h8q10 18 21 43q114 281 194 488q12 30 30 42t48 11q26 -2 162 -2q39 0 52.5 -10.5t23.5 -49.5q11 -37 29 -108.5t20 -79.5q10 -41 30.5 -122t30.5 -122
q1 -3 2.5 -8.5t4.5 -14t5 -16.5q18 50 21 60l117 411q12 43 23 51.5t54 8.5h170z" />
    <glyph glyph-name="x" unicode="x" horiz-adv-x="985" 
d="M967 80q23 -32 18 -49q-1 -6 -5 -10t-7 -6.5t-10 -3.5t-9.5 -1h-11.5h-10h-88h-84q-43 -3 -68 37q-34 48 -100 145.5t-100 145.5q-33 -48 -99.5 -145.5t-99.5 -145.5q-29 -40 -70 -37h-82h-90h-10h-11.5t-9.5 1t-10 3.5t-7 6.5t-5 10q-3 20 18 49q54 80 163 238.5
t163 238.5q-242 351 -324 473q-2 2 -5 6t-5 6q-32 56 29 56q30 1 64.5 1t77 -0.5t65.5 -0.5q13 -1 25 -9t15.5 -13t14.5 -21q31 -47 96 -140.5t97 -140.5q81 115 192 281q10 14 15 20.5t16 14t24 8.5h209q59 0 27 -56q-1 -2 -4 -6t-4 -6q-54 -79 -162.5 -236.5
t-163.5 -236.5q23 -33 143.5 -208t182.5 -269z" />
    <glyph glyph-name="y" unicode="y" horiz-adv-x="995" 
d="M901 1112q36 0 45.5 -9.5t7.5 -45.5q-32 -529 -22 -897q5 -149 -31 -373q-19 -108 -100.5 -182.5t-198.5 -81.5q-103 -7 -260 0q-131 6 -192 143q-35 73 -31 193q0 39 37 39h88q14 0 40.5 0.5t48.5 0.5t42 -1q27 -1 32.5 -11.5t2.5 -42.5q-10 -101 30 -174
q17 -28 49.5 -32t55.5 18q36 36 49 74q42 125 49 327h-49q-31 1 -87.5 0.5t-102 0.5t-85.5 5q-113 9 -182 79.5t-80 183.5q-16 163 -16 305q0 137 8 411q1 42 13 53t57 11q115 0 172 -2q21 0 34.5 -15t12.5 -36q-1 -56 -2.5 -158.5t-2.5 -186.5t-1 -159q0 -82 16 -238
q9 -79 70 -137q69 -66 145 -43q14 4 76 8q4 28 4 43q-3 81 -3.5 162t2.5 180.5t5 154t8 180.5t7 161q3 69 15.5 80.5t84.5 11.5h139z" />
    <glyph glyph-name="z" unicode="z" horiz-adv-x="856" 
d="M793 66q49 0 65 -23q2 -29 -33 -33q-40 -8 -61 -8q-224 0 -670 4q-40 0 -71 8q-25 8 -30.5 22.5t11.5 31.5q10 11 19 23t17.5 26t14 24.5t13 28t11 25.5t11.5 28.5t10 26.5q79 219 129 336q116 271 273 418q6 6 14 18h-166h-217q-21 0 -33 2q-41 0 -41 29q0 8 2.5 13
t8 7.5t9 3.5t12.5 1.5t11 0.5q14 1 123.5 7t167.5 6h137t136.5 -2t136.5 -3q3 0 14.5 0.5t16 0t12.5 -2.5t12 -7.5t6 -14.5q3 -9 -0.5 -17.5t-8.5 -12.5t-15 -10.5t-13 -8.5q-117 -96 -184 -205q-115 -182 -172 -348q-42 -121 -109 -287q-10 -28 -53 -113h101q64 1 192 2.5
t191 2.5z" />
    <glyph glyph-name="braceleft" unicode="{" 
d="M791 991q68 0 115.5 -39t47.5 -94v-330q0 -55 -47.5 -94t-115.5 -39h-601q-68 0 -115.5 39t-47.5 94v330q0 55 47.5 94t115.5 39h601zM920 528v330q0 43 -37.5 74t-91.5 31h-601q-53 0 -91 -31t-38 -74v-330q0 -43 38 -73.5t91 -30.5h601q54 0 91.5 30.5t37.5 73.5z
M252 750v-41h-51v125h125v-31h-74v-23h65v-30h-65zM395 741v-32h-53v125h76q32 0 50.5 -13t18.5 -35q0 -26 -28 -38l33 -39h-56l-26 32h-15zM395 801v-29h19q22 0 22 14q0 15 -22 15h-19zM637 741v-32h-129v125h127v-31h-76v-15h66v-30h-66v-17h78zM786 741v-32h-129v125
h127v-31h-75v-15h65v-30h-65v-17h77zM229 584l23 43h31l-39 -72h-29l-39 72h33zM315 582v-9h45v-18h-75v72h73v-19h-43v-8h39v-18h-39zM457 600q0 -15 -17 -22l19 -23h-33l-14 18h-9v-18h-30v72h43q41 0 41 -27zM414 592q12 0 12 8t-12 8h-11v-16h11zM496 606
q0 -3 24.5 -7.5t24.5 -20.5q0 -25 -43 -25q-24 0 -39 6l10 19q14 -7 31 -7q10 0 10 4q0 2 -24.5 7.5t-24.5 21.5q0 25 41 25q23 0 35 -6l-9 -19q-15 6 -26 6q-10 0 -10 -4zM553 555v72h31v-72h-31zM647 629q22 0 36.5 -11t14.5 -28q0 -15 -14.5 -26t-36.5 -11q-23 0 -37 11
t-14 26q0 17 14 28t37 11zM647 571q8 0 14.5 6t6.5 13q0 18 -21 18q-20 0 -20 -18q0 -8 5.5 -13.5t14.5 -5.5zM768 594v33h31v-72h-27l-33 33v-33h-30v72h24z" />
    <glyph glyph-name="bar" unicode="|" 
d="M791 991q68 0 115.5 -39t47.5 -94v-330q0 -55 -47.5 -94t-115.5 -39h-601q-68 0 -115.5 39t-47.5 94v330q0 55 47.5 94t115.5 39h601zM920 528v330q0 43 -37.5 74t-91.5 31h-601q-53 0 -91 -31t-38 -74v-330q0 -43 38 -73.5t91 -30.5h601q54 0 91.5 30.5t37.5 73.5z
M252 750v-41h-51v125h125v-31h-74v-23h65v-30h-65zM395 741v-32h-53v125h76q32 0 50.5 -13t18.5 -35q0 -26 -28 -38l33 -39h-56l-26 32h-15zM395 801v-29h19q22 0 22 14q0 15 -22 15h-19zM637 741v-32h-129v125h127v-31h-76v-15h66v-30h-66v-17h78zM786 741v-32h-129v125
h127v-31h-75v-15h65v-30h-65v-17h77zM229 584l23 43h31l-39 -72h-29l-39 72h33zM315 582v-9h45v-18h-75v72h73v-19h-43v-8h39v-18h-39zM457 600q0 -15 -17 -22l19 -23h-33l-14 18h-9v-18h-30v72h43q41 0 41 -27zM414 592q12 0 12 8t-12 8h-11v-16h11zM496 606
q0 -3 24.5 -7.5t24.5 -20.5q0 -25 -43 -25q-24 0 -39 6l10 19q14 -7 31 -7q10 0 10 4q0 2 -24.5 7.5t-24.5 21.5q0 25 41 25q23 0 35 -6l-9 -19q-15 6 -26 6q-10 0 -10 -4zM553 555v72h31v-72h-31zM647 629q22 0 36.5 -11t14.5 -28q0 -15 -14.5 -26t-36.5 -11q-23 0 -37 11
t-14 26q0 17 14 28t37 11zM647 571q8 0 14.5 6t6.5 13q0 18 -21 18q-20 0 -20 -18q0 -8 5.5 -13.5t14.5 -5.5zM768 594v33h31v-72h-27l-33 33v-33h-30v72h24z" />
    <glyph glyph-name="braceright" unicode="}" 
d="M791 991q68 0 115.5 -39t47.5 -94v-330q0 -55 -47.5 -94t-115.5 -39h-601q-68 0 -115.5 39t-47.5 94v330q0 55 47.5 94t115.5 39h601zM920 528v330q0 43 -37.5 74t-91.5 31h-601q-53 0 -91 -31t-38 -74v-330q0 -43 38 -73.5t91 -30.5h601q54 0 91.5 30.5t37.5 73.5z
M252 750v-41h-51v125h125v-31h-74v-23h65v-30h-65zM395 741v-32h-53v125h76q32 0 50.5 -13t18.5 -35q0 -26 -28 -38l33 -39h-56l-26 32h-15zM395 801v-29h19q22 0 22 14q0 15 -22 15h-19zM637 741v-32h-129v125h127v-31h-76v-15h66v-30h-66v-17h78zM786 741v-32h-129v125
h127v-31h-75v-15h65v-30h-65v-17h77zM229 584l23 43h31l-39 -72h-29l-39 72h33zM315 582v-9h45v-18h-75v72h73v-19h-43v-8h39v-18h-39zM457 600q0 -15 -17 -22l19 -23h-33l-14 18h-9v-18h-30v72h43q41 0 41 -27zM414 592q12 0 12 8t-12 8h-11v-16h11zM496 606
q0 -3 24.5 -7.5t24.5 -20.5q0 -25 -43 -25q-24 0 -39 6l10 19q14 -7 31 -7q10 0 10 4q0 2 -24.5 7.5t-24.5 21.5q0 25 41 25q23 0 35 -6l-9 -19q-15 6 -26 6q-10 0 -10 -4zM553 555v72h31v-72h-31zM647 629q22 0 36.5 -11t14.5 -28q0 -15 -14.5 -26t-36.5 -11q-23 0 -37 11
t-14 26q0 17 14 28t37 11zM647 571q8 0 14.5 6t6.5 13q0 18 -21 18q-20 0 -20 -18q0 -8 5.5 -13.5t14.5 -5.5zM768 594v33h31v-72h-27l-33 33v-33h-30v72h24z" />
    <glyph glyph-name="asciitilde" unicode="~" 
d="M791 991q68 0 115.5 -39t47.5 -94v-330q0 -55 -47.5 -94t-115.5 -39h-601q-68 0 -115.5 39t-47.5 94v330q0 55 47.5 94t115.5 39h601zM920 528v330q0 43 -37.5 74t-91.5 31h-601q-53 0 -91 -31t-38 -74v-330q0 -43 38 -73.5t91 -30.5h601q54 0 91.5 30.5t37.5 73.5z
M252 750v-41h-51v125h125v-31h-74v-23h65v-30h-65zM395 741v-32h-53v125h76q32 0 50.5 -13t18.5 -35q0 -26 -28 -38l33 -39h-56l-26 32h-15zM395 801v-29h19q22 0 22 14q0 15 -22 15h-19zM637 741v-32h-129v125h127v-31h-76v-15h66v-30h-66v-17h78zM786 741v-32h-129v125
h127v-31h-75v-15h65v-30h-65v-17h77zM229 584l23 43h31l-39 -72h-29l-39 72h33zM315 582v-9h45v-18h-75v72h73v-19h-43v-8h39v-18h-39zM457 600q0 -15 -17 -22l19 -23h-33l-14 18h-9v-18h-30v72h43q41 0 41 -27zM414 592q12 0 12 8t-12 8h-11v-16h11zM496 606
q0 -3 24.5 -7.5t24.5 -20.5q0 -25 -43 -25q-24 0 -39 6l10 19q14 -7 31 -7q10 0 10 4q0 2 -24.5 7.5t-24.5 21.5q0 25 41 25q23 0 35 -6l-9 -19q-15 6 -26 6q-10 0 -10 -4zM553 555v72h31v-72h-31zM647 629q22 0 36.5 -11t14.5 -28q0 -15 -14.5 -26t-36.5 -11q-23 0 -37 11
t-14 26q0 17 14 28t37 11zM647 571q8 0 14.5 6t6.5 13q0 18 -21 18q-20 0 -20 -18q0 -8 5.5 -13.5t14.5 -5.5zM768 594v33h31v-72h-27l-33 33v-33h-30v72h24z" />
    <glyph glyph-name="nbspace" unicode="&#xa0;" horiz-adv-x="591" 
 />
    <glyph glyph-name="exclamdown" unicode="&#xa1;" 
d="M791 991q68 0 115.5 -39t47.5 -94v-330q0 -55 -47.5 -94t-115.5 -39h-601q-68 0 -115.5 39t-47.5 94v330q0 55 47.5 94t115.5 39h601zM920 528v330q0 43 -37.5 74t-91.5 31h-601q-53 0 -91 -31t-38 -74v-330q0 -43 38 -73.5t91 -30.5h601q54 0 91.5 30.5t37.5 73.5z
M252 750v-41h-51v125h125v-31h-74v-23h65v-30h-65zM395 741v-32h-53v125h76q32 0 50.5 -13t18.5 -35q0 -26 -28 -38l33 -39h-56l-26 32h-15zM395 801v-29h19q22 0 22 14q0 15 -22 15h-19zM637 741v-32h-129v125h127v-31h-76v-15h66v-30h-66v-17h78zM786 741v-32h-129v125
h127v-31h-75v-15h65v-30h-65v-17h77zM229 584l23 43h31l-39 -72h-29l-39 72h33zM315 582v-9h45v-18h-75v72h73v-19h-43v-8h39v-18h-39zM457 600q0 -15 -17 -22l19 -23h-33l-14 18h-9v-18h-30v72h43q41 0 41 -27zM414 592q12 0 12 8t-12 8h-11v-16h11zM496 606
q0 -3 24.5 -7.5t24.5 -20.5q0 -25 -43 -25q-24 0 -39 6l10 19q14 -7 31 -7q10 0 10 4q0 2 -24.5 7.5t-24.5 21.5q0 25 41 25q23 0 35 -6l-9 -19q-15 6 -26 6q-10 0 -10 -4zM553 555v72h31v-72h-31zM647 629q22 0 36.5 -11t14.5 -28q0 -15 -14.5 -26t-36.5 -11q-23 0 -37 11
t-14 26q0 17 14 28t37 11zM647 571q8 0 14.5 6t6.5 13q0 18 -21 18q-20 0 -20 -18q0 -8 5.5 -13.5t14.5 -5.5zM768 594v33h31v-72h-27l-33 33v-33h-30v72h24z" />
    <glyph glyph-name="cent" unicode="&#xa2;" 
d="M791 991q68 0 115.5 -39t47.5 -94v-330q0 -55 -47.5 -94t-115.5 -39h-601q-68 0 -115.5 39t-47.5 94v330q0 55 47.5 94t115.5 39h601zM920 528v330q0 43 -37.5 74t-91.5 31h-601q-53 0 -91 -31t-38 -74v-330q0 -43 38 -73.5t91 -30.5h601q54 0 91.5 30.5t37.5 73.5z
M252 750v-41h-51v125h125v-31h-74v-23h65v-30h-65zM395 741v-32h-53v125h76q32 0 50.5 -13t18.5 -35q0 -26 -28 -38l33 -39h-56l-26 32h-15zM395 801v-29h19q22 0 22 14q0 15 -22 15h-19zM637 741v-32h-129v125h127v-31h-76v-15h66v-30h-66v-17h78zM786 741v-32h-129v125
h127v-31h-75v-15h65v-30h-65v-17h77zM229 584l23 43h31l-39 -72h-29l-39 72h33zM315 582v-9h45v-18h-75v72h73v-19h-43v-8h39v-18h-39zM457 600q0 -15 -17 -22l19 -23h-33l-14 18h-9v-18h-30v72h43q41 0 41 -27zM414 592q12 0 12 8t-12 8h-11v-16h11zM496 606
q0 -3 24.5 -7.5t24.5 -20.5q0 -25 -43 -25q-24 0 -39 6l10 19q14 -7 31 -7q10 0 10 4q0 2 -24.5 7.5t-24.5 21.5q0 25 41 25q23 0 35 -6l-9 -19q-15 6 -26 6q-10 0 -10 -4zM553 555v72h31v-72h-31zM647 629q22 0 36.5 -11t14.5 -28q0 -15 -14.5 -26t-36.5 -11q-23 0 -37 11
t-14 26q0 17 14 28t37 11zM647 571q8 0 14.5 6t6.5 13q0 18 -21 18q-20 0 -20 -18q0 -8 5.5 -13.5t14.5 -5.5zM768 594v33h31v-72h-27l-33 33v-33h-30v72h24z" />
    <glyph glyph-name="sterling" unicode="&#xa3;" 
d="M791 991q68 0 115.5 -39t47.5 -94v-330q0 -55 -47.5 -94t-115.5 -39h-601q-68 0 -115.5 39t-47.5 94v330q0 55 47.5 94t115.5 39h601zM920 528v330q0 43 -37.5 74t-91.5 31h-601q-53 0 -91 -31t-38 -74v-330q0 -43 38 -73.5t91 -30.5h601q54 0 91.5 30.5t37.5 73.5z
M252 750v-41h-51v125h125v-31h-74v-23h65v-30h-65zM395 741v-32h-53v125h76q32 0 50.5 -13t18.5 -35q0 -26 -28 -38l33 -39h-56l-26 32h-15zM395 801v-29h19q22 0 22 14q0 15 -22 15h-19zM637 741v-32h-129v125h127v-31h-76v-15h66v-30h-66v-17h78zM786 741v-32h-129v125
h127v-31h-75v-15h65v-30h-65v-17h77zM229 584l23 43h31l-39 -72h-29l-39 72h33zM315 582v-9h45v-18h-75v72h73v-19h-43v-8h39v-18h-39zM457 600q0 -15 -17 -22l19 -23h-33l-14 18h-9v-18h-30v72h43q41 0 41 -27zM414 592q12 0 12 8t-12 8h-11v-16h11zM496 606
q0 -3 24.5 -7.5t24.5 -20.5q0 -25 -43 -25q-24 0 -39 6l10 19q14 -7 31 -7q10 0 10 4q0 2 -24.5 7.5t-24.5 21.5q0 25 41 25q23 0 35 -6l-9 -19q-15 6 -26 6q-10 0 -10 -4zM553 555v72h31v-72h-31zM647 629q22 0 36.5 -11t14.5 -28q0 -15 -14.5 -26t-36.5 -11q-23 0 -37 11
t-14 26q0 17 14 28t37 11zM647 571q8 0 14.5 6t6.5 13q0 18 -21 18q-20 0 -20 -18q0 -8 5.5 -13.5t14.5 -5.5zM768 594v33h31v-72h-27l-33 33v-33h-30v72h24z" />
    <glyph glyph-name="currency" unicode="&#xa4;" 
d="M791 991q68 0 115.5 -39t47.5 -94v-330q0 -55 -47.5 -94t-115.5 -39h-601q-68 0 -115.5 39t-47.5 94v330q0 55 47.5 94t115.5 39h601zM920 528v330q0 43 -37.5 74t-91.5 31h-601q-53 0 -91 -31t-38 -74v-330q0 -43 38 -73.5t91 -30.5h601q54 0 91.5 30.5t37.5 73.5z
M252 750v-41h-51v125h125v-31h-74v-23h65v-30h-65zM395 741v-32h-53v125h76q32 0 50.5 -13t18.5 -35q0 -26 -28 -38l33 -39h-56l-26 32h-15zM395 801v-29h19q22 0 22 14q0 15 -22 15h-19zM637 741v-32h-129v125h127v-31h-76v-15h66v-30h-66v-17h78zM786 741v-32h-129v125
h127v-31h-75v-15h65v-30h-65v-17h77zM229 584l23 43h31l-39 -72h-29l-39 72h33zM315 582v-9h45v-18h-75v72h73v-19h-43v-8h39v-18h-39zM457 600q0 -15 -17 -22l19 -23h-33l-14 18h-9v-18h-30v72h43q41 0 41 -27zM414 592q12 0 12 8t-12 8h-11v-16h11zM496 606
q0 -3 24.5 -7.5t24.5 -20.5q0 -25 -43 -25q-24 0 -39 6l10 19q14 -7 31 -7q10 0 10 4q0 2 -24.5 7.5t-24.5 21.5q0 25 41 25q23 0 35 -6l-9 -19q-15 6 -26 6q-10 0 -10 -4zM553 555v72h31v-72h-31zM647 629q22 0 36.5 -11t14.5 -28q0 -15 -14.5 -26t-36.5 -11q-23 0 -37 11
t-14 26q0 17 14 28t37 11zM647 571q8 0 14.5 6t6.5 13q0 18 -21 18q-20 0 -20 -18q0 -8 5.5 -13.5t14.5 -5.5zM768 594v33h31v-72h-27l-33 33v-33h-30v72h24z" />
    <glyph glyph-name="yen" unicode="&#xa5;" 
d="M791 991q68 0 115.5 -39t47.5 -94v-330q0 -55 -47.5 -94t-115.5 -39h-601q-68 0 -115.5 39t-47.5 94v330q0 55 47.5 94t115.5 39h601zM920 528v330q0 43 -37.5 74t-91.5 31h-601q-53 0 -91 -31t-38 -74v-330q0 -43 38 -73.5t91 -30.5h601q54 0 91.5 30.5t37.5 73.5z
M252 750v-41h-51v125h125v-31h-74v-23h65v-30h-65zM395 741v-32h-53v125h76q32 0 50.5 -13t18.5 -35q0 -26 -28 -38l33 -39h-56l-26 32h-15zM395 801v-29h19q22 0 22 14q0 15 -22 15h-19zM637 741v-32h-129v125h127v-31h-76v-15h66v-30h-66v-17h78zM786 741v-32h-129v125
h127v-31h-75v-15h65v-30h-65v-17h77zM229 584l23 43h31l-39 -72h-29l-39 72h33zM315 582v-9h45v-18h-75v72h73v-19h-43v-8h39v-18h-39zM457 600q0 -15 -17 -22l19 -23h-33l-14 18h-9v-18h-30v72h43q41 0 41 -27zM414 592q12 0 12 8t-12 8h-11v-16h11zM496 606
q0 -3 24.5 -7.5t24.5 -20.5q0 -25 -43 -25q-24 0 -39 6l10 19q14 -7 31 -7q10 0 10 4q0 2 -24.5 7.5t-24.5 21.5q0 25 41 25q23 0 35 -6l-9 -19q-15 6 -26 6q-10 0 -10 -4zM553 555v72h31v-72h-31zM647 629q22 0 36.5 -11t14.5 -28q0 -15 -14.5 -26t-36.5 -11q-23 0 -37 11
t-14 26q0 17 14 28t37 11zM647 571q8 0 14.5 6t6.5 13q0 18 -21 18q-20 0 -20 -18q0 -8 5.5 -13.5t14.5 -5.5zM768 594v33h31v-72h-27l-33 33v-33h-30v72h24z" />
    <glyph glyph-name="section" unicode="&#xa7;" 
d="M791 991q68 0 115.5 -39t47.5 -94v-330q0 -55 -47.5 -94t-115.5 -39h-601q-68 0 -115.5 39t-47.5 94v330q0 55 47.5 94t115.5 39h601zM920 528v330q0 43 -37.5 74t-91.5 31h-601q-53 0 -91 -31t-38 -74v-330q0 -43 38 -73.5t91 -30.5h601q54 0 91.5 30.5t37.5 73.5z
M252 750v-41h-51v125h125v-31h-74v-23h65v-30h-65zM395 741v-32h-53v125h76q32 0 50.5 -13t18.5 -35q0 -26 -28 -38l33 -39h-56l-26 32h-15zM395 801v-29h19q22 0 22 14q0 15 -22 15h-19zM637 741v-32h-129v125h127v-31h-76v-15h66v-30h-66v-17h78zM786 741v-32h-129v125
h127v-31h-75v-15h65v-30h-65v-17h77zM229 584l23 43h31l-39 -72h-29l-39 72h33zM315 582v-9h45v-18h-75v72h73v-19h-43v-8h39v-18h-39zM457 600q0 -15 -17 -22l19 -23h-33l-14 18h-9v-18h-30v72h43q41 0 41 -27zM414 592q12 0 12 8t-12 8h-11v-16h11zM496 606
q0 -3 24.5 -7.5t24.5 -20.5q0 -25 -43 -25q-24 0 -39 6l10 19q14 -7 31 -7q10 0 10 4q0 2 -24.5 7.5t-24.5 21.5q0 25 41 25q23 0 35 -6l-9 -19q-15 6 -26 6q-10 0 -10 -4zM553 555v72h31v-72h-31zM647 629q22 0 36.5 -11t14.5 -28q0 -15 -14.5 -26t-36.5 -11q-23 0 -37 11
t-14 26q0 17 14 28t37 11zM647 571q8 0 14.5 6t6.5 13q0 18 -21 18q-20 0 -20 -18q0 -8 5.5 -13.5t14.5 -5.5zM768 594v33h31v-72h-27l-33 33v-33h-30v72h24z" />
    <glyph glyph-name="copyright" unicode="&#xa9;" 
d="M791 991q68 0 115.5 -39t47.5 -94v-330q0 -55 -47.5 -94t-115.5 -39h-601q-68 0 -115.5 39t-47.5 94v330q0 55 47.5 94t115.5 39h601zM920 528v330q0 43 -37.5 74t-91.5 31h-601q-53 0 -91 -31t-38 -74v-330q0 -43 38 -73.5t91 -30.5h601q54 0 91.5 30.5t37.5 73.5z
M252 750v-41h-51v125h125v-31h-74v-23h65v-30h-65zM395 741v-32h-53v125h76q32 0 50.5 -13t18.5 -35q0 -26 -28 -38l33 -39h-56l-26 32h-15zM395 801v-29h19q22 0 22 14q0 15 -22 15h-19zM637 741v-32h-129v125h127v-31h-76v-15h66v-30h-66v-17h78zM786 741v-32h-129v125
h127v-31h-75v-15h65v-30h-65v-17h77zM229 584l23 43h31l-39 -72h-29l-39 72h33zM315 582v-9h45v-18h-75v72h73v-19h-43v-8h39v-18h-39zM457 600q0 -15 -17 -22l19 -23h-33l-14 18h-9v-18h-30v72h43q41 0 41 -27zM414 592q12 0 12 8t-12 8h-11v-16h11zM496 606
q0 -3 24.5 -7.5t24.5 -20.5q0 -25 -43 -25q-24 0 -39 6l10 19q14 -7 31 -7q10 0 10 4q0 2 -24.5 7.5t-24.5 21.5q0 25 41 25q23 0 35 -6l-9 -19q-15 6 -26 6q-10 0 -10 -4zM553 555v72h31v-72h-31zM647 629q22 0 36.5 -11t14.5 -28q0 -15 -14.5 -26t-36.5 -11q-23 0 -37 11
t-14 26q0 17 14 28t37 11zM647 571q8 0 14.5 6t6.5 13q0 18 -21 18q-20 0 -20 -18q0 -8 5.5 -13.5t14.5 -5.5zM768 594v33h31v-72h-27l-33 33v-33h-30v72h24z" />
    <glyph glyph-name="guillemotleft" unicode="&#xab;" 
d="M791 991q68 0 115.5 -39t47.5 -94v-330q0 -55 -47.5 -94t-115.5 -39h-601q-68 0 -115.5 39t-47.5 94v330q0 55 47.5 94t115.5 39h601zM920 528v330q0 43 -37.5 74t-91.5 31h-601q-53 0 -91 -31t-38 -74v-330q0 -43 38 -73.5t91 -30.5h601q54 0 91.5 30.5t37.5 73.5z
M252 750v-41h-51v125h125v-31h-74v-23h65v-30h-65zM395 741v-32h-53v125h76q32 0 50.5 -13t18.5 -35q0 -26 -28 -38l33 -39h-56l-26 32h-15zM395 801v-29h19q22 0 22 14q0 15 -22 15h-19zM637 741v-32h-129v125h127v-31h-76v-15h66v-30h-66v-17h78zM786 741v-32h-129v125
h127v-31h-75v-15h65v-30h-65v-17h77zM229 584l23 43h31l-39 -72h-29l-39 72h33zM315 582v-9h45v-18h-75v72h73v-19h-43v-8h39v-18h-39zM457 600q0 -15 -17 -22l19 -23h-33l-14 18h-9v-18h-30v72h43q41 0 41 -27zM414 592q12 0 12 8t-12 8h-11v-16h11zM496 606
q0 -3 24.5 -7.5t24.5 -20.5q0 -25 -43 -25q-24 0 -39 6l10 19q14 -7 31 -7q10 0 10 4q0 2 -24.5 7.5t-24.5 21.5q0 25 41 25q23 0 35 -6l-9 -19q-15 6 -26 6q-10 0 -10 -4zM553 555v72h31v-72h-31zM647 629q22 0 36.5 -11t14.5 -28q0 -15 -14.5 -26t-36.5 -11q-23 0 -37 11
t-14 26q0 17 14 28t37 11zM647 571q8 0 14.5 6t6.5 13q0 18 -21 18q-20 0 -20 -18q0 -8 5.5 -13.5t14.5 -5.5zM768 594v33h31v-72h-27l-33 33v-33h-30v72h24z" />
    <glyph glyph-name="softhyphen" unicode="&#xad;" horiz-adv-x="0" 
 />
    <glyph glyph-name="registered" unicode="&#xae;" 
d="M791 991q68 0 115.5 -39t47.5 -94v-330q0 -55 -47.5 -94t-115.5 -39h-601q-68 0 -115.5 39t-47.5 94v330q0 55 47.5 94t115.5 39h601zM920 528v330q0 43 -37.5 74t-91.5 31h-601q-53 0 -91 -31t-38 -74v-330q0 -43 38 -73.5t91 -30.5h601q54 0 91.5 30.5t37.5 73.5z
M252 750v-41h-51v125h125v-31h-74v-23h65v-30h-65zM395 741v-32h-53v125h76q32 0 50.5 -13t18.5 -35q0 -26 -28 -38l33 -39h-56l-26 32h-15zM395 801v-29h19q22 0 22 14q0 15 -22 15h-19zM637 741v-32h-129v125h127v-31h-76v-15h66v-30h-66v-17h78zM786 741v-32h-129v125
h127v-31h-75v-15h65v-30h-65v-17h77zM229 584l23 43h31l-39 -72h-29l-39 72h33zM315 582v-9h45v-18h-75v72h73v-19h-43v-8h39v-18h-39zM457 600q0 -15 -17 -22l19 -23h-33l-14 18h-9v-18h-30v72h43q41 0 41 -27zM414 592q12 0 12 8t-12 8h-11v-16h11zM496 606
q0 -3 24.5 -7.5t24.5 -20.5q0 -25 -43 -25q-24 0 -39 6l10 19q14 -7 31 -7q10 0 10 4q0 2 -24.5 7.5t-24.5 21.5q0 25 41 25q23 0 35 -6l-9 -19q-15 6 -26 6q-10 0 -10 -4zM553 555v72h31v-72h-31zM647 629q22 0 36.5 -11t14.5 -28q0 -15 -14.5 -26t-36.5 -11q-23 0 -37 11
t-14 26q0 17 14 28t37 11zM647 571q8 0 14.5 6t6.5 13q0 18 -21 18q-20 0 -20 -18q0 -8 5.5 -13.5t14.5 -5.5zM768 594v33h31v-72h-27l-33 33v-33h-30v72h24z" />
    <glyph glyph-name="degree" unicode="&#xb0;" 
d="M791 991q68 0 115.5 -39t47.5 -94v-330q0 -55 -47.5 -94t-115.5 -39h-601q-68 0 -115.5 39t-47.5 94v330q0 55 47.5 94t115.5 39h601zM920 528v330q0 43 -37.5 74t-91.5 31h-601q-53 0 -91 -31t-38 -74v-330q0 -43 38 -73.5t91 -30.5h601q54 0 91.5 30.5t37.5 73.5z
M252 750v-41h-51v125h125v-31h-74v-23h65v-30h-65zM395 741v-32h-53v125h76q32 0 50.5 -13t18.5 -35q0 -26 -28 -38l33 -39h-56l-26 32h-15zM395 801v-29h19q22 0 22 14q0 15 -22 15h-19zM637 741v-32h-129v125h127v-31h-76v-15h66v-30h-66v-17h78zM786 741v-32h-129v125
h127v-31h-75v-15h65v-30h-65v-17h77zM229 584l23 43h31l-39 -72h-29l-39 72h33zM315 582v-9h45v-18h-75v72h73v-19h-43v-8h39v-18h-39zM457 600q0 -15 -17 -22l19 -23h-33l-14 18h-9v-18h-30v72h43q41 0 41 -27zM414 592q12 0 12 8t-12 8h-11v-16h11zM496 606
q0 -3 24.5 -7.5t24.5 -20.5q0 -25 -43 -25q-24 0 -39 6l10 19q14 -7 31 -7q10 0 10 4q0 2 -24.5 7.5t-24.5 21.5q0 25 41 25q23 0 35 -6l-9 -19q-15 6 -26 6q-10 0 -10 -4zM553 555v72h31v-72h-31zM647 629q22 0 36.5 -11t14.5 -28q0 -15 -14.5 -26t-36.5 -11q-23 0 -37 11
t-14 26q0 17 14 28t37 11zM647 571q8 0 14.5 6t6.5 13q0 18 -21 18q-20 0 -20 -18q0 -8 5.5 -13.5t14.5 -5.5zM768 594v33h31v-72h-27l-33 33v-33h-30v72h24z" />
    <glyph glyph-name="paragraph" unicode="&#xb6;" 
d="M791 991q68 0 115.5 -39t47.5 -94v-330q0 -55 -47.5 -94t-115.5 -39h-601q-68 0 -115.5 39t-47.5 94v330q0 55 47.5 94t115.5 39h601zM920 528v330q0 43 -37.5 74t-91.5 31h-601q-53 0 -91 -31t-38 -74v-330q0 -43 38 -73.5t91 -30.5h601q54 0 91.5 30.5t37.5 73.5z
M252 750v-41h-51v125h125v-31h-74v-23h65v-30h-65zM395 741v-32h-53v125h76q32 0 50.5 -13t18.5 -35q0 -26 -28 -38l33 -39h-56l-26 32h-15zM395 801v-29h19q22 0 22 14q0 15 -22 15h-19zM637 741v-32h-129v125h127v-31h-76v-15h66v-30h-66v-17h78zM786 741v-32h-129v125
h127v-31h-75v-15h65v-30h-65v-17h77zM229 584l23 43h31l-39 -72h-29l-39 72h33zM315 582v-9h45v-18h-75v72h73v-19h-43v-8h39v-18h-39zM457 600q0 -15 -17 -22l19 -23h-33l-14 18h-9v-18h-30v72h43q41 0 41 -27zM414 592q12 0 12 8t-12 8h-11v-16h11zM496 606
q0 -3 24.5 -7.5t24.5 -20.5q0 -25 -43 -25q-24 0 -39 6l10 19q14 -7 31 -7q10 0 10 4q0 2 -24.5 7.5t-24.5 21.5q0 25 41 25q23 0 35 -6l-9 -19q-15 6 -26 6q-10 0 -10 -4zM553 555v72h31v-72h-31zM647 629q22 0 36.5 -11t14.5 -28q0 -15 -14.5 -26t-36.5 -11q-23 0 -37 11
t-14 26q0 17 14 28t37 11zM647 571q8 0 14.5 6t6.5 13q0 18 -21 18q-20 0 -20 -18q0 -8 5.5 -13.5t14.5 -5.5zM768 594v33h31v-72h-27l-33 33v-33h-30v72h24z" />
    <glyph glyph-name="guillemotright" unicode="&#xbb;" 
d="M791 991q68 0 115.5 -39t47.5 -94v-330q0 -55 -47.5 -94t-115.5 -39h-601q-68 0 -115.5 39t-47.5 94v330q0 55 47.5 94t115.5 39h601zM920 528v330q0 43 -37.5 74t-91.5 31h-601q-53 0 -91 -31t-38 -74v-330q0 -43 38 -73.5t91 -30.5h601q54 0 91.5 30.5t37.5 73.5z
M252 750v-41h-51v125h125v-31h-74v-23h65v-30h-65zM395 741v-32h-53v125h76q32 0 50.5 -13t18.5 -35q0 -26 -28 -38l33 -39h-56l-26 32h-15zM395 801v-29h19q22 0 22 14q0 15 -22 15h-19zM637 741v-32h-129v125h127v-31h-76v-15h66v-30h-66v-17h78zM786 741v-32h-129v125
h127v-31h-75v-15h65v-30h-65v-17h77zM229 584l23 43h31l-39 -72h-29l-39 72h33zM315 582v-9h45v-18h-75v72h73v-19h-43v-8h39v-18h-39zM457 600q0 -15 -17 -22l19 -23h-33l-14 18h-9v-18h-30v72h43q41 0 41 -27zM414 592q12 0 12 8t-12 8h-11v-16h11zM496 606
q0 -3 24.5 -7.5t24.5 -20.5q0 -25 -43 -25q-24 0 -39 6l10 19q14 -7 31 -7q10 0 10 4q0 2 -24.5 7.5t-24.5 21.5q0 25 41 25q23 0 35 -6l-9 -19q-15 6 -26 6q-10 0 -10 -4zM553 555v72h31v-72h-31zM647 629q22 0 36.5 -11t14.5 -28q0 -15 -14.5 -26t-36.5 -11q-23 0 -37 11
t-14 26q0 17 14 28t37 11zM647 571q8 0 14.5 6t6.5 13q0 18 -21 18q-20 0 -20 -18q0 -8 5.5 -13.5t14.5 -5.5zM768 594v33h31v-72h-27l-33 33v-33h-30v72h24z" />
    <glyph glyph-name="questiondown" unicode="&#xbf;" 
d="M791 991q68 0 115.5 -39t47.5 -94v-330q0 -55 -47.5 -94t-115.5 -39h-601q-68 0 -115.5 39t-47.5 94v330q0 55 47.5 94t115.5 39h601zM920 528v330q0 43 -37.5 74t-91.5 31h-601q-53 0 -91 -31t-38 -74v-330q0 -43 38 -73.5t91 -30.5h601q54 0 91.5 30.5t37.5 73.5z
M252 750v-41h-51v125h125v-31h-74v-23h65v-30h-65zM395 741v-32h-53v125h76q32 0 50.5 -13t18.5 -35q0 -26 -28 -38l33 -39h-56l-26 32h-15zM395 801v-29h19q22 0 22 14q0 15 -22 15h-19zM637 741v-32h-129v125h127v-31h-76v-15h66v-30h-66v-17h78zM786 741v-32h-129v125
h127v-31h-75v-15h65v-30h-65v-17h77zM229 584l23 43h31l-39 -72h-29l-39 72h33zM315 582v-9h45v-18h-75v72h73v-19h-43v-8h39v-18h-39zM457 600q0 -15 -17 -22l19 -23h-33l-14 18h-9v-18h-30v72h43q41 0 41 -27zM414 592q12 0 12 8t-12 8h-11v-16h11zM496 606
q0 -3 24.5 -7.5t24.5 -20.5q0 -25 -43 -25q-24 0 -39 6l10 19q14 -7 31 -7q10 0 10 4q0 2 -24.5 7.5t-24.5 21.5q0 25 41 25q23 0 35 -6l-9 -19q-15 6 -26 6q-10 0 -10 -4zM553 555v72h31v-72h-31zM647 629q22 0 36.5 -11t14.5 -28q0 -15 -14.5 -26t-36.5 -11q-23 0 -37 11
t-14 26q0 17 14 28t37 11zM647 571q8 0 14.5 6t6.5 13q0 18 -21 18q-20 0 -20 -18q0 -8 5.5 -13.5t14.5 -5.5zM768 594v33h31v-72h-27l-33 33v-33h-30v72h24z" />
    <glyph glyph-name="Agrave" unicode="&#xc0;" 
d="M791 991q68 0 115.5 -39t47.5 -94v-330q0 -55 -47.5 -94t-115.5 -39h-601q-68 0 -115.5 39t-47.5 94v330q0 55 47.5 94t115.5 39h601zM920 528v330q0 43 -37.5 74t-91.5 31h-601q-53 0 -91 -31t-38 -74v-330q0 -43 38 -73.5t91 -30.5h601q54 0 91.5 30.5t37.5 73.5z
M252 750v-41h-51v125h125v-31h-74v-23h65v-30h-65zM395 741v-32h-53v125h76q32 0 50.5 -13t18.5 -35q0 -26 -28 -38l33 -39h-56l-26 32h-15zM395 801v-29h19q22 0 22 14q0 15 -22 15h-19zM637 741v-32h-129v125h127v-31h-76v-15h66v-30h-66v-17h78zM786 741v-32h-129v125
h127v-31h-75v-15h65v-30h-65v-17h77zM229 584l23 43h31l-39 -72h-29l-39 72h33zM315 582v-9h45v-18h-75v72h73v-19h-43v-8h39v-18h-39zM457 600q0 -15 -17 -22l19 -23h-33l-14 18h-9v-18h-30v72h43q41 0 41 -27zM414 592q12 0 12 8t-12 8h-11v-16h11zM496 606
q0 -3 24.5 -7.5t24.5 -20.5q0 -25 -43 -25q-24 0 -39 6l10 19q14 -7 31 -7q10 0 10 4q0 2 -24.5 7.5t-24.5 21.5q0 25 41 25q23 0 35 -6l-9 -19q-15 6 -26 6q-10 0 -10 -4zM553 555v72h31v-72h-31zM647 629q22 0 36.5 -11t14.5 -28q0 -15 -14.5 -26t-36.5 -11q-23 0 -37 11
t-14 26q0 17 14 28t37 11zM647 571q8 0 14.5 6t6.5 13q0 18 -21 18q-20 0 -20 -18q0 -8 5.5 -13.5t14.5 -5.5zM768 594v33h31v-72h-27l-33 33v-33h-30v72h24z" />
    <glyph glyph-name="Aacute" unicode="&#xc1;" 
d="M791 991q68 0 115.5 -39t47.5 -94v-330q0 -55 -47.5 -94t-115.5 -39h-601q-68 0 -115.5 39t-47.5 94v330q0 55 47.5 94t115.5 39h601zM920 528v330q0 43 -37.5 74t-91.5 31h-601q-53 0 -91 -31t-38 -74v-330q0 -43 38 -73.5t91 -30.5h601q54 0 91.5 30.5t37.5 73.5z
M252 750v-41h-51v125h125v-31h-74v-23h65v-30h-65zM395 741v-32h-53v125h76q32 0 50.5 -13t18.5 -35q0 -26 -28 -38l33 -39h-56l-26 32h-15zM395 801v-29h19q22 0 22 14q0 15 -22 15h-19zM637 741v-32h-129v125h127v-31h-76v-15h66v-30h-66v-17h78zM786 741v-32h-129v125
h127v-31h-75v-15h65v-30h-65v-17h77zM229 584l23 43h31l-39 -72h-29l-39 72h33zM315 582v-9h45v-18h-75v72h73v-19h-43v-8h39v-18h-39zM457 600q0 -15 -17 -22l19 -23h-33l-14 18h-9v-18h-30v72h43q41 0 41 -27zM414 592q12 0 12 8t-12 8h-11v-16h11zM496 606
q0 -3 24.5 -7.5t24.5 -20.5q0 -25 -43 -25q-24 0 -39 6l10 19q14 -7 31 -7q10 0 10 4q0 2 -24.5 7.5t-24.5 21.5q0 25 41 25q23 0 35 -6l-9 -19q-15 6 -26 6q-10 0 -10 -4zM553 555v72h31v-72h-31zM647 629q22 0 36.5 -11t14.5 -28q0 -15 -14.5 -26t-36.5 -11q-23 0 -37 11
t-14 26q0 17 14 28t37 11zM647 571q8 0 14.5 6t6.5 13q0 18 -21 18q-20 0 -20 -18q0 -8 5.5 -13.5t14.5 -5.5zM768 594v33h31v-72h-27l-33 33v-33h-30v72h24z" />
    <glyph glyph-name="Acircumflex" unicode="&#xc2;" 
d="M791 991q68 0 115.5 -39t47.5 -94v-330q0 -55 -47.5 -94t-115.5 -39h-601q-68 0 -115.5 39t-47.5 94v330q0 55 47.5 94t115.5 39h601zM920 528v330q0 43 -37.5 74t-91.5 31h-601q-53 0 -91 -31t-38 -74v-330q0 -43 38 -73.5t91 -30.5h601q54 0 91.5 30.5t37.5 73.5z
M252 750v-41h-51v125h125v-31h-74v-23h65v-30h-65zM395 741v-32h-53v125h76q32 0 50.5 -13t18.5 -35q0 -26 -28 -38l33 -39h-56l-26 32h-15zM395 801v-29h19q22 0 22 14q0 15 -22 15h-19zM637 741v-32h-129v125h127v-31h-76v-15h66v-30h-66v-17h78zM786 741v-32h-129v125
h127v-31h-75v-15h65v-30h-65v-17h77zM229 584l23 43h31l-39 -72h-29l-39 72h33zM315 582v-9h45v-18h-75v72h73v-19h-43v-8h39v-18h-39zM457 600q0 -15 -17 -22l19 -23h-33l-14 18h-9v-18h-30v72h43q41 0 41 -27zM414 592q12 0 12 8t-12 8h-11v-16h11zM496 606
q0 -3 24.5 -7.5t24.5 -20.5q0 -25 -43 -25q-24 0 -39 6l10 19q14 -7 31 -7q10 0 10 4q0 2 -24.5 7.5t-24.5 21.5q0 25 41 25q23 0 35 -6l-9 -19q-15 6 -26 6q-10 0 -10 -4zM553 555v72h31v-72h-31zM647 629q22 0 36.5 -11t14.5 -28q0 -15 -14.5 -26t-36.5 -11q-23 0 -37 11
t-14 26q0 17 14 28t37 11zM647 571q8 0 14.5 6t6.5 13q0 18 -21 18q-20 0 -20 -18q0 -8 5.5 -13.5t14.5 -5.5zM768 594v33h31v-72h-27l-33 33v-33h-30v72h24z" />
    <glyph glyph-name="Atilde" unicode="&#xc3;" 
d="M791 991q68 0 115.5 -39t47.5 -94v-330q0 -55 -47.5 -94t-115.5 -39h-601q-68 0 -115.5 39t-47.5 94v330q0 55 47.5 94t115.5 39h601zM920 528v330q0 43 -37.5 74t-91.5 31h-601q-53 0 -91 -31t-38 -74v-330q0 -43 38 -73.5t91 -30.5h601q54 0 91.5 30.5t37.5 73.5z
M252 750v-41h-51v125h125v-31h-74v-23h65v-30h-65zM395 741v-32h-53v125h76q32 0 50.5 -13t18.5 -35q0 -26 -28 -38l33 -39h-56l-26 32h-15zM395 801v-29h19q22 0 22 14q0 15 -22 15h-19zM637 741v-32h-129v125h127v-31h-76v-15h66v-30h-66v-17h78zM786 741v-32h-129v125
h127v-31h-75v-15h65v-30h-65v-17h77zM229 584l23 43h31l-39 -72h-29l-39 72h33zM315 582v-9h45v-18h-75v72h73v-19h-43v-8h39v-18h-39zM457 600q0 -15 -17 -22l19 -23h-33l-14 18h-9v-18h-30v72h43q41 0 41 -27zM414 592q12 0 12 8t-12 8h-11v-16h11zM496 606
q0 -3 24.5 -7.5t24.5 -20.5q0 -25 -43 -25q-24 0 -39 6l10 19q14 -7 31 -7q10 0 10 4q0 2 -24.5 7.5t-24.5 21.5q0 25 41 25q23 0 35 -6l-9 -19q-15 6 -26 6q-10 0 -10 -4zM553 555v72h31v-72h-31zM647 629q22 0 36.5 -11t14.5 -28q0 -15 -14.5 -26t-36.5 -11q-23 0 -37 11
t-14 26q0 17 14 28t37 11zM647 571q8 0 14.5 6t6.5 13q0 18 -21 18q-20 0 -20 -18q0 -8 5.5 -13.5t14.5 -5.5zM768 594v33h31v-72h-27l-33 33v-33h-30v72h24z" />
    <glyph glyph-name="Adieresis" unicode="&#xc4;" 
d="M791 991q68 0 115.5 -39t47.5 -94v-330q0 -55 -47.5 -94t-115.5 -39h-601q-68 0 -115.5 39t-47.5 94v330q0 55 47.5 94t115.5 39h601zM920 528v330q0 43 -37.5 74t-91.5 31h-601q-53 0 -91 -31t-38 -74v-330q0 -43 38 -73.5t91 -30.5h601q54 0 91.5 30.5t37.5 73.5z
M252 750v-41h-51v125h125v-31h-74v-23h65v-30h-65zM395 741v-32h-53v125h76q32 0 50.5 -13t18.5 -35q0 -26 -28 -38l33 -39h-56l-26 32h-15zM395 801v-29h19q22 0 22 14q0 15 -22 15h-19zM637 741v-32h-129v125h127v-31h-76v-15h66v-30h-66v-17h78zM786 741v-32h-129v125
h127v-31h-75v-15h65v-30h-65v-17h77zM229 584l23 43h31l-39 -72h-29l-39 72h33zM315 582v-9h45v-18h-75v72h73v-19h-43v-8h39v-18h-39zM457 600q0 -15 -17 -22l19 -23h-33l-14 18h-9v-18h-30v72h43q41 0 41 -27zM414 592q12 0 12 8t-12 8h-11v-16h11zM496 606
q0 -3 24.5 -7.5t24.5 -20.5q0 -25 -43 -25q-24 0 -39 6l10 19q14 -7 31 -7q10 0 10 4q0 2 -24.5 7.5t-24.5 21.5q0 25 41 25q23 0 35 -6l-9 -19q-15 6 -26 6q-10 0 -10 -4zM553 555v72h31v-72h-31zM647 629q22 0 36.5 -11t14.5 -28q0 -15 -14.5 -26t-36.5 -11q-23 0 -37 11
t-14 26q0 17 14 28t37 11zM647 571q8 0 14.5 6t6.5 13q0 18 -21 18q-20 0 -20 -18q0 -8 5.5 -13.5t14.5 -5.5zM768 594v33h31v-72h-27l-33 33v-33h-30v72h24z" />
    <glyph glyph-name="Aring" unicode="&#xc5;" 
d="M791 991q68 0 115.5 -39t47.5 -94v-330q0 -55 -47.5 -94t-115.5 -39h-601q-68 0 -115.5 39t-47.5 94v330q0 55 47.5 94t115.5 39h601zM920 528v330q0 43 -37.5 74t-91.5 31h-601q-53 0 -91 -31t-38 -74v-330q0 -43 38 -73.5t91 -30.5h601q54 0 91.5 30.5t37.5 73.5z
M252 750v-41h-51v125h125v-31h-74v-23h65v-30h-65zM395 741v-32h-53v125h76q32 0 50.5 -13t18.5 -35q0 -26 -28 -38l33 -39h-56l-26 32h-15zM395 801v-29h19q22 0 22 14q0 15 -22 15h-19zM637 741v-32h-129v125h127v-31h-76v-15h66v-30h-66v-17h78zM786 741v-32h-129v125
h127v-31h-75v-15h65v-30h-65v-17h77zM229 584l23 43h31l-39 -72h-29l-39 72h33zM315 582v-9h45v-18h-75v72h73v-19h-43v-8h39v-18h-39zM457 600q0 -15 -17 -22l19 -23h-33l-14 18h-9v-18h-30v72h43q41 0 41 -27zM414 592q12 0 12 8t-12 8h-11v-16h11zM496 606
q0 -3 24.5 -7.5t24.5 -20.5q0 -25 -43 -25q-24 0 -39 6l10 19q14 -7 31 -7q10 0 10 4q0 2 -24.5 7.5t-24.5 21.5q0 25 41 25q23 0 35 -6l-9 -19q-15 6 -26 6q-10 0 -10 -4zM553 555v72h31v-72h-31zM647 629q22 0 36.5 -11t14.5 -28q0 -15 -14.5 -26t-36.5 -11q-23 0 -37 11
t-14 26q0 17 14 28t37 11zM647 571q8 0 14.5 6t6.5 13q0 18 -21 18q-20 0 -20 -18q0 -8 5.5 -13.5t14.5 -5.5zM768 594v33h31v-72h-27l-33 33v-33h-30v72h24z" />
    <glyph glyph-name="AE" unicode="&#xc6;" 
d="M791 991q68 0 115.5 -39t47.5 -94v-330q0 -55 -47.5 -94t-115.5 -39h-601q-68 0 -115.5 39t-47.5 94v330q0 55 47.5 94t115.5 39h601zM920 528v330q0 43 -37.5 74t-91.5 31h-601q-53 0 -91 -31t-38 -74v-330q0 -43 38 -73.5t91 -30.5h601q54 0 91.5 30.5t37.5 73.5z
M252 750v-41h-51v125h125v-31h-74v-23h65v-30h-65zM395 741v-32h-53v125h76q32 0 50.5 -13t18.5 -35q0 -26 -28 -38l33 -39h-56l-26 32h-15zM395 801v-29h19q22 0 22 14q0 15 -22 15h-19zM637 741v-32h-129v125h127v-31h-76v-15h66v-30h-66v-17h78zM786 741v-32h-129v125
h127v-31h-75v-15h65v-30h-65v-17h77zM229 584l23 43h31l-39 -72h-29l-39 72h33zM315 582v-9h45v-18h-75v72h73v-19h-43v-8h39v-18h-39zM457 600q0 -15 -17 -22l19 -23h-33l-14 18h-9v-18h-30v72h43q41 0 41 -27zM414 592q12 0 12 8t-12 8h-11v-16h11zM496 606
q0 -3 24.5 -7.5t24.5 -20.5q0 -25 -43 -25q-24 0 -39 6l10 19q14 -7 31 -7q10 0 10 4q0 2 -24.5 7.5t-24.5 21.5q0 25 41 25q23 0 35 -6l-9 -19q-15 6 -26 6q-10 0 -10 -4zM553 555v72h31v-72h-31zM647 629q22 0 36.5 -11t14.5 -28q0 -15 -14.5 -26t-36.5 -11q-23 0 -37 11
t-14 26q0 17 14 28t37 11zM647 571q8 0 14.5 6t6.5 13q0 18 -21 18q-20 0 -20 -18q0 -8 5.5 -13.5t14.5 -5.5zM768 594v33h31v-72h-27l-33 33v-33h-30v72h24z" />
    <glyph glyph-name="Ccedilla" unicode="&#xc7;" 
d="M791 991q68 0 115.5 -39t47.5 -94v-330q0 -55 -47.5 -94t-115.5 -39h-601q-68 0 -115.5 39t-47.5 94v330q0 55 47.5 94t115.5 39h601zM920 528v330q0 43 -37.5 74t-91.5 31h-601q-53 0 -91 -31t-38 -74v-330q0 -43 38 -73.5t91 -30.5h601q54 0 91.5 30.5t37.5 73.5z
M252 750v-41h-51v125h125v-31h-74v-23h65v-30h-65zM395 741v-32h-53v125h76q32 0 50.5 -13t18.5 -35q0 -26 -28 -38l33 -39h-56l-26 32h-15zM395 801v-29h19q22 0 22 14q0 15 -22 15h-19zM637 741v-32h-129v125h127v-31h-76v-15h66v-30h-66v-17h78zM786 741v-32h-129v125
h127v-31h-75v-15h65v-30h-65v-17h77zM229 584l23 43h31l-39 -72h-29l-39 72h33zM315 582v-9h45v-18h-75v72h73v-19h-43v-8h39v-18h-39zM457 600q0 -15 -17 -22l19 -23h-33l-14 18h-9v-18h-30v72h43q41 0 41 -27zM414 592q12 0 12 8t-12 8h-11v-16h11zM496 606
q0 -3 24.5 -7.5t24.5 -20.5q0 -25 -43 -25q-24 0 -39 6l10 19q14 -7 31 -7q10 0 10 4q0 2 -24.5 7.5t-24.5 21.5q0 25 41 25q23 0 35 -6l-9 -19q-15 6 -26 6q-10 0 -10 -4zM553 555v72h31v-72h-31zM647 629q22 0 36.5 -11t14.5 -28q0 -15 -14.5 -26t-36.5 -11q-23 0 -37 11
t-14 26q0 17 14 28t37 11zM647 571q8 0 14.5 6t6.5 13q0 18 -21 18q-20 0 -20 -18q0 -8 5.5 -13.5t14.5 -5.5zM768 594v33h31v-72h-27l-33 33v-33h-30v72h24z" />
    <glyph glyph-name="Egrave" unicode="&#xc8;" 
d="M791 991q68 0 115.5 -39t47.5 -94v-330q0 -55 -47.5 -94t-115.5 -39h-601q-68 0 -115.5 39t-47.5 94v330q0 55 47.5 94t115.5 39h601zM920 528v330q0 43 -37.5 74t-91.5 31h-601q-53 0 -91 -31t-38 -74v-330q0 -43 38 -73.5t91 -30.5h601q54 0 91.5 30.5t37.5 73.5z
M252 750v-41h-51v125h125v-31h-74v-23h65v-30h-65zM395 741v-32h-53v125h76q32 0 50.5 -13t18.5 -35q0 -26 -28 -38l33 -39h-56l-26 32h-15zM395 801v-29h19q22 0 22 14q0 15 -22 15h-19zM637 741v-32h-129v125h127v-31h-76v-15h66v-30h-66v-17h78zM786 741v-32h-129v125
h127v-31h-75v-15h65v-30h-65v-17h77zM229 584l23 43h31l-39 -72h-29l-39 72h33zM315 582v-9h45v-18h-75v72h73v-19h-43v-8h39v-18h-39zM457 600q0 -15 -17 -22l19 -23h-33l-14 18h-9v-18h-30v72h43q41 0 41 -27zM414 592q12 0 12 8t-12 8h-11v-16h11zM496 606
q0 -3 24.5 -7.5t24.5 -20.5q0 -25 -43 -25q-24 0 -39 6l10 19q14 -7 31 -7q10 0 10 4q0 2 -24.5 7.5t-24.5 21.5q0 25 41 25q23 0 35 -6l-9 -19q-15 6 -26 6q-10 0 -10 -4zM553 555v72h31v-72h-31zM647 629q22 0 36.5 -11t14.5 -28q0 -15 -14.5 -26t-36.5 -11q-23 0 -37 11
t-14 26q0 17 14 28t37 11zM647 571q8 0 14.5 6t6.5 13q0 18 -21 18q-20 0 -20 -18q0 -8 5.5 -13.5t14.5 -5.5zM768 594v33h31v-72h-27l-33 33v-33h-30v72h24z" />
    <glyph glyph-name="Eacute" unicode="&#xc9;" 
d="M791 991q68 0 115.5 -39t47.5 -94v-330q0 -55 -47.5 -94t-115.5 -39h-601q-68 0 -115.5 39t-47.5 94v330q0 55 47.5 94t115.5 39h601zM920 528v330q0 43 -37.5 74t-91.5 31h-601q-53 0 -91 -31t-38 -74v-330q0 -43 38 -73.5t91 -30.5h601q54 0 91.5 30.5t37.5 73.5z
M252 750v-41h-51v125h125v-31h-74v-23h65v-30h-65zM395 741v-32h-53v125h76q32 0 50.5 -13t18.5 -35q0 -26 -28 -38l33 -39h-56l-26 32h-15zM395 801v-29h19q22 0 22 14q0 15 -22 15h-19zM637 741v-32h-129v125h127v-31h-76v-15h66v-30h-66v-17h78zM786 741v-32h-129v125
h127v-31h-75v-15h65v-30h-65v-17h77zM229 584l23 43h31l-39 -72h-29l-39 72h33zM315 582v-9h45v-18h-75v72h73v-19h-43v-8h39v-18h-39zM457 600q0 -15 -17 -22l19 -23h-33l-14 18h-9v-18h-30v72h43q41 0 41 -27zM414 592q12 0 12 8t-12 8h-11v-16h11zM496 606
q0 -3 24.5 -7.5t24.5 -20.5q0 -25 -43 -25q-24 0 -39 6l10 19q14 -7 31 -7q10 0 10 4q0 2 -24.5 7.5t-24.5 21.5q0 25 41 25q23 0 35 -6l-9 -19q-15 6 -26 6q-10 0 -10 -4zM553 555v72h31v-72h-31zM647 629q22 0 36.5 -11t14.5 -28q0 -15 -14.5 -26t-36.5 -11q-23 0 -37 11
t-14 26q0 17 14 28t37 11zM647 571q8 0 14.5 6t6.5 13q0 18 -21 18q-20 0 -20 -18q0 -8 5.5 -13.5t14.5 -5.5zM768 594v33h31v-72h-27l-33 33v-33h-30v72h24z" />
    <glyph glyph-name="Ecircumflex" unicode="&#xca;" 
d="M791 991q68 0 115.5 -39t47.5 -94v-330q0 -55 -47.5 -94t-115.5 -39h-601q-68 0 -115.5 39t-47.5 94v330q0 55 47.5 94t115.5 39h601zM920 528v330q0 43 -37.5 74t-91.5 31h-601q-53 0 -91 -31t-38 -74v-330q0 -43 38 -73.5t91 -30.5h601q54 0 91.5 30.5t37.5 73.5z
M252 750v-41h-51v125h125v-31h-74v-23h65v-30h-65zM395 741v-32h-53v125h76q32 0 50.5 -13t18.5 -35q0 -26 -28 -38l33 -39h-56l-26 32h-15zM395 801v-29h19q22 0 22 14q0 15 -22 15h-19zM637 741v-32h-129v125h127v-31h-76v-15h66v-30h-66v-17h78zM786 741v-32h-129v125
h127v-31h-75v-15h65v-30h-65v-17h77zM229 584l23 43h31l-39 -72h-29l-39 72h33zM315 582v-9h45v-18h-75v72h73v-19h-43v-8h39v-18h-39zM457 600q0 -15 -17 -22l19 -23h-33l-14 18h-9v-18h-30v72h43q41 0 41 -27zM414 592q12 0 12 8t-12 8h-11v-16h11zM496 606
q0 -3 24.5 -7.5t24.5 -20.5q0 -25 -43 -25q-24 0 -39 6l10 19q14 -7 31 -7q10 0 10 4q0 2 -24.5 7.5t-24.5 21.5q0 25 41 25q23 0 35 -6l-9 -19q-15 6 -26 6q-10 0 -10 -4zM553 555v72h31v-72h-31zM647 629q22 0 36.5 -11t14.5 -28q0 -15 -14.5 -26t-36.5 -11q-23 0 -37 11
t-14 26q0 17 14 28t37 11zM647 571q8 0 14.5 6t6.5 13q0 18 -21 18q-20 0 -20 -18q0 -8 5.5 -13.5t14.5 -5.5zM768 594v33h31v-72h-27l-33 33v-33h-30v72h24z" />
    <glyph glyph-name="Edieresis" unicode="&#xcb;" 
d="M791 991q68 0 115.5 -39t47.5 -94v-330q0 -55 -47.5 -94t-115.5 -39h-601q-68 0 -115.5 39t-47.5 94v330q0 55 47.5 94t115.5 39h601zM920 528v330q0 43 -37.5 74t-91.5 31h-601q-53 0 -91 -31t-38 -74v-330q0 -43 38 -73.5t91 -30.5h601q54 0 91.5 30.5t37.5 73.5z
M252 750v-41h-51v125h125v-31h-74v-23h65v-30h-65zM395 741v-32h-53v125h76q32 0 50.5 -13t18.5 -35q0 -26 -28 -38l33 -39h-56l-26 32h-15zM395 801v-29h19q22 0 22 14q0 15 -22 15h-19zM637 741v-32h-129v125h127v-31h-76v-15h66v-30h-66v-17h78zM786 741v-32h-129v125
h127v-31h-75v-15h65v-30h-65v-17h77zM229 584l23 43h31l-39 -72h-29l-39 72h33zM315 582v-9h45v-18h-75v72h73v-19h-43v-8h39v-18h-39zM457 600q0 -15 -17 -22l19 -23h-33l-14 18h-9v-18h-30v72h43q41 0 41 -27zM414 592q12 0 12 8t-12 8h-11v-16h11zM496 606
q0 -3 24.5 -7.5t24.5 -20.5q0 -25 -43 -25q-24 0 -39 6l10 19q14 -7 31 -7q10 0 10 4q0 2 -24.5 7.5t-24.5 21.5q0 25 41 25q23 0 35 -6l-9 -19q-15 6 -26 6q-10 0 -10 -4zM553 555v72h31v-72h-31zM647 629q22 0 36.5 -11t14.5 -28q0 -15 -14.5 -26t-36.5 -11q-23 0 -37 11
t-14 26q0 17 14 28t37 11zM647 571q8 0 14.5 6t6.5 13q0 18 -21 18q-20 0 -20 -18q0 -8 5.5 -13.5t14.5 -5.5zM768 594v33h31v-72h-27l-33 33v-33h-30v72h24z" />
    <glyph glyph-name="Igrave" unicode="&#xcc;" 
d="M791 991q68 0 115.5 -39t47.5 -94v-330q0 -55 -47.5 -94t-115.5 -39h-601q-68 0 -115.5 39t-47.5 94v330q0 55 47.5 94t115.5 39h601zM920 528v330q0 43 -37.5 74t-91.5 31h-601q-53 0 -91 -31t-38 -74v-330q0 -43 38 -73.5t91 -30.5h601q54 0 91.5 30.5t37.5 73.5z
M252 750v-41h-51v125h125v-31h-74v-23h65v-30h-65zM395 741v-32h-53v125h76q32 0 50.5 -13t18.5 -35q0 -26 -28 -38l33 -39h-56l-26 32h-15zM395 801v-29h19q22 0 22 14q0 15 -22 15h-19zM637 741v-32h-129v125h127v-31h-76v-15h66v-30h-66v-17h78zM786 741v-32h-129v125
h127v-31h-75v-15h65v-30h-65v-17h77zM229 584l23 43h31l-39 -72h-29l-39 72h33zM315 582v-9h45v-18h-75v72h73v-19h-43v-8h39v-18h-39zM457 600q0 -15 -17 -22l19 -23h-33l-14 18h-9v-18h-30v72h43q41 0 41 -27zM414 592q12 0 12 8t-12 8h-11v-16h11zM496 606
q0 -3 24.5 -7.5t24.5 -20.5q0 -25 -43 -25q-24 0 -39 6l10 19q14 -7 31 -7q10 0 10 4q0 2 -24.5 7.5t-24.5 21.5q0 25 41 25q23 0 35 -6l-9 -19q-15 6 -26 6q-10 0 -10 -4zM553 555v72h31v-72h-31zM647 629q22 0 36.5 -11t14.5 -28q0 -15 -14.5 -26t-36.5 -11q-23 0 -37 11
t-14 26q0 17 14 28t37 11zM647 571q8 0 14.5 6t6.5 13q0 18 -21 18q-20 0 -20 -18q0 -8 5.5 -13.5t14.5 -5.5zM768 594v33h31v-72h-27l-33 33v-33h-30v72h24z" />
    <glyph glyph-name="Iacute" unicode="&#xcd;" 
d="M791 991q68 0 115.5 -39t47.5 -94v-330q0 -55 -47.5 -94t-115.5 -39h-601q-68 0 -115.5 39t-47.5 94v330q0 55 47.5 94t115.5 39h601zM920 528v330q0 43 -37.5 74t-91.5 31h-601q-53 0 -91 -31t-38 -74v-330q0 -43 38 -73.5t91 -30.5h601q54 0 91.5 30.5t37.5 73.5z
M252 750v-41h-51v125h125v-31h-74v-23h65v-30h-65zM395 741v-32h-53v125h76q32 0 50.5 -13t18.5 -35q0 -26 -28 -38l33 -39h-56l-26 32h-15zM395 801v-29h19q22 0 22 14q0 15 -22 15h-19zM637 741v-32h-129v125h127v-31h-76v-15h66v-30h-66v-17h78zM786 741v-32h-129v125
h127v-31h-75v-15h65v-30h-65v-17h77zM229 584l23 43h31l-39 -72h-29l-39 72h33zM315 582v-9h45v-18h-75v72h73v-19h-43v-8h39v-18h-39zM457 600q0 -15 -17 -22l19 -23h-33l-14 18h-9v-18h-30v72h43q41 0 41 -27zM414 592q12 0 12 8t-12 8h-11v-16h11zM496 606
q0 -3 24.5 -7.5t24.5 -20.5q0 -25 -43 -25q-24 0 -39 6l10 19q14 -7 31 -7q10 0 10 4q0 2 -24.5 7.5t-24.5 21.5q0 25 41 25q23 0 35 -6l-9 -19q-15 6 -26 6q-10 0 -10 -4zM553 555v72h31v-72h-31zM647 629q22 0 36.5 -11t14.5 -28q0 -15 -14.5 -26t-36.5 -11q-23 0 -37 11
t-14 26q0 17 14 28t37 11zM647 571q8 0 14.5 6t6.5 13q0 18 -21 18q-20 0 -20 -18q0 -8 5.5 -13.5t14.5 -5.5zM768 594v33h31v-72h-27l-33 33v-33h-30v72h24z" />
    <glyph glyph-name="Icircumflex" unicode="&#xce;" 
d="M791 991q68 0 115.5 -39t47.5 -94v-330q0 -55 -47.5 -94t-115.5 -39h-601q-68 0 -115.5 39t-47.5 94v330q0 55 47.5 94t115.5 39h601zM920 528v330q0 43 -37.5 74t-91.5 31h-601q-53 0 -91 -31t-38 -74v-330q0 -43 38 -73.5t91 -30.5h601q54 0 91.5 30.5t37.5 73.5z
M252 750v-41h-51v125h125v-31h-74v-23h65v-30h-65zM395 741v-32h-53v125h76q32 0 50.5 -13t18.5 -35q0 -26 -28 -38l33 -39h-56l-26 32h-15zM395 801v-29h19q22 0 22 14q0 15 -22 15h-19zM637 741v-32h-129v125h127v-31h-76v-15h66v-30h-66v-17h78zM786 741v-32h-129v125
h127v-31h-75v-15h65v-30h-65v-17h77zM229 584l23 43h31l-39 -72h-29l-39 72h33zM315 582v-9h45v-18h-75v72h73v-19h-43v-8h39v-18h-39zM457 600q0 -15 -17 -22l19 -23h-33l-14 18h-9v-18h-30v72h43q41 0 41 -27zM414 592q12 0 12 8t-12 8h-11v-16h11zM496 606
q0 -3 24.5 -7.5t24.5 -20.5q0 -25 -43 -25q-24 0 -39 6l10 19q14 -7 31 -7q10 0 10 4q0 2 -24.5 7.5t-24.5 21.5q0 25 41 25q23 0 35 -6l-9 -19q-15 6 -26 6q-10 0 -10 -4zM553 555v72h31v-72h-31zM647 629q22 0 36.5 -11t14.5 -28q0 -15 -14.5 -26t-36.5 -11q-23 0 -37 11
t-14 26q0 17 14 28t37 11zM647 571q8 0 14.5 6t6.5 13q0 18 -21 18q-20 0 -20 -18q0 -8 5.5 -13.5t14.5 -5.5zM768 594v33h31v-72h-27l-33 33v-33h-30v72h24z" />
    <glyph glyph-name="Idieresis" unicode="&#xcf;" 
d="M791 991q68 0 115.5 -39t47.5 -94v-330q0 -55 -47.5 -94t-115.5 -39h-601q-68 0 -115.5 39t-47.5 94v330q0 55 47.5 94t115.5 39h601zM920 528v330q0 43 -37.5 74t-91.5 31h-601q-53 0 -91 -31t-38 -74v-330q0 -43 38 -73.5t91 -30.5h601q54 0 91.5 30.5t37.5 73.5z
M252 750v-41h-51v125h125v-31h-74v-23h65v-30h-65zM395 741v-32h-53v125h76q32 0 50.5 -13t18.5 -35q0 -26 -28 -38l33 -39h-56l-26 32h-15zM395 801v-29h19q22 0 22 14q0 15 -22 15h-19zM637 741v-32h-129v125h127v-31h-76v-15h66v-30h-66v-17h78zM786 741v-32h-129v125
h127v-31h-75v-15h65v-30h-65v-17h77zM229 584l23 43h31l-39 -72h-29l-39 72h33zM315 582v-9h45v-18h-75v72h73v-19h-43v-8h39v-18h-39zM457 600q0 -15 -17 -22l19 -23h-33l-14 18h-9v-18h-30v72h43q41 0 41 -27zM414 592q12 0 12 8t-12 8h-11v-16h11zM496 606
q0 -3 24.5 -7.5t24.5 -20.5q0 -25 -43 -25q-24 0 -39 6l10 19q14 -7 31 -7q10 0 10 4q0 2 -24.5 7.5t-24.5 21.5q0 25 41 25q23 0 35 -6l-9 -19q-15 6 -26 6q-10 0 -10 -4zM553 555v72h31v-72h-31zM647 629q22 0 36.5 -11t14.5 -28q0 -15 -14.5 -26t-36.5 -11q-23 0 -37 11
t-14 26q0 17 14 28t37 11zM647 571q8 0 14.5 6t6.5 13q0 18 -21 18q-20 0 -20 -18q0 -8 5.5 -13.5t14.5 -5.5zM768 594v33h31v-72h-27l-33 33v-33h-30v72h24z" />
    <glyph glyph-name="Ntilde" unicode="&#xd1;" 
d="M791 991q68 0 115.5 -39t47.5 -94v-330q0 -55 -47.5 -94t-115.5 -39h-601q-68 0 -115.5 39t-47.5 94v330q0 55 47.5 94t115.5 39h601zM920 528v330q0 43 -37.5 74t-91.5 31h-601q-53 0 -91 -31t-38 -74v-330q0 -43 38 -73.5t91 -30.5h601q54 0 91.5 30.5t37.5 73.5z
M252 750v-41h-51v125h125v-31h-74v-23h65v-30h-65zM395 741v-32h-53v125h76q32 0 50.5 -13t18.5 -35q0 -26 -28 -38l33 -39h-56l-26 32h-15zM395 801v-29h19q22 0 22 14q0 15 -22 15h-19zM637 741v-32h-129v125h127v-31h-76v-15h66v-30h-66v-17h78zM786 741v-32h-129v125
h127v-31h-75v-15h65v-30h-65v-17h77zM229 584l23 43h31l-39 -72h-29l-39 72h33zM315 582v-9h45v-18h-75v72h73v-19h-43v-8h39v-18h-39zM457 600q0 -15 -17 -22l19 -23h-33l-14 18h-9v-18h-30v72h43q41 0 41 -27zM414 592q12 0 12 8t-12 8h-11v-16h11zM496 606
q0 -3 24.5 -7.5t24.5 -20.5q0 -25 -43 -25q-24 0 -39 6l10 19q14 -7 31 -7q10 0 10 4q0 2 -24.5 7.5t-24.5 21.5q0 25 41 25q23 0 35 -6l-9 -19q-15 6 -26 6q-10 0 -10 -4zM553 555v72h31v-72h-31zM647 629q22 0 36.5 -11t14.5 -28q0 -15 -14.5 -26t-36.5 -11q-23 0 -37 11
t-14 26q0 17 14 28t37 11zM647 571q8 0 14.5 6t6.5 13q0 18 -21 18q-20 0 -20 -18q0 -8 5.5 -13.5t14.5 -5.5zM768 594v33h31v-72h-27l-33 33v-33h-30v72h24z" />
    <glyph glyph-name="Ograve" unicode="&#xd2;" 
d="M791 991q68 0 115.5 -39t47.5 -94v-330q0 -55 -47.5 -94t-115.5 -39h-601q-68 0 -115.5 39t-47.5 94v330q0 55 47.5 94t115.5 39h601zM920 528v330q0 43 -37.5 74t-91.5 31h-601q-53 0 -91 -31t-38 -74v-330q0 -43 38 -73.5t91 -30.5h601q54 0 91.5 30.5t37.5 73.5z
M252 750v-41h-51v125h125v-31h-74v-23h65v-30h-65zM395 741v-32h-53v125h76q32 0 50.5 -13t18.5 -35q0 -26 -28 -38l33 -39h-56l-26 32h-15zM395 801v-29h19q22 0 22 14q0 15 -22 15h-19zM637 741v-32h-129v125h127v-31h-76v-15h66v-30h-66v-17h78zM786 741v-32h-129v125
h127v-31h-75v-15h65v-30h-65v-17h77zM229 584l23 43h31l-39 -72h-29l-39 72h33zM315 582v-9h45v-18h-75v72h73v-19h-43v-8h39v-18h-39zM457 600q0 -15 -17 -22l19 -23h-33l-14 18h-9v-18h-30v72h43q41 0 41 -27zM414 592q12 0 12 8t-12 8h-11v-16h11zM496 606
q0 -3 24.5 -7.5t24.5 -20.5q0 -25 -43 -25q-24 0 -39 6l10 19q14 -7 31 -7q10 0 10 4q0 2 -24.5 7.5t-24.5 21.5q0 25 41 25q23 0 35 -6l-9 -19q-15 6 -26 6q-10 0 -10 -4zM553 555v72h31v-72h-31zM647 629q22 0 36.5 -11t14.5 -28q0 -15 -14.5 -26t-36.5 -11q-23 0 -37 11
t-14 26q0 17 14 28t37 11zM647 571q8 0 14.5 6t6.5 13q0 18 -21 18q-20 0 -20 -18q0 -8 5.5 -13.5t14.5 -5.5zM768 594v33h31v-72h-27l-33 33v-33h-30v72h24z" />
    <glyph glyph-name="Oacute" unicode="&#xd3;" 
d="M791 991q68 0 115.5 -39t47.5 -94v-330q0 -55 -47.5 -94t-115.5 -39h-601q-68 0 -115.5 39t-47.5 94v330q0 55 47.5 94t115.5 39h601zM920 528v330q0 43 -37.5 74t-91.5 31h-601q-53 0 -91 -31t-38 -74v-330q0 -43 38 -73.5t91 -30.5h601q54 0 91.5 30.5t37.5 73.5z
M252 750v-41h-51v125h125v-31h-74v-23h65v-30h-65zM395 741v-32h-53v125h76q32 0 50.5 -13t18.5 -35q0 -26 -28 -38l33 -39h-56l-26 32h-15zM395 801v-29h19q22 0 22 14q0 15 -22 15h-19zM637 741v-32h-129v125h127v-31h-76v-15h66v-30h-66v-17h78zM786 741v-32h-129v125
h127v-31h-75v-15h65v-30h-65v-17h77zM229 584l23 43h31l-39 -72h-29l-39 72h33zM315 582v-9h45v-18h-75v72h73v-19h-43v-8h39v-18h-39zM457 600q0 -15 -17 -22l19 -23h-33l-14 18h-9v-18h-30v72h43q41 0 41 -27zM414 592q12 0 12 8t-12 8h-11v-16h11zM496 606
q0 -3 24.5 -7.5t24.5 -20.5q0 -25 -43 -25q-24 0 -39 6l10 19q14 -7 31 -7q10 0 10 4q0 2 -24.5 7.5t-24.5 21.5q0 25 41 25q23 0 35 -6l-9 -19q-15 6 -26 6q-10 0 -10 -4zM553 555v72h31v-72h-31zM647 629q22 0 36.5 -11t14.5 -28q0 -15 -14.5 -26t-36.5 -11q-23 0 -37 11
t-14 26q0 17 14 28t37 11zM647 571q8 0 14.5 6t6.5 13q0 18 -21 18q-20 0 -20 -18q0 -8 5.5 -13.5t14.5 -5.5zM768 594v33h31v-72h-27l-33 33v-33h-30v72h24z" />
    <glyph glyph-name="Ocircumflex" unicode="&#xd4;" 
d="M791 991q68 0 115.5 -39t47.5 -94v-330q0 -55 -47.5 -94t-115.5 -39h-601q-68 0 -115.5 39t-47.5 94v330q0 55 47.5 94t115.5 39h601zM920 528v330q0 43 -37.5 74t-91.5 31h-601q-53 0 -91 -31t-38 -74v-330q0 -43 38 -73.5t91 -30.5h601q54 0 91.5 30.5t37.5 73.5z
M252 750v-41h-51v125h125v-31h-74v-23h65v-30h-65zM395 741v-32h-53v125h76q32 0 50.5 -13t18.5 -35q0 -26 -28 -38l33 -39h-56l-26 32h-15zM395 801v-29h19q22 0 22 14q0 15 -22 15h-19zM637 741v-32h-129v125h127v-31h-76v-15h66v-30h-66v-17h78zM786 741v-32h-129v125
h127v-31h-75v-15h65v-30h-65v-17h77zM229 584l23 43h31l-39 -72h-29l-39 72h33zM315 582v-9h45v-18h-75v72h73v-19h-43v-8h39v-18h-39zM457 600q0 -15 -17 -22l19 -23h-33l-14 18h-9v-18h-30v72h43q41 0 41 -27zM414 592q12 0 12 8t-12 8h-11v-16h11zM496 606
q0 -3 24.5 -7.5t24.5 -20.5q0 -25 -43 -25q-24 0 -39 6l10 19q14 -7 31 -7q10 0 10 4q0 2 -24.5 7.5t-24.5 21.5q0 25 41 25q23 0 35 -6l-9 -19q-15 6 -26 6q-10 0 -10 -4zM553 555v72h31v-72h-31zM647 629q22 0 36.5 -11t14.5 -28q0 -15 -14.5 -26t-36.5 -11q-23 0 -37 11
t-14 26q0 17 14 28t37 11zM647 571q8 0 14.5 6t6.5 13q0 18 -21 18q-20 0 -20 -18q0 -8 5.5 -13.5t14.5 -5.5zM768 594v33h31v-72h-27l-33 33v-33h-30v72h24z" />
    <glyph glyph-name="Otilde" unicode="&#xd5;" 
d="M791 991q68 0 115.5 -39t47.5 -94v-330q0 -55 -47.5 -94t-115.5 -39h-601q-68 0 -115.5 39t-47.5 94v330q0 55 47.5 94t115.5 39h601zM920 528v330q0 43 -37.5 74t-91.5 31h-601q-53 0 -91 -31t-38 -74v-330q0 -43 38 -73.5t91 -30.5h601q54 0 91.5 30.5t37.5 73.5z
M252 750v-41h-51v125h125v-31h-74v-23h65v-30h-65zM395 741v-32h-53v125h76q32 0 50.5 -13t18.5 -35q0 -26 -28 -38l33 -39h-56l-26 32h-15zM395 801v-29h19q22 0 22 14q0 15 -22 15h-19zM637 741v-32h-129v125h127v-31h-76v-15h66v-30h-66v-17h78zM786 741v-32h-129v125
h127v-31h-75v-15h65v-30h-65v-17h77zM229 584l23 43h31l-39 -72h-29l-39 72h33zM315 582v-9h45v-18h-75v72h73v-19h-43v-8h39v-18h-39zM457 600q0 -15 -17 -22l19 -23h-33l-14 18h-9v-18h-30v72h43q41 0 41 -27zM414 592q12 0 12 8t-12 8h-11v-16h11zM496 606
q0 -3 24.5 -7.5t24.5 -20.5q0 -25 -43 -25q-24 0 -39 6l10 19q14 -7 31 -7q10 0 10 4q0 2 -24.5 7.5t-24.5 21.5q0 25 41 25q23 0 35 -6l-9 -19q-15 6 -26 6q-10 0 -10 -4zM553 555v72h31v-72h-31zM647 629q22 0 36.5 -11t14.5 -28q0 -15 -14.5 -26t-36.5 -11q-23 0 -37 11
t-14 26q0 17 14 28t37 11zM647 571q8 0 14.5 6t6.5 13q0 18 -21 18q-20 0 -20 -18q0 -8 5.5 -13.5t14.5 -5.5zM768 594v33h31v-72h-27l-33 33v-33h-30v72h24z" />
    <glyph glyph-name="Odieresis" unicode="&#xd6;" 
d="M791 991q68 0 115.5 -39t47.5 -94v-330q0 -55 -47.5 -94t-115.5 -39h-601q-68 0 -115.5 39t-47.5 94v330q0 55 47.5 94t115.5 39h601zM920 528v330q0 43 -37.5 74t-91.5 31h-601q-53 0 -91 -31t-38 -74v-330q0 -43 38 -73.5t91 -30.5h601q54 0 91.5 30.5t37.5 73.5z
M252 750v-41h-51v125h125v-31h-74v-23h65v-30h-65zM395 741v-32h-53v125h76q32 0 50.5 -13t18.5 -35q0 -26 -28 -38l33 -39h-56l-26 32h-15zM395 801v-29h19q22 0 22 14q0 15 -22 15h-19zM637 741v-32h-129v125h127v-31h-76v-15h66v-30h-66v-17h78zM786 741v-32h-129v125
h127v-31h-75v-15h65v-30h-65v-17h77zM229 584l23 43h31l-39 -72h-29l-39 72h33zM315 582v-9h45v-18h-75v72h73v-19h-43v-8h39v-18h-39zM457 600q0 -15 -17 -22l19 -23h-33l-14 18h-9v-18h-30v72h43q41 0 41 -27zM414 592q12 0 12 8t-12 8h-11v-16h11zM496 606
q0 -3 24.5 -7.5t24.5 -20.5q0 -25 -43 -25q-24 0 -39 6l10 19q14 -7 31 -7q10 0 10 4q0 2 -24.5 7.5t-24.5 21.5q0 25 41 25q23 0 35 -6l-9 -19q-15 6 -26 6q-10 0 -10 -4zM553 555v72h31v-72h-31zM647 629q22 0 36.5 -11t14.5 -28q0 -15 -14.5 -26t-36.5 -11q-23 0 -37 11
t-14 26q0 17 14 28t37 11zM647 571q8 0 14.5 6t6.5 13q0 18 -21 18q-20 0 -20 -18q0 -8 5.5 -13.5t14.5 -5.5zM768 594v33h31v-72h-27l-33 33v-33h-30v72h24z" />
    <glyph glyph-name="Oslash" unicode="&#xd8;" 
d="M791 991q68 0 115.5 -39t47.5 -94v-330q0 -55 -47.5 -94t-115.5 -39h-601q-68 0 -115.5 39t-47.5 94v330q0 55 47.5 94t115.5 39h601zM920 528v330q0 43 -37.5 74t-91.5 31h-601q-53 0 -91 -31t-38 -74v-330q0 -43 38 -73.5t91 -30.5h601q54 0 91.5 30.5t37.5 73.5z
M252 750v-41h-51v125h125v-31h-74v-23h65v-30h-65zM395 741v-32h-53v125h76q32 0 50.5 -13t18.5 -35q0 -26 -28 -38l33 -39h-56l-26 32h-15zM395 801v-29h19q22 0 22 14q0 15 -22 15h-19zM637 741v-32h-129v125h127v-31h-76v-15h66v-30h-66v-17h78zM786 741v-32h-129v125
h127v-31h-75v-15h65v-30h-65v-17h77zM229 584l23 43h31l-39 -72h-29l-39 72h33zM315 582v-9h45v-18h-75v72h73v-19h-43v-8h39v-18h-39zM457 600q0 -15 -17 -22l19 -23h-33l-14 18h-9v-18h-30v72h43q41 0 41 -27zM414 592q12 0 12 8t-12 8h-11v-16h11zM496 606
q0 -3 24.5 -7.5t24.5 -20.5q0 -25 -43 -25q-24 0 -39 6l10 19q14 -7 31 -7q10 0 10 4q0 2 -24.5 7.5t-24.5 21.5q0 25 41 25q23 0 35 -6l-9 -19q-15 6 -26 6q-10 0 -10 -4zM553 555v72h31v-72h-31zM647 629q22 0 36.5 -11t14.5 -28q0 -15 -14.5 -26t-36.5 -11q-23 0 -37 11
t-14 26q0 17 14 28t37 11zM647 571q8 0 14.5 6t6.5 13q0 18 -21 18q-20 0 -20 -18q0 -8 5.5 -13.5t14.5 -5.5zM768 594v33h31v-72h-27l-33 33v-33h-30v72h24z" />
    <glyph glyph-name="Ugrave" unicode="&#xd9;" 
d="M791 991q68 0 115.5 -39t47.5 -94v-330q0 -55 -47.5 -94t-115.5 -39h-601q-68 0 -115.5 39t-47.5 94v330q0 55 47.5 94t115.5 39h601zM920 528v330q0 43 -37.5 74t-91.5 31h-601q-53 0 -91 -31t-38 -74v-330q0 -43 38 -73.5t91 -30.5h601q54 0 91.5 30.5t37.5 73.5z
M252 750v-41h-51v125h125v-31h-74v-23h65v-30h-65zM395 741v-32h-53v125h76q32 0 50.5 -13t18.5 -35q0 -26 -28 -38l33 -39h-56l-26 32h-15zM395 801v-29h19q22 0 22 14q0 15 -22 15h-19zM637 741v-32h-129v125h127v-31h-76v-15h66v-30h-66v-17h78zM786 741v-32h-129v125
h127v-31h-75v-15h65v-30h-65v-17h77zM229 584l23 43h31l-39 -72h-29l-39 72h33zM315 582v-9h45v-18h-75v72h73v-19h-43v-8h39v-18h-39zM457 600q0 -15 -17 -22l19 -23h-33l-14 18h-9v-18h-30v72h43q41 0 41 -27zM414 592q12 0 12 8t-12 8h-11v-16h11zM496 606
q0 -3 24.5 -7.5t24.5 -20.5q0 -25 -43 -25q-24 0 -39 6l10 19q14 -7 31 -7q10 0 10 4q0 2 -24.5 7.5t-24.5 21.5q0 25 41 25q23 0 35 -6l-9 -19q-15 6 -26 6q-10 0 -10 -4zM553 555v72h31v-72h-31zM647 629q22 0 36.5 -11t14.5 -28q0 -15 -14.5 -26t-36.5 -11q-23 0 -37 11
t-14 26q0 17 14 28t37 11zM647 571q8 0 14.5 6t6.5 13q0 18 -21 18q-20 0 -20 -18q0 -8 5.5 -13.5t14.5 -5.5zM768 594v33h31v-72h-27l-33 33v-33h-30v72h24z" />
    <glyph glyph-name="Uacute" unicode="&#xda;" 
d="M791 991q68 0 115.5 -39t47.5 -94v-330q0 -55 -47.5 -94t-115.5 -39h-601q-68 0 -115.5 39t-47.5 94v330q0 55 47.5 94t115.5 39h601zM920 528v330q0 43 -37.5 74t-91.5 31h-601q-53 0 -91 -31t-38 -74v-330q0 -43 38 -73.5t91 -30.5h601q54 0 91.5 30.5t37.5 73.5z
M252 750v-41h-51v125h125v-31h-74v-23h65v-30h-65zM395 741v-32h-53v125h76q32 0 50.5 -13t18.5 -35q0 -26 -28 -38l33 -39h-56l-26 32h-15zM395 801v-29h19q22 0 22 14q0 15 -22 15h-19zM637 741v-32h-129v125h127v-31h-76v-15h66v-30h-66v-17h78zM786 741v-32h-129v125
h127v-31h-75v-15h65v-30h-65v-17h77zM229 584l23 43h31l-39 -72h-29l-39 72h33zM315 582v-9h45v-18h-75v72h73v-19h-43v-8h39v-18h-39zM457 600q0 -15 -17 -22l19 -23h-33l-14 18h-9v-18h-30v72h43q41 0 41 -27zM414 592q12 0 12 8t-12 8h-11v-16h11zM496 606
q0 -3 24.5 -7.5t24.5 -20.5q0 -25 -43 -25q-24 0 -39 6l10 19q14 -7 31 -7q10 0 10 4q0 2 -24.5 7.5t-24.5 21.5q0 25 41 25q23 0 35 -6l-9 -19q-15 6 -26 6q-10 0 -10 -4zM553 555v72h31v-72h-31zM647 629q22 0 36.5 -11t14.5 -28q0 -15 -14.5 -26t-36.5 -11q-23 0 -37 11
t-14 26q0 17 14 28t37 11zM647 571q8 0 14.5 6t6.5 13q0 18 -21 18q-20 0 -20 -18q0 -8 5.5 -13.5t14.5 -5.5zM768 594v33h31v-72h-27l-33 33v-33h-30v72h24z" />
    <glyph glyph-name="Ucircumflex" unicode="&#xdb;" 
d="M791 991q68 0 115.5 -39t47.5 -94v-330q0 -55 -47.5 -94t-115.5 -39h-601q-68 0 -115.5 39t-47.5 94v330q0 55 47.5 94t115.5 39h601zM920 528v330q0 43 -37.5 74t-91.5 31h-601q-53 0 -91 -31t-38 -74v-330q0 -43 38 -73.5t91 -30.5h601q54 0 91.5 30.5t37.5 73.5z
M252 750v-41h-51v125h125v-31h-74v-23h65v-30h-65zM395 741v-32h-53v125h76q32 0 50.5 -13t18.5 -35q0 -26 -28 -38l33 -39h-56l-26 32h-15zM395 801v-29h19q22 0 22 14q0 15 -22 15h-19zM637 741v-32h-129v125h127v-31h-76v-15h66v-30h-66v-17h78zM786 741v-32h-129v125
h127v-31h-75v-15h65v-30h-65v-17h77zM229 584l23 43h31l-39 -72h-29l-39 72h33zM315 582v-9h45v-18h-75v72h73v-19h-43v-8h39v-18h-39zM457 600q0 -15 -17 -22l19 -23h-33l-14 18h-9v-18h-30v72h43q41 0 41 -27zM414 592q12 0 12 8t-12 8h-11v-16h11zM496 606
q0 -3 24.5 -7.5t24.5 -20.5q0 -25 -43 -25q-24 0 -39 6l10 19q14 -7 31 -7q10 0 10 4q0 2 -24.5 7.5t-24.5 21.5q0 25 41 25q23 0 35 -6l-9 -19q-15 6 -26 6q-10 0 -10 -4zM553 555v72h31v-72h-31zM647 629q22 0 36.5 -11t14.5 -28q0 -15 -14.5 -26t-36.5 -11q-23 0 -37 11
t-14 26q0 17 14 28t37 11zM647 571q8 0 14.5 6t6.5 13q0 18 -21 18q-20 0 -20 -18q0 -8 5.5 -13.5t14.5 -5.5zM768 594v33h31v-72h-27l-33 33v-33h-30v72h24z" />
    <glyph glyph-name="Udieresis" unicode="&#xdc;" 
d="M791 991q68 0 115.5 -39t47.5 -94v-330q0 -55 -47.5 -94t-115.5 -39h-601q-68 0 -115.5 39t-47.5 94v330q0 55 47.5 94t115.5 39h601zM920 528v330q0 43 -37.5 74t-91.5 31h-601q-53 0 -91 -31t-38 -74v-330q0 -43 38 -73.5t91 -30.5h601q54 0 91.5 30.5t37.5 73.5z
M252 750v-41h-51v125h125v-31h-74v-23h65v-30h-65zM395 741v-32h-53v125h76q32 0 50.5 -13t18.5 -35q0 -26 -28 -38l33 -39h-56l-26 32h-15zM395 801v-29h19q22 0 22 14q0 15 -22 15h-19zM637 741v-32h-129v125h127v-31h-76v-15h66v-30h-66v-17h78zM786 741v-32h-129v125
h127v-31h-75v-15h65v-30h-65v-17h77zM229 584l23 43h31l-39 -72h-29l-39 72h33zM315 582v-9h45v-18h-75v72h73v-19h-43v-8h39v-18h-39zM457 600q0 -15 -17 -22l19 -23h-33l-14 18h-9v-18h-30v72h43q41 0 41 -27zM414 592q12 0 12 8t-12 8h-11v-16h11zM496 606
q0 -3 24.5 -7.5t24.5 -20.5q0 -25 -43 -25q-24 0 -39 6l10 19q14 -7 31 -7q10 0 10 4q0 2 -24.5 7.5t-24.5 21.5q0 25 41 25q23 0 35 -6l-9 -19q-15 6 -26 6q-10 0 -10 -4zM553 555v72h31v-72h-31zM647 629q22 0 36.5 -11t14.5 -28q0 -15 -14.5 -26t-36.5 -11q-23 0 -37 11
t-14 26q0 17 14 28t37 11zM647 571q8 0 14.5 6t6.5 13q0 18 -21 18q-20 0 -20 -18q0 -8 5.5 -13.5t14.5 -5.5zM768 594v33h31v-72h-27l-33 33v-33h-30v72h24z" />
    <glyph glyph-name="Yacute" unicode="&#xdd;" 
d="M791 991q68 0 115.5 -39t47.5 -94v-330q0 -55 -47.5 -94t-115.5 -39h-601q-68 0 -115.5 39t-47.5 94v330q0 55 47.5 94t115.5 39h601zM920 528v330q0 43 -37.5 74t-91.5 31h-601q-53 0 -91 -31t-38 -74v-330q0 -43 38 -73.5t91 -30.5h601q54 0 91.5 30.5t37.5 73.5z
M252 750v-41h-51v125h125v-31h-74v-23h65v-30h-65zM395 741v-32h-53v125h76q32 0 50.5 -13t18.5 -35q0 -26 -28 -38l33 -39h-56l-26 32h-15zM395 801v-29h19q22 0 22 14q0 15 -22 15h-19zM637 741v-32h-129v125h127v-31h-76v-15h66v-30h-66v-17h78zM786 741v-32h-129v125
h127v-31h-75v-15h65v-30h-65v-17h77zM229 584l23 43h31l-39 -72h-29l-39 72h33zM315 582v-9h45v-18h-75v72h73v-19h-43v-8h39v-18h-39zM457 600q0 -15 -17 -22l19 -23h-33l-14 18h-9v-18h-30v72h43q41 0 41 -27zM414 592q12 0 12 8t-12 8h-11v-16h11zM496 606
q0 -3 24.5 -7.5t24.5 -20.5q0 -25 -43 -25q-24 0 -39 6l10 19q14 -7 31 -7q10 0 10 4q0 2 -24.5 7.5t-24.5 21.5q0 25 41 25q23 0 35 -6l-9 -19q-15 6 -26 6q-10 0 -10 -4zM553 555v72h31v-72h-31zM647 629q22 0 36.5 -11t14.5 -28q0 -15 -14.5 -26t-36.5 -11q-23 0 -37 11
t-14 26q0 17 14 28t37 11zM647 571q8 0 14.5 6t6.5 13q0 18 -21 18q-20 0 -20 -18q0 -8 5.5 -13.5t14.5 -5.5zM768 594v33h31v-72h-27l-33 33v-33h-30v72h24z" />
    <glyph glyph-name="germandbls" unicode="&#xdf;" 
d="M791 991q68 0 115.5 -39t47.5 -94v-330q0 -55 -47.5 -94t-115.5 -39h-601q-68 0 -115.5 39t-47.5 94v330q0 55 47.5 94t115.5 39h601zM920 528v330q0 43 -37.5 74t-91.5 31h-601q-53 0 -91 -31t-38 -74v-330q0 -43 38 -73.5t91 -30.5h601q54 0 91.5 30.5t37.5 73.5z
M252 750v-41h-51v125h125v-31h-74v-23h65v-30h-65zM395 741v-32h-53v125h76q32 0 50.5 -13t18.5 -35q0 -26 -28 -38l33 -39h-56l-26 32h-15zM395 801v-29h19q22 0 22 14q0 15 -22 15h-19zM637 741v-32h-129v125h127v-31h-76v-15h66v-30h-66v-17h78zM786 741v-32h-129v125
h127v-31h-75v-15h65v-30h-65v-17h77zM229 584l23 43h31l-39 -72h-29l-39 72h33zM315 582v-9h45v-18h-75v72h73v-19h-43v-8h39v-18h-39zM457 600q0 -15 -17 -22l19 -23h-33l-14 18h-9v-18h-30v72h43q41 0 41 -27zM414 592q12 0 12 8t-12 8h-11v-16h11zM496 606
q0 -3 24.5 -7.5t24.5 -20.5q0 -25 -43 -25q-24 0 -39 6l10 19q14 -7 31 -7q10 0 10 4q0 2 -24.5 7.5t-24.5 21.5q0 25 41 25q23 0 35 -6l-9 -19q-15 6 -26 6q-10 0 -10 -4zM553 555v72h31v-72h-31zM647 629q22 0 36.5 -11t14.5 -28q0 -15 -14.5 -26t-36.5 -11q-23 0 -37 11
t-14 26q0 17 14 28t37 11zM647 571q8 0 14.5 6t6.5 13q0 18 -21 18q-20 0 -20 -18q0 -8 5.5 -13.5t14.5 -5.5zM768 594v33h31v-72h-27l-33 33v-33h-30v72h24z" />
    <glyph glyph-name="agrave" unicode="&#xe0;" 
d="M791 991q68 0 115.5 -39t47.5 -94v-330q0 -55 -47.5 -94t-115.5 -39h-601q-68 0 -115.5 39t-47.5 94v330q0 55 47.5 94t115.5 39h601zM920 528v330q0 43 -37.5 74t-91.5 31h-601q-53 0 -91 -31t-38 -74v-330q0 -43 38 -73.5t91 -30.5h601q54 0 91.5 30.5t37.5 73.5z
M252 750v-41h-51v125h125v-31h-74v-23h65v-30h-65zM395 741v-32h-53v125h76q32 0 50.5 -13t18.5 -35q0 -26 -28 -38l33 -39h-56l-26 32h-15zM395 801v-29h19q22 0 22 14q0 15 -22 15h-19zM637 741v-32h-129v125h127v-31h-76v-15h66v-30h-66v-17h78zM786 741v-32h-129v125
h127v-31h-75v-15h65v-30h-65v-17h77zM229 584l23 43h31l-39 -72h-29l-39 72h33zM315 582v-9h45v-18h-75v72h73v-19h-43v-8h39v-18h-39zM457 600q0 -15 -17 -22l19 -23h-33l-14 18h-9v-18h-30v72h43q41 0 41 -27zM414 592q12 0 12 8t-12 8h-11v-16h11zM496 606
q0 -3 24.5 -7.5t24.5 -20.5q0 -25 -43 -25q-24 0 -39 6l10 19q14 -7 31 -7q10 0 10 4q0 2 -24.5 7.5t-24.5 21.5q0 25 41 25q23 0 35 -6l-9 -19q-15 6 -26 6q-10 0 -10 -4zM553 555v72h31v-72h-31zM647 629q22 0 36.5 -11t14.5 -28q0 -15 -14.5 -26t-36.5 -11q-23 0 -37 11
t-14 26q0 17 14 28t37 11zM647 571q8 0 14.5 6t6.5 13q0 18 -21 18q-20 0 -20 -18q0 -8 5.5 -13.5t14.5 -5.5zM768 594v33h31v-72h-27l-33 33v-33h-30v72h24z" />
    <glyph glyph-name="aacute" unicode="&#xe1;" 
d="M791 991q68 0 115.5 -39t47.5 -94v-330q0 -55 -47.5 -94t-115.5 -39h-601q-68 0 -115.5 39t-47.5 94v330q0 55 47.5 94t115.5 39h601zM920 528v330q0 43 -37.5 74t-91.5 31h-601q-53 0 -91 -31t-38 -74v-330q0 -43 38 -73.5t91 -30.5h601q54 0 91.5 30.5t37.5 73.5z
M252 750v-41h-51v125h125v-31h-74v-23h65v-30h-65zM395 741v-32h-53v125h76q32 0 50.5 -13t18.5 -35q0 -26 -28 -38l33 -39h-56l-26 32h-15zM395 801v-29h19q22 0 22 14q0 15 -22 15h-19zM637 741v-32h-129v125h127v-31h-76v-15h66v-30h-66v-17h78zM786 741v-32h-129v125
h127v-31h-75v-15h65v-30h-65v-17h77zM229 584l23 43h31l-39 -72h-29l-39 72h33zM315 582v-9h45v-18h-75v72h73v-19h-43v-8h39v-18h-39zM457 600q0 -15 -17 -22l19 -23h-33l-14 18h-9v-18h-30v72h43q41 0 41 -27zM414 592q12 0 12 8t-12 8h-11v-16h11zM496 606
q0 -3 24.5 -7.5t24.5 -20.5q0 -25 -43 -25q-24 0 -39 6l10 19q14 -7 31 -7q10 0 10 4q0 2 -24.5 7.5t-24.5 21.5q0 25 41 25q23 0 35 -6l-9 -19q-15 6 -26 6q-10 0 -10 -4zM553 555v72h31v-72h-31zM647 629q22 0 36.5 -11t14.5 -28q0 -15 -14.5 -26t-36.5 -11q-23 0 -37 11
t-14 26q0 17 14 28t37 11zM647 571q8 0 14.5 6t6.5 13q0 18 -21 18q-20 0 -20 -18q0 -8 5.5 -13.5t14.5 -5.5zM768 594v33h31v-72h-27l-33 33v-33h-30v72h24z" />
    <glyph glyph-name="acircumflex" unicode="&#xe2;" 
d="M791 991q68 0 115.5 -39t47.5 -94v-330q0 -55 -47.5 -94t-115.5 -39h-601q-68 0 -115.5 39t-47.5 94v330q0 55 47.5 94t115.5 39h601zM920 528v330q0 43 -37.5 74t-91.5 31h-601q-53 0 -91 -31t-38 -74v-330q0 -43 38 -73.5t91 -30.5h601q54 0 91.5 30.5t37.5 73.5z
M252 750v-41h-51v125h125v-31h-74v-23h65v-30h-65zM395 741v-32h-53v125h76q32 0 50.5 -13t18.5 -35q0 -26 -28 -38l33 -39h-56l-26 32h-15zM395 801v-29h19q22 0 22 14q0 15 -22 15h-19zM637 741v-32h-129v125h127v-31h-76v-15h66v-30h-66v-17h78zM786 741v-32h-129v125
h127v-31h-75v-15h65v-30h-65v-17h77zM229 584l23 43h31l-39 -72h-29l-39 72h33zM315 582v-9h45v-18h-75v72h73v-19h-43v-8h39v-18h-39zM457 600q0 -15 -17 -22l19 -23h-33l-14 18h-9v-18h-30v72h43q41 0 41 -27zM414 592q12 0 12 8t-12 8h-11v-16h11zM496 606
q0 -3 24.5 -7.5t24.5 -20.5q0 -25 -43 -25q-24 0 -39 6l10 19q14 -7 31 -7q10 0 10 4q0 2 -24.5 7.5t-24.5 21.5q0 25 41 25q23 0 35 -6l-9 -19q-15 6 -26 6q-10 0 -10 -4zM553 555v72h31v-72h-31zM647 629q22 0 36.5 -11t14.5 -28q0 -15 -14.5 -26t-36.5 -11q-23 0 -37 11
t-14 26q0 17 14 28t37 11zM647 571q8 0 14.5 6t6.5 13q0 18 -21 18q-20 0 -20 -18q0 -8 5.5 -13.5t14.5 -5.5zM768 594v33h31v-72h-27l-33 33v-33h-30v72h24z" />
    <glyph glyph-name="atilde" unicode="&#xe3;" 
d="M791 991q68 0 115.5 -39t47.5 -94v-330q0 -55 -47.5 -94t-115.5 -39h-601q-68 0 -115.5 39t-47.5 94v330q0 55 47.5 94t115.5 39h601zM920 528v330q0 43 -37.5 74t-91.5 31h-601q-53 0 -91 -31t-38 -74v-330q0 -43 38 -73.5t91 -30.5h601q54 0 91.5 30.5t37.5 73.5z
M252 750v-41h-51v125h125v-31h-74v-23h65v-30h-65zM395 741v-32h-53v125h76q32 0 50.5 -13t18.5 -35q0 -26 -28 -38l33 -39h-56l-26 32h-15zM395 801v-29h19q22 0 22 14q0 15 -22 15h-19zM637 741v-32h-129v125h127v-31h-76v-15h66v-30h-66v-17h78zM786 741v-32h-129v125
h127v-31h-75v-15h65v-30h-65v-17h77zM229 584l23 43h31l-39 -72h-29l-39 72h33zM315 582v-9h45v-18h-75v72h73v-19h-43v-8h39v-18h-39zM457 600q0 -15 -17 -22l19 -23h-33l-14 18h-9v-18h-30v72h43q41 0 41 -27zM414 592q12 0 12 8t-12 8h-11v-16h11zM496 606
q0 -3 24.5 -7.5t24.5 -20.5q0 -25 -43 -25q-24 0 -39 6l10 19q14 -7 31 -7q10 0 10 4q0 2 -24.5 7.5t-24.5 21.5q0 25 41 25q23 0 35 -6l-9 -19q-15 6 -26 6q-10 0 -10 -4zM553 555v72h31v-72h-31zM647 629q22 0 36.5 -11t14.5 -28q0 -15 -14.5 -26t-36.5 -11q-23 0 -37 11
t-14 26q0 17 14 28t37 11zM647 571q8 0 14.5 6t6.5 13q0 18 -21 18q-20 0 -20 -18q0 -8 5.5 -13.5t14.5 -5.5zM768 594v33h31v-72h-27l-33 33v-33h-30v72h24z" />
    <glyph glyph-name="adieresis" unicode="&#xe4;" 
d="M791 991q68 0 115.5 -39t47.5 -94v-330q0 -55 -47.5 -94t-115.5 -39h-601q-68 0 -115.5 39t-47.5 94v330q0 55 47.5 94t115.5 39h601zM920 528v330q0 43 -37.5 74t-91.5 31h-601q-53 0 -91 -31t-38 -74v-330q0 -43 38 -73.5t91 -30.5h601q54 0 91.5 30.5t37.5 73.5z
M252 750v-41h-51v125h125v-31h-74v-23h65v-30h-65zM395 741v-32h-53v125h76q32 0 50.5 -13t18.5 -35q0 -26 -28 -38l33 -39h-56l-26 32h-15zM395 801v-29h19q22 0 22 14q0 15 -22 15h-19zM637 741v-32h-129v125h127v-31h-76v-15h66v-30h-66v-17h78zM786 741v-32h-129v125
h127v-31h-75v-15h65v-30h-65v-17h77zM229 584l23 43h31l-39 -72h-29l-39 72h33zM315 582v-9h45v-18h-75v72h73v-19h-43v-8h39v-18h-39zM457 600q0 -15 -17 -22l19 -23h-33l-14 18h-9v-18h-30v72h43q41 0 41 -27zM414 592q12 0 12 8t-12 8h-11v-16h11zM496 606
q0 -3 24.5 -7.5t24.5 -20.5q0 -25 -43 -25q-24 0 -39 6l10 19q14 -7 31 -7q10 0 10 4q0 2 -24.5 7.5t-24.5 21.5q0 25 41 25q23 0 35 -6l-9 -19q-15 6 -26 6q-10 0 -10 -4zM553 555v72h31v-72h-31zM647 629q22 0 36.5 -11t14.5 -28q0 -15 -14.5 -26t-36.5 -11q-23 0 -37 11
t-14 26q0 17 14 28t37 11zM647 571q8 0 14.5 6t6.5 13q0 18 -21 18q-20 0 -20 -18q0 -8 5.5 -13.5t14.5 -5.5zM768 594v33h31v-72h-27l-33 33v-33h-30v72h24z" />
    <glyph glyph-name="aring" unicode="&#xe5;" 
d="M791 991q68 0 115.5 -39t47.5 -94v-330q0 -55 -47.5 -94t-115.5 -39h-601q-68 0 -115.5 39t-47.5 94v330q0 55 47.5 94t115.5 39h601zM920 528v330q0 43 -37.5 74t-91.5 31h-601q-53 0 -91 -31t-38 -74v-330q0 -43 38 -73.5t91 -30.5h601q54 0 91.5 30.5t37.5 73.5z
M252 750v-41h-51v125h125v-31h-74v-23h65v-30h-65zM395 741v-32h-53v125h76q32 0 50.5 -13t18.5 -35q0 -26 -28 -38l33 -39h-56l-26 32h-15zM395 801v-29h19q22 0 22 14q0 15 -22 15h-19zM637 741v-32h-129v125h127v-31h-76v-15h66v-30h-66v-17h78zM786 741v-32h-129v125
h127v-31h-75v-15h65v-30h-65v-17h77zM229 584l23 43h31l-39 -72h-29l-39 72h33zM315 582v-9h45v-18h-75v72h73v-19h-43v-8h39v-18h-39zM457 600q0 -15 -17 -22l19 -23h-33l-14 18h-9v-18h-30v72h43q41 0 41 -27zM414 592q12 0 12 8t-12 8h-11v-16h11zM496 606
q0 -3 24.5 -7.5t24.5 -20.5q0 -25 -43 -25q-24 0 -39 6l10 19q14 -7 31 -7q10 0 10 4q0 2 -24.5 7.5t-24.5 21.5q0 25 41 25q23 0 35 -6l-9 -19q-15 6 -26 6q-10 0 -10 -4zM553 555v72h31v-72h-31zM647 629q22 0 36.5 -11t14.5 -28q0 -15 -14.5 -26t-36.5 -11q-23 0 -37 11
t-14 26q0 17 14 28t37 11zM647 571q8 0 14.5 6t6.5 13q0 18 -21 18q-20 0 -20 -18q0 -8 5.5 -13.5t14.5 -5.5zM768 594v33h31v-72h-27l-33 33v-33h-30v72h24z" />
    <glyph glyph-name="ae" unicode="&#xe6;" 
d="M791 991q68 0 115.5 -39t47.5 -94v-330q0 -55 -47.5 -94t-115.5 -39h-601q-68 0 -115.5 39t-47.5 94v330q0 55 47.5 94t115.5 39h601zM920 528v330q0 43 -37.5 74t-91.5 31h-601q-53 0 -91 -31t-38 -74v-330q0 -43 38 -73.5t91 -30.5h601q54 0 91.5 30.5t37.5 73.5z
M252 750v-41h-51v125h125v-31h-74v-23h65v-30h-65zM395 741v-32h-53v125h76q32 0 50.5 -13t18.5 -35q0 -26 -28 -38l33 -39h-56l-26 32h-15zM395 801v-29h19q22 0 22 14q0 15 -22 15h-19zM637 741v-32h-129v125h127v-31h-76v-15h66v-30h-66v-17h78zM786 741v-32h-129v125
h127v-31h-75v-15h65v-30h-65v-17h77zM229 584l23 43h31l-39 -72h-29l-39 72h33zM315 582v-9h45v-18h-75v72h73v-19h-43v-8h39v-18h-39zM457 600q0 -15 -17 -22l19 -23h-33l-14 18h-9v-18h-30v72h43q41 0 41 -27zM414 592q12 0 12 8t-12 8h-11v-16h11zM496 606
q0 -3 24.5 -7.5t24.5 -20.5q0 -25 -43 -25q-24 0 -39 6l10 19q14 -7 31 -7q10 0 10 4q0 2 -24.5 7.5t-24.5 21.5q0 25 41 25q23 0 35 -6l-9 -19q-15 6 -26 6q-10 0 -10 -4zM553 555v72h31v-72h-31zM647 629q22 0 36.5 -11t14.5 -28q0 -15 -14.5 -26t-36.5 -11q-23 0 -37 11
t-14 26q0 17 14 28t37 11zM647 571q8 0 14.5 6t6.5 13q0 18 -21 18q-20 0 -20 -18q0 -8 5.5 -13.5t14.5 -5.5zM768 594v33h31v-72h-27l-33 33v-33h-30v72h24z" />
    <glyph glyph-name="ccedilla" unicode="&#xe7;" 
d="M791 991q68 0 115.5 -39t47.5 -94v-330q0 -55 -47.5 -94t-115.5 -39h-601q-68 0 -115.5 39t-47.5 94v330q0 55 47.5 94t115.5 39h601zM920 528v330q0 43 -37.5 74t-91.5 31h-601q-53 0 -91 -31t-38 -74v-330q0 -43 38 -73.5t91 -30.5h601q54 0 91.5 30.5t37.5 73.5z
M252 750v-41h-51v125h125v-31h-74v-23h65v-30h-65zM395 741v-32h-53v125h76q32 0 50.5 -13t18.5 -35q0 -26 -28 -38l33 -39h-56l-26 32h-15zM395 801v-29h19q22 0 22 14q0 15 -22 15h-19zM637 741v-32h-129v125h127v-31h-76v-15h66v-30h-66v-17h78zM786 741v-32h-129v125
h127v-31h-75v-15h65v-30h-65v-17h77zM229 584l23 43h31l-39 -72h-29l-39 72h33zM315 582v-9h45v-18h-75v72h73v-19h-43v-8h39v-18h-39zM457 600q0 -15 -17 -22l19 -23h-33l-14 18h-9v-18h-30v72h43q41 0 41 -27zM414 592q12 0 12 8t-12 8h-11v-16h11zM496 606
q0 -3 24.5 -7.5t24.5 -20.5q0 -25 -43 -25q-24 0 -39 6l10 19q14 -7 31 -7q10 0 10 4q0 2 -24.5 7.5t-24.5 21.5q0 25 41 25q23 0 35 -6l-9 -19q-15 6 -26 6q-10 0 -10 -4zM553 555v72h31v-72h-31zM647 629q22 0 36.5 -11t14.5 -28q0 -15 -14.5 -26t-36.5 -11q-23 0 -37 11
t-14 26q0 17 14 28t37 11zM647 571q8 0 14.5 6t6.5 13q0 18 -21 18q-20 0 -20 -18q0 -8 5.5 -13.5t14.5 -5.5zM768 594v33h31v-72h-27l-33 33v-33h-30v72h24z" />
    <glyph glyph-name="egrave" unicode="&#xe8;" 
d="M791 991q68 0 115.5 -39t47.5 -94v-330q0 -55 -47.5 -94t-115.5 -39h-601q-68 0 -115.5 39t-47.5 94v330q0 55 47.5 94t115.5 39h601zM920 528v330q0 43 -37.5 74t-91.5 31h-601q-53 0 -91 -31t-38 -74v-330q0 -43 38 -73.5t91 -30.5h601q54 0 91.5 30.5t37.5 73.5z
M252 750v-41h-51v125h125v-31h-74v-23h65v-30h-65zM395 741v-32h-53v125h76q32 0 50.5 -13t18.5 -35q0 -26 -28 -38l33 -39h-56l-26 32h-15zM395 801v-29h19q22 0 22 14q0 15 -22 15h-19zM637 741v-32h-129v125h127v-31h-76v-15h66v-30h-66v-17h78zM786 741v-32h-129v125
h127v-31h-75v-15h65v-30h-65v-17h77zM229 584l23 43h31l-39 -72h-29l-39 72h33zM315 582v-9h45v-18h-75v72h73v-19h-43v-8h39v-18h-39zM457 600q0 -15 -17 -22l19 -23h-33l-14 18h-9v-18h-30v72h43q41 0 41 -27zM414 592q12 0 12 8t-12 8h-11v-16h11zM496 606
q0 -3 24.5 -7.5t24.5 -20.5q0 -25 -43 -25q-24 0 -39 6l10 19q14 -7 31 -7q10 0 10 4q0 2 -24.5 7.5t-24.5 21.5q0 25 41 25q23 0 35 -6l-9 -19q-15 6 -26 6q-10 0 -10 -4zM553 555v72h31v-72h-31zM647 629q22 0 36.5 -11t14.5 -28q0 -15 -14.5 -26t-36.5 -11q-23 0 -37 11
t-14 26q0 17 14 28t37 11zM647 571q8 0 14.5 6t6.5 13q0 18 -21 18q-20 0 -20 -18q0 -8 5.5 -13.5t14.5 -5.5zM768 594v33h31v-72h-27l-33 33v-33h-30v72h24z" />
    <glyph glyph-name="eacute" unicode="&#xe9;" 
d="M791 991q68 0 115.5 -39t47.5 -94v-330q0 -55 -47.5 -94t-115.5 -39h-601q-68 0 -115.5 39t-47.5 94v330q0 55 47.5 94t115.5 39h601zM920 528v330q0 43 -37.5 74t-91.5 31h-601q-53 0 -91 -31t-38 -74v-330q0 -43 38 -73.5t91 -30.5h601q54 0 91.5 30.5t37.5 73.5z
M252 750v-41h-51v125h125v-31h-74v-23h65v-30h-65zM395 741v-32h-53v125h76q32 0 50.5 -13t18.5 -35q0 -26 -28 -38l33 -39h-56l-26 32h-15zM395 801v-29h19q22 0 22 14q0 15 -22 15h-19zM637 741v-32h-129v125h127v-31h-76v-15h66v-30h-66v-17h78zM786 741v-32h-129v125
h127v-31h-75v-15h65v-30h-65v-17h77zM229 584l23 43h31l-39 -72h-29l-39 72h33zM315 582v-9h45v-18h-75v72h73v-19h-43v-8h39v-18h-39zM457 600q0 -15 -17 -22l19 -23h-33l-14 18h-9v-18h-30v72h43q41 0 41 -27zM414 592q12 0 12 8t-12 8h-11v-16h11zM496 606
q0 -3 24.5 -7.5t24.5 -20.5q0 -25 -43 -25q-24 0 -39 6l10 19q14 -7 31 -7q10 0 10 4q0 2 -24.5 7.5t-24.5 21.5q0 25 41 25q23 0 35 -6l-9 -19q-15 6 -26 6q-10 0 -10 -4zM553 555v72h31v-72h-31zM647 629q22 0 36.5 -11t14.5 -28q0 -15 -14.5 -26t-36.5 -11q-23 0 -37 11
t-14 26q0 17 14 28t37 11zM647 571q8 0 14.5 6t6.5 13q0 18 -21 18q-20 0 -20 -18q0 -8 5.5 -13.5t14.5 -5.5zM768 594v33h31v-72h-27l-33 33v-33h-30v72h24z" />
    <glyph glyph-name="ecircumflex" unicode="&#xea;" 
d="M791 991q68 0 115.5 -39t47.5 -94v-330q0 -55 -47.5 -94t-115.5 -39h-601q-68 0 -115.5 39t-47.5 94v330q0 55 47.5 94t115.5 39h601zM920 528v330q0 43 -37.5 74t-91.5 31h-601q-53 0 -91 -31t-38 -74v-330q0 -43 38 -73.5t91 -30.5h601q54 0 91.5 30.5t37.5 73.5z
M252 750v-41h-51v125h125v-31h-74v-23h65v-30h-65zM395 741v-32h-53v125h76q32 0 50.5 -13t18.5 -35q0 -26 -28 -38l33 -39h-56l-26 32h-15zM395 801v-29h19q22 0 22 14q0 15 -22 15h-19zM637 741v-32h-129v125h127v-31h-76v-15h66v-30h-66v-17h78zM786 741v-32h-129v125
h127v-31h-75v-15h65v-30h-65v-17h77zM229 584l23 43h31l-39 -72h-29l-39 72h33zM315 582v-9h45v-18h-75v72h73v-19h-43v-8h39v-18h-39zM457 600q0 -15 -17 -22l19 -23h-33l-14 18h-9v-18h-30v72h43q41 0 41 -27zM414 592q12 0 12 8t-12 8h-11v-16h11zM496 606
q0 -3 24.5 -7.5t24.5 -20.5q0 -25 -43 -25q-24 0 -39 6l10 19q14 -7 31 -7q10 0 10 4q0 2 -24.5 7.5t-24.5 21.5q0 25 41 25q23 0 35 -6l-9 -19q-15 6 -26 6q-10 0 -10 -4zM553 555v72h31v-72h-31zM647 629q22 0 36.5 -11t14.5 -28q0 -15 -14.5 -26t-36.5 -11q-23 0 -37 11
t-14 26q0 17 14 28t37 11zM647 571q8 0 14.5 6t6.5 13q0 18 -21 18q-20 0 -20 -18q0 -8 5.5 -13.5t14.5 -5.5zM768 594v33h31v-72h-27l-33 33v-33h-30v72h24z" />
    <glyph glyph-name="edieresis" unicode="&#xeb;" 
d="M791 991q68 0 115.5 -39t47.5 -94v-330q0 -55 -47.5 -94t-115.5 -39h-601q-68 0 -115.5 39t-47.5 94v330q0 55 47.5 94t115.5 39h601zM920 528v330q0 43 -37.5 74t-91.5 31h-601q-53 0 -91 -31t-38 -74v-330q0 -43 38 -73.5t91 -30.5h601q54 0 91.5 30.5t37.5 73.5z
M252 750v-41h-51v125h125v-31h-74v-23h65v-30h-65zM395 741v-32h-53v125h76q32 0 50.5 -13t18.5 -35q0 -26 -28 -38l33 -39h-56l-26 32h-15zM395 801v-29h19q22 0 22 14q0 15 -22 15h-19zM637 741v-32h-129v125h127v-31h-76v-15h66v-30h-66v-17h78zM786 741v-32h-129v125
h127v-31h-75v-15h65v-30h-65v-17h77zM229 584l23 43h31l-39 -72h-29l-39 72h33zM315 582v-9h45v-18h-75v72h73v-19h-43v-8h39v-18h-39zM457 600q0 -15 -17 -22l19 -23h-33l-14 18h-9v-18h-30v72h43q41 0 41 -27zM414 592q12 0 12 8t-12 8h-11v-16h11zM496 606
q0 -3 24.5 -7.5t24.5 -20.5q0 -25 -43 -25q-24 0 -39 6l10 19q14 -7 31 -7q10 0 10 4q0 2 -24.5 7.5t-24.5 21.5q0 25 41 25q23 0 35 -6l-9 -19q-15 6 -26 6q-10 0 -10 -4zM553 555v72h31v-72h-31zM647 629q22 0 36.5 -11t14.5 -28q0 -15 -14.5 -26t-36.5 -11q-23 0 -37 11
t-14 26q0 17 14 28t37 11zM647 571q8 0 14.5 6t6.5 13q0 18 -21 18q-20 0 -20 -18q0 -8 5.5 -13.5t14.5 -5.5zM768 594v33h31v-72h-27l-33 33v-33h-30v72h24z" />
    <glyph glyph-name="igrave" unicode="&#xec;" 
d="M791 991q68 0 115.5 -39t47.5 -94v-330q0 -55 -47.5 -94t-115.5 -39h-601q-68 0 -115.5 39t-47.5 94v330q0 55 47.5 94t115.5 39h601zM920 528v330q0 43 -37.5 74t-91.5 31h-601q-53 0 -91 -31t-38 -74v-330q0 -43 38 -73.5t91 -30.5h601q54 0 91.5 30.5t37.5 73.5z
M252 750v-41h-51v125h125v-31h-74v-23h65v-30h-65zM395 741v-32h-53v125h76q32 0 50.5 -13t18.5 -35q0 -26 -28 -38l33 -39h-56l-26 32h-15zM395 801v-29h19q22 0 22 14q0 15 -22 15h-19zM637 741v-32h-129v125h127v-31h-76v-15h66v-30h-66v-17h78zM786 741v-32h-129v125
h127v-31h-75v-15h65v-30h-65v-17h77zM229 584l23 43h31l-39 -72h-29l-39 72h33zM315 582v-9h45v-18h-75v72h73v-19h-43v-8h39v-18h-39zM457 600q0 -15 -17 -22l19 -23h-33l-14 18h-9v-18h-30v72h43q41 0 41 -27zM414 592q12 0 12 8t-12 8h-11v-16h11zM496 606
q0 -3 24.5 -7.5t24.5 -20.5q0 -25 -43 -25q-24 0 -39 6l10 19q14 -7 31 -7q10 0 10 4q0 2 -24.5 7.5t-24.5 21.5q0 25 41 25q23 0 35 -6l-9 -19q-15 6 -26 6q-10 0 -10 -4zM553 555v72h31v-72h-31zM647 629q22 0 36.5 -11t14.5 -28q0 -15 -14.5 -26t-36.5 -11q-23 0 -37 11
t-14 26q0 17 14 28t37 11zM647 571q8 0 14.5 6t6.5 13q0 18 -21 18q-20 0 -20 -18q0 -8 5.5 -13.5t14.5 -5.5zM768 594v33h31v-72h-27l-33 33v-33h-30v72h24z" />
    <glyph glyph-name="iacute" unicode="&#xed;" 
d="M791 991q68 0 115.5 -39t47.5 -94v-330q0 -55 -47.5 -94t-115.5 -39h-601q-68 0 -115.5 39t-47.5 94v330q0 55 47.5 94t115.5 39h601zM920 528v330q0 43 -37.5 74t-91.5 31h-601q-53 0 -91 -31t-38 -74v-330q0 -43 38 -73.5t91 -30.5h601q54 0 91.5 30.5t37.5 73.5z
M252 750v-41h-51v125h125v-31h-74v-23h65v-30h-65zM395 741v-32h-53v125h76q32 0 50.5 -13t18.5 -35q0 -26 -28 -38l33 -39h-56l-26 32h-15zM395 801v-29h19q22 0 22 14q0 15 -22 15h-19zM637 741v-32h-129v125h127v-31h-76v-15h66v-30h-66v-17h78zM786 741v-32h-129v125
h127v-31h-75v-15h65v-30h-65v-17h77zM229 584l23 43h31l-39 -72h-29l-39 72h33zM315 582v-9h45v-18h-75v72h73v-19h-43v-8h39v-18h-39zM457 600q0 -15 -17 -22l19 -23h-33l-14 18h-9v-18h-30v72h43q41 0 41 -27zM414 592q12 0 12 8t-12 8h-11v-16h11zM496 606
q0 -3 24.5 -7.5t24.5 -20.5q0 -25 -43 -25q-24 0 -39 6l10 19q14 -7 31 -7q10 0 10 4q0 2 -24.5 7.5t-24.5 21.5q0 25 41 25q23 0 35 -6l-9 -19q-15 6 -26 6q-10 0 -10 -4zM553 555v72h31v-72h-31zM647 629q22 0 36.5 -11t14.5 -28q0 -15 -14.5 -26t-36.5 -11q-23 0 -37 11
t-14 26q0 17 14 28t37 11zM647 571q8 0 14.5 6t6.5 13q0 18 -21 18q-20 0 -20 -18q0 -8 5.5 -13.5t14.5 -5.5zM768 594v33h31v-72h-27l-33 33v-33h-30v72h24z" />
    <glyph glyph-name="icircumflex" unicode="&#xee;" 
d="M791 991q68 0 115.5 -39t47.5 -94v-330q0 -55 -47.5 -94t-115.5 -39h-601q-68 0 -115.5 39t-47.5 94v330q0 55 47.5 94t115.5 39h601zM920 528v330q0 43 -37.5 74t-91.5 31h-601q-53 0 -91 -31t-38 -74v-330q0 -43 38 -73.5t91 -30.5h601q54 0 91.5 30.5t37.5 73.5z
M252 750v-41h-51v125h125v-31h-74v-23h65v-30h-65zM395 741v-32h-53v125h76q32 0 50.5 -13t18.5 -35q0 -26 -28 -38l33 -39h-56l-26 32h-15zM395 801v-29h19q22 0 22 14q0 15 -22 15h-19zM637 741v-32h-129v125h127v-31h-76v-15h66v-30h-66v-17h78zM786 741v-32h-129v125
h127v-31h-75v-15h65v-30h-65v-17h77zM229 584l23 43h31l-39 -72h-29l-39 72h33zM315 582v-9h45v-18h-75v72h73v-19h-43v-8h39v-18h-39zM457 600q0 -15 -17 -22l19 -23h-33l-14 18h-9v-18h-30v72h43q41 0 41 -27zM414 592q12 0 12 8t-12 8h-11v-16h11zM496 606
q0 -3 24.5 -7.5t24.5 -20.5q0 -25 -43 -25q-24 0 -39 6l10 19q14 -7 31 -7q10 0 10 4q0 2 -24.5 7.5t-24.5 21.5q0 25 41 25q23 0 35 -6l-9 -19q-15 6 -26 6q-10 0 -10 -4zM553 555v72h31v-72h-31zM647 629q22 0 36.5 -11t14.5 -28q0 -15 -14.5 -26t-36.5 -11q-23 0 -37 11
t-14 26q0 17 14 28t37 11zM647 571q8 0 14.5 6t6.5 13q0 18 -21 18q-20 0 -20 -18q0 -8 5.5 -13.5t14.5 -5.5zM768 594v33h31v-72h-27l-33 33v-33h-30v72h24z" />
    <glyph glyph-name="idieresis" unicode="&#xef;" 
d="M791 991q68 0 115.5 -39t47.5 -94v-330q0 -55 -47.5 -94t-115.5 -39h-601q-68 0 -115.5 39t-47.5 94v330q0 55 47.5 94t115.5 39h601zM920 528v330q0 43 -37.5 74t-91.5 31h-601q-53 0 -91 -31t-38 -74v-330q0 -43 38 -73.5t91 -30.5h601q54 0 91.5 30.5t37.5 73.5z
M252 750v-41h-51v125h125v-31h-74v-23h65v-30h-65zM395 741v-32h-53v125h76q32 0 50.5 -13t18.5 -35q0 -26 -28 -38l33 -39h-56l-26 32h-15zM395 801v-29h19q22 0 22 14q0 15 -22 15h-19zM637 741v-32h-129v125h127v-31h-76v-15h66v-30h-66v-17h78zM786 741v-32h-129v125
h127v-31h-75v-15h65v-30h-65v-17h77zM229 584l23 43h31l-39 -72h-29l-39 72h33zM315 582v-9h45v-18h-75v72h73v-19h-43v-8h39v-18h-39zM457 600q0 -15 -17 -22l19 -23h-33l-14 18h-9v-18h-30v72h43q41 0 41 -27zM414 592q12 0 12 8t-12 8h-11v-16h11zM496 606
q0 -3 24.5 -7.5t24.5 -20.5q0 -25 -43 -25q-24 0 -39 6l10 19q14 -7 31 -7q10 0 10 4q0 2 -24.5 7.5t-24.5 21.5q0 25 41 25q23 0 35 -6l-9 -19q-15 6 -26 6q-10 0 -10 -4zM553 555v72h31v-72h-31zM647 629q22 0 36.5 -11t14.5 -28q0 -15 -14.5 -26t-36.5 -11q-23 0 -37 11
t-14 26q0 17 14 28t37 11zM647 571q8 0 14.5 6t6.5 13q0 18 -21 18q-20 0 -20 -18q0 -8 5.5 -13.5t14.5 -5.5zM768 594v33h31v-72h-27l-33 33v-33h-30v72h24z" />
    <glyph glyph-name="ntilde" unicode="&#xf1;" 
d="M791 991q68 0 115.5 -39t47.5 -94v-330q0 -55 -47.5 -94t-115.5 -39h-601q-68 0 -115.5 39t-47.5 94v330q0 55 47.5 94t115.5 39h601zM920 528v330q0 43 -37.5 74t-91.5 31h-601q-53 0 -91 -31t-38 -74v-330q0 -43 38 -73.5t91 -30.5h601q54 0 91.5 30.5t37.5 73.5z
M252 750v-41h-51v125h125v-31h-74v-23h65v-30h-65zM395 741v-32h-53v125h76q32 0 50.5 -13t18.5 -35q0 -26 -28 -38l33 -39h-56l-26 32h-15zM395 801v-29h19q22 0 22 14q0 15 -22 15h-19zM637 741v-32h-129v125h127v-31h-76v-15h66v-30h-66v-17h78zM786 741v-32h-129v125
h127v-31h-75v-15h65v-30h-65v-17h77zM229 584l23 43h31l-39 -72h-29l-39 72h33zM315 582v-9h45v-18h-75v72h73v-19h-43v-8h39v-18h-39zM457 600q0 -15 -17 -22l19 -23h-33l-14 18h-9v-18h-30v72h43q41 0 41 -27zM414 592q12 0 12 8t-12 8h-11v-16h11zM496 606
q0 -3 24.5 -7.5t24.5 -20.5q0 -25 -43 -25q-24 0 -39 6l10 19q14 -7 31 -7q10 0 10 4q0 2 -24.5 7.5t-24.5 21.5q0 25 41 25q23 0 35 -6l-9 -19q-15 6 -26 6q-10 0 -10 -4zM553 555v72h31v-72h-31zM647 629q22 0 36.5 -11t14.5 -28q0 -15 -14.5 -26t-36.5 -11q-23 0 -37 11
t-14 26q0 17 14 28t37 11zM647 571q8 0 14.5 6t6.5 13q0 18 -21 18q-20 0 -20 -18q0 -8 5.5 -13.5t14.5 -5.5zM768 594v33h31v-72h-27l-33 33v-33h-30v72h24z" />
    <glyph glyph-name="ograve" unicode="&#xf2;" 
d="M791 991q68 0 115.5 -39t47.5 -94v-330q0 -55 -47.5 -94t-115.5 -39h-601q-68 0 -115.5 39t-47.5 94v330q0 55 47.5 94t115.5 39h601zM920 528v330q0 43 -37.5 74t-91.5 31h-601q-53 0 -91 -31t-38 -74v-330q0 -43 38 -73.5t91 -30.5h601q54 0 91.5 30.5t37.5 73.5z
M252 750v-41h-51v125h125v-31h-74v-23h65v-30h-65zM395 741v-32h-53v125h76q32 0 50.5 -13t18.5 -35q0 -26 -28 -38l33 -39h-56l-26 32h-15zM395 801v-29h19q22 0 22 14q0 15 -22 15h-19zM637 741v-32h-129v125h127v-31h-76v-15h66v-30h-66v-17h78zM786 741v-32h-129v125
h127v-31h-75v-15h65v-30h-65v-17h77zM229 584l23 43h31l-39 -72h-29l-39 72h33zM315 582v-9h45v-18h-75v72h73v-19h-43v-8h39v-18h-39zM457 600q0 -15 -17 -22l19 -23h-33l-14 18h-9v-18h-30v72h43q41 0 41 -27zM414 592q12 0 12 8t-12 8h-11v-16h11zM496 606
q0 -3 24.5 -7.5t24.5 -20.5q0 -25 -43 -25q-24 0 -39 6l10 19q14 -7 31 -7q10 0 10 4q0 2 -24.5 7.5t-24.5 21.5q0 25 41 25q23 0 35 -6l-9 -19q-15 6 -26 6q-10 0 -10 -4zM553 555v72h31v-72h-31zM647 629q22 0 36.5 -11t14.5 -28q0 -15 -14.5 -26t-36.5 -11q-23 0 -37 11
t-14 26q0 17 14 28t37 11zM647 571q8 0 14.5 6t6.5 13q0 18 -21 18q-20 0 -20 -18q0 -8 5.5 -13.5t14.5 -5.5zM768 594v33h31v-72h-27l-33 33v-33h-30v72h24z" />
    <glyph glyph-name="oacute" unicode="&#xf3;" 
d="M791 991q68 0 115.5 -39t47.5 -94v-330q0 -55 -47.5 -94t-115.5 -39h-601q-68 0 -115.5 39t-47.5 94v330q0 55 47.5 94t115.5 39h601zM920 528v330q0 43 -37.5 74t-91.5 31h-601q-53 0 -91 -31t-38 -74v-330q0 -43 38 -73.5t91 -30.5h601q54 0 91.5 30.5t37.5 73.5z
M252 750v-41h-51v125h125v-31h-74v-23h65v-30h-65zM395 741v-32h-53v125h76q32 0 50.5 -13t18.5 -35q0 -26 -28 -38l33 -39h-56l-26 32h-15zM395 801v-29h19q22 0 22 14q0 15 -22 15h-19zM637 741v-32h-129v125h127v-31h-76v-15h66v-30h-66v-17h78zM786 741v-32h-129v125
h127v-31h-75v-15h65v-30h-65v-17h77zM229 584l23 43h31l-39 -72h-29l-39 72h33zM315 582v-9h45v-18h-75v72h73v-19h-43v-8h39v-18h-39zM457 600q0 -15 -17 -22l19 -23h-33l-14 18h-9v-18h-30v72h43q41 0 41 -27zM414 592q12 0 12 8t-12 8h-11v-16h11zM496 606
q0 -3 24.5 -7.5t24.5 -20.5q0 -25 -43 -25q-24 0 -39 6l10 19q14 -7 31 -7q10 0 10 4q0 2 -24.5 7.5t-24.5 21.5q0 25 41 25q23 0 35 -6l-9 -19q-15 6 -26 6q-10 0 -10 -4zM553 555v72h31v-72h-31zM647 629q22 0 36.5 -11t14.5 -28q0 -15 -14.5 -26t-36.5 -11q-23 0 -37 11
t-14 26q0 17 14 28t37 11zM647 571q8 0 14.5 6t6.5 13q0 18 -21 18q-20 0 -20 -18q0 -8 5.5 -13.5t14.5 -5.5zM768 594v33h31v-72h-27l-33 33v-33h-30v72h24z" />
    <glyph glyph-name="ocircumflex" unicode="&#xf4;" 
d="M791 991q68 0 115.5 -39t47.5 -94v-330q0 -55 -47.5 -94t-115.5 -39h-601q-68 0 -115.5 39t-47.5 94v330q0 55 47.5 94t115.5 39h601zM920 528v330q0 43 -37.5 74t-91.5 31h-601q-53 0 -91 -31t-38 -74v-330q0 -43 38 -73.5t91 -30.5h601q54 0 91.5 30.5t37.5 73.5z
M252 750v-41h-51v125h125v-31h-74v-23h65v-30h-65zM395 741v-32h-53v125h76q32 0 50.5 -13t18.5 -35q0 -26 -28 -38l33 -39h-56l-26 32h-15zM395 801v-29h19q22 0 22 14q0 15 -22 15h-19zM637 741v-32h-129v125h127v-31h-76v-15h66v-30h-66v-17h78zM786 741v-32h-129v125
h127v-31h-75v-15h65v-30h-65v-17h77zM229 584l23 43h31l-39 -72h-29l-39 72h33zM315 582v-9h45v-18h-75v72h73v-19h-43v-8h39v-18h-39zM457 600q0 -15 -17 -22l19 -23h-33l-14 18h-9v-18h-30v72h43q41 0 41 -27zM414 592q12 0 12 8t-12 8h-11v-16h11zM496 606
q0 -3 24.5 -7.5t24.5 -20.5q0 -25 -43 -25q-24 0 -39 6l10 19q14 -7 31 -7q10 0 10 4q0 2 -24.5 7.5t-24.5 21.5q0 25 41 25q23 0 35 -6l-9 -19q-15 6 -26 6q-10 0 -10 -4zM553 555v72h31v-72h-31zM647 629q22 0 36.5 -11t14.5 -28q0 -15 -14.5 -26t-36.5 -11q-23 0 -37 11
t-14 26q0 17 14 28t37 11zM647 571q8 0 14.5 6t6.5 13q0 18 -21 18q-20 0 -20 -18q0 -8 5.5 -13.5t14.5 -5.5zM768 594v33h31v-72h-27l-33 33v-33h-30v72h24z" />
    <glyph glyph-name="otilde" unicode="&#xf5;" 
d="M791 991q68 0 115.5 -39t47.5 -94v-330q0 -55 -47.5 -94t-115.5 -39h-601q-68 0 -115.5 39t-47.5 94v330q0 55 47.5 94t115.5 39h601zM920 528v330q0 43 -37.5 74t-91.5 31h-601q-53 0 -91 -31t-38 -74v-330q0 -43 38 -73.5t91 -30.5h601q54 0 91.5 30.5t37.5 73.5z
M252 750v-41h-51v125h125v-31h-74v-23h65v-30h-65zM395 741v-32h-53v125h76q32 0 50.5 -13t18.5 -35q0 -26 -28 -38l33 -39h-56l-26 32h-15zM395 801v-29h19q22 0 22 14q0 15 -22 15h-19zM637 741v-32h-129v125h127v-31h-76v-15h66v-30h-66v-17h78zM786 741v-32h-129v125
h127v-31h-75v-15h65v-30h-65v-17h77zM229 584l23 43h31l-39 -72h-29l-39 72h33zM315 582v-9h45v-18h-75v72h73v-19h-43v-8h39v-18h-39zM457 600q0 -15 -17 -22l19 -23h-33l-14 18h-9v-18h-30v72h43q41 0 41 -27zM414 592q12 0 12 8t-12 8h-11v-16h11zM496 606
q0 -3 24.5 -7.5t24.5 -20.5q0 -25 -43 -25q-24 0 -39 6l10 19q14 -7 31 -7q10 0 10 4q0 2 -24.5 7.5t-24.5 21.5q0 25 41 25q23 0 35 -6l-9 -19q-15 6 -26 6q-10 0 -10 -4zM553 555v72h31v-72h-31zM647 629q22 0 36.5 -11t14.5 -28q0 -15 -14.5 -26t-36.5 -11q-23 0 -37 11
t-14 26q0 17 14 28t37 11zM647 571q8 0 14.5 6t6.5 13q0 18 -21 18q-20 0 -20 -18q0 -8 5.5 -13.5t14.5 -5.5zM768 594v33h31v-72h-27l-33 33v-33h-30v72h24z" />
    <glyph glyph-name="odieresis" unicode="&#xf6;" 
d="M791 991q68 0 115.5 -39t47.5 -94v-330q0 -55 -47.5 -94t-115.5 -39h-601q-68 0 -115.5 39t-47.5 94v330q0 55 47.5 94t115.5 39h601zM920 528v330q0 43 -37.5 74t-91.5 31h-601q-53 0 -91 -31t-38 -74v-330q0 -43 38 -73.5t91 -30.5h601q54 0 91.5 30.5t37.5 73.5z
M252 750v-41h-51v125h125v-31h-74v-23h65v-30h-65zM395 741v-32h-53v125h76q32 0 50.5 -13t18.5 -35q0 -26 -28 -38l33 -39h-56l-26 32h-15zM395 801v-29h19q22 0 22 14q0 15 -22 15h-19zM637 741v-32h-129v125h127v-31h-76v-15h66v-30h-66v-17h78zM786 741v-32h-129v125
h127v-31h-75v-15h65v-30h-65v-17h77zM229 584l23 43h31l-39 -72h-29l-39 72h33zM315 582v-9h45v-18h-75v72h73v-19h-43v-8h39v-18h-39zM457 600q0 -15 -17 -22l19 -23h-33l-14 18h-9v-18h-30v72h43q41 0 41 -27zM414 592q12 0 12 8t-12 8h-11v-16h11zM496 606
q0 -3 24.5 -7.5t24.5 -20.5q0 -25 -43 -25q-24 0 -39 6l10 19q14 -7 31 -7q10 0 10 4q0 2 -24.5 7.5t-24.5 21.5q0 25 41 25q23 0 35 -6l-9 -19q-15 6 -26 6q-10 0 -10 -4zM553 555v72h31v-72h-31zM647 629q22 0 36.5 -11t14.5 -28q0 -15 -14.5 -26t-36.5 -11q-23 0 -37 11
t-14 26q0 17 14 28t37 11zM647 571q8 0 14.5 6t6.5 13q0 18 -21 18q-20 0 -20 -18q0 -8 5.5 -13.5t14.5 -5.5zM768 594v33h31v-72h-27l-33 33v-33h-30v72h24z" />
    <glyph glyph-name="divide" unicode="&#xf7;" 
d="M791 991q68 0 115.5 -39t47.5 -94v-330q0 -55 -47.5 -94t-115.5 -39h-601q-68 0 -115.5 39t-47.5 94v330q0 55 47.5 94t115.5 39h601zM920 528v330q0 43 -37.5 74t-91.5 31h-601q-53 0 -91 -31t-38 -74v-330q0 -43 38 -73.5t91 -30.5h601q54 0 91.5 30.5t37.5 73.5z
M252 750v-41h-51v125h125v-31h-74v-23h65v-30h-65zM395 741v-32h-53v125h76q32 0 50.5 -13t18.5 -35q0 -26 -28 -38l33 -39h-56l-26 32h-15zM395 801v-29h19q22 0 22 14q0 15 -22 15h-19zM637 741v-32h-129v125h127v-31h-76v-15h66v-30h-66v-17h78zM786 741v-32h-129v125
h127v-31h-75v-15h65v-30h-65v-17h77zM229 584l23 43h31l-39 -72h-29l-39 72h33zM315 582v-9h45v-18h-75v72h73v-19h-43v-8h39v-18h-39zM457 600q0 -15 -17 -22l19 -23h-33l-14 18h-9v-18h-30v72h43q41 0 41 -27zM414 592q12 0 12 8t-12 8h-11v-16h11zM496 606
q0 -3 24.5 -7.5t24.5 -20.5q0 -25 -43 -25q-24 0 -39 6l10 19q14 -7 31 -7q10 0 10 4q0 2 -24.5 7.5t-24.5 21.5q0 25 41 25q23 0 35 -6l-9 -19q-15 6 -26 6q-10 0 -10 -4zM553 555v72h31v-72h-31zM647 629q22 0 36.5 -11t14.5 -28q0 -15 -14.5 -26t-36.5 -11q-23 0 -37 11
t-14 26q0 17 14 28t37 11zM647 571q8 0 14.5 6t6.5 13q0 18 -21 18q-20 0 -20 -18q0 -8 5.5 -13.5t14.5 -5.5zM768 594v33h31v-72h-27l-33 33v-33h-30v72h24z" />
    <glyph glyph-name="oslash" unicode="&#xf8;" 
d="M791 991q68 0 115.5 -39t47.5 -94v-330q0 -55 -47.5 -94t-115.5 -39h-601q-68 0 -115.5 39t-47.5 94v330q0 55 47.5 94t115.5 39h601zM920 528v330q0 43 -37.5 74t-91.5 31h-601q-53 0 -91 -31t-38 -74v-330q0 -43 38 -73.5t91 -30.5h601q54 0 91.5 30.5t37.5 73.5z
M252 750v-41h-51v125h125v-31h-74v-23h65v-30h-65zM395 741v-32h-53v125h76q32 0 50.5 -13t18.5 -35q0 -26 -28 -38l33 -39h-56l-26 32h-15zM395 801v-29h19q22 0 22 14q0 15 -22 15h-19zM637 741v-32h-129v125h127v-31h-76v-15h66v-30h-66v-17h78zM786 741v-32h-129v125
h127v-31h-75v-15h65v-30h-65v-17h77zM229 584l23 43h31l-39 -72h-29l-39 72h33zM315 582v-9h45v-18h-75v72h73v-19h-43v-8h39v-18h-39zM457 600q0 -15 -17 -22l19 -23h-33l-14 18h-9v-18h-30v72h43q41 0 41 -27zM414 592q12 0 12 8t-12 8h-11v-16h11zM496 606
q0 -3 24.5 -7.5t24.5 -20.5q0 -25 -43 -25q-24 0 -39 6l10 19q14 -7 31 -7q10 0 10 4q0 2 -24.5 7.5t-24.5 21.5q0 25 41 25q23 0 35 -6l-9 -19q-15 6 -26 6q-10 0 -10 -4zM553 555v72h31v-72h-31zM647 629q22 0 36.5 -11t14.5 -28q0 -15 -14.5 -26t-36.5 -11q-23 0 -37 11
t-14 26q0 17 14 28t37 11zM647 571q8 0 14.5 6t6.5 13q0 18 -21 18q-20 0 -20 -18q0 -8 5.5 -13.5t14.5 -5.5zM768 594v33h31v-72h-27l-33 33v-33h-30v72h24z" />
    <glyph glyph-name="ugrave" unicode="&#xf9;" 
d="M791 991q68 0 115.5 -39t47.5 -94v-330q0 -55 -47.5 -94t-115.5 -39h-601q-68 0 -115.5 39t-47.5 94v330q0 55 47.5 94t115.5 39h601zM920 528v330q0 43 -37.5 74t-91.5 31h-601q-53 0 -91 -31t-38 -74v-330q0 -43 38 -73.5t91 -30.5h601q54 0 91.5 30.5t37.5 73.5z
M252 750v-41h-51v125h125v-31h-74v-23h65v-30h-65zM395 741v-32h-53v125h76q32 0 50.5 -13t18.5 -35q0 -26 -28 -38l33 -39h-56l-26 32h-15zM395 801v-29h19q22 0 22 14q0 15 -22 15h-19zM637 741v-32h-129v125h127v-31h-76v-15h66v-30h-66v-17h78zM786 741v-32h-129v125
h127v-31h-75v-15h65v-30h-65v-17h77zM229 584l23 43h31l-39 -72h-29l-39 72h33zM315 582v-9h45v-18h-75v72h73v-19h-43v-8h39v-18h-39zM457 600q0 -15 -17 -22l19 -23h-33l-14 18h-9v-18h-30v72h43q41 0 41 -27zM414 592q12 0 12 8t-12 8h-11v-16h11zM496 606
q0 -3 24.5 -7.5t24.5 -20.5q0 -25 -43 -25q-24 0 -39 6l10 19q14 -7 31 -7q10 0 10 4q0 2 -24.5 7.5t-24.5 21.5q0 25 41 25q23 0 35 -6l-9 -19q-15 6 -26 6q-10 0 -10 -4zM553 555v72h31v-72h-31zM647 629q22 0 36.5 -11t14.5 -28q0 -15 -14.5 -26t-36.5 -11q-23 0 -37 11
t-14 26q0 17 14 28t37 11zM647 571q8 0 14.5 6t6.5 13q0 18 -21 18q-20 0 -20 -18q0 -8 5.5 -13.5t14.5 -5.5zM768 594v33h31v-72h-27l-33 33v-33h-30v72h24z" />
    <glyph glyph-name="uacute" unicode="&#xfa;" 
d="M791 991q68 0 115.5 -39t47.5 -94v-330q0 -55 -47.5 -94t-115.5 -39h-601q-68 0 -115.5 39t-47.5 94v330q0 55 47.5 94t115.5 39h601zM920 528v330q0 43 -37.5 74t-91.5 31h-601q-53 0 -91 -31t-38 -74v-330q0 -43 38 -73.5t91 -30.5h601q54 0 91.5 30.5t37.5 73.5z
M252 750v-41h-51v125h125v-31h-74v-23h65v-30h-65zM395 741v-32h-53v125h76q32 0 50.5 -13t18.5 -35q0 -26 -28 -38l33 -39h-56l-26 32h-15zM395 801v-29h19q22 0 22 14q0 15 -22 15h-19zM637 741v-32h-129v125h127v-31h-76v-15h66v-30h-66v-17h78zM786 741v-32h-129v125
h127v-31h-75v-15h65v-30h-65v-17h77zM229 584l23 43h31l-39 -72h-29l-39 72h33zM315 582v-9h45v-18h-75v72h73v-19h-43v-8h39v-18h-39zM457 600q0 -15 -17 -22l19 -23h-33l-14 18h-9v-18h-30v72h43q41 0 41 -27zM414 592q12 0 12 8t-12 8h-11v-16h11zM496 606
q0 -3 24.5 -7.5t24.5 -20.5q0 -25 -43 -25q-24 0 -39 6l10 19q14 -7 31 -7q10 0 10 4q0 2 -24.5 7.5t-24.5 21.5q0 25 41 25q23 0 35 -6l-9 -19q-15 6 -26 6q-10 0 -10 -4zM553 555v72h31v-72h-31zM647 629q22 0 36.5 -11t14.5 -28q0 -15 -14.5 -26t-36.5 -11q-23 0 -37 11
t-14 26q0 17 14 28t37 11zM647 571q8 0 14.5 6t6.5 13q0 18 -21 18q-20 0 -20 -18q0 -8 5.5 -13.5t14.5 -5.5zM768 594v33h31v-72h-27l-33 33v-33h-30v72h24z" />
    <glyph glyph-name="ucircumflex" unicode="&#xfb;" 
d="M791 991q68 0 115.5 -39t47.5 -94v-330q0 -55 -47.5 -94t-115.5 -39h-601q-68 0 -115.5 39t-47.5 94v330q0 55 47.5 94t115.5 39h601zM920 528v330q0 43 -37.5 74t-91.5 31h-601q-53 0 -91 -31t-38 -74v-330q0 -43 38 -73.5t91 -30.5h601q54 0 91.5 30.5t37.5 73.5z
M252 750v-41h-51v125h125v-31h-74v-23h65v-30h-65zM395 741v-32h-53v125h76q32 0 50.5 -13t18.5 -35q0 -26 -28 -38l33 -39h-56l-26 32h-15zM395 801v-29h19q22 0 22 14q0 15 -22 15h-19zM637 741v-32h-129v125h127v-31h-76v-15h66v-30h-66v-17h78zM786 741v-32h-129v125
h127v-31h-75v-15h65v-30h-65v-17h77zM229 584l23 43h31l-39 -72h-29l-39 72h33zM315 582v-9h45v-18h-75v72h73v-19h-43v-8h39v-18h-39zM457 600q0 -15 -17 -22l19 -23h-33l-14 18h-9v-18h-30v72h43q41 0 41 -27zM414 592q12 0 12 8t-12 8h-11v-16h11zM496 606
q0 -3 24.5 -7.5t24.5 -20.5q0 -25 -43 -25q-24 0 -39 6l10 19q14 -7 31 -7q10 0 10 4q0 2 -24.5 7.5t-24.5 21.5q0 25 41 25q23 0 35 -6l-9 -19q-15 6 -26 6q-10 0 -10 -4zM553 555v72h31v-72h-31zM647 629q22 0 36.5 -11t14.5 -28q0 -15 -14.5 -26t-36.5 -11q-23 0 -37 11
t-14 26q0 17 14 28t37 11zM647 571q8 0 14.5 6t6.5 13q0 18 -21 18q-20 0 -20 -18q0 -8 5.5 -13.5t14.5 -5.5zM768 594v33h31v-72h-27l-33 33v-33h-30v72h24z" />
    <glyph glyph-name="udieresis" unicode="&#xfc;" 
d="M791 991q68 0 115.5 -39t47.5 -94v-330q0 -55 -47.5 -94t-115.5 -39h-601q-68 0 -115.5 39t-47.5 94v330q0 55 47.5 94t115.5 39h601zM920 528v330q0 43 -37.5 74t-91.5 31h-601q-53 0 -91 -31t-38 -74v-330q0 -43 38 -73.5t91 -30.5h601q54 0 91.5 30.5t37.5 73.5z
M252 750v-41h-51v125h125v-31h-74v-23h65v-30h-65zM395 741v-32h-53v125h76q32 0 50.5 -13t18.5 -35q0 -26 -28 -38l33 -39h-56l-26 32h-15zM395 801v-29h19q22 0 22 14q0 15 -22 15h-19zM637 741v-32h-129v125h127v-31h-76v-15h66v-30h-66v-17h78zM786 741v-32h-129v125
h127v-31h-75v-15h65v-30h-65v-17h77zM229 584l23 43h31l-39 -72h-29l-39 72h33zM315 582v-9h45v-18h-75v72h73v-19h-43v-8h39v-18h-39zM457 600q0 -15 -17 -22l19 -23h-33l-14 18h-9v-18h-30v72h43q41 0 41 -27zM414 592q12 0 12 8t-12 8h-11v-16h11zM496 606
q0 -3 24.5 -7.5t24.5 -20.5q0 -25 -43 -25q-24 0 -39 6l10 19q14 -7 31 -7q10 0 10 4q0 2 -24.5 7.5t-24.5 21.5q0 25 41 25q23 0 35 -6l-9 -19q-15 6 -26 6q-10 0 -10 -4zM553 555v72h31v-72h-31zM647 629q22 0 36.5 -11t14.5 -28q0 -15 -14.5 -26t-36.5 -11q-23 0 -37 11
t-14 26q0 17 14 28t37 11zM647 571q8 0 14.5 6t6.5 13q0 18 -21 18q-20 0 -20 -18q0 -8 5.5 -13.5t14.5 -5.5zM768 594v33h31v-72h-27l-33 33v-33h-30v72h24z" />
    <glyph glyph-name="yacute" unicode="&#xfd;" 
d="M791 991q68 0 115.5 -39t47.5 -94v-330q0 -55 -47.5 -94t-115.5 -39h-601q-68 0 -115.5 39t-47.5 94v330q0 55 47.5 94t115.5 39h601zM920 528v330q0 43 -37.5 74t-91.5 31h-601q-53 0 -91 -31t-38 -74v-330q0 -43 38 -73.5t91 -30.5h601q54 0 91.5 30.5t37.5 73.5z
M252 750v-41h-51v125h125v-31h-74v-23h65v-30h-65zM395 741v-32h-53v125h76q32 0 50.5 -13t18.5 -35q0 -26 -28 -38l33 -39h-56l-26 32h-15zM395 801v-29h19q22 0 22 14q0 15 -22 15h-19zM637 741v-32h-129v125h127v-31h-76v-15h66v-30h-66v-17h78zM786 741v-32h-129v125
h127v-31h-75v-15h65v-30h-65v-17h77zM229 584l23 43h31l-39 -72h-29l-39 72h33zM315 582v-9h45v-18h-75v72h73v-19h-43v-8h39v-18h-39zM457 600q0 -15 -17 -22l19 -23h-33l-14 18h-9v-18h-30v72h43q41 0 41 -27zM414 592q12 0 12 8t-12 8h-11v-16h11zM496 606
q0 -3 24.5 -7.5t24.5 -20.5q0 -25 -43 -25q-24 0 -39 6l10 19q14 -7 31 -7q10 0 10 4q0 2 -24.5 7.5t-24.5 21.5q0 25 41 25q23 0 35 -6l-9 -19q-15 6 -26 6q-10 0 -10 -4zM553 555v72h31v-72h-31zM647 629q22 0 36.5 -11t14.5 -28q0 -15 -14.5 -26t-36.5 -11q-23 0 -37 11
t-14 26q0 17 14 28t37 11zM647 571q8 0 14.5 6t6.5 13q0 18 -21 18q-20 0 -20 -18q0 -8 5.5 -13.5t14.5 -5.5zM768 594v33h31v-72h-27l-33 33v-33h-30v72h24z" />
    <glyph glyph-name="ydieresis" unicode="&#xff;" 
d="M791 991q68 0 115.5 -39t47.5 -94v-330q0 -55 -47.5 -94t-115.5 -39h-601q-68 0 -115.5 39t-47.5 94v330q0 55 47.5 94t115.5 39h601zM920 528v330q0 43 -37.5 74t-91.5 31h-601q-53 0 -91 -31t-38 -74v-330q0 -43 38 -73.5t91 -30.5h601q54 0 91.5 30.5t37.5 73.5z
M252 750v-41h-51v125h125v-31h-74v-23h65v-30h-65zM395 741v-32h-53v125h76q32 0 50.5 -13t18.5 -35q0 -26 -28 -38l33 -39h-56l-26 32h-15zM395 801v-29h19q22 0 22 14q0 15 -22 15h-19zM637 741v-32h-129v125h127v-31h-76v-15h66v-30h-66v-17h78zM786 741v-32h-129v125
h127v-31h-75v-15h65v-30h-65v-17h77zM229 584l23 43h31l-39 -72h-29l-39 72h33zM315 582v-9h45v-18h-75v72h73v-19h-43v-8h39v-18h-39zM457 600q0 -15 -17 -22l19 -23h-33l-14 18h-9v-18h-30v72h43q41 0 41 -27zM414 592q12 0 12 8t-12 8h-11v-16h11zM496 606
q0 -3 24.5 -7.5t24.5 -20.5q0 -25 -43 -25q-24 0 -39 6l10 19q14 -7 31 -7q10 0 10 4q0 2 -24.5 7.5t-24.5 21.5q0 25 41 25q23 0 35 -6l-9 -19q-15 6 -26 6q-10 0 -10 -4zM553 555v72h31v-72h-31zM647 629q22 0 36.5 -11t14.5 -28q0 -15 -14.5 -26t-36.5 -11q-23 0 -37 11
t-14 26q0 17 14 28t37 11zM647 571q8 0 14.5 6t6.5 13q0 18 -21 18q-20 0 -20 -18q0 -8 5.5 -13.5t14.5 -5.5zM768 594v33h31v-72h-27l-33 33v-33h-30v72h24z" />
    <glyph glyph-name="OE" unicode="&#x152;" 
d="M791 991q68 0 115.5 -39t47.5 -94v-330q0 -55 -47.5 -94t-115.5 -39h-601q-68 0 -115.5 39t-47.5 94v330q0 55 47.5 94t115.5 39h601zM920 528v330q0 43 -37.5 74t-91.5 31h-601q-53 0 -91 -31t-38 -74v-330q0 -43 38 -73.5t91 -30.5h601q54 0 91.5 30.5t37.5 73.5z
M252 750v-41h-51v125h125v-31h-74v-23h65v-30h-65zM395 741v-32h-53v125h76q32 0 50.5 -13t18.5 -35q0 -26 -28 -38l33 -39h-56l-26 32h-15zM395 801v-29h19q22 0 22 14q0 15 -22 15h-19zM637 741v-32h-129v125h127v-31h-76v-15h66v-30h-66v-17h78zM786 741v-32h-129v125
h127v-31h-75v-15h65v-30h-65v-17h77zM229 584l23 43h31l-39 -72h-29l-39 72h33zM315 582v-9h45v-18h-75v72h73v-19h-43v-8h39v-18h-39zM457 600q0 -15 -17 -22l19 -23h-33l-14 18h-9v-18h-30v72h43q41 0 41 -27zM414 592q12 0 12 8t-12 8h-11v-16h11zM496 606
q0 -3 24.5 -7.5t24.5 -20.5q0 -25 -43 -25q-24 0 -39 6l10 19q14 -7 31 -7q10 0 10 4q0 2 -24.5 7.5t-24.5 21.5q0 25 41 25q23 0 35 -6l-9 -19q-15 6 -26 6q-10 0 -10 -4zM553 555v72h31v-72h-31zM647 629q22 0 36.5 -11t14.5 -28q0 -15 -14.5 -26t-36.5 -11q-23 0 -37 11
t-14 26q0 17 14 28t37 11zM647 571q8 0 14.5 6t6.5 13q0 18 -21 18q-20 0 -20 -18q0 -8 5.5 -13.5t14.5 -5.5zM768 594v33h31v-72h-27l-33 33v-33h-30v72h24z" />
    <glyph glyph-name="oe" unicode="&#x153;" 
d="M791 991q68 0 115.5 -39t47.5 -94v-330q0 -55 -47.5 -94t-115.5 -39h-601q-68 0 -115.5 39t-47.5 94v330q0 55 47.5 94t115.5 39h601zM920 528v330q0 43 -37.5 74t-91.5 31h-601q-53 0 -91 -31t-38 -74v-330q0 -43 38 -73.5t91 -30.5h601q54 0 91.5 30.5t37.5 73.5z
M252 750v-41h-51v125h125v-31h-74v-23h65v-30h-65zM395 741v-32h-53v125h76q32 0 50.5 -13t18.5 -35q0 -26 -28 -38l33 -39h-56l-26 32h-15zM395 801v-29h19q22 0 22 14q0 15 -22 15h-19zM637 741v-32h-129v125h127v-31h-76v-15h66v-30h-66v-17h78zM786 741v-32h-129v125
h127v-31h-75v-15h65v-30h-65v-17h77zM229 584l23 43h31l-39 -72h-29l-39 72h33zM315 582v-9h45v-18h-75v72h73v-19h-43v-8h39v-18h-39zM457 600q0 -15 -17 -22l19 -23h-33l-14 18h-9v-18h-30v72h43q41 0 41 -27zM414 592q12 0 12 8t-12 8h-11v-16h11zM496 606
q0 -3 24.5 -7.5t24.5 -20.5q0 -25 -43 -25q-24 0 -39 6l10 19q14 -7 31 -7q10 0 10 4q0 2 -24.5 7.5t-24.5 21.5q0 25 41 25q23 0 35 -6l-9 -19q-15 6 -26 6q-10 0 -10 -4zM553 555v72h31v-72h-31zM647 629q22 0 36.5 -11t14.5 -28q0 -15 -14.5 -26t-36.5 -11q-23 0 -37 11
t-14 26q0 17 14 28t37 11zM647 571q8 0 14.5 6t6.5 13q0 18 -21 18q-20 0 -20 -18q0 -8 5.5 -13.5t14.5 -5.5zM768 594v33h31v-72h-27l-33 33v-33h-30v72h24z" />
    <glyph glyph-name="Scaron" unicode="&#x160;" 
d="M791 991q68 0 115.5 -39t47.5 -94v-330q0 -55 -47.5 -94t-115.5 -39h-601q-68 0 -115.5 39t-47.5 94v330q0 55 47.5 94t115.5 39h601zM920 528v330q0 43 -37.5 74t-91.5 31h-601q-53 0 -91 -31t-38 -74v-330q0 -43 38 -73.5t91 -30.5h601q54 0 91.5 30.5t37.5 73.5z
M252 750v-41h-51v125h125v-31h-74v-23h65v-30h-65zM395 741v-32h-53v125h76q32 0 50.5 -13t18.5 -35q0 -26 -28 -38l33 -39h-56l-26 32h-15zM395 801v-29h19q22 0 22 14q0 15 -22 15h-19zM637 741v-32h-129v125h127v-31h-76v-15h66v-30h-66v-17h78zM786 741v-32h-129v125
h127v-31h-75v-15h65v-30h-65v-17h77zM229 584l23 43h31l-39 -72h-29l-39 72h33zM315 582v-9h45v-18h-75v72h73v-19h-43v-8h39v-18h-39zM457 600q0 -15 -17 -22l19 -23h-33l-14 18h-9v-18h-30v72h43q41 0 41 -27zM414 592q12 0 12 8t-12 8h-11v-16h11zM496 606
q0 -3 24.5 -7.5t24.5 -20.5q0 -25 -43 -25q-24 0 -39 6l10 19q14 -7 31 -7q10 0 10 4q0 2 -24.5 7.5t-24.5 21.5q0 25 41 25q23 0 35 -6l-9 -19q-15 6 -26 6q-10 0 -10 -4zM553 555v72h31v-72h-31zM647 629q22 0 36.5 -11t14.5 -28q0 -15 -14.5 -26t-36.5 -11q-23 0 -37 11
t-14 26q0 17 14 28t37 11zM647 571q8 0 14.5 6t6.5 13q0 18 -21 18q-20 0 -20 -18q0 -8 5.5 -13.5t14.5 -5.5zM768 594v33h31v-72h-27l-33 33v-33h-30v72h24z" />
    <glyph glyph-name="scaron" unicode="&#x161;" 
d="M791 991q68 0 115.5 -39t47.5 -94v-330q0 -55 -47.5 -94t-115.5 -39h-601q-68 0 -115.5 39t-47.5 94v330q0 55 47.5 94t115.5 39h601zM920 528v330q0 43 -37.5 74t-91.5 31h-601q-53 0 -91 -31t-38 -74v-330q0 -43 38 -73.5t91 -30.5h601q54 0 91.5 30.5t37.5 73.5z
M252 750v-41h-51v125h125v-31h-74v-23h65v-30h-65zM395 741v-32h-53v125h76q32 0 50.5 -13t18.5 -35q0 -26 -28 -38l33 -39h-56l-26 32h-15zM395 801v-29h19q22 0 22 14q0 15 -22 15h-19zM637 741v-32h-129v125h127v-31h-76v-15h66v-30h-66v-17h78zM786 741v-32h-129v125
h127v-31h-75v-15h65v-30h-65v-17h77zM229 584l23 43h31l-39 -72h-29l-39 72h33zM315 582v-9h45v-18h-75v72h73v-19h-43v-8h39v-18h-39zM457 600q0 -15 -17 -22l19 -23h-33l-14 18h-9v-18h-30v72h43q41 0 41 -27zM414 592q12 0 12 8t-12 8h-11v-16h11zM496 606
q0 -3 24.5 -7.5t24.5 -20.5q0 -25 -43 -25q-24 0 -39 6l10 19q14 -7 31 -7q10 0 10 4q0 2 -24.5 7.5t-24.5 21.5q0 25 41 25q23 0 35 -6l-9 -19q-15 6 -26 6q-10 0 -10 -4zM553 555v72h31v-72h-31zM647 629q22 0 36.5 -11t14.5 -28q0 -15 -14.5 -26t-36.5 -11q-23 0 -37 11
t-14 26q0 17 14 28t37 11zM647 571q8 0 14.5 6t6.5 13q0 18 -21 18q-20 0 -20 -18q0 -8 5.5 -13.5t14.5 -5.5zM768 594v33h31v-72h-27l-33 33v-33h-30v72h24z" />
    <glyph glyph-name="Ydieresis" unicode="&#x178;" 
d="M791 991q68 0 115.5 -39t47.5 -94v-330q0 -55 -47.5 -94t-115.5 -39h-601q-68 0 -115.5 39t-47.5 94v330q0 55 47.5 94t115.5 39h601zM920 528v330q0 43 -37.5 74t-91.5 31h-601q-53 0 -91 -31t-38 -74v-330q0 -43 38 -73.5t91 -30.5h601q54 0 91.5 30.5t37.5 73.5z
M252 750v-41h-51v125h125v-31h-74v-23h65v-30h-65zM395 741v-32h-53v125h76q32 0 50.5 -13t18.5 -35q0 -26 -28 -38l33 -39h-56l-26 32h-15zM395 801v-29h19q22 0 22 14q0 15 -22 15h-19zM637 741v-32h-129v125h127v-31h-76v-15h66v-30h-66v-17h78zM786 741v-32h-129v125
h127v-31h-75v-15h65v-30h-65v-17h77zM229 584l23 43h31l-39 -72h-29l-39 72h33zM315 582v-9h45v-18h-75v72h73v-19h-43v-8h39v-18h-39zM457 600q0 -15 -17 -22l19 -23h-33l-14 18h-9v-18h-30v72h43q41 0 41 -27zM414 592q12 0 12 8t-12 8h-11v-16h11zM496 606
q0 -3 24.5 -7.5t24.5 -20.5q0 -25 -43 -25q-24 0 -39 6l10 19q14 -7 31 -7q10 0 10 4q0 2 -24.5 7.5t-24.5 21.5q0 25 41 25q23 0 35 -6l-9 -19q-15 6 -26 6q-10 0 -10 -4zM553 555v72h31v-72h-31zM647 629q22 0 36.5 -11t14.5 -28q0 -15 -14.5 -26t-36.5 -11q-23 0 -37 11
t-14 26q0 17 14 28t37 11zM647 571q8 0 14.5 6t6.5 13q0 18 -21 18q-20 0 -20 -18q0 -8 5.5 -13.5t14.5 -5.5zM768 594v33h31v-72h-27l-33 33v-33h-30v72h24z" />
    <glyph glyph-name="Zcaron" unicode="&#x17d;" 
d="M791 991q68 0 115.5 -39t47.5 -94v-330q0 -55 -47.5 -94t-115.5 -39h-601q-68 0 -115.5 39t-47.5 94v330q0 55 47.5 94t115.5 39h601zM920 528v330q0 43 -37.5 74t-91.5 31h-601q-53 0 -91 -31t-38 -74v-330q0 -43 38 -73.5t91 -30.5h601q54 0 91.5 30.5t37.5 73.5z
M252 750v-41h-51v125h125v-31h-74v-23h65v-30h-65zM395 741v-32h-53v125h76q32 0 50.5 -13t18.5 -35q0 -26 -28 -38l33 -39h-56l-26 32h-15zM395 801v-29h19q22 0 22 14q0 15 -22 15h-19zM637 741v-32h-129v125h127v-31h-76v-15h66v-30h-66v-17h78zM786 741v-32h-129v125
h127v-31h-75v-15h65v-30h-65v-17h77zM229 584l23 43h31l-39 -72h-29l-39 72h33zM315 582v-9h45v-18h-75v72h73v-19h-43v-8h39v-18h-39zM457 600q0 -15 -17 -22l19 -23h-33l-14 18h-9v-18h-30v72h43q41 0 41 -27zM414 592q12 0 12 8t-12 8h-11v-16h11zM496 606
q0 -3 24.5 -7.5t24.5 -20.5q0 -25 -43 -25q-24 0 -39 6l10 19q14 -7 31 -7q10 0 10 4q0 2 -24.5 7.5t-24.5 21.5q0 25 41 25q23 0 35 -6l-9 -19q-15 6 -26 6q-10 0 -10 -4zM553 555v72h31v-72h-31zM647 629q22 0 36.5 -11t14.5 -28q0 -15 -14.5 -26t-36.5 -11q-23 0 -37 11
t-14 26q0 17 14 28t37 11zM647 571q8 0 14.5 6t6.5 13q0 18 -21 18q-20 0 -20 -18q0 -8 5.5 -13.5t14.5 -5.5zM768 594v33h31v-72h-27l-33 33v-33h-30v72h24z" />
    <glyph glyph-name="zcaron" unicode="&#x17e;" 
d="M791 991q68 0 115.5 -39t47.5 -94v-330q0 -55 -47.5 -94t-115.5 -39h-601q-68 0 -115.5 39t-47.5 94v330q0 55 47.5 94t115.5 39h601zM920 528v330q0 43 -37.5 74t-91.5 31h-601q-53 0 -91 -31t-38 -74v-330q0 -43 38 -73.5t91 -30.5h601q54 0 91.5 30.5t37.5 73.5z
M252 750v-41h-51v125h125v-31h-74v-23h65v-30h-65zM395 741v-32h-53v125h76q32 0 50.5 -13t18.5 -35q0 -26 -28 -38l33 -39h-56l-26 32h-15zM395 801v-29h19q22 0 22 14q0 15 -22 15h-19zM637 741v-32h-129v125h127v-31h-76v-15h66v-30h-66v-17h78zM786 741v-32h-129v125
h127v-31h-75v-15h65v-30h-65v-17h77zM229 584l23 43h31l-39 -72h-29l-39 72h33zM315 582v-9h45v-18h-75v72h73v-19h-43v-8h39v-18h-39zM457 600q0 -15 -17 -22l19 -23h-33l-14 18h-9v-18h-30v72h43q41 0 41 -27zM414 592q12 0 12 8t-12 8h-11v-16h11zM496 606
q0 -3 24.5 -7.5t24.5 -20.5q0 -25 -43 -25q-24 0 -39 6l10 19q14 -7 31 -7q10 0 10 4q0 2 -24.5 7.5t-24.5 21.5q0 25 41 25q23 0 35 -6l-9 -19q-15 6 -26 6q-10 0 -10 -4zM553 555v72h31v-72h-31zM647 629q22 0 36.5 -11t14.5 -28q0 -15 -14.5 -26t-36.5 -11q-23 0 -37 11
t-14 26q0 17 14 28t37 11zM647 571q8 0 14.5 6t6.5 13q0 18 -21 18q-20 0 -20 -18q0 -8 5.5 -13.5t14.5 -5.5zM768 594v33h31v-72h-27l-33 33v-33h-30v72h24z" />
    <glyph glyph-name="mu-grek" unicode="&#x3bc;" 
d="M791 991q68 0 115.5 -39t47.5 -94v-330q0 -55 -47.5 -94t-115.5 -39h-601q-68 0 -115.5 39t-47.5 94v330q0 55 47.5 94t115.5 39h601zM920 528v330q0 43 -37.5 74t-91.5 31h-601q-53 0 -91 -31t-38 -74v-330q0 -43 38 -73.5t91 -30.5h601q54 0 91.5 30.5t37.5 73.5z
M252 750v-41h-51v125h125v-31h-74v-23h65v-30h-65zM395 741v-32h-53v125h76q32 0 50.5 -13t18.5 -35q0 -26 -28 -38l33 -39h-56l-26 32h-15zM395 801v-29h19q22 0 22 14q0 15 -22 15h-19zM637 741v-32h-129v125h127v-31h-76v-15h66v-30h-66v-17h78zM786 741v-32h-129v125
h127v-31h-75v-15h65v-30h-65v-17h77zM229 584l23 43h31l-39 -72h-29l-39 72h33zM315 582v-9h45v-18h-75v72h73v-19h-43v-8h39v-18h-39zM457 600q0 -15 -17 -22l19 -23h-33l-14 18h-9v-18h-30v72h43q41 0 41 -27zM414 592q12 0 12 8t-12 8h-11v-16h11zM496 606
q0 -3 24.5 -7.5t24.5 -20.5q0 -25 -43 -25q-24 0 -39 6l10 19q14 -7 31 -7q10 0 10 4q0 2 -24.5 7.5t-24.5 21.5q0 25 41 25q23 0 35 -6l-9 -19q-15 6 -26 6q-10 0 -10 -4zM553 555v72h31v-72h-31zM647 629q22 0 36.5 -11t14.5 -28q0 -15 -14.5 -26t-36.5 -11q-23 0 -37 11
t-14 26q0 17 14 28t37 11zM647 571q8 0 14.5 6t6.5 13q0 18 -21 18q-20 0 -20 -18q0 -8 5.5 -13.5t14.5 -5.5zM768 594v33h31v-72h-27l-33 33v-33h-30v72h24z" />
    <glyph glyph-name="bullet" unicode="&#x2022;" 
d="M791 991q68 0 115.5 -39t47.5 -94v-330q0 -55 -47.5 -94t-115.5 -39h-601q-68 0 -115.5 39t-47.5 94v330q0 55 47.5 94t115.5 39h601zM920 528v330q0 43 -37.5 74t-91.5 31h-601q-53 0 -91 -31t-38 -74v-330q0 -43 38 -73.5t91 -30.5h601q54 0 91.5 30.5t37.5 73.5z
M252 750v-41h-51v125h125v-31h-74v-23h65v-30h-65zM395 741v-32h-53v125h76q32 0 50.5 -13t18.5 -35q0 -26 -28 -38l33 -39h-56l-26 32h-15zM395 801v-29h19q22 0 22 14q0 15 -22 15h-19zM637 741v-32h-129v125h127v-31h-76v-15h66v-30h-66v-17h78zM786 741v-32h-129v125
h127v-31h-75v-15h65v-30h-65v-17h77zM229 584l23 43h31l-39 -72h-29l-39 72h33zM315 582v-9h45v-18h-75v72h73v-19h-43v-8h39v-18h-39zM457 600q0 -15 -17 -22l19 -23h-33l-14 18h-9v-18h-30v72h43q41 0 41 -27zM414 592q12 0 12 8t-12 8h-11v-16h11zM496 606
q0 -3 24.5 -7.5t24.5 -20.5q0 -25 -43 -25q-24 0 -39 6l10 19q14 -7 31 -7q10 0 10 4q0 2 -24.5 7.5t-24.5 21.5q0 25 41 25q23 0 35 -6l-9 -19q-15 6 -26 6q-10 0 -10 -4zM553 555v72h31v-72h-31zM647 629q22 0 36.5 -11t14.5 -28q0 -15 -14.5 -26t-36.5 -11q-23 0 -37 11
t-14 26q0 17 14 28t37 11zM647 571q8 0 14.5 6t6.5 13q0 18 -21 18q-20 0 -20 -18q0 -8 5.5 -13.5t14.5 -5.5zM768 594v33h31v-72h-27l-33 33v-33h-30v72h24z" />
    <glyph glyph-name="ellipsis" unicode="&#x2026;" 
d="M791 991q68 0 115.5 -39t47.5 -94v-330q0 -55 -47.5 -94t-115.5 -39h-601q-68 0 -115.5 39t-47.5 94v330q0 55 47.5 94t115.5 39h601zM920 528v330q0 43 -37.5 74t-91.5 31h-601q-53 0 -91 -31t-38 -74v-330q0 -43 38 -73.5t91 -30.5h601q54 0 91.5 30.5t37.5 73.5z
M252 750v-41h-51v125h125v-31h-74v-23h65v-30h-65zM395 741v-32h-53v125h76q32 0 50.5 -13t18.5 -35q0 -26 -28 -38l33 -39h-56l-26 32h-15zM395 801v-29h19q22 0 22 14q0 15 -22 15h-19zM637 741v-32h-129v125h127v-31h-76v-15h66v-30h-66v-17h78zM786 741v-32h-129v125
h127v-31h-75v-15h65v-30h-65v-17h77zM229 584l23 43h31l-39 -72h-29l-39 72h33zM315 582v-9h45v-18h-75v72h73v-19h-43v-8h39v-18h-39zM457 600q0 -15 -17 -22l19 -23h-33l-14 18h-9v-18h-30v72h43q41 0 41 -27zM414 592q12 0 12 8t-12 8h-11v-16h11zM496 606
q0 -3 24.5 -7.5t24.5 -20.5q0 -25 -43 -25q-24 0 -39 6l10 19q14 -7 31 -7q10 0 10 4q0 2 -24.5 7.5t-24.5 21.5q0 25 41 25q23 0 35 -6l-9 -19q-15 6 -26 6q-10 0 -10 -4zM553 555v72h31v-72h-31zM647 629q22 0 36.5 -11t14.5 -28q0 -15 -14.5 -26t-36.5 -11q-23 0 -37 11
t-14 26q0 17 14 28t37 11zM647 571q8 0 14.5 6t6.5 13q0 18 -21 18q-20 0 -20 -18q0 -8 5.5 -13.5t14.5 -5.5zM768 594v33h31v-72h-27l-33 33v-33h-30v72h24z" />
    <glyph glyph-name="guilsinglleft" unicode="&#x2039;" 
d="M791 991q68 0 115.5 -39t47.5 -94v-330q0 -55 -47.5 -94t-115.5 -39h-601q-68 0 -115.5 39t-47.5 94v330q0 55 47.5 94t115.5 39h601zM920 528v330q0 43 -37.5 74t-91.5 31h-601q-53 0 -91 -31t-38 -74v-330q0 -43 38 -73.5t91 -30.5h601q54 0 91.5 30.5t37.5 73.5z
M252 750v-41h-51v125h125v-31h-74v-23h65v-30h-65zM395 741v-32h-53v125h76q32 0 50.5 -13t18.5 -35q0 -26 -28 -38l33 -39h-56l-26 32h-15zM395 801v-29h19q22 0 22 14q0 15 -22 15h-19zM637 741v-32h-129v125h127v-31h-76v-15h66v-30h-66v-17h78zM786 741v-32h-129v125
h127v-31h-75v-15h65v-30h-65v-17h77zM229 584l23 43h31l-39 -72h-29l-39 72h33zM315 582v-9h45v-18h-75v72h73v-19h-43v-8h39v-18h-39zM457 600q0 -15 -17 -22l19 -23h-33l-14 18h-9v-18h-30v72h43q41 0 41 -27zM414 592q12 0 12 8t-12 8h-11v-16h11zM496 606
q0 -3 24.5 -7.5t24.5 -20.5q0 -25 -43 -25q-24 0 -39 6l10 19q14 -7 31 -7q10 0 10 4q0 2 -24.5 7.5t-24.5 21.5q0 25 41 25q23 0 35 -6l-9 -19q-15 6 -26 6q-10 0 -10 -4zM553 555v72h31v-72h-31zM647 629q22 0 36.5 -11t14.5 -28q0 -15 -14.5 -26t-36.5 -11q-23 0 -37 11
t-14 26q0 17 14 28t37 11zM647 571q8 0 14.5 6t6.5 13q0 18 -21 18q-20 0 -20 -18q0 -8 5.5 -13.5t14.5 -5.5zM768 594v33h31v-72h-27l-33 33v-33h-30v72h24z" />
    <glyph glyph-name="guilsinglright" unicode="&#x203a;" 
d="M791 991q68 0 115.5 -39t47.5 -94v-330q0 -55 -47.5 -94t-115.5 -39h-601q-68 0 -115.5 39t-47.5 94v330q0 55 47.5 94t115.5 39h601zM920 528v330q0 43 -37.5 74t-91.5 31h-601q-53 0 -91 -31t-38 -74v-330q0 -43 38 -73.5t91 -30.5h601q54 0 91.5 30.5t37.5 73.5z
M252 750v-41h-51v125h125v-31h-74v-23h65v-30h-65zM395 741v-32h-53v125h76q32 0 50.5 -13t18.5 -35q0 -26 -28 -38l33 -39h-56l-26 32h-15zM395 801v-29h19q22 0 22 14q0 15 -22 15h-19zM637 741v-32h-129v125h127v-31h-76v-15h66v-30h-66v-17h78zM786 741v-32h-129v125
h127v-31h-75v-15h65v-30h-65v-17h77zM229 584l23 43h31l-39 -72h-29l-39 72h33zM315 582v-9h45v-18h-75v72h73v-19h-43v-8h39v-18h-39zM457 600q0 -15 -17 -22l19 -23h-33l-14 18h-9v-18h-30v72h43q41 0 41 -27zM414 592q12 0 12 8t-12 8h-11v-16h11zM496 606
q0 -3 24.5 -7.5t24.5 -20.5q0 -25 -43 -25q-24 0 -39 6l10 19q14 -7 31 -7q10 0 10 4q0 2 -24.5 7.5t-24.5 21.5q0 25 41 25q23 0 35 -6l-9 -19q-15 6 -26 6q-10 0 -10 -4zM553 555v72h31v-72h-31zM647 629q22 0 36.5 -11t14.5 -28q0 -15 -14.5 -26t-36.5 -11q-23 0 -37 11
t-14 26q0 17 14 28t37 11zM647 571q8 0 14.5 6t6.5 13q0 18 -21 18q-20 0 -20 -18q0 -8 5.5 -13.5t14.5 -5.5zM768 594v33h31v-72h-27l-33 33v-33h-30v72h24z" />
    <glyph glyph-name="euro" unicode="&#x20ac;" 
d="M791 991q68 0 115.5 -39t47.5 -94v-330q0 -55 -47.5 -94t-115.5 -39h-601q-68 0 -115.5 39t-47.5 94v330q0 55 47.5 94t115.5 39h601zM920 528v330q0 43 -37.5 74t-91.5 31h-601q-53 0 -91 -31t-38 -74v-330q0 -43 38 -73.5t91 -30.5h601q54 0 91.5 30.5t37.5 73.5z
M252 750v-41h-51v125h125v-31h-74v-23h65v-30h-65zM395 741v-32h-53v125h76q32 0 50.5 -13t18.5 -35q0 -26 -28 -38l33 -39h-56l-26 32h-15zM395 801v-29h19q22 0 22 14q0 15 -22 15h-19zM637 741v-32h-129v125h127v-31h-76v-15h66v-30h-66v-17h78zM786 741v-32h-129v125
h127v-31h-75v-15h65v-30h-65v-17h77zM229 584l23 43h31l-39 -72h-29l-39 72h33zM315 582v-9h45v-18h-75v72h73v-19h-43v-8h39v-18h-39zM457 600q0 -15 -17 -22l19 -23h-33l-14 18h-9v-18h-30v72h43q41 0 41 -27zM414 592q12 0 12 8t-12 8h-11v-16h11zM496 606
q0 -3 24.5 -7.5t24.5 -20.5q0 -25 -43 -25q-24 0 -39 6l10 19q14 -7 31 -7q10 0 10 4q0 2 -24.5 7.5t-24.5 21.5q0 25 41 25q23 0 35 -6l-9 -19q-15 6 -26 6q-10 0 -10 -4zM553 555v72h31v-72h-31zM647 629q22 0 36.5 -11t14.5 -28q0 -15 -14.5 -26t-36.5 -11q-23 0 -37 11
t-14 26q0 17 14 28t37 11zM647 571q8 0 14.5 6t6.5 13q0 18 -21 18q-20 0 -20 -18q0 -8 5.5 -13.5t14.5 -5.5zM768 594v33h31v-72h-27l-33 33v-33h-30v72h24z" />
    <glyph glyph-name="trademark" unicode="&#x2122;" 
d="M791 991q68 0 115.5 -39t47.5 -94v-330q0 -55 -47.5 -94t-115.5 -39h-601q-68 0 -115.5 39t-47.5 94v330q0 55 47.5 94t115.5 39h601zM920 528v330q0 43 -37.5 74t-91.5 31h-601q-53 0 -91 -31t-38 -74v-330q0 -43 38 -73.5t91 -30.5h601q54 0 91.5 30.5t37.5 73.5z
M252 750v-41h-51v125h125v-31h-74v-23h65v-30h-65zM395 741v-32h-53v125h76q32 0 50.5 -13t18.5 -35q0 -26 -28 -38l33 -39h-56l-26 32h-15zM395 801v-29h19q22 0 22 14q0 15 -22 15h-19zM637 741v-32h-129v125h127v-31h-76v-15h66v-30h-66v-17h78zM786 741v-32h-129v125
h127v-31h-75v-15h65v-30h-65v-17h77zM229 584l23 43h31l-39 -72h-29l-39 72h33zM315 582v-9h45v-18h-75v72h73v-19h-43v-8h39v-18h-39zM457 600q0 -15 -17 -22l19 -23h-33l-14 18h-9v-18h-30v72h43q41 0 41 -27zM414 592q12 0 12 8t-12 8h-11v-16h11zM496 606
q0 -3 24.5 -7.5t24.5 -20.5q0 -25 -43 -25q-24 0 -39 6l10 19q14 -7 31 -7q10 0 10 4q0 2 -24.5 7.5t-24.5 21.5q0 25 41 25q23 0 35 -6l-9 -19q-15 6 -26 6q-10 0 -10 -4zM553 555v72h31v-72h-31zM647 629q22 0 36.5 -11t14.5 -28q0 -15 -14.5 -26t-36.5 -11q-23 0 -37 11
t-14 26q0 17 14 28t37 11zM647 571q8 0 14.5 6t6.5 13q0 18 -21 18q-20 0 -20 -18q0 -8 5.5 -13.5t14.5 -5.5zM768 594v33h31v-72h-27l-33 33v-33h-30v72h24z" />
    <glyph glyph-name="notequalto" unicode="&#x2260;" 
d="M791 991q68 0 115.5 -39t47.5 -94v-330q0 -55 -47.5 -94t-115.5 -39h-601q-68 0 -115.5 39t-47.5 94v330q0 55 47.5 94t115.5 39h601zM920 528v330q0 43 -37.5 74t-91.5 31h-601q-53 0 -91 -31t-38 -74v-330q0 -43 38 -73.5t91 -30.5h601q54 0 91.5 30.5t37.5 73.5z
M252 750v-41h-51v125h125v-31h-74v-23h65v-30h-65zM395 741v-32h-53v125h76q32 0 50.5 -13t18.5 -35q0 -26 -28 -38l33 -39h-56l-26 32h-15zM395 801v-29h19q22 0 22 14q0 15 -22 15h-19zM637 741v-32h-129v125h127v-31h-76v-15h66v-30h-66v-17h78zM786 741v-32h-129v125
h127v-31h-75v-15h65v-30h-65v-17h77zM229 584l23 43h31l-39 -72h-29l-39 72h33zM315 582v-9h45v-18h-75v72h73v-19h-43v-8h39v-18h-39zM457 600q0 -15 -17 -22l19 -23h-33l-14 18h-9v-18h-30v72h43q41 0 41 -27zM414 592q12 0 12 8t-12 8h-11v-16h11zM496 606
q0 -3 24.5 -7.5t24.5 -20.5q0 -25 -43 -25q-24 0 -39 6l10 19q14 -7 31 -7q10 0 10 4q0 2 -24.5 7.5t-24.5 21.5q0 25 41 25q23 0 35 -6l-9 -19q-15 6 -26 6q-10 0 -10 -4zM553 555v72h31v-72h-31zM647 629q22 0 36.5 -11t14.5 -28q0 -15 -14.5 -26t-36.5 -11q-23 0 -37 11
t-14 26q0 17 14 28t37 11zM647 571q8 0 14.5 6t6.5 13q0 18 -21 18q-20 0 -20 -18q0 -8 5.5 -13.5t14.5 -5.5zM768 594v33h31v-72h-27l-33 33v-33h-30v72h24z" />
    <glyph glyph-name="a.alt1" unicode="&#xf000;" horiz-adv-x="1056" 
d="M27 270q-24 77 4 252q24 193 141 357q113 156 320 196q45 8 135 12h29.5t28.5 0.5t28.5 4t29.5 10.5q3 2 25 2h176q37 -2 45 -10t8 -45q-1 -43 -3 -119.5t-3 -140t0 -119.5q1 -86 7 -244.5t8 -218.5q2 -51 2 -156q0 -28 -9.5 -39t-35.5 -10q-27 1 -77 -1.5t-90.5 -0.5
t-76.5 14q-2 3 -24 0.5t-27 -2.5q-214 -10 -373 13q-105 15 -169 76t-99 169zM715 92q-6 457 -15 920q-16 0 -22 -2q-142 -40 -229 -162q-165 -230 -136 -551q7 -77 61 -142.5t140 -72.5q46 -2 66.5 -1t67 5.5t67.5 5.5z" />
    <glyph glyph-name="c.alt1" unicode="&#xf001;" horiz-adv-x="913" 
d="M625 887q-17 82 -74 121q-128 -87 -176 -207q-109 -270 -37 -508q83 -282 346 -346q26 -6 256 -49q19 -3 41 0q50 1 150.5 3t150.5 3q15 0 23 -1t18 -6.5t16 -17.5q-8 -31 -53 -35q-9 -1 -60.5 -5t-64 -5t-59 -4t-64 -3.5t-59.5 -2t-64 -0.5t-59 2t-64 4t-59.5 7.5
t-62.5 10.5q-25 5 -72 14t-85 17t-71 17q-335 88 -407 450q-38 203 39 430q46 144 182 254q88 70 203 70h196q117 -3 190 -74t77 -188q0 -36 -33 -39q-147 0 -223 2q-7 0 -16.5 9t-14.5 19q-3 10 -6 31t-4 27z" />
    <glyph glyph-name="f.alt1" unicode="&#xf002;" horiz-adv-x="909" 
d="M926 1004q2 -25 -7 -37t-32 -13q-116 -3 -209 2q-24 0 -32 11t-11 43q-8 120 -21 190q-14 85 -65 139q-122 -92 -172 -249q-35 -105 -41 -230q46 1 138 2t138 2q30 0 64 -6q3 -1 5.5 -5t6.5 -12t6 -10q-16 -21 -18 -22q-27 -8 -60 -8q-45 -1 -133.5 -2t-132.5 -2h-14
q1 -98 7 -277t7 -237q8 -258 8 -385q0 -136 -88 -285q-85 -150 -258 -156q-126 -5 -280 8q-116 12 -187.5 104t-64.5 224q3 37 41 37q35 0 104 -1t103 -1q39 0 39 -37q0 -12 1 -25t2.5 -28.5t2.5 -24.5q11 -81 77 -143q28 -25 45.5 -25t43.5 27q85 91 116 217q25 108 17 305
q-22 484 -27 654q-6 167 39 339q40 137 139 242q98 107 250 107q34 0 101.5 -1t101.5 -1q140 -3 192 -125q28 -70 45 -154q9 -57 13 -151z" />
    <glyph glyph-name="g.alt1" unicode="&#xf003;" horiz-adv-x="1030" 
d="M352 39v143q-58 18 -108 35q-105 37 -170 145q-51 86 -61 178t15 170t71 142t106 106q22 15 66 41t59 35q-4 2 -13.5 7.5t-13.5 7.5q-79 36 -82 129q-3 91 78 131q68 28 135 37q25 3 54.5 3t65.5 -1.5t56 -1.5h21q1 0 7.5 -1.5t8.5 -2t7.5 -2t7.5 -3.5t5.5 -5t5 -6.5
t1.5 -8.5q0 -6 -2 -10t-4 -6.5t-7.5 -5t-8 -3t-9.5 -2.5t-8 -2q-7 -2 -28.5 -7t-31.5 -9q-32 -12 -49.5 -38.5t-15.5 -57.5q3 -73 78 -91q54 -11 94 -8q207 3 293 -198q61 -138 29.5 -309t-134.5 -271q-88 -84 -188 -106q-33 -11 -41 -13v-139q26 -3 96 -12
q90 -15 148 -67.5t73 -131.5q15 -86 -19 -161t-110 -124q-100 -62 -215 -65q-176 -8 -274 8q-233 38 -215 291q3 27 29 33q16 4 24 4q33 0 97.5 -1t95.5 -1q31 -1 38 -10t7 -42q0 -44 10 -102q0 -11 14 -39q28 -45 57.5 -51.5t73.5 22.5q63 41 88.5 105t8.5 135
q-15 61 -61 98.5t-111 42.5q-14 1 -41 1t-41 1q-37 3 -49.5 15.5t-12.5 48.5zM727 702q-7 180 -131 283q-7 -3 -78 -37q-27 -14 -63 -43q-69 -55 -110.5 -134.5t-46 -181t57.5 -204.5q48 -74 115 -111q27 -12 53 5q106 68 146 155q60 126 57 268z" />
    <glyph glyph-name="h.alt1" unicode="&#xf004;" horiz-adv-x="997" 
d="M344 1042q0 -3 4 -49q158 0 234 -2q63 0 112 -14q147 -43 195 -193q33 -108 41 -202q10 -112 33 -457q14 -183 69 -297q66 -134 211 -143q3 0 12.5 -0.5t14 -1.5t12 -3.5t12.5 -8t9 -13.5q-4 -12 -10 -19.5t-18.5 -10t-18 -3t-21.5 -0.5q-35 0 -74.5 1t-88 2.5t-75.5 2.5
q-65 3 -141 50q-63 42 -96 106q-72 134 -86 344q-22 330 -33 451q-7 68 -33 174q-24 94 -112 151q-68 41 -146 17q-2 -14 -2 -41q0 -138 1 -414t1 -414q0 -28 -8.5 -38.5t-34.5 -10.5q-101 -3 -203 0q-24 1 -32.5 10.5t-10.5 36.5v21q-2 210 -6 628.5t-6 628.5q0 70 6 82
q8 17 48 17q11 1 44 0h121q51 0 60.5 -9.5t11.5 -60.5q0 -106 4 -318z" />
    <glyph glyph-name="k.alt1" unicode="&#xf005;" horiz-adv-x="899" 
d="M354 870q0 -20 2 -43q67 46 110 89t66 100q15 36 24 41.5t50 5.5q19 0 54.5 0.5t65.5 0.5t56 -1q35 0 43 -12.5t-4 -44.5q-54 -137 -215 -226q-8 -4 -24.5 -12t-24.5 -12l-4 -8q25 -15 33 -19q115 -62 172 -176q80 -158 106 -371q14 -121 31 -207q20 -110 119 -196
q16 -14 38.5 -25t53 -23t45.5 -20q5 -2 23 -6.5t26 -9.5q6 -1 11.5 -9t5.5 -14q0 -5 -6.5 -12t-12.5 -8q-21 -6 -45 -6q-71 -3 -141 0q-159 6 -264 90.5t-142 236.5q-8 32 -13.5 67.5t-11 85.5t-8.5 69q-27 198 -102 342q-44 86 -113 125q-4 -32 -4 -41q-3 -89 -9 -267.5
t-9 -267.5q0 -6 -1 -18t-1 -17q-3 -28 -12 -37t-37 -10h-189q-34 1 -43.5 12t-7.5 45q15 236 18.5 534.5t-0.5 534.5q-2 80 -6 236q0 41 10.5 51t51.5 10h162q46 0 55.5 -9t9.5 -54q4 -332 8 -494z" />
    <glyph glyph-name="s.alt1" unicode="&#xf006;" horiz-adv-x="901" 
d="M-164 -262v8h-162q-14 0 -18.5 0.5t-14.5 2.5t-14 8.5t-4 17.5q0 8 2.5 13.5t6 9t10 5.5t10 2.5t12 1t10.5 0.5q40 3 121.5 6.5t122.5 6.5q141 13 272 30q108 16 224 84q187 112 172 336q-1 22 -15 92q-25 99 -112 142q-43 22 -140 55q-10 3 -60 17.5t-75 23.5
q-134 57 -174 168q-37 110 37 199q61 71 139 88q82 19 185 26q29 2 62.5 2t74.5 -1t63 -1q96 -2 152 -41.5t94 -136.5q26 -70 23 -168q-2 -23 -11 -32t-32 -11q-135 0 -203 2q-26 0 -34 9.5t-11 39.5q-4 81 -10 119q-11 58 -58 115q-23 25 -36.5 27.5t-45.5 -11.5
q-56 -27 -86 -73t-24 -99q6 -73 63 -121q48 -43 123 -65q22 -6 65 -18.5t64 -18.5q9 -3 26.5 -9t26.5 -9q208 -79 217 -316q11 -274 -253 -403q-137 -67 -269 -78q-258 -24 -516 -45z" />
    <glyph glyph-name="l.alt1" unicode="&#xf007;" horiz-adv-x="466" 
d="M991 -102q27 -16 33 -21q-2 -2 -12 -14.5t-17 -16.5q-33 -10 -65 -10q-25 -1 -86 -3t-94 -2.5t-83.5 -0.5t-94 2.5t-85.5 7.5q-116 17 -202 62q-183 95 -215 313q-17 122 -21 299q-4 121 4 858v41q3 35 37 35q72 2 213 2q24 -1 31.5 -11t7.5 -38q-4 -242 -4 -363
q0 -444 4 -665q2 -81 27 -197q33 -138 142.5 -209t246.5 -69q145 0 217 2q12 0 16 -2z" />
    <glyph glyph-name="nonmarkingreturn.1" horiz-adv-x="0" 
 />
    </font>
</defs>
</svg>
